$ demo_cavity.bdf -- a small vibroacoustic deck for the pyCAFE examples
$ 0.40 x 0.30 x 0.50 m air cavity (CHEXA, PID 101) with a 2 mm aluminium
$ plate (CQUAD4, PID 202) on its z = 0 face, clamped all around (SPC1 10).
BEGIN BULK
GRID    1               0.0000  0.0000  0.0000  
GRID    2               0.0667  0.0000  0.0000  
GRID    3               0.1333  0.0000  0.0000  
GRID    4               0.2000  0.0000  0.0000  
GRID    5               0.2667  0.0000  0.0000  
GRID    6               0.3333  0.0000  0.0000  
GRID    7               0.4000  0.0000  0.0000  
GRID    8               0.0000  0.0600  0.0000  
GRID    9               0.0667  0.0600  0.0000  
GRID    10              0.1333  0.0600  0.0000  
GRID    11              0.2000  0.0600  0.0000  
GRID    12              0.2667  0.0600  0.0000  
GRID    13              0.3333  0.0600  0.0000  
GRID    14              0.4000  0.0600  0.0000  
GRID    15              0.0000  0.1200  0.0000  
GRID    16              0.0667  0.1200  0.0000  
GRID    17              0.1333  0.1200  0.0000  
GRID    18              0.2000  0.1200  0.0000  
GRID    19              0.2667  0.1200  0.0000  
GRID    20              0.3333  0.1200  0.0000  
GRID    21              0.4000  0.1200  0.0000  
GRID    22              0.0000  0.1800  0.0000  
GRID    23              0.0667  0.1800  0.0000  
GRID    24              0.1333  0.1800  0.0000  
GRID    25              0.2000  0.1800  0.0000  
GRID    26              0.2667  0.1800  0.0000  
GRID    27              0.3333  0.1800  0.0000  
GRID    28              0.4000  0.1800  0.0000  
GRID    29              0.0000  0.2400  0.0000  
GRID    30              0.0667  0.2400  0.0000  
GRID    31              0.1333  0.2400  0.0000  
GRID    32              0.2000  0.2400  0.0000  
GRID    33              0.2667  0.2400  0.0000  
GRID    34              0.3333  0.2400  0.0000  
GRID    35              0.4000  0.2400  0.0000  
GRID    36              0.0000  0.3000  0.0000  
GRID    37              0.0667  0.3000  0.0000  
GRID    38              0.1333  0.3000  0.0000  
GRID    39              0.2000  0.3000  0.0000  
GRID    40              0.2667  0.3000  0.0000  
GRID    41              0.3333  0.3000  0.0000  
GRID    42              0.4000  0.3000  0.0000  
GRID    43              0.0000  0.0000  0.0625  
GRID    44              0.0667  0.0000  0.0625  
GRID    45              0.1333  0.0000  0.0625  
GRID    46              0.2000  0.0000  0.0625  
GRID    47              0.2667  0.0000  0.0625  
GRID    48              0.3333  0.0000  0.0625  
GRID    49              0.4000  0.0000  0.0625  
GRID    50              0.0000  0.0600  0.0625  
GRID    51              0.0667  0.0600  0.0625  
GRID    52              0.1333  0.0600  0.0625  
GRID    53              0.2000  0.0600  0.0625  
GRID    54              0.2667  0.0600  0.0625  
GRID    55              0.3333  0.0600  0.0625  
GRID    56              0.4000  0.0600  0.0625  
GRID    57              0.0000  0.1200  0.0625  
GRID    58              0.0667  0.1200  0.0625  
GRID    59              0.1333  0.1200  0.0625  
GRID    60              0.2000  0.1200  0.0625  
GRID    61              0.2667  0.1200  0.0625  
GRID    62              0.3333  0.1200  0.0625  
GRID    63              0.4000  0.1200  0.0625  
GRID    64              0.0000  0.1800  0.0625  
GRID    65              0.0667  0.1800  0.0625  
GRID    66              0.1333  0.1800  0.0625  
GRID    67              0.2000  0.1800  0.0625  
GRID    68              0.2667  0.1800  0.0625  
GRID    69              0.3333  0.1800  0.0625  
GRID    70              0.4000  0.1800  0.0625  
GRID    71              0.0000  0.2400  0.0625  
GRID    72              0.0667  0.2400  0.0625  
GRID    73              0.1333  0.2400  0.0625  
GRID    74              0.2000  0.2400  0.0625  
GRID    75              0.2667  0.2400  0.0625  
GRID    76              0.3333  0.2400  0.0625  
GRID    77              0.4000  0.2400  0.0625  
GRID    78              0.0000  0.3000  0.0625  
GRID    79              0.0667  0.3000  0.0625  
GRID    80              0.1333  0.3000  0.0625  
GRID    81              0.2000  0.3000  0.0625  
GRID    82              0.2667  0.3000  0.0625  
GRID    83              0.3333  0.3000  0.0625  
GRID    84              0.4000  0.3000  0.0625  
GRID    85              0.0000  0.0000  0.1250  
GRID    86              0.0667  0.0000  0.1250  
GRID    87              0.1333  0.0000  0.1250  
GRID    88              0.2000  0.0000  0.1250  
GRID    89              0.2667  0.0000  0.1250  
GRID    90              0.3333  0.0000  0.1250  
GRID    91              0.4000  0.0000  0.1250  
GRID    92              0.0000  0.0600  0.1250  
GRID    93              0.0667  0.0600  0.1250  
GRID    94              0.1333  0.0600  0.1250  
GRID    95              0.2000  0.0600  0.1250  
GRID    96              0.2667  0.0600  0.1250  
GRID    97              0.3333  0.0600  0.1250  
GRID    98              0.4000  0.0600  0.1250  
GRID    99              0.0000  0.1200  0.1250  
GRID    100             0.0667  0.1200  0.1250  
GRID    101             0.1333  0.1200  0.1250  
GRID    102             0.2000  0.1200  0.1250  
GRID    103             0.2667  0.1200  0.1250  
GRID    104             0.3333  0.1200  0.1250  
GRID    105             0.4000  0.1200  0.1250  
GRID    106             0.0000  0.1800  0.1250  
GRID    107             0.0667  0.1800  0.1250  
GRID    108             0.1333  0.1800  0.1250  
GRID    109             0.2000  0.1800  0.1250  
GRID    110             0.2667  0.1800  0.1250  
GRID    111             0.3333  0.1800  0.1250  
GRID    112             0.4000  0.1800  0.1250  
GRID    113             0.0000  0.2400  0.1250  
GRID    114             0.0667  0.2400  0.1250  
GRID    115             0.1333  0.2400  0.1250  
GRID    116             0.2000  0.2400  0.1250  
GRID    117             0.2667  0.2400  0.1250  
GRID    118             0.3333  0.2400  0.1250  
GRID    119             0.4000  0.2400  0.1250  
GRID    120             0.0000  0.3000  0.1250  
GRID    121             0.0667  0.3000  0.1250  
GRID    122             0.1333  0.3000  0.1250  
GRID    123             0.2000  0.3000  0.1250  
GRID    124             0.2667  0.3000  0.1250  
GRID    125             0.3333  0.3000  0.1250  
GRID    126             0.4000  0.3000  0.1250  
GRID    127             0.0000  0.0000  0.1875  
GRID    128             0.0667  0.0000  0.1875  
GRID    129             0.1333  0.0000  0.1875  
GRID    130             0.2000  0.0000  0.1875  
GRID    131             0.2667  0.0000  0.1875  
GRID    132             0.3333  0.0000  0.1875  
GRID    133             0.4000  0.0000  0.1875  
GRID    134             0.0000  0.0600  0.1875  
GRID    135             0.0667  0.0600  0.1875  
GRID    136             0.1333  0.0600  0.1875  
GRID    137             0.2000  0.0600  0.1875  
GRID    138             0.2667  0.0600  0.1875  
GRID    139             0.3333  0.0600  0.1875  
GRID    140             0.4000  0.0600  0.1875  
GRID    141             0.0000  0.1200  0.1875  
GRID    142             0.0667  0.1200  0.1875  
GRID    143             0.1333  0.1200  0.1875  
GRID    144             0.2000  0.1200  0.1875  
GRID    145             0.2667  0.1200  0.1875  
GRID    146             0.3333  0.1200  0.1875  
GRID    147             0.4000  0.1200  0.1875  
GRID    148             0.0000  0.1800  0.1875  
GRID    149             0.0667  0.1800  0.1875  
GRID    150             0.1333  0.1800  0.1875  
GRID    151             0.2000  0.1800  0.1875  
GRID    152             0.2667  0.1800  0.1875  
GRID    153             0.3333  0.1800  0.1875  
GRID    154             0.4000  0.1800  0.1875  
GRID    155             0.0000  0.2400  0.1875  
GRID    156             0.0667  0.2400  0.1875  
GRID    157             0.1333  0.2400  0.1875  
GRID    158             0.2000  0.2400  0.1875  
GRID    159             0.2667  0.2400  0.1875  
GRID    160             0.3333  0.2400  0.1875  
GRID    161             0.4000  0.2400  0.1875  
GRID    162             0.0000  0.3000  0.1875  
GRID    163             0.0667  0.3000  0.1875  
GRID    164             0.1333  0.3000  0.1875  
GRID    165             0.2000  0.3000  0.1875  
GRID    166             0.2667  0.3000  0.1875  
GRID    167             0.3333  0.3000  0.1875  
GRID    168             0.4000  0.3000  0.1875  
GRID    169             0.0000  0.0000  0.2500  
GRID    170             0.0667  0.0000  0.2500  
GRID    171             0.1333  0.0000  0.2500  
GRID    172             0.2000  0.0000  0.2500  
GRID    173             0.2667  0.0000  0.2500  
GRID    174             0.3333  0.0000  0.2500  
GRID    175             0.4000  0.0000  0.2500  
GRID    176             0.0000  0.0600  0.2500  
GRID    177             0.0667  0.0600  0.2500  
GRID    178             0.1333  0.0600  0.2500  
GRID    179             0.2000  0.0600  0.2500  
GRID    180             0.2667  0.0600  0.2500  
GRID    181             0.3333  0.0600  0.2500  
GRID    182             0.4000  0.0600  0.2500  
GRID    183             0.0000  0.1200  0.2500  
GRID    184             0.0667  0.1200  0.2500  
GRID    185             0.1333  0.1200  0.2500  
GRID    186             0.2000  0.1200  0.2500  
GRID    187             0.2667  0.1200  0.2500  
GRID    188             0.3333  0.1200  0.2500  
GRID    189             0.4000  0.1200  0.2500  
GRID    190             0.0000  0.1800  0.2500  
GRID    191             0.0667  0.1800  0.2500  
GRID    192             0.1333  0.1800  0.2500  
GRID    193             0.2000  0.1800  0.2500  
GRID    194             0.2667  0.1800  0.2500  
GRID    195             0.3333  0.1800  0.2500  
GRID    196             0.4000  0.1800  0.2500  
GRID    197             0.0000  0.2400  0.2500  
GRID    198             0.0667  0.2400  0.2500  
GRID    199             0.1333  0.2400  0.2500  
GRID    200             0.2000  0.2400  0.2500  
GRID    201             0.2667  0.2400  0.2500  
GRID    202             0.3333  0.2400  0.2500  
GRID    203             0.4000  0.2400  0.2500  
GRID    204             0.0000  0.3000  0.2500  
GRID    205             0.0667  0.3000  0.2500  
GRID    206             0.1333  0.3000  0.2500  
GRID    207             0.2000  0.3000  0.2500  
GRID    208             0.2667  0.3000  0.2500  
GRID    209             0.3333  0.3000  0.2500  
GRID    210             0.4000  0.3000  0.2500  
GRID    211             0.0000  0.0000  0.3125  
GRID    212             0.0667  0.0000  0.3125  
GRID    213             0.1333  0.0000  0.3125  
GRID    214             0.2000  0.0000  0.3125  
GRID    215             0.2667  0.0000  0.3125  
GRID    216             0.3333  0.0000  0.3125  
GRID    217             0.4000  0.0000  0.3125  
GRID    218             0.0000  0.0600  0.3125  
GRID    219             0.0667  0.0600  0.3125  
GRID    220             0.1333  0.0600  0.3125  
GRID    221             0.2000  0.0600  0.3125  
GRID    222             0.2667  0.0600  0.3125  
GRID    223             0.3333  0.0600  0.3125  
GRID    224             0.4000  0.0600  0.3125  
GRID    225             0.0000  0.1200  0.3125  
GRID    226             0.0667  0.1200  0.3125  
GRID    227             0.1333  0.1200  0.3125  
GRID    228             0.2000  0.1200  0.3125  
GRID    229             0.2667  0.1200  0.3125  
GRID    230             0.3333  0.1200  0.3125  
GRID    231             0.4000  0.1200  0.3125  
GRID    232             0.0000  0.1800  0.3125  
GRID    233             0.0667  0.1800  0.3125  
GRID    234             0.1333  0.1800  0.3125  
GRID    235             0.2000  0.1800  0.3125  
GRID    236             0.2667  0.1800  0.3125  
GRID    237             0.3333  0.1800  0.3125  
GRID    238             0.4000  0.1800  0.3125  
GRID    239             0.0000  0.2400  0.3125  
GRID    240             0.0667  0.2400  0.3125  
GRID    241             0.1333  0.2400  0.3125  
GRID    242             0.2000  0.2400  0.3125  
GRID    243             0.2667  0.2400  0.3125  
GRID    244             0.3333  0.2400  0.3125  
GRID    245             0.4000  0.2400  0.3125  
GRID    246             0.0000  0.3000  0.3125  
GRID    247             0.0667  0.3000  0.3125  
GRID    248             0.1333  0.3000  0.3125  
GRID    249             0.2000  0.3000  0.3125  
GRID    250             0.2667  0.3000  0.3125  
GRID    251             0.3333  0.3000  0.3125  
GRID    252             0.4000  0.3000  0.3125  
GRID    253             0.0000  0.0000  0.3750  
GRID    254             0.0667  0.0000  0.3750  
GRID    255             0.1333  0.0000  0.3750  
GRID    256             0.2000  0.0000  0.3750  
GRID    257             0.2667  0.0000  0.3750  
GRID    258             0.3333  0.0000  0.3750  
GRID    259             0.4000  0.0000  0.3750  
GRID    260             0.0000  0.0600  0.3750  
GRID    261             0.0667  0.0600  0.3750  
GRID    262             0.1333  0.0600  0.3750  
GRID    263             0.2000  0.0600  0.3750  
GRID    264             0.2667  0.0600  0.3750  
GRID    265             0.3333  0.0600  0.3750  
GRID    266             0.4000  0.0600  0.3750  
GRID    267             0.0000  0.1200  0.3750  
GRID    268             0.0667  0.1200  0.3750  
GRID    269             0.1333  0.1200  0.3750  
GRID    270             0.2000  0.1200  0.3750  
GRID    271             0.2667  0.1200  0.3750  
GRID    272             0.3333  0.1200  0.3750  
GRID    273             0.4000  0.1200  0.3750  
GRID    274             0.0000  0.1800  0.3750  
GRID    275             0.0667  0.1800  0.3750  
GRID    276             0.1333  0.1800  0.3750  
GRID    277             0.2000  0.1800  0.3750  
GRID    278             0.2667  0.1800  0.3750  
GRID    279             0.3333  0.1800  0.3750  
GRID    280             0.4000  0.1800  0.3750  
GRID    281             0.0000  0.2400  0.3750  
GRID    282             0.0667  0.2400  0.3750  
GRID    283             0.1333  0.2400  0.3750  
GRID    284             0.2000  0.2400  0.3750  
GRID    285             0.2667  0.2400  0.3750  
GRID    286             0.3333  0.2400  0.3750  
GRID    287             0.4000  0.2400  0.3750  
GRID    288             0.0000  0.3000  0.3750  
GRID    289             0.0667  0.3000  0.3750  
GRID    290             0.1333  0.3000  0.3750  
GRID    291             0.2000  0.3000  0.3750  
GRID    292             0.2667  0.3000  0.3750  
GRID    293             0.3333  0.3000  0.3750  
GRID    294             0.4000  0.3000  0.3750  
GRID    295             0.0000  0.0000  0.4375  
GRID    296             0.0667  0.0000  0.4375  
GRID    297             0.1333  0.0000  0.4375  
GRID    298             0.2000  0.0000  0.4375  
GRID    299             0.2667  0.0000  0.4375  
GRID    300             0.3333  0.0000  0.4375  
GRID    301             0.4000  0.0000  0.4375  
GRID    302             0.0000  0.0600  0.4375  
GRID    303             0.0667  0.0600  0.4375  
GRID    304             0.1333  0.0600  0.4375  
GRID    305             0.2000  0.0600  0.4375  
GRID    306             0.2667  0.0600  0.4375  
GRID    307             0.3333  0.0600  0.4375  
GRID    308             0.4000  0.0600  0.4375  
GRID    309             0.0000  0.1200  0.4375  
GRID    310             0.0667  0.1200  0.4375  
GRID    311             0.1333  0.1200  0.4375  
GRID    312             0.2000  0.1200  0.4375  
GRID    313             0.2667  0.1200  0.4375  
GRID    314             0.3333  0.1200  0.4375  
GRID    315             0.4000  0.1200  0.4375  
GRID    316             0.0000  0.1800  0.4375  
GRID    317             0.0667  0.1800  0.4375  
GRID    318             0.1333  0.1800  0.4375  
GRID    319             0.2000  0.1800  0.4375  
GRID    320             0.2667  0.1800  0.4375  
GRID    321             0.3333  0.1800  0.4375  
GRID    322             0.4000  0.1800  0.4375  
GRID    323             0.0000  0.2400  0.4375  
GRID    324             0.0667  0.2400  0.4375  
GRID    325             0.1333  0.2400  0.4375  
GRID    326             0.2000  0.2400  0.4375  
GRID    327             0.2667  0.2400  0.4375  
GRID    328             0.3333  0.2400  0.4375  
GRID    329             0.4000  0.2400  0.4375  
GRID    330             0.0000  0.3000  0.4375  
GRID    331             0.0667  0.3000  0.4375  
GRID    332             0.1333  0.3000  0.4375  
GRID    333             0.2000  0.3000  0.4375  
GRID    334             0.2667  0.3000  0.4375  
GRID    335             0.3333  0.3000  0.4375  
GRID    336             0.4000  0.3000  0.4375  
GRID    337             0.0000  0.0000  0.5000  
GRID    338             0.0667  0.0000  0.5000  
GRID    339             0.1333  0.0000  0.5000  
GRID    340             0.2000  0.0000  0.5000  
GRID    341             0.2667  0.0000  0.5000  
GRID    342             0.3333  0.0000  0.5000  
GRID    343             0.4000  0.0000  0.5000  
GRID    344             0.0000  0.0600  0.5000  
GRID    345             0.0667  0.0600  0.5000  
GRID    346             0.1333  0.0600  0.5000  
GRID    347             0.2000  0.0600  0.5000  
GRID    348             0.2667  0.0600  0.5000  
GRID    349             0.3333  0.0600  0.5000  
GRID    350             0.4000  0.0600  0.5000  
GRID    351             0.0000  0.1200  0.5000  
GRID    352             0.0667  0.1200  0.5000  
GRID    353             0.1333  0.1200  0.5000  
GRID    354             0.2000  0.1200  0.5000  
GRID    355             0.2667  0.1200  0.5000  
GRID    356             0.3333  0.1200  0.5000  
GRID    357             0.4000  0.1200  0.5000  
GRID    358             0.0000  0.1800  0.5000  
GRID    359             0.0667  0.1800  0.5000  
GRID    360             0.1333  0.1800  0.5000  
GRID    361             0.2000  0.1800  0.5000  
GRID    362             0.2667  0.1800  0.5000  
GRID    363             0.3333  0.1800  0.5000  
GRID    364             0.4000  0.1800  0.5000  
GRID    365             0.0000  0.2400  0.5000  
GRID    366             0.0667  0.2400  0.5000  
GRID    367             0.1333  0.2400  0.5000  
GRID    368             0.2000  0.2400  0.5000  
GRID    369             0.2667  0.2400  0.5000  
GRID    370             0.3333  0.2400  0.5000  
GRID    371             0.4000  0.2400  0.5000  
GRID    372             0.0000  0.3000  0.5000  
GRID    373             0.0667  0.3000  0.5000  
GRID    374             0.1333  0.3000  0.5000  
GRID    375             0.2000  0.3000  0.5000  
GRID    376             0.2667  0.3000  0.5000  
GRID    377             0.3333  0.3000  0.5000  
GRID    378             0.4000  0.3000  0.5000  
CHEXA   1       101     1       2       9       8       43      44      
        51      50      
CHEXA   2       101     2       3       10      9       44      45      
        52      51      
CHEXA   3       101     3       4       11      10      45      46      
        53      52      
CHEXA   4       101     4       5       12      11      46      47      
        54      53      
CHEXA   5       101     5       6       13      12      47      48      
        55      54      
CHEXA   6       101     6       7       14      13      48      49      
        56      55      
CHEXA   7       101     8       9       16      15      50      51      
        58      57      
CHEXA   8       101     9       10      17      16      51      52      
        59      58      
CHEXA   9       101     10      11      18      17      52      53      
        60      59      
CHEXA   10      101     11      12      19      18      53      54      
        61      60      
CHEXA   11      101     12      13      20      19      54      55      
        62      61      
CHEXA   12      101     13      14      21      20      55      56      
        63      62      
CHEXA   13      101     15      16      23      22      57      58      
        65      64      
CHEXA   14      101     16      17      24      23      58      59      
        66      65      
CHEXA   15      101     17      18      25      24      59      60      
        67      66      
CHEXA   16      101     18      19      26      25      60      61      
        68      67      
CHEXA   17      101     19      20      27      26      61      62      
        69      68      
CHEXA   18      101     20      21      28      27      62      63      
        70      69      
CHEXA   19      101     22      23      30      29      64      65      
        72      71      
CHEXA   20      101     23      24      31      30      65      66      
        73      72      
CHEXA   21      101     24      25      32      31      66      67      
        74      73      
CHEXA   22      101     25      26      33      32      67      68      
        75      74      
CHEXA   23      101     26      27      34      33      68      69      
        76      75      
CHEXA   24      101     27      28      35      34      69      70      
        77      76      
CHEXA   25      101     29      30      37      36      71      72      
        79      78      
CHEXA   26      101     30      31      38      37      72      73      
        80      79      
CHEXA   27      101     31      32      39      38      73      74      
        81      80      
CHEXA   28      101     32      33      40      39      74      75      
        82      81      
CHEXA   29      101     33      34      41      40      75      76      
        83      82      
CHEXA   30      101     34      35      42      41      76      77      
        84      83      
CHEXA   31      101     43      44      51      50      85      86      
        93      92      
CHEXA   32      101     44      45      52      51      86      87      
        94      93      
CHEXA   33      101     45      46      53      52      87      88      
        95      94      
CHEXA   34      101     46      47      54      53      88      89      
        96      95      
CHEXA   35      101     47      48      55      54      89      90      
        97      96      
CHEXA   36      101     48      49      56      55      90      91      
        98      97      
CHEXA   37      101     50      51      58      57      92      93      
        100     99      
CHEXA   38      101     51      52      59      58      93      94      
        101     100     
CHEXA   39      101     52      53      60      59      94      95      
        102     101     
CHEXA   40      101     53      54      61      60      95      96      
        103     102     
CHEXA   41      101     54      55      62      61      96      97      
        104     103     
CHEXA   42      101     55      56      63      62      97      98      
        105     104     
CHEXA   43      101     57      58      65      64      99      100     
        107     106     
CHEXA   44      101     58      59      66      65      100     101     
        108     107     
CHEXA   45      101     59      60      67      66      101     102     
        109     108     
CHEXA   46      101     60      61      68      67      102     103     
        110     109     
CHEXA   47      101     61      62      69      68      103     104     
        111     110     
CHEXA   48      101     62      63      70      69      104     105     
        112     111     
CHEXA   49      101     64      65      72      71      106     107     
        114     113     
CHEXA   50      101     65      66      73      72      107     108     
        115     114     
CHEXA   51      101     66      67      74      73      108     109     
        116     115     
CHEXA   52      101     67      68      75      74      109     110     
        117     116     
CHEXA   53      101     68      69      76      75      110     111     
        118     117     
CHEXA   54      101     69      70      77      76      111     112     
        119     118     
CHEXA   55      101     71      72      79      78      113     114     
        121     120     
CHEXA   56      101     72      73      80      79      114     115     
        122     121     
CHEXA   57      101     73      74      81      80      115     116     
        123     122     
CHEXA   58      101     74      75      82      81      116     117     
        124     123     
CHEXA   59      101     75      76      83      82      117     118     
        125     124     
CHEXA   60      101     76      77      84      83      118     119     
        126     125     
CHEXA   61      101     85      86      93      92      127     128     
        135     134     
CHEXA   62      101     86      87      94      93      128     129     
        136     135     
CHEXA   63      101     87      88      95      94      129     130     
        137     136     
CHEXA   64      101     88      89      96      95      130     131     
        138     137     
CHEXA   65      101     89      90      97      96      131     132     
        139     138     
CHEXA   66      101     90      91      98      97      132     133     
        140     139     
CHEXA   67      101     92      93      100     99      134     135     
        142     141     
CHEXA   68      101     93      94      101     100     135     136     
        143     142     
CHEXA   69      101     94      95      102     101     136     137     
        144     143     
CHEXA   70      101     95      96      103     102     137     138     
        145     144     
CHEXA   71      101     96      97      104     103     138     139     
        146     145     
CHEXA   72      101     97      98      105     104     139     140     
        147     146     
CHEXA   73      101     99      100     107     106     141     142     
        149     148     
CHEXA   74      101     100     101     108     107     142     143     
        150     149     
CHEXA   75      101     101     102     109     108     143     144     
        151     150     
CHEXA   76      101     102     103     110     109     144     145     
        152     151     
CHEXA   77      101     103     104     111     110     145     146     
        153     152     
CHEXA   78      101     104     105     112     111     146     147     
        154     153     
CHEXA   79      101     106     107     114     113     148     149     
        156     155     
CHEXA   80      101     107     108     115     114     149     150     
        157     156     
CHEXA   81      101     108     109     116     115     150     151     
        158     157     
CHEXA   82      101     109     110     117     116     151     152     
        159     158     
CHEXA   83      101     110     111     118     117     152     153     
        160     159     
CHEXA   84      101     111     112     119     118     153     154     
        161     160     
CHEXA   85      101     113     114     121     120     155     156     
        163     162     
CHEXA   86      101     114     115     122     121     156     157     
        164     163     
CHEXA   87      101     115     116     123     122     157     158     
        165     164     
CHEXA   88      101     116     117     124     123     158     159     
        166     165     
CHEXA   89      101     117     118     125     124     159     160     
        167     166     
CHEXA   90      101     118     119     126     125     160     161     
        168     167     
CHEXA   91      101     127     128     135     134     169     170     
        177     176     
CHEXA   92      101     128     129     136     135     170     171     
        178     177     
CHEXA   93      101     129     130     137     136     171     172     
        179     178     
CHEXA   94      101     130     131     138     137     172     173     
        180     179     
CHEXA   95      101     131     132     139     138     173     174     
        181     180     
CHEXA   96      101     132     133     140     139     174     175     
        182     181     
CHEXA   97      101     134     135     142     141     176     177     
        184     183     
CHEXA   98      101     135     136     143     142     177     178     
        185     184     
CHEXA   99      101     136     137     144     143     178     179     
        186     185     
CHEXA   100     101     137     138     145     144     179     180     
        187     186     
CHEXA   101     101     138     139     146     145     180     181     
        188     187     
CHEXA   102     101     139     140     147     146     181     182     
        189     188     
CHEXA   103     101     141     142     149     148     183     184     
        191     190     
CHEXA   104     101     142     143     150     149     184     185     
        192     191     
CHEXA   105     101     143     144     151     150     185     186     
        193     192     
CHEXA   106     101     144     145     152     151     186     187     
        194     193     
CHEXA   107     101     145     146     153     152     187     188     
        195     194     
CHEXA   108     101     146     147     154     153     188     189     
        196     195     
CHEXA   109     101     148     149     156     155     190     191     
        198     197     
CHEXA   110     101     149     150     157     156     191     192     
        199     198     
CHEXA   111     101     150     151     158     157     192     193     
        200     199     
CHEXA   112     101     151     152     159     158     193     194     
        201     200     
CHEXA   113     101     152     153     160     159     194     195     
        202     201     
CHEXA   114     101     153     154     161     160     195     196     
        203     202     
CHEXA   115     101     155     156     163     162     197     198     
        205     204     
CHEXA   116     101     156     157     164     163     198     199     
        206     205     
CHEXA   117     101     157     158     165     164     199     200     
        207     206     
CHEXA   118     101     158     159     166     165     200     201     
        208     207     
CHEXA   119     101     159     160     167     166     201     202     
        209     208     
CHEXA   120     101     160     161     168     167     202     203     
        210     209     
CHEXA   121     101     169     170     177     176     211     212     
        219     218     
CHEXA   122     101     170     171     178     177     212     213     
        220     219     
CHEXA   123     101     171     172     179     178     213     214     
        221     220     
CHEXA   124     101     172     173     180     179     214     215     
        222     221     
CHEXA   125     101     173     174     181     180     215     216     
        223     222     
CHEXA   126     101     174     175     182     181     216     217     
        224     223     
CHEXA   127     101     176     177     184     183     218     219     
        226     225     
CHEXA   128     101     177     178     185     184     219     220     
        227     226     
CHEXA   129     101     178     179     186     185     220     221     
        228     227     
CHEXA   130     101     179     180     187     186     221     222     
        229     228     
CHEXA   131     101     180     181     188     187     222     223     
        230     229     
CHEXA   132     101     181     182     189     188     223     224     
        231     230     
CHEXA   133     101     183     184     191     190     225     226     
        233     232     
CHEXA   134     101     184     185     192     191     226     227     
        234     233     
CHEXA   135     101     185     186     193     192     227     228     
        235     234     
CHEXA   136     101     186     187     194     193     228     229     
        236     235     
CHEXA   137     101     187     188     195     194     229     230     
        237     236     
CHEXA   138     101     188     189     196     195     230     231     
        238     237     
CHEXA   139     101     190     191     198     197     232     233     
        240     239     
CHEXA   140     101     191     192     199     198     233     234     
        241     240     
CHEXA   141     101     192     193     200     199     234     235     
        242     241     
CHEXA   142     101     193     194     201     200     235     236     
        243     242     
CHEXA   143     101     194     195     202     201     236     237     
        244     243     
CHEXA   144     101     195     196     203     202     237     238     
        245     244     
CHEXA   145     101     197     198     205     204     239     240     
        247     246     
CHEXA   146     101     198     199     206     205     240     241     
        248     247     
CHEXA   147     101     199     200     207     206     241     242     
        249     248     
CHEXA   148     101     200     201     208     207     242     243     
        250     249     
CHEXA   149     101     201     202     209     208     243     244     
        251     250     
CHEXA   150     101     202     203     210     209     244     245     
        252     251     
CHEXA   151     101     211     212     219     218     253     254     
        261     260     
CHEXA   152     101     212     213     220     219     254     255     
        262     261     
CHEXA   153     101     213     214     221     220     255     256     
        263     262     
CHEXA   154     101     214     215     222     221     256     257     
        264     263     
CHEXA   155     101     215     216     223     222     257     258     
        265     264     
CHEXA   156     101     216     217     224     223     258     259     
        266     265     
CHEXA   157     101     218     219     226     225     260     261     
        268     267     
CHEXA   158     101     219     220     227     226     261     262     
        269     268     
CHEXA   159     101     220     221     228     227     262     263     
        270     269     
CHEXA   160     101     221     222     229     228     263     264     
        271     270     
CHEXA   161     101     222     223     230     229     264     265     
        272     271     
CHEXA   162     101     223     224     231     230     265     266     
        273     272     
CHEXA   163     101     225     226     233     232     267     268     
        275     274     
CHEXA   164     101     226     227     234     233     268     269     
        276     275     
CHEXA   165     101     227     228     235     234     269     270     
        277     276     
CHEXA   166     101     228     229     236     235     270     271     
        278     277     
CHEXA   167     101     229     230     237     236     271     272     
        279     278     
CHEXA   168     101     230     231     238     237     272     273     
        280     279     
CHEXA   169     101     232     233     240     239     274     275     
        282     281     
CHEXA   170     101     233     234     241     240     275     276     
        283     282     
CHEXA   171     101     234     235     242     241     276     277     
        284     283     
CHEXA   172     101     235     236     243     242     277     278     
        285     284     
CHEXA   173     101     236     237     244     243     278     279     
        286     285     
CHEXA   174     101     237     238     245     244     279     280     
        287     286     
CHEXA   175     101     239     240     247     246     281     282     
        289     288     
CHEXA   176     101     240     241     248     247     282     283     
        290     289     
CHEXA   177     101     241     242     249     248     283     284     
        291     290     
CHEXA   178     101     242     243     250     249     284     285     
        292     291     
CHEXA   179     101     243     244     251     250     285     286     
        293     292     
CHEXA   180     101     244     245     252     251     286     287     
        294     293     
CHEXA   181     101     253     254     261     260     295     296     
        303     302     
CHEXA   182     101     254     255     262     261     296     297     
        304     303     
CHEXA   183     101     255     256     263     262     297     298     
        305     304     
CHEXA   184     101     256     257     264     263     298     299     
        306     305     
CHEXA   185     101     257     258     265     264     299     300     
        307     306     
CHEXA   186     101     258     259     266     265     300     301     
        308     307     
CHEXA   187     101     260     261     268     267     302     303     
        310     309     
CHEXA   188     101     261     262     269     268     303     304     
        311     310     
CHEXA   189     101     262     263     270     269     304     305     
        312     311     
CHEXA   190     101     263     264     271     270     305     306     
        313     312     
CHEXA   191     101     264     265     272     271     306     307     
        314     313     
CHEXA   192     101     265     266     273     272     307     308     
        315     314     
CHEXA   193     101     267     268     275     274     309     310     
        317     316     
CHEXA   194     101     268     269     276     275     310     311     
        318     317     
CHEXA   195     101     269     270     277     276     311     312     
        319     318     
CHEXA   196     101     270     271     278     277     312     313     
        320     319     
CHEXA   197     101     271     272     279     278     313     314     
        321     320     
CHEXA   198     101     272     273     280     279     314     315     
        322     321     
CHEXA   199     101     274     275     282     281     316     317     
        324     323     
CHEXA   200     101     275     276     283     282     317     318     
        325     324     
CHEXA   201     101     276     277     284     283     318     319     
        326     325     
CHEXA   202     101     277     278     285     284     319     320     
        327     326     
CHEXA   203     101     278     279     286     285     320     321     
        328     327     
CHEXA   204     101     279     280     287     286     321     322     
        329     328     
CHEXA   205     101     281     282     289     288     323     324     
        331     330     
CHEXA   206     101     282     283     290     289     324     325     
        332     331     
CHEXA   207     101     283     284     291     290     325     326     
        333     332     
CHEXA   208     101     284     285     292     291     326     327     
        334     333     
CHEXA   209     101     285     286     293     292     327     328     
        335     334     
CHEXA   210     101     286     287     294     293     328     329     
        336     335     
CHEXA   211     101     295     296     303     302     337     338     
        345     344     
CHEXA   212     101     296     297     304     303     338     339     
        346     345     
CHEXA   213     101     297     298     305     304     339     340     
        347     346     
CHEXA   214     101     298     299     306     305     340     341     
        348     347     
CHEXA   215     101     299     300     307     306     341     342     
        349     348     
CHEXA   216     101     300     301     308     307     342     343     
        350     349     
CHEXA   217     101     302     303     310     309     344     345     
        352     351     
CHEXA   218     101     303     304     311     310     345     346     
        353     352     
CHEXA   219     101     304     305     312     311     346     347     
        354     353     
CHEXA   220     101     305     306     313     312     347     348     
        355     354     
CHEXA   221     101     306     307     314     313     348     349     
        356     355     
CHEXA   222     101     307     308     315     314     349     350     
        357     356     
CHEXA   223     101     309     310     317     316     351     352     
        359     358     
CHEXA   224     101     310     311     318     317     352     353     
        360     359     
CHEXA   225     101     311     312     319     318     353     354     
        361     360     
CHEXA   226     101     312     313     320     319     354     355     
        362     361     
CHEXA   227     101     313     314     321     320     355     356     
        363     362     
CHEXA   228     101     314     315     322     321     356     357     
        364     363     
CHEXA   229     101     316     317     324     323     358     359     
        366     365     
CHEXA   230     101     317     318     325     324     359     360     
        367     366     
CHEXA   231     101     318     319     326     325     360     361     
        368     367     
CHEXA   232     101     319     320     327     326     361     362     
        369     368     
CHEXA   233     101     320     321     328     327     362     363     
        370     369     
CHEXA   234     101     321     322     329     328     363     364     
        371     370     
CHEXA   235     101     323     324     331     330     365     366     
        373     372     
CHEXA   236     101     324     325     332     331     366     367     
        374     373     
CHEXA   237     101     325     326     333     332     367     368     
        375     374     
CHEXA   238     101     326     327     334     333     368     369     
        376     375     
CHEXA   239     101     327     328     335     334     369     370     
        377     376     
CHEXA   240     101     328     329     336     335     370     371     
        378     377     
CQUAD4  241     202     1       2       9       8       
CQUAD4  242     202     2       3       10      9       
CQUAD4  243     202     3       4       11      10      
CQUAD4  244     202     4       5       12      11      
CQUAD4  245     202     5       6       13      12      
CQUAD4  246     202     6       7       14      13      
CQUAD4  247     202     8       9       16      15      
CQUAD4  248     202     9       10      17      16      
CQUAD4  249     202     10      11      18      17      
CQUAD4  250     202     11      12      19      18      
CQUAD4  251     202     12      13      20      19      
CQUAD4  252     202     13      14      21      20      
CQUAD4  253     202     15      16      23      22      
CQUAD4  254     202     16      17      24      23      
CQUAD4  255     202     17      18      25      24      
CQUAD4  256     202     18      19      26      25      
CQUAD4  257     202     19      20      27      26      
CQUAD4  258     202     20      21      28      27      
CQUAD4  259     202     22      23      30      29      
CQUAD4  260     202     23      24      31      30      
CQUAD4  261     202     24      25      32      31      
CQUAD4  262     202     25      26      33      32      
CQUAD4  263     202     26      27      34      33      
CQUAD4  264     202     27      28      35      34      
CQUAD4  265     202     29      30      37      36      
CQUAD4  266     202     30      31      38      37      
CQUAD4  267     202     31      32      39      38      
CQUAD4  268     202     32      33      40      39      
CQUAD4  269     202     33      34      41      40      
CQUAD4  270     202     34      35      42      41      
PSOLID  101     10                                      PFLUID  
MAT10   10              1.204   343.    
PSHELL  202     20      .002    
MAT1    20      70.+9           .33     2700.   
SPC1    10      123456  1       2       3       4       5       6       
        7       8       14      15      21      22      28      29      
        35      36      37      38      39      40      41      42      
ENDDATA
