ISO-10303-21;
HEADER;
/* Generated by software containing ST-Developer
 * from STEP Tools, Inc. (www.steptools.com) 
 */

FILE_DESCRIPTION(
/* description */ (''),
/* implementation_level */ '2;1');

FILE_NAME(
/* name */ 'Tubo_1m_1m.stp',
/* time_stamp */ '2026-08-04T11:28:27+02:00',
/* author */ ('d094009'),
/* organization */ (''),
/* preprocessor_version */ 'ST-DEVELOPER v20.1',
/* originating_system */ 'Autodesk Inventor 2026',
/* authorisation */ '');

FILE_SCHEMA (('AUTOMOTIVE_DESIGN { 1 0 10303 214 3 1 1 }'));
ENDSEC;

DATA;
#10=MECHANICAL_DESIGN_GEOMETRIC_PRESENTATION_REPRESENTATION('',(#13),#191);
#11=SHAPE_REPRESENTATION_RELATIONSHIP('SRR','None',#202,#12);
#12=ADVANCED_BREP_SHAPE_REPRESENTATION('',(#14),#190);
#13=STYLED_ITEM('',(#211),#14);
#14=MANIFOLD_SOLID_BREP('Solido1',#107);
#15=FACE_OUTER_BOUND('',#21,.T.);
#16=FACE_OUTER_BOUND('',#22,.T.);
#17=FACE_OUTER_BOUND('',#23,.T.);
#18=FACE_OUTER_BOUND('',#24,.T.);
#19=FACE_OUTER_BOUND('',#25,.T.);
#20=FACE_OUTER_BOUND('',#26,.T.);
#21=EDGE_LOOP('',(#71,#72,#73,#74));
#22=EDGE_LOOP('',(#75,#76,#77,#78));
#23=EDGE_LOOP('',(#79,#80,#81,#82));
#24=EDGE_LOOP('',(#83,#84,#85,#86));
#25=EDGE_LOOP('',(#87,#88,#89,#90));
#26=EDGE_LOOP('',(#91,#92,#93,#94));
#27=LINE('',#165,#39);
#28=LINE('',#167,#40);
#29=LINE('',#169,#41);
#30=LINE('',#170,#42);
#31=LINE('',#174,#43);
#32=LINE('',#175,#44);
#33=LINE('',#176,#45);
#34=LINE('',#179,#46);
#35=LINE('',#180,#47);
#36=LINE('',#183,#48);
#37=LINE('',#184,#49);
#38=LINE('',#186,#50);
#39=VECTOR('',#139,0.393700787401575);
#40=VECTOR('',#140,0.393700787401575);
#41=VECTOR('',#141,0.393700787401575);
#42=VECTOR('',#142,0.393700787401575);
#43=VECTOR('',#145,0.393700787401575);
#44=VECTOR('',#146,0.393700787401575);
#45=VECTOR('',#147,0.393700787401575);
#46=VECTOR('',#150,0.393700787401575);
#47=VECTOR('',#151,0.393700787401575);
#48=VECTOR('',#154,0.393700787401575);
#49=VECTOR('',#155,0.393700787401575);
#50=VECTOR('',#158,0.393700787401575);
#51=VERTEX_POINT('',#163);
#52=VERTEX_POINT('',#164);
#53=VERTEX_POINT('',#166);
#54=VERTEX_POINT('',#168);
#55=VERTEX_POINT('',#172);
#56=VERTEX_POINT('',#173);
#57=VERTEX_POINT('',#178);
#58=VERTEX_POINT('',#182);
#59=EDGE_CURVE('',#51,#52,#27,.T.);
#60=EDGE_CURVE('',#52,#53,#28,.T.);
#61=EDGE_CURVE('',#53,#54,#29,.T.);
#62=EDGE_CURVE('',#54,#51,#30,.T.);
#63=EDGE_CURVE('',#55,#56,#31,.T.);
#64=EDGE_CURVE('',#56,#53,#32,.T.);
#65=EDGE_CURVE('',#55,#52,#33,.T.);
#66=EDGE_CURVE('',#57,#55,#34,.T.);
#67=EDGE_CURVE('',#57,#51,#35,.T.);
#68=EDGE_CURVE('',#58,#57,#36,.T.);
#69=EDGE_CURVE('',#58,#54,#37,.T.);
#70=EDGE_CURVE('',#56,#58,#38,.T.);
#71=ORIENTED_EDGE('',*,*,#59,.T.);
#72=ORIENTED_EDGE('',*,*,#60,.T.);
#73=ORIENTED_EDGE('',*,*,#61,.T.);
#74=ORIENTED_EDGE('',*,*,#62,.T.);
#75=ORIENTED_EDGE('',*,*,#63,.T.);
#76=ORIENTED_EDGE('',*,*,#64,.T.);
#77=ORIENTED_EDGE('',*,*,#60,.F.);
#78=ORIENTED_EDGE('',*,*,#65,.F.);
#79=ORIENTED_EDGE('',*,*,#66,.T.);
#80=ORIENTED_EDGE('',*,*,#65,.T.);
#81=ORIENTED_EDGE('',*,*,#59,.F.);
#82=ORIENTED_EDGE('',*,*,#67,.F.);
#83=ORIENTED_EDGE('',*,*,#68,.T.);
#84=ORIENTED_EDGE('',*,*,#67,.T.);
#85=ORIENTED_EDGE('',*,*,#62,.F.);
#86=ORIENTED_EDGE('',*,*,#69,.F.);
#87=ORIENTED_EDGE('',*,*,#70,.T.);
#88=ORIENTED_EDGE('',*,*,#69,.T.);
#89=ORIENTED_EDGE('',*,*,#61,.F.);
#90=ORIENTED_EDGE('',*,*,#64,.F.);
#91=ORIENTED_EDGE('',*,*,#70,.F.);
#92=ORIENTED_EDGE('',*,*,#63,.F.);
#93=ORIENTED_EDGE('',*,*,#66,.F.);
#94=ORIENTED_EDGE('',*,*,#68,.F.);
#95=PLANE('',#129);
#96=PLANE('',#130);
#97=PLANE('',#131);
#98=PLANE('',#132);
#99=PLANE('',#133);
#100=PLANE('',#134);
#101=ADVANCED_FACE('',(#15),#95,.T.);
#102=ADVANCED_FACE('',(#16),#96,.T.);
#103=ADVANCED_FACE('',(#17),#97,.T.);
#104=ADVANCED_FACE('',(#18),#98,.T.);
#105=ADVANCED_FACE('',(#19),#99,.T.);
#106=ADVANCED_FACE('',(#20),#100,.F.);
#107=CLOSED_SHELL('',(#101,#102,#103,#104,#105,#106));
#108=DERIVED_UNIT_ELEMENT(#110,1.);
#109=DERIVED_UNIT_ELEMENT(#196,-3.);
#110=(
CONVERSION_BASED_UNIT('gram',#112)
MASS_UNIT()
NAMED_UNIT(#193)
);
#111=(
MASS_UNIT()
NAMED_UNIT(*)
SI_UNIT(.KILO.,.GRAM.)
);
#112=MASS_MEASURE_WITH_UNIT(MASS_MEASURE(0.001),#111);
#113=DERIVED_UNIT((#108,#109));
#114=MEASURE_REPRESENTATION_ITEM('density measure',
POSITIVE_RATIO_MEASURE(1.),#113);
#115=PROPERTY_DEFINITION_REPRESENTATION(#120,#117);
#116=PROPERTY_DEFINITION_REPRESENTATION(#121,#118);
#117=REPRESENTATION('material name',(#119),#190);
#118=REPRESENTATION('density',(#114),#190);
#119=DESCRIPTIVE_REPRESENTATION_ITEM('Generico','Generico');
#120=PROPERTY_DEFINITION('material property','material name',#204);
#121=PROPERTY_DEFINITION('material property','density of part',#204);
#122=DATE_TIME_ROLE('creation_date');
#123=APPLIED_DATE_AND_TIME_ASSIGNMENT(#124,#122,(#204));
#124=DATE_AND_TIME(#125,#126);
#125=CALENDAR_DATE(2026,4,8);
#126=LOCAL_TIME(0,0,0.,#127);
#127=COORDINATED_UNIVERSAL_TIME_OFFSET(0,0,.BEHIND.);
#128=AXIS2_PLACEMENT_3D('',#161,#135,#136);
#129=AXIS2_PLACEMENT_3D('',#162,#137,#138);
#130=AXIS2_PLACEMENT_3D('',#171,#143,#144);
#131=AXIS2_PLACEMENT_3D('',#177,#148,#149);
#132=AXIS2_PLACEMENT_3D('',#181,#152,#153);
#133=AXIS2_PLACEMENT_3D('',#185,#156,#157);
#134=AXIS2_PLACEMENT_3D('',#187,#159,#160);
#135=DIRECTION('axis',(0.,0.,1.));
#136=DIRECTION('refdir',(1.,0.,0.));
#137=DIRECTION('center_axis',(1.,0.,0.));
#138=DIRECTION('ref_axis',(0.,0.,-1.));
#139=DIRECTION('',(0.,-1.,0.));
#140=DIRECTION('',(0.,1.4210854715202E-16,-1.));
#141=DIRECTION('',(0.,1.,1.4210854715202E-16));
#142=DIRECTION('',(0.,-1.4210854715202E-16,1.));
#143=DIRECTION('center_axis',(0.,-1.,-1.83697019872103E-16));
#144=DIRECTION('ref_axis',(0.,1.83697019872103E-16,-1.));
#145=DIRECTION('',(0.,1.83697019872103E-16,-1.));
#146=DIRECTION('',(1.,0.,0.));
#147=DIRECTION('',(1.,0.,0.));
#148=DIRECTION('center_axis',(0.,0.,1.));
#149=DIRECTION('ref_axis',(0.,-1.,0.));
#150=DIRECTION('',(0.,-1.,0.));
#151=DIRECTION('',(1.,0.,0.));
#152=DIRECTION('center_axis',(0.,1.,1.4210854715202E-16));
#153=DIRECTION('ref_axis',(0.,-1.4210854715202E-16,1.));
#154=DIRECTION('',(0.,-1.4210854715202E-16,1.));
#155=DIRECTION('',(1.,0.,0.));
#156=DIRECTION('center_axis',(0.,1.4210854715202E-16,-1.));
#157=DIRECTION('ref_axis',(0.,1.,1.4210854715202E-16));
#158=DIRECTION('',(0.,1.,1.4210854715202E-16));
#159=DIRECTION('center_axis',(1.,0.,0.));
#160=DIRECTION('ref_axis',(0.,0.,-1.));
#161=CARTESIAN_POINT('',(0.,0.,0.));
#162=CARTESIAN_POINT('Origin',(118.110236220472,19.6850393700787,-19.6850393700787));
#163=CARTESIAN_POINT('',(118.110236220472,39.3700787401575,0.));
#164=CARTESIAN_POINT('',(118.110236220472,0.,0.));
#165=CARTESIAN_POINT('',(118.110236220472,39.3700787401575,0.));
#166=CARTESIAN_POINT('',(118.110236220472,5.59482469102441E-15,-39.3700787401575));
#167=CARTESIAN_POINT('',(118.110236220472,0.,0.));
#168=CARTESIAN_POINT('',(118.110236220472,39.3700787401575,-39.3700787401575));
#169=CARTESIAN_POINT('',(118.110236220472,5.59482469102441E-15,-39.3700787401575));
#170=CARTESIAN_POINT('',(118.110236220472,39.3700787401575,-39.3700787401575));
#171=CARTESIAN_POINT('Origin',(0.,0.,0.));
#172=CARTESIAN_POINT('',(0.,0.,0.));
#173=CARTESIAN_POINT('',(0.,7.23216613669697E-15,-39.3700787401575));
#174=CARTESIAN_POINT('',(0.,0.,0.));
#175=CARTESIAN_POINT('',(0.,7.23216613669697E-15,-39.3700787401575));
#176=CARTESIAN_POINT('',(0.,0.,0.));
#177=CARTESIAN_POINT('Origin',(0.,39.3700787401575,0.));
#178=CARTESIAN_POINT('',(0.,39.3700787401575,0.));
#179=CARTESIAN_POINT('',(0.,39.3700787401575,0.));
#180=CARTESIAN_POINT('',(0.,39.3700787401575,0.));
#181=CARTESIAN_POINT('Origin',(0.,39.3700787401575,-39.3700787401575));
#182=CARTESIAN_POINT('',(0.,39.3700787401575,-39.3700787401575));
#183=CARTESIAN_POINT('',(0.,39.3700787401575,-39.3700787401575));
#184=CARTESIAN_POINT('',(0.,39.3700787401575,-39.3700787401575));
#185=CARTESIAN_POINT('Origin',(0.,7.23216613669697E-15,-39.3700787401575));
#186=CARTESIAN_POINT('',(0.,5.59482469102441E-15,-39.3700787401575));
#187=CARTESIAN_POINT('Origin',(0.,19.6850393700787,-19.6850393700787));
#188=UNCERTAINTY_MEASURE_WITH_UNIT(LENGTH_MEASURE(0.000393700787401575),
#194,'DISTANCE_ACCURACY_VALUE',
'Maximum model space distance between geometric entities at asserted c
onnectivities');
#189=UNCERTAINTY_MEASURE_WITH_UNIT(LENGTH_MEASURE(0.000393700787401575),
#194,'DISTANCE_ACCURACY_VALUE',
'Maximum model space distance between geometric entities at asserted c
onnectivities');
#190=(
GEOMETRIC_REPRESENTATION_CONTEXT(3)
GLOBAL_UNCERTAINTY_ASSIGNED_CONTEXT((#188))
GLOBAL_UNIT_ASSIGNED_CONTEXT((#194,#198,#199))
REPRESENTATION_CONTEXT('','3D')
);
#191=(
GEOMETRIC_REPRESENTATION_CONTEXT(3)
GLOBAL_UNCERTAINTY_ASSIGNED_CONTEXT((#189))
GLOBAL_UNIT_ASSIGNED_CONTEXT((#194,#198,#199))
REPRESENTATION_CONTEXT('','3D')
);
#192=DIMENSIONAL_EXPONENTS(1.,0.,0.,0.,0.,0.,0.);
#193=DIMENSIONAL_EXPONENTS(0.,1.,0.,0.,0.,0.,0.);
#194=(
CONVERSION_BASED_UNIT('inch',#197)
LENGTH_UNIT()
NAMED_UNIT(#192)
);
#195=(
LENGTH_UNIT()
NAMED_UNIT(*)
SI_UNIT(.MILLI.,.METRE.)
);
#196=(
LENGTH_UNIT()
NAMED_UNIT(*)
SI_UNIT(.CENTI.,.METRE.)
);
#197=LENGTH_MEASURE_WITH_UNIT(LENGTH_MEASURE(25.4),#195);
#198=(
NAMED_UNIT(*)
PLANE_ANGLE_UNIT()
SI_UNIT($,.RADIAN.)
);
#199=(
NAMED_UNIT(*)
SI_UNIT($,.STERADIAN.)
SOLID_ANGLE_UNIT()
);
#200=SHAPE_DEFINITION_REPRESENTATION(#201,#202);
#201=PRODUCT_DEFINITION_SHAPE('',$,#204);
#202=SHAPE_REPRESENTATION('',(#128),#190);
#203=PRODUCT_DEFINITION_CONTEXT('part definition',#208,'design');
#204=PRODUCT_DEFINITION('Parte1','Parte1',#205,#203);
#205=PRODUCT_DEFINITION_FORMATION('',$,#210);
#206=PRODUCT_RELATED_PRODUCT_CATEGORY('Parte1','Parte1',(#210));
#207=APPLICATION_PROTOCOL_DEFINITION('international standard',
'automotive_design',2009,#208);
#208=APPLICATION_CONTEXT(
'Core Data for Automotive Mechanical Design Process');
#209=PRODUCT_CONTEXT('part definition',#208,'mechanical');
#210=PRODUCT('Parte1','Parte1',$,(#209));
#211=PRESENTATION_STYLE_ASSIGNMENT((#212));
#212=SURFACE_STYLE_USAGE(.BOTH.,#215);
#213=SURFACE_STYLE_RENDERING_WITH_PROPERTIES($,#219,(#214));
#214=SURFACE_STYLE_TRANSPARENT(0.);
#215=SURFACE_SIDE_STYLE('',(#216,#213));
#216=SURFACE_STYLE_FILL_AREA(#217);
#217=FILL_AREA_STYLE('',(#218));
#218=FILL_AREA_STYLE_COLOUR('',#219);
#219=COLOUR_RGB('',0.749019607843137,0.749019607843137,0.749019607843137);
ENDSEC;
END-ISO-10303-21;
