ISO-10303-21;
HEADER;
/* Generated by software containing ST-Developer
 * from STEP Tools, Inc. (www.steptools.com) 
 */
/* OPTION: using custom renumber hook */

FILE_DESCRIPTION(
/* description */ ('STEP AP203'),
/* implementation_level */ '2;1');

FILE_NAME(
/* name */ 'Vibro_ac1',
/* time_stamp */ '2026-08-08T17:31:52+02:00',
/* author */ ('  '),
/* organization */ ('  '),
/* preprocessor_version */ 'ST-DEVELOPER v20',
/* originating_system */ '  ',
/* authorisation */ '  ');

FILE_SCHEMA (('CONFIG_CONTROL_DESIGN'));
ENDSEC;

DATA;
#10=PROPERTY_DEFINITION_REPRESENTATION(#14,#12);
#11=PROPERTY_DEFINITION_REPRESENTATION(#15,#13);
#12=REPRESENTATION('',(#16),#526);
#13=REPRESENTATION('',(#17),#526);
#14=PROPERTY_DEFINITION('pmi validation property','',#536);
#15=PROPERTY_DEFINITION('pmi validation property','',#536);
#16=VALUE_REPRESENTATION_ITEM('number of annotations',COUNT_MEASURE(0.));
#17=VALUE_REPRESENTATION_ITEM('number of views',COUNT_MEASURE(0.));
#18=MANIFOLD_SOLID_BREP('',#280);
#19=SHAPE_REPRESENTATION_RELATIONSHIP('','',#284,#21);
#20=SHAPE_REPRESENTATION_RELATIONSHIP('','',#285,#22);
#21=ADVANCED_BREP_SHAPE_REPRESENTATION('',(#281),#525);
#22=ADVANCED_BREP_SHAPE_REPRESENTATION('',(#18),#526);
#23=ORIENTED_CLOSED_SHELL('',*,#279,.F.);
#24=PLANE('',#313);
#25=PLANE('',#316);
#26=PLANE('',#325);
#27=PLANE('',#333);
#28=LINE('',#472,#36);
#29=LINE('',#477,#37);
#30=LINE('',#483,#38);
#31=LINE('',#495,#39);
#32=LINE('',#499,#40);
#33=LINE('',#504,#41);
#34=LINE('',#514,#42);
#35=LINE('',#518,#43);
#36=VECTOR('',#380,1.);
#37=VECTOR('',#383,1.);
#38=VECTOR('',#390,1.);
#39=VECTOR('',#407,1.);
#40=VECTOR('',#414,1.);
#41=VECTOR('',#417,1.);
#42=VECTOR('',#430,1.);
#43=VECTOR('',#433,1.);
#44=CYLINDRICAL_SURFACE('',#307,5.);
#45=CYLINDRICAL_SURFACE('',#310,5.);
#46=CYLINDRICAL_SURFACE('',#319,5.);
#47=CYLINDRICAL_SURFACE('',#320,5.);
#48=CYLINDRICAL_SURFACE('',#322,5.);
#49=CYLINDRICAL_SURFACE('',#329,5.);
#50=CYLINDRICAL_SURFACE('',#331,5.);
#51=CYLINDRICAL_SURFACE('',#335,5.);
#52=ORIENTED_EDGE('',*,*,#124,.F.);
#53=ORIENTED_EDGE('',*,*,#125,.T.);
#54=ORIENTED_EDGE('',*,*,#126,.F.);
#55=ORIENTED_EDGE('',*,*,#127,.T.);
#56=ORIENTED_EDGE('',*,*,#126,.T.);
#57=ORIENTED_EDGE('',*,*,#128,.F.);
#58=ORIENTED_EDGE('',*,*,#129,.F.);
#59=ORIENTED_EDGE('',*,*,#130,.T.);
#60=ORIENTED_EDGE('',*,*,#125,.F.);
#61=ORIENTED_EDGE('',*,*,#131,.T.);
#62=ORIENTED_EDGE('',*,*,#128,.T.);
#63=ORIENTED_EDGE('',*,*,#130,.F.);
#64=ORIENTED_EDGE('',*,*,#132,.T.);
#65=ORIENTED_EDGE('',*,*,#124,.T.);
#66=ORIENTED_EDGE('',*,*,#133,.F.);
#67=ORIENTED_EDGE('',*,*,#134,.F.);
#68=ORIENTED_EDGE('',*,*,#133,.T.);
#69=ORIENTED_EDGE('',*,*,#127,.F.);
#70=ORIENTED_EDGE('',*,*,#135,.T.);
#71=ORIENTED_EDGE('',*,*,#129,.T.);
#72=ORIENTED_EDGE('',*,*,#132,.F.);
#73=ORIENTED_EDGE('',*,*,#135,.F.);
#74=ORIENTED_EDGE('',*,*,#134,.T.);
#75=ORIENTED_EDGE('',*,*,#131,.F.);
#76=ORIENTED_EDGE('',*,*,#136,.T.);
#77=ORIENTED_EDGE('',*,*,#137,.T.);
#78=ORIENTED_EDGE('',*,*,#138,.F.);
#79=ORIENTED_EDGE('',*,*,#139,.F.);
#80=ORIENTED_EDGE('',*,*,#136,.F.);
#81=ORIENTED_EDGE('',*,*,#140,.F.);
#82=ORIENTED_EDGE('',*,*,#141,.T.);
#83=ORIENTED_EDGE('',*,*,#142,.T.);
#84=ORIENTED_EDGE('',*,*,#139,.T.);
#85=ORIENTED_EDGE('',*,*,#143,.T.);
#86=ORIENTED_EDGE('',*,*,#144,.T.);
#87=ORIENTED_EDGE('',*,*,#140,.T.);
#88=ORIENTED_EDGE('',*,*,#137,.F.);
#89=ORIENTED_EDGE('',*,*,#142,.F.);
#90=ORIENTED_EDGE('',*,*,#145,.F.);
#91=ORIENTED_EDGE('',*,*,#146,.F.);
#92=ORIENTED_EDGE('',*,*,#138,.T.);
#93=ORIENTED_EDGE('',*,*,#146,.T.);
#94=ORIENTED_EDGE('',*,*,#147,.F.);
#95=ORIENTED_EDGE('',*,*,#143,.F.);
#96=ORIENTED_EDGE('',*,*,#141,.F.);
#97=ORIENTED_EDGE('',*,*,#144,.F.);
#98=ORIENTED_EDGE('',*,*,#147,.T.);
#99=ORIENTED_EDGE('',*,*,#145,.T.);
#100=ORIENTED_EDGE('',*,*,#148,.T.);
#101=ORIENTED_EDGE('',*,*,#149,.F.);
#102=ORIENTED_EDGE('',*,*,#150,.F.);
#103=ORIENTED_EDGE('',*,*,#151,.T.);
#104=ORIENTED_EDGE('',*,*,#152,.T.);
#105=ORIENTED_EDGE('',*,*,#153,.T.);
#106=ORIENTED_EDGE('',*,*,#154,.T.);
#107=ORIENTED_EDGE('',*,*,#149,.T.);
#108=ORIENTED_EDGE('',*,*,#155,.F.);
#109=ORIENTED_EDGE('',*,*,#156,.T.);
#110=ORIENTED_EDGE('',*,*,#157,.T.);
#111=ORIENTED_EDGE('',*,*,#153,.F.);
#112=ORIENTED_EDGE('',*,*,#150,.T.);
#113=ORIENTED_EDGE('',*,*,#154,.F.);
#114=ORIENTED_EDGE('',*,*,#157,.F.);
#115=ORIENTED_EDGE('',*,*,#158,.T.);
#116=ORIENTED_EDGE('',*,*,#159,.F.);
#117=ORIENTED_EDGE('',*,*,#151,.F.);
#118=ORIENTED_EDGE('',*,*,#158,.F.);
#119=ORIENTED_EDGE('',*,*,#156,.F.);
#120=ORIENTED_EDGE('',*,*,#148,.F.);
#121=ORIENTED_EDGE('',*,*,#159,.T.);
#122=ORIENTED_EDGE('',*,*,#155,.T.);
#123=ORIENTED_EDGE('',*,*,#152,.F.);
#124=EDGE_CURVE('',#160,#161,#182,.T.);
#125=EDGE_CURVE('',#160,#162,#183,.T.);
#126=EDGE_CURVE('',#161,#162,#184,.T.);
#127=EDGE_CURVE('',#163,#161,#185,.T.);
#128=EDGE_CURVE('',#163,#162,#186,.T.);
#129=EDGE_CURVE('',#164,#160,#187,.T.);
#130=EDGE_CURVE('',#164,#162,#188,.T.);
#131=EDGE_CURVE('',#164,#163,#189,.T.);
#132=EDGE_CURVE('',#165,#160,#190,.T.);
#133=EDGE_CURVE('',#165,#161,#191,.T.);
#134=EDGE_CURVE('',#165,#163,#192,.T.);
#135=EDGE_CURVE('',#165,#164,#193,.T.);
#136=EDGE_CURVE('',#166,#167,#28,.T.);
#137=EDGE_CURVE('',#167,#168,#194,.T.);
#138=EDGE_CURVE('',#169,#168,#29,.T.);
#139=EDGE_CURVE('',#166,#169,#195,.T.);
#140=EDGE_CURVE('',#170,#166,#196,.T.);
#141=EDGE_CURVE('',#170,#171,#30,.T.);
#142=EDGE_CURVE('',#171,#167,#197,.T.);
#143=EDGE_CURVE('',#169,#172,#198,.T.);
#144=EDGE_CURVE('',#172,#170,#199,.T.);
#145=EDGE_CURVE('',#173,#171,#200,.T.);
#146=EDGE_CURVE('',#168,#173,#201,.T.);
#147=EDGE_CURVE('',#172,#173,#31,.T.);
#148=EDGE_CURVE('',#174,#175,#32,.T.);
#149=EDGE_CURVE('',#176,#175,#202,.T.);
#150=EDGE_CURVE('',#177,#176,#33,.T.);
#151=EDGE_CURVE('',#177,#174,#203,.T.);
#152=EDGE_CURVE('',#175,#178,#204,.T.);
#153=EDGE_CURVE('',#178,#179,#205,.T.);
#154=EDGE_CURVE('',#179,#176,#206,.T.);
#155=EDGE_CURVE('',#180,#178,#34,.T.);
#156=EDGE_CURVE('',#180,#181,#207,.T.);
#157=EDGE_CURVE('',#181,#179,#35,.T.);
#158=EDGE_CURVE('',#181,#177,#208,.T.);
#159=EDGE_CURVE('',#174,#180,#209,.T.);
#160=VERTEX_POINT('',#447);
#161=VERTEX_POINT('',#448);
#162=VERTEX_POINT('',#450);
#163=VERTEX_POINT('',#454);
#164=VERTEX_POINT('',#458);
#165=VERTEX_POINT('',#464);
#166=VERTEX_POINT('',#473);
#167=VERTEX_POINT('',#474);
#168=VERTEX_POINT('',#476);
#169=VERTEX_POINT('',#478);
#170=VERTEX_POINT('',#482);
#171=VERTEX_POINT('',#484);
#172=VERTEX_POINT('',#488);
#173=VERTEX_POINT('',#492);
#174=VERTEX_POINT('',#500);
#175=VERTEX_POINT('',#501);
#176=VERTEX_POINT('',#503);
#177=VERTEX_POINT('',#505);
#178=VERTEX_POINT('',#509);
#179=VERTEX_POINT('',#511);
#180=VERTEX_POINT('',#515);
#181=VERTEX_POINT('',#517);
#182=CIRCLE('',#288,30.);
#183=CIRCLE('',#289,30.);
#184=CIRCLE('',#290,30.);
#185=CIRCLE('',#292,30.);
#186=CIRCLE('',#293,30.);
#187=CIRCLE('',#295,30.);
#188=CIRCLE('',#296,30.);
#189=CIRCLE('',#298,30.);
#190=CIRCLE('',#300,30.);
#191=CIRCLE('',#301,30.);
#192=CIRCLE('',#303,30.);
#193=CIRCLE('',#305,30.);
#194=CIRCLE('',#308,5.);
#195=CIRCLE('',#309,5.);
#196=CIRCLE('',#311,5.);
#197=CIRCLE('',#312,5.);
#198=CIRCLE('',#314,5.);
#199=CIRCLE('',#315,5.);
#200=CIRCLE('',#317,5.);
#201=CIRCLE('',#318,5.);
#202=CIRCLE('',#323,5.);
#203=CIRCLE('',#324,5.);
#204=CIRCLE('',#326,5.);
#205=CIRCLE('',#327,5.);
#206=CIRCLE('',#328,5.);
#207=CIRCLE('',#330,5.);
#208=CIRCLE('',#332,5.);
#209=CIRCLE('',#334,5.);
#210=EDGE_LOOP('',(#52,#53,#54));
#211=EDGE_LOOP('',(#55,#56,#57));
#212=EDGE_LOOP('',(#58,#59,#60));
#213=EDGE_LOOP('',(#61,#62,#63));
#214=EDGE_LOOP('',(#64,#65,#66));
#215=EDGE_LOOP('',(#67,#68,#69));
#216=EDGE_LOOP('',(#70,#71,#72));
#217=EDGE_LOOP('',(#73,#74,#75));
#218=EDGE_LOOP('',(#76,#77,#78,#79));
#219=EDGE_LOOP('',(#80,#81,#82,#83));
#220=EDGE_LOOP('',(#84,#85,#86,#87));
#221=EDGE_LOOP('',(#88,#89,#90,#91));
#222=EDGE_LOOP('',(#92,#93,#94,#95));
#223=EDGE_LOOP('',(#96,#97,#98,#99));
#224=EDGE_LOOP('',(#100,#101,#102,#103));
#225=EDGE_LOOP('',(#104,#105,#106,#107));
#226=EDGE_LOOP('',(#108,#109,#110,#111));
#227=EDGE_LOOP('',(#112,#113,#114,#115));
#228=EDGE_LOOP('',(#116,#117,#118,#119));
#229=EDGE_LOOP('',(#120,#121,#122,#123));
#230=FACE_BOUND('',#210,.T.);
#231=FACE_BOUND('',#211,.T.);
#232=FACE_BOUND('',#212,.T.);
#233=FACE_BOUND('',#213,.T.);
#234=FACE_BOUND('',#214,.T.);
#235=FACE_BOUND('',#215,.T.);
#236=FACE_BOUND('',#216,.T.);
#237=FACE_BOUND('',#217,.T.);
#238=FACE_BOUND('',#218,.T.);
#239=FACE_BOUND('',#219,.T.);
#240=FACE_BOUND('',#220,.T.);
#241=FACE_BOUND('',#221,.T.);
#242=FACE_BOUND('',#222,.T.);
#243=FACE_BOUND('',#223,.T.);
#244=FACE_BOUND('',#224,.T.);
#245=FACE_BOUND('',#225,.T.);
#246=FACE_BOUND('',#226,.T.);
#247=FACE_BOUND('',#227,.T.);
#248=FACE_BOUND('',#228,.T.);
#249=FACE_BOUND('',#229,.T.);
#250=SPHERICAL_SURFACE('',#287,30.);
#251=SPHERICAL_SURFACE('',#291,30.);
#252=SPHERICAL_SURFACE('',#294,30.);
#253=SPHERICAL_SURFACE('',#297,30.);
#254=SPHERICAL_SURFACE('',#299,30.);
#255=SPHERICAL_SURFACE('',#302,30.);
#256=SPHERICAL_SURFACE('',#304,30.);
#257=SPHERICAL_SURFACE('',#306,30.);
#258=ADVANCED_FACE('',(#230),#250,.T.);
#259=ADVANCED_FACE('',(#231),#251,.T.);
#260=ADVANCED_FACE('',(#232),#252,.T.);
#261=ADVANCED_FACE('',(#233),#253,.T.);
#262=ADVANCED_FACE('',(#234),#254,.T.);
#263=ADVANCED_FACE('',(#235),#255,.T.);
#264=ADVANCED_FACE('',(#236),#256,.T.);
#265=ADVANCED_FACE('',(#237),#257,.T.);
#266=ADVANCED_FACE('',(#238),#44,.F.);
#267=ADVANCED_FACE('',(#239),#45,.F.);
#268=ADVANCED_FACE('',(#240),#24,.T.);
#269=ADVANCED_FACE('',(#241),#25,.F.);
#270=ADVANCED_FACE('',(#242),#46,.F.);
#271=ADVANCED_FACE('',(#243),#47,.F.);
#272=ADVANCED_FACE('',(#244),#48,.T.);
#273=ADVANCED_FACE('',(#245),#26,.T.);
#274=ADVANCED_FACE('',(#246),#49,.T.);
#275=ADVANCED_FACE('',(#247),#50,.T.);
#276=ADVANCED_FACE('',(#248),#27,.F.);
#277=ADVANCED_FACE('',(#249),#51,.T.);
#278=CLOSED_SHELL('',(#258,#259,#260,#261,#262,#263,#264,#265));
#279=CLOSED_SHELL('',(#266,#267,#268,#269,#270,#271));
#280=CLOSED_SHELL('',(#272,#273,#274,#275,#276,#277));
#281=BREP_WITH_VOIDS('',#278,(#23));
#282=SHAPE_DEFINITION_REPRESENTATION(#535,#284);
#283=SHAPE_DEFINITION_REPRESENTATION(#536,#285);
#284=SHAPE_REPRESENTATION('id2',(#286),#525);
#285=SHAPE_REPRESENTATION('id5',(#321),#526);
#286=AXIS2_PLACEMENT_3D('',#444,#336,#337);
#287=AXIS2_PLACEMENT_3D('',#445,#338,#339);
#288=AXIS2_PLACEMENT_3D('',#446,#340,#341);
#289=AXIS2_PLACEMENT_3D('',#449,#342,#343);
#290=AXIS2_PLACEMENT_3D('',#451,#344,#345);
#291=AXIS2_PLACEMENT_3D('',#452,#346,#347);
#292=AXIS2_PLACEMENT_3D('',#453,#348,#349);
#293=AXIS2_PLACEMENT_3D('',#455,#350,#351);
#294=AXIS2_PLACEMENT_3D('',#456,#352,#353);
#295=AXIS2_PLACEMENT_3D('',#457,#354,#355);
#296=AXIS2_PLACEMENT_3D('',#459,#356,#357);
#297=AXIS2_PLACEMENT_3D('',#460,#358,#359);
#298=AXIS2_PLACEMENT_3D('',#461,#360,#361);
#299=AXIS2_PLACEMENT_3D('',#462,#362,#363);
#300=AXIS2_PLACEMENT_3D('',#463,#364,#365);
#301=AXIS2_PLACEMENT_3D('',#465,#366,#367);
#302=AXIS2_PLACEMENT_3D('',#466,#368,#369);
#303=AXIS2_PLACEMENT_3D('',#467,#370,#371);
#304=AXIS2_PLACEMENT_3D('',#468,#372,#373);
#305=AXIS2_PLACEMENT_3D('',#469,#374,#375);
#306=AXIS2_PLACEMENT_3D('',#470,#376,#377);
#307=AXIS2_PLACEMENT_3D('',#471,#378,#379);
#308=AXIS2_PLACEMENT_3D('',#475,#381,#382);
#309=AXIS2_PLACEMENT_3D('',#479,#384,#385);
#310=AXIS2_PLACEMENT_3D('',#480,#386,#387);
#311=AXIS2_PLACEMENT_3D('',#481,#388,#389);
#312=AXIS2_PLACEMENT_3D('',#485,#391,#392);
#313=AXIS2_PLACEMENT_3D('',#486,#393,#394);
#314=AXIS2_PLACEMENT_3D('',#487,#395,#396);
#315=AXIS2_PLACEMENT_3D('',#489,#397,#398);
#316=AXIS2_PLACEMENT_3D('',#490,#399,#400);
#317=AXIS2_PLACEMENT_3D('',#491,#401,#402);
#318=AXIS2_PLACEMENT_3D('',#493,#403,#404);
#319=AXIS2_PLACEMENT_3D('',#494,#405,#406);
#320=AXIS2_PLACEMENT_3D('',#496,#408,#409);
#321=AXIS2_PLACEMENT_3D('',#497,#410,#411);
#322=AXIS2_PLACEMENT_3D('',#498,#412,#413);
#323=AXIS2_PLACEMENT_3D('',#502,#415,#416);
#324=AXIS2_PLACEMENT_3D('',#506,#418,#419);
#325=AXIS2_PLACEMENT_3D('',#507,#420,#421);
#326=AXIS2_PLACEMENT_3D('',#508,#422,#423);
#327=AXIS2_PLACEMENT_3D('',#510,#424,#425);
#328=AXIS2_PLACEMENT_3D('',#512,#426,#427);
#329=AXIS2_PLACEMENT_3D('',#513,#428,#429);
#330=AXIS2_PLACEMENT_3D('',#516,#431,#432);
#331=AXIS2_PLACEMENT_3D('',#519,#434,#435);
#332=AXIS2_PLACEMENT_3D('',#520,#436,#437);
#333=AXIS2_PLACEMENT_3D('',#521,#438,#439);
#334=AXIS2_PLACEMENT_3D('',#522,#440,#441);
#335=AXIS2_PLACEMENT_3D('',#523,#442,#443);
#336=DIRECTION('',(0.,0.,1.));
#337=DIRECTION('',(1.,0.,0.));
#338=DIRECTION('',(0.707106781186547,-0.707106781186548,0.));
#339=DIRECTION('',(-0.577350269189626,-0.577350269189626,-0.577350269189626));
#340=DIRECTION('',(-1.,4.32978028117747E-17,4.32978028117747E-17));
#341=DIRECTION('',(4.32978028117747E-17,-1.1842378929335E-16,1.));
#342=DIRECTION('',(-4.32978028117747E-17,1.,-4.32978028117747E-17));
#343=DIRECTION('',(-1.1842378929335E-16,4.32978028117747E-17,1.));
#344=DIRECTION('',(4.32978028117747E-17,4.32978028117747E-17,-1.));
#345=DIRECTION('',(-1.1842378929335E-16,1.,4.32978028117747E-17));
#346=DIRECTION('',(0.707106781186547,-0.707106781186548,0.));
#347=DIRECTION('',(-0.577350269189626,-0.577350269189626,0.577350269189626));
#348=DIRECTION('',(1.,-4.32978028117747E-17,4.32978028117747E-17));
#349=DIRECTION('',(4.32978028117747E-17,-1.1842378929335E-16,-1.));
#350=DIRECTION('',(4.32978028117747E-17,-1.,-4.32978028117747E-17));
#351=DIRECTION('',(-1.1842378929335E-16,4.32978028117747E-17,-1.));
#352=DIRECTION('',(-0.707106781186547,-0.707106781186548,0.));
#353=DIRECTION('',(-0.577350269189626,0.577350269189626,-0.577350269189626));
#354=DIRECTION('',(-1.,-4.32978028117747E-17,4.32978028117747E-17));
#355=DIRECTION('',(4.32978028117747E-17,-1.,-1.1842378929335E-16));
#356=DIRECTION('',(-4.32978028117747E-17,4.32978028117747E-17,1.));
#357=DIRECTION('',(-1.1842378929335E-16,-1.,4.32978028117747E-17));
#358=DIRECTION('',(-0.707106781186547,-0.707106781186548,0.));
#359=DIRECTION('',(-0.577350269189626,0.577350269189626,0.577350269189626));
#360=DIRECTION('',(1.,4.32978028117747E-17,4.32978028117747E-17));
#361=DIRECTION('',(4.32978028117747E-17,-1.,1.1842378929335E-16));
#362=DIRECTION('',(0.707106781186548,0.707106781186547,0.));
#363=DIRECTION('',(0.577350269189626,-0.577350269189626,-0.577350269189626));
#364=DIRECTION('',(4.32978028117747E-17,1.,-4.32978028117747E-17));
#365=DIRECTION('',(-1.,4.32978028117747E-17,-1.1842378929335E-16));
#366=DIRECTION('',(-4.32978028117747E-17,4.32978028117747E-17,-1.));
#367=DIRECTION('',(-1.,-1.1842378929335E-16,4.32978028117747E-17));
#368=DIRECTION('',(0.707106781186548,0.707106781186547,0.));
#369=DIRECTION('',(0.577350269189626,-0.577350269189626,0.577350269189626));
#370=DIRECTION('',(-4.32978028117747E-17,-1.,-4.32978028117747E-17));
#371=DIRECTION('',(-1.,4.32978028117747E-17,1.1842378929335E-16));
#372=DIRECTION('',(-0.707106781186548,0.707106781186547,0.));
#373=DIRECTION('',(0.577350269189626,0.577350269189626,-0.577350269189626));
#374=DIRECTION('',(4.32978028117747E-17,4.32978028117747E-17,1.));
#375=DIRECTION('',(-1.,1.1842378929335E-16,4.32978028117747E-17));
#376=DIRECTION('',(-0.707106781186548,0.707106781186547,0.));
#377=DIRECTION('',(0.577350269189626,0.577350269189626,0.577350269189626));
#378=DIRECTION('',(0.,0.,1.));
#379=DIRECTION('',(1.,0.,0.));
#380=DIRECTION('',(0.,0.,1.));
#381=DIRECTION('',(2.00307048680152E-16,2.00307048680152E-16,1.));
#382=DIRECTION('',(-1.,4.01229137509529E-32,3.5527136788005E-16));
#383=DIRECTION('',(0.,0.,1.));
#384=DIRECTION('',(-1.13711443056603E-16,-1.13711443056603E-16,1.));
#385=DIRECTION('',(-1.,1.2930292282015E-32,0.));
#386=DIRECTION('',(0.,0.,1.));
#387=DIRECTION('',(1.,0.,0.));
#388=DIRECTION('',(-1.13711443056603E-16,1.13711443056603E-16,1.));
#389=DIRECTION('',(1.93954384230226E-32,1.,0.));
#390=DIRECTION('',(0.,0.,1.));
#391=DIRECTION('',(2.00307048680152E-16,-2.00307048680152E-16,1.));
#392=DIRECTION('',(6.01843706264293E-32,1.,3.5527136788005E-16));
#393=DIRECTION('',(0.,0.,1.));
#394=DIRECTION('',(1.,0.,0.));
#395=DIRECTION('',(1.13711443056603E-16,-1.13711443056603E-16,1.));
#396=DIRECTION('',(-1.93954384230226E-32,-1.,0.));
#397=DIRECTION('',(1.13711443056603E-16,1.13711443056603E-16,1.));
#398=DIRECTION('',(1.,-1.2930292282015E-32,0.));
#399=DIRECTION('',(0.,0.,1.));
#400=DIRECTION('',(1.,0.,0.));
#401=DIRECTION('',(-2.00307048680152E-16,-2.00307048680152E-16,1.));
#402=DIRECTION('',(1.,-4.01229137509529E-32,3.5527136788005E-16));
#403=DIRECTION('',(-2.00307048680152E-16,2.00307048680152E-16,1.));
#404=DIRECTION('',(-6.01843706264293E-32,-1.,3.5527136788005E-16));
#405=DIRECTION('',(0.,0.,1.));
#406=DIRECTION('',(1.,0.,0.));
#407=DIRECTION('',(0.,0.,1.));
#408=DIRECTION('',(0.,0.,1.));
#409=DIRECTION('',(1.,0.,0.));
#410=DIRECTION('',(0.,0.,1.));
#411=DIRECTION('',(1.,0.,0.));
#412=DIRECTION('',(0.,0.,1.));
#413=DIRECTION('',(1.,0.,0.));
#414=DIRECTION('',(0.,0.,1.));
#415=DIRECTION('',(2.00307048680152E-16,-2.00307048680152E-16,1.));
#416=DIRECTION('',(6.01843706264293E-32,1.,3.5527136788005E-16));
#417=DIRECTION('',(0.,0.,1.));
#418=DIRECTION('',(-1.13711443056603E-16,1.13711443056603E-16,1.));
#419=DIRECTION('',(1.93954384230226E-32,1.,0.));
#420=DIRECTION('',(0.,0.,1.));
#421=DIRECTION('',(1.,0.,0.));
#422=DIRECTION('',(2.00307048680152E-16,2.00307048680152E-16,1.));
#423=DIRECTION('',(-1.,4.01229137509529E-32,3.5527136788005E-16));
#424=DIRECTION('',(-2.00307048680152E-16,2.00307048680152E-16,1.));
#425=DIRECTION('',(-6.01843706264293E-32,-1.,3.5527136788005E-16));
#426=DIRECTION('',(-2.00307048680152E-16,-2.00307048680152E-16,1.));
#427=DIRECTION('',(1.,-4.01229137509529E-32,3.5527136788005E-16));
#428=DIRECTION('',(0.,0.,1.));
#429=DIRECTION('',(1.,0.,0.));
#430=DIRECTION('',(0.,0.,1.));
#431=DIRECTION('',(1.13711443056603E-16,-1.13711443056603E-16,1.));
#432=DIRECTION('',(-1.93954384230226E-32,-1.,0.));
#433=DIRECTION('',(0.,0.,1.));
#434=DIRECTION('',(0.,0.,1.));
#435=DIRECTION('',(1.,0.,0.));
#436=DIRECTION('',(1.13711443056603E-16,1.13711443056603E-16,1.));
#437=DIRECTION('',(1.,-1.2930292282015E-32,0.));
#438=DIRECTION('',(0.,0.,1.));
#439=DIRECTION('',(1.,0.,0.));
#440=DIRECTION('',(-1.13711443056603E-16,-1.13711443056603E-16,1.));
#441=DIRECTION('',(-1.,1.2930292282015E-32,0.));
#442=DIRECTION('',(0.,0.,1.));
#443=DIRECTION('',(1.,0.,0.));
#444=CARTESIAN_POINT('',(0.,0.,0.));
#445=CARTESIAN_POINT('',(-1.33226762955019E-15,-8.88178419700125E-16,3.10862446895044E-15));
#446=CARTESIAN_POINT('',(-1.29893408435324E-15,3.5527136788005E-15,3.5527136788005E-15));
#447=CARTESIAN_POINT('',(0.,0.,30.));
#448=CARTESIAN_POINT('',(0.,30.,0.));
#449=CARTESIAN_POINT('',(3.5527136788005E-15,-1.29893408435324E-15,3.5527136788005E-15));
#450=CARTESIAN_POINT('',(30.,0.,0.));
#451=CARTESIAN_POINT('',(3.5527136788005E-15,3.5527136788005E-15,-1.29893408435324E-15));
#452=CARTESIAN_POINT('',(-1.33226762955019E-15,-8.88178419700125E-16,-3.10862446895044E-15));
#453=CARTESIAN_POINT('',(-1.29893408435324E-15,3.5527136788005E-15,-3.5527136788005E-15));
#454=CARTESIAN_POINT('',(0.,0.,-30.));
#455=CARTESIAN_POINT('',(3.5527136788005E-15,-1.29893408435324E-15,-3.5527136788005E-15));
#456=CARTESIAN_POINT('',(-1.33226762955019E-15,8.88178419700125E-16,3.10862446895044E-15));
#457=CARTESIAN_POINT('',(-1.29893408435324E-15,-3.5527136788005E-15,3.5527136788005E-15));
#458=CARTESIAN_POINT('',(0.,-30.,0.));
#459=CARTESIAN_POINT('',(3.5527136788005E-15,-3.5527136788005E-15,-1.29893408435324E-15));
#460=CARTESIAN_POINT('',(-1.33226762955019E-15,8.88178419700125E-16,-3.10862446895044E-15));
#461=CARTESIAN_POINT('',(-1.29893408435324E-15,-3.5527136788005E-15,-3.5527136788005E-15));
#462=CARTESIAN_POINT('',(8.88178419700125E-16,-1.33226762955019E-15,3.10862446895044E-15));
#463=CARTESIAN_POINT('',(-3.5527136788005E-15,-1.29893408435324E-15,3.5527136788005E-15));
#464=CARTESIAN_POINT('',(-30.,0.,0.));
#465=CARTESIAN_POINT('',(-3.5527136788005E-15,3.5527136788005E-15,-1.29893408435324E-15));
#466=CARTESIAN_POINT('',(8.88178419700125E-16,-1.33226762955019E-15,-3.10862446895044E-15));
#467=CARTESIAN_POINT('',(-3.5527136788005E-15,-1.29893408435324E-15,-3.5527136788005E-15));
#468=CARTESIAN_POINT('',(8.88178419700125E-16,1.33226762955019E-15,3.10862446895044E-15));
#469=CARTESIAN_POINT('',(-3.5527136788005E-15,-3.5527136788005E-15,-1.29893408435324E-15));
#470=CARTESIAN_POINT('',(8.88178419700125E-16,1.33226762955019E-15,-3.10862446895044E-15));
#471=CARTESIAN_POINT('',(8.88178419700125E-16,8.88178419700125E-16,-6.));
#472=CARTESIAN_POINT('',(-5.,0.,0.));
#473=CARTESIAN_POINT('',(-5.,0.,-10.));
#474=CARTESIAN_POINT('',(-5.,0.,10.));
#475=CARTESIAN_POINT('',(-1.00307284377382E-31,0.,10.));
#476=CARTESIAN_POINT('',(0.,-5.,10.));
#477=CARTESIAN_POINT('',(0.,-5.,0.));
#478=CARTESIAN_POINT('',(0.,-5.,-10.));
#479=CARTESIAN_POINT('',(-3.23257307050376E-32,0.,-10.));
#480=CARTESIAN_POINT('',(8.88178419700125E-16,-8.88178419700125E-16,-6.));
#481=CARTESIAN_POINT('',(-3.23257307050376E-32,0.,-10.));
#482=CARTESIAN_POINT('',(0.,5.,-10.));
#483=CARTESIAN_POINT('',(0.,5.,0.));
#484=CARTESIAN_POINT('',(0.,5.,10.));
#485=CARTESIAN_POINT('',(-1.00307284377382E-31,0.,10.));
#486=CARTESIAN_POINT('',(-5.,-5.,-10.));
#487=CARTESIAN_POINT('',(3.23257307050376E-32,0.,-10.));
#488=CARTESIAN_POINT('',(5.,0.,-10.));
#489=CARTESIAN_POINT('',(3.23257307050376E-32,0.,-10.));
#490=CARTESIAN_POINT('',(-5.,-5.,10.));
#491=CARTESIAN_POINT('',(1.00307284377382E-31,0.,10.));
#492=CARTESIAN_POINT('',(5.,0.,10.));
#493=CARTESIAN_POINT('',(1.00307284377382E-31,0.,10.));
#494=CARTESIAN_POINT('',(-8.88178419700125E-16,8.88178419700125E-16,-6.));
#495=CARTESIAN_POINT('',(5.,0.,0.));
#496=CARTESIAN_POINT('',(-8.88178419700125E-16,-8.88178419700125E-16,-6.));
#497=CARTESIAN_POINT('',(0.,0.,0.));
#498=CARTESIAN_POINT('',(8.88178419700125E-16,-8.88178419700125E-16,-6.));
#499=CARTESIAN_POINT('',(-5.,0.,0.));
#500=CARTESIAN_POINT('',(-5.,0.,-10.));
#501=CARTESIAN_POINT('',(-5.,0.,10.));
#502=CARTESIAN_POINT('',(-1.00307284377382E-31,0.,10.));
#503=CARTESIAN_POINT('',(0.,5.,10.));
#504=CARTESIAN_POINT('',(0.,5.,0.));
#505=CARTESIAN_POINT('',(0.,5.,-10.));
#506=CARTESIAN_POINT('',(-3.23257307050376E-32,0.,-10.));
#507=CARTESIAN_POINT('',(-5.,-5.,10.));
#508=CARTESIAN_POINT('',(-1.00307284377382E-31,0.,10.));
#509=CARTESIAN_POINT('',(0.,-5.,10.));
#510=CARTESIAN_POINT('',(1.00307284377382E-31,0.,10.));
#511=CARTESIAN_POINT('',(5.,0.,10.));
#512=CARTESIAN_POINT('',(1.00307284377382E-31,0.,10.));
#513=CARTESIAN_POINT('',(-8.88178419700125E-16,8.88178419700125E-16,-6.));
#514=CARTESIAN_POINT('',(0.,-5.,0.));
#515=CARTESIAN_POINT('',(0.,-5.,-10.));
#516=CARTESIAN_POINT('',(3.23257307050376E-32,0.,-10.));
#517=CARTESIAN_POINT('',(5.,0.,-10.));
#518=CARTESIAN_POINT('',(5.,0.,0.));
#519=CARTESIAN_POINT('',(-8.88178419700125E-16,-8.88178419700125E-16,-6.));
#520=CARTESIAN_POINT('',(3.23257307050376E-32,0.,-10.));
#521=CARTESIAN_POINT('',(-5.,-5.,-10.));
#522=CARTESIAN_POINT('',(-3.23257307050376E-32,0.,-10.));
#523=CARTESIAN_POINT('',(8.88178419700125E-16,8.88178419700125E-16,-6.));
#524=MECHANICAL_DESIGN_GEOMETRIC_PRESENTATION_REPRESENTATION('',(),#525);
#525=(
GEOMETRIC_REPRESENTATION_CONTEXT(3)
GLOBAL_UNCERTAINTY_ASSIGNED_CONTEXT((#527))
GLOBAL_UNIT_ASSIGNED_CONTEXT((#533,#531,#529))
REPRESENTATION_CONTEXT('id2','TOP_LEVEL_ASSEMBLY_PART')
);
#526=(
GEOMETRIC_REPRESENTATION_CONTEXT(3)
GLOBAL_UNCERTAINTY_ASSIGNED_CONTEXT((#528))
GLOBAL_UNIT_ASSIGNED_CONTEXT((#534,#532,#530))
REPRESENTATION_CONTEXT('id5','TOP_LEVEL_ASSEMBLY_PART')
);
#527=UNCERTAINTY_MEASURE_WITH_UNIT(LENGTH_MEASURE(0.005),#533,
'DISTANCE_ACCURACY_VALUE','Maximum Tolerance applied to model');
#528=UNCERTAINTY_MEASURE_WITH_UNIT(LENGTH_MEASURE(0.005),#534,
'DISTANCE_ACCURACY_VALUE','Maximum Tolerance applied to model');
#529=(
NAMED_UNIT(*)
SI_UNIT($,.STERADIAN.)
SOLID_ANGLE_UNIT()
);
#530=(
NAMED_UNIT(*)
SI_UNIT($,.STERADIAN.)
SOLID_ANGLE_UNIT()
);
#531=(
NAMED_UNIT(*)
PLANE_ANGLE_UNIT()
SI_UNIT($,.RADIAN.)
);
#532=(
NAMED_UNIT(*)
PLANE_ANGLE_UNIT()
SI_UNIT($,.RADIAN.)
);
#533=(
LENGTH_UNIT()
NAMED_UNIT(*)
SI_UNIT(.MILLI.,.METRE.)
);
#534=(
LENGTH_UNIT()
NAMED_UNIT(*)
SI_UNIT(.MILLI.,.METRE.)
);
#535=PRODUCT_DEFINITION_SHAPE('','',#537);
#536=PRODUCT_DEFINITION_SHAPE('','',#538);
#537=PRODUCT_DEFINITION('','',#541,#539);
#538=PRODUCT_DEFINITION('','',#542,#540);
#539=DESIGN_CONTEXT('',#553,'design');
#540=DESIGN_CONTEXT('',#554,'design');
#541=PRODUCT_DEFINITION_FORMATION_WITH_SPECIFIED_SOURCE('','',#545,
 .NOT_KNOWN.);
#542=PRODUCT_DEFINITION_FORMATION_WITH_SPECIFIED_SOURCE('','',#546,
 .NOT_KNOWN.);
#543=PRODUCT_RELATED_PRODUCT_CATEGORY('','',(#545));
#544=PRODUCT_RELATED_PRODUCT_CATEGORY('','',(#546));
#545=PRODUCT('id2','id2','id2',(#549));
#546=PRODUCT('id5','id5','id5',(#550));
#547=PRODUCT_CATEGORY('','');
#548=PRODUCT_CATEGORY('','');
#549=MECHANICAL_CONTEXT('',#553,'mechanical');
#550=MECHANICAL_CONTEXT('',#554,'mechanical');
#551=APPLICATION_PROTOCOL_DEFINITION('international standard',
'config_control_design',2010,#553);
#552=APPLICATION_PROTOCOL_DEFINITION('international standard',
'config_control_design',2010,#554);
#553=APPLICATION_CONTEXT(
'configuration controlled 3D designs of mechanical parts and assemblie
s');
#554=APPLICATION_CONTEXT(
'configuration controlled 3D designs of mechanical parts and assemblie
s');
ENDSEC;
END-ISO-10303-21;
