$MeshFormat
4.1 0 8
$EndMeshFormat
$PhysicalNames
4
1 4 "plate_clamp"
2 2 "plate"
2 3 "rigid_walls"
3 1 "fluid"
$EndPhysicalNames
$Entities
8 12 6 1
1 0 0 0 0 
2 0.8 0 0 0 
3 0.8 0.6 0 0 
4 0 0.6 0 0 
5 0 0 0.5 0 
6 0.8 0 0.5 0 
7 0.8 0.6 0.5 0 
8 0 0.6 0.5 0 
1 0 0 0 0.8 0 0 0 2 1 -2 
2 0.8 0 0 0.8 0.6 0 0 2 2 -3 
3 0 0.6 0 0.8 0.6 0 0 2 3 -4 
4 0 0 0 0 0.6 0 0 2 4 -1 
5 0 0 0.5 0.8 0 0.5 1 4 2 5 -6 
6 0.8 0 0.5 0.8 0.6 0.5 1 4 2 6 -7 
7 0 0.6 0.5 0.8 0.6 0.5 1 4 2 7 -8 
8 0 0 0.5 0 0.6 0.5 1 4 2 8 -5 
9 0 0 0 0 0 0.5 0 2 1 -5 
10 0.8 0 0 0.8 0 0.5 0 2 2 -6 
11 0.8 0.6 0 0.8 0.6 0.5 0 2 3 -7 
12 0 0.6 0 0 0.6 0.5 0 2 4 -8 
1 0 0 0 0.8 0.6 0 1 3 4 1 2 3 4 
2 0 0 0.5 0.8 0.6 0.5 1 2 4 5 6 7 8 
3 0 0 0 0.8 0 0.5 1 3 4 1 10 -5 -9 
4 0.8 0 0 0.8 0.6 0.5 1 3 4 2 11 -6 -10 
5 0 0.6 0 0.8 0.6 0.5 1 3 4 3 12 -7 -11 
6 0 0 0 0 0.6 0.5 1 3 4 4 9 -8 -12 
1 0 0 0 0.8 0.6 0.5 1 1 6 1 2 3 4 5 6 
$EndEntities
$Nodes
27 616 1 616
0 1 0 1
1
0 0 0
0 2 0 1
2
0.8 0 0
0 3 0 1
3
0.8 0.6 0
0 4 0 1
4
0 0.6 0
0 5 0 1
5
0 0 0.5
0 6 0 1
6
0.8 0 0.5
0 7 0 1
7
0.8 0.6 0.5
0 8 0 1
8
0 0.6 0.5
1 1 0 9
9
10
11
12
13
14
15
16
17
0.07999999999985988 0 0
0.1599999999996481 0 0
0.2399999999994185 0 0
0.3199999999991672 0 0
0.3999999999989484 0 0
0.4799999999991544 0 0
0.5599999999993582 0 0
0.6399999999995793 0 0
0.719999999999783 0 0
1 2 0 6
18
19
20
21
22
23
0.8 0.08571428571412083 0
0.8 0.1714285714281622 0
0.8 0.2571428571422091 0
0.8 0.3428571428564773 0
0.8 0.4285714285709946 0
0.8 0.514285714285481 0
1 3 0 9
24
25
26
27
28
29
30
31
32
0.7200000000002214 0.6 0
0.6400000000004428 0.6 0
0.5600000000006642 0.6 0
0.4800000000008854 0.6 0
0.4000000000010959 0.6 0
0.3200000000008811 0.6 0
0.2400000000006685 0.6 0
0.1600000000004383 0.6 0
0.08000000000022567 0.6 0
1 4 0 6
33
34
35
36
37
38
0 0.5142857142858537 0
0 0.4285714285718593 0
0 0.3428571428577997 0
0 0.2571428571435294 0
0 0.1714285714290098 0
0 0.08571428571452111 0
1 5 0 9
39
40
41
42
43
44
45
46
47
0.07999999999985988 0 0.5
0.1599999999996481 0 0.5
0.2399999999994185 0 0.5
0.3199999999991672 0 0.5
0.3999999999989484 0 0.5
0.4799999999991544 0 0.5
0.5599999999993582 0 0.5
0.6399999999995793 0 0.5
0.719999999999783 0 0.5
1 6 0 6
48
49
50
51
52
53
0.8 0.08571428571412083 0.5
0.8 0.1714285714281622 0.5
0.8 0.2571428571422091 0.5
0.8 0.3428571428564773 0.5
0.8 0.4285714285709946 0.5
0.8 0.514285714285481 0.5
1 7 0 9
54
55
56
57
58
59
60
61
62
0.7200000000002214 0.6 0.5
0.6400000000004428 0.6 0.5
0.5600000000006642 0.6 0.5
0.4800000000008854 0.6 0.5
0.4000000000010959 0.6 0.5
0.3200000000008811 0.6 0.5
0.2400000000006685 0.6 0.5
0.1600000000004383 0.6 0.5
0.08000000000022567 0.6 0.5
1 8 0 6
63
64
65
66
67
68
0 0.5142857142858537 0.5
0 0.4285714285718593 0.5
0 0.3428571428577997 0.5
0 0.2571428571435294 0.5
0 0.1714285714290098 0.5
0 0.08571428571452111 0.5
1 9 0 5
69
70
71
72
73
0 0 0.08333333333316043
0 0 0.1666666666662505
0 0 0.249999999999346
0 0 0.3333333333328937
0 0 0.4166666666664469
1 10 0 5
74
75
76
77
78
0.8 0 0.08333333333316043
0.8 0 0.1666666666662505
0.8 0 0.249999999999346
0.8 0 0.3333333333328937
0.8 0 0.4166666666664469
1 11 0 5
79
80
81
82
83
0.8 0.6 0.08333333333316043
0.8 0.6 0.1666666666662505
0.8 0.6 0.249999999999346
0.8 0.6 0.3333333333328937
0.8 0.6 0.4166666666664469
1 12 0 5
84
85
86
87
88
0 0.6 0.08333333333316043
0 0.6 0.1666666666662505
0 0.6 0.249999999999346
0 0.6 0.3333333333328937
0 0.6 0.4166666666664469
2 1 0 54
89
90
91
92
93
94
95
96
97
98
99
100
101
102
103
104
105
106
107
108
109
110
111
112
113
114
115
116
117
118
119
120
121
122
123
124
125
126
127
128
129
130
131
132
133
134
135
136
137
138
139
140
141
142
0.07999999999991214 0.08571428571448107 0
0.07999999999996439 0.171428571428925 0
0.08000000000001667 0.2571428571433974 0
0.08000000000006889 0.3428571428576673 0
0.08000000000012115 0.4285714285717728 0
0.08000000000017342 0.5142857142858163 0
0.159999999999761 0.08571428571444099 0
0.1599999999998739 0.1714285714288402 0
0.1599999999999868 0.2571428571432653 0
0.1600000000000997 0.3428571428575351 0
0.1600000000002125 0.4285714285716862 0
0.1600000000003254 0.514285714285779 0
0.239999999999597 0.08571428571440098 0
0.2399999999997756 0.1714285714287555 0
0.2399999999999542 0.2571428571431332 0
0.2400000000001327 0.3428571428574028 0
0.2400000000003113 0.4285714285715997 0
0.2400000000004899 0.5142857142857417 0
0.319999999999412 0.08571428571436095 0
0.3199999999996569 0.1714285714286707 0
0.3199999999999017 0.2571428571430013 0
0.3200000000001466 0.3428571428572705 0
0.3200000000003914 0.4285714285715133 0
0.3200000000006363 0.5142857142857042 0
0.3999999999992552 0.08571428571432094 0
0.3999999999995619 0.171428571428586 0
0.3999999999998687 0.2571428571428692 0
0.4000000000001755 0.3428571428571384 0
0.4000000000004824 0.4285714285714269 0
0.400000000000789 0.5142857142856671 0
0.4799999999994017 0.08571428571428091 0
0.479999999999649 0.1714285714285012 0
0.4799999999998962 0.2571428571427372 0
0.4800000000001436 0.342857142857006 0
0.4800000000003908 0.4285714285713404 0
0.4800000000006381 0.5142857142856297 0
0.5599999999995446 0.08571428571424088 0
0.5599999999997314 0.1714285714284164 0
0.5599999999999179 0.2571428571426052 0
0.5600000000001044 0.342857142856874 0
0.5600000000002912 0.4285714285712539 0
0.5600000000004777 0.5142857142855924 0
0.6399999999997026 0.08571428571420087 0
0.6399999999998262 0.1714285714283316 0
0.6399999999999493 0.257142857142473 0
0.6400000000000727 0.3428571428567416 0
0.640000000000196 0.4285714285711674 0
0.6400000000003194 0.5142857142855551 0
0.7199999999998457 0.08571428571416084 0
0.719999999999908 0.1714285714282469 0
0.7199999999999709 0.257142857142341 0
0.7200000000000337 0.3428571428566093 0
0.7200000000000961 0.4285714285710809 0
0.7200000000001586 0.5142857142855177 0
2 2 0 54
143
144
145
146
147
148
149
150
151
152
153
154
155
156
157
158
159
160
161
162
163
164
165
166
167
168
169
170
171
172
173
174
175
176
177
178
179
180
181
182
183
184
185
186
187
188
189
190
191
192
193
194
195
196
0.07999999999991214 0.08571428571448107 0.5
0.07999999999996439 0.171428571428925 0.5
0.08000000000001667 0.2571428571433974 0.5
0.08000000000006889 0.3428571428576673 0.5
0.08000000000012115 0.4285714285717728 0.5
0.08000000000017342 0.5142857142858163 0.5
0.159999999999761 0.08571428571444099 0.5
0.1599999999998739 0.1714285714288402 0.5
0.1599999999999868 0.2571428571432653 0.5
0.1600000000000997 0.3428571428575351 0.5
0.1600000000002125 0.4285714285716862 0.5
0.1600000000003254 0.514285714285779 0.5
0.239999999999597 0.08571428571440098 0.5
0.2399999999997756 0.1714285714287555 0.5
0.2399999999999542 0.2571428571431332 0.5
0.2400000000001327 0.3428571428574028 0.5
0.2400000000003113 0.4285714285715997 0.5
0.2400000000004899 0.5142857142857417 0.5
0.319999999999412 0.08571428571436095 0.5
0.3199999999996569 0.1714285714286707 0.5
0.3199999999999017 0.2571428571430013 0.5
0.3200000000001466 0.3428571428572705 0.5
0.3200000000003914 0.4285714285715133 0.5
0.3200000000006363 0.5142857142857042 0.5
0.3999999999992552 0.08571428571432094 0.5
0.3999999999995619 0.171428571428586 0.5
0.3999999999998687 0.2571428571428692 0.5
0.4000000000001755 0.3428571428571384 0.5
0.4000000000004824 0.4285714285714269 0.5
0.400000000000789 0.5142857142856671 0.5
0.4799999999994017 0.08571428571428091 0.5
0.479999999999649 0.1714285714285012 0.5
0.4799999999998962 0.2571428571427372 0.5
0.4800000000001436 0.342857142857006 0.5
0.4800000000003908 0.4285714285713404 0.5
0.4800000000006381 0.5142857142856297 0.5
0.5599999999995446 0.08571428571424088 0.5
0.5599999999997314 0.1714285714284164 0.5
0.5599999999999179 0.2571428571426052 0.5
0.5600000000001044 0.342857142856874 0.5
0.5600000000002912 0.4285714285712539 0.5
0.5600000000004777 0.5142857142855924 0.5
0.6399999999997026 0.08571428571420087 0.5
0.6399999999998262 0.1714285714283316 0.5
0.6399999999999493 0.257142857142473 0.5
0.6400000000000727 0.3428571428567416 0.5
0.640000000000196 0.4285714285711674 0.5
0.6400000000003194 0.5142857142855551 0.5
0.7199999999998457 0.08571428571416084 0.5
0.719999999999908 0.1714285714282469 0.5
0.7199999999999709 0.257142857142341 0.5
0.7200000000000337 0.3428571428566093 0.5
0.7200000000000961 0.4285714285710809 0.5
0.7200000000001586 0.5142857142855177 0.5
2 3 0 45
197
198
199
200
201
202
203
204
205
206
207
208
209
210
211
212
213
214
215
216
217
218
219
220
221
222
223
224
225
226
227
228
229
230
231
232
233
234
235
236
237
238
239
240
241
0.07999999999985991 0 0.08333333333316044
0.07999999999985988 0 0.1666666666662505
0.07999999999985988 0 0.2499999999993461
0.07999999999985988 0 0.3333333333328938
0.07999999999985988 0 0.4166666666664469
0.1599999999996481 0 0.08333333333316043
0.1599999999996481 0 0.1666666666662505
0.1599999999996481 0 0.249999999999346
0.1599999999996481 0 0.3333333333328937
0.1599999999996481 0 0.4166666666664469
0.2399999999994185 0 0.08333333333316043
0.2399999999994185 0 0.1666666666662505
0.2399999999994185 0 0.249999999999346
0.2399999999994185 0 0.3333333333328937
0.2399999999994185 0 0.4166666666664469
0.3199999999991671 0 0.08333333333316043
0.3199999999991672 0 0.1666666666662505
0.3199999999991672 0 0.249999999999346
0.3199999999991672 0 0.3333333333328937
0.3199999999991671 0 0.4166666666664469
0.3999999999989484 0 0.08333333333316043
0.3999999999989484 0 0.1666666666662505
0.3999999999989484 0 0.249999999999346
0.3999999999989484 0 0.3333333333328937
0.3999999999989484 0 0.4166666666664469
0.4799999999991543 0 0.08333333333316043
0.4799999999991545 0 0.1666666666662505
0.4799999999991544 0 0.249999999999346
0.4799999999991543 0 0.3333333333328937
0.4799999999991544 0 0.4166666666664469
0.5599999999993582 0 0.08333333333316043
0.5599999999993583 0 0.1666666666662505
0.5599999999993583 0 0.249999999999346
0.5599999999993582 0 0.3333333333328937
0.5599999999993583 0 0.4166666666664469
0.6399999999995793 0 0.08333333333316043
0.6399999999995791 0 0.1666666666662505
0.6399999999995793 0 0.249999999999346
0.6399999999995793 0 0.3333333333328937
0.6399999999995793 0 0.4166666666664468
0.7199999999997829 0 0.08333333333316043
0.7199999999997829 0 0.1666666666662505
0.719999999999783 0 0.249999999999346
0.719999999999783 0 0.3333333333328937
0.719999999999783 0 0.4166666666664469
2 4 0 30
242
243
244
245
246
247
248
249
250
251
252
253
254
255
256
257
258
259
260
261
262
263
264
265
266
267
268
269
270
271
0.8 0.08571428571412085 0.08333333333316043
0.8 0.08571428571412082 0.1666666666662505
0.8 0.08571428571412082 0.249999999999346
0.8 0.08571428571412083 0.3333333333328937
0.8 0.08571428571412082 0.4166666666664469
0.8 0.1714285714281622 0.08333333333316043
0.8 0.1714285714281622 0.1666666666662505
0.8 0.1714285714281622 0.249999999999346
0.8 0.1714285714281622 0.3333333333328937
0.8 0.1714285714281622 0.4166666666664469
0.8 0.2571428571422091 0.08333333333316043
0.8 0.2571428571422091 0.1666666666662505
0.8 0.2571428571422091 0.249999999999346
0.8 0.2571428571422091 0.3333333333328937
0.8 0.2571428571422091 0.4166666666664469
0.8 0.3428571428564774 0.08333333333316043
0.8 0.3428571428564773 0.1666666666662505
0.8 0.3428571428564773 0.249999999999346
0.8 0.3428571428564773 0.3333333333328937
0.8 0.3428571428564773 0.4166666666664469
0.8 0.4285714285709946 0.08333333333316043
0.8 0.4285714285709945 0.1666666666662505
0.8 0.4285714285709946 0.249999999999346
0.8 0.4285714285709946 0.3333333333328937
0.8 0.4285714285709945 0.4166666666664469
0.8 0.514285714285481 0.08333333333316043
0.8 0.514285714285481 0.1666666666662505
0.8 0.5142857142854811 0.249999999999346
0.8 0.514285714285481 0.3333333333328937
0.8 0.514285714285481 0.4166666666664469
2 5 0 45
272
273
274
275
276
277
278
279
280
281
282
283
284
285
286
287
288
289
290
291
292
293
294
295
296
297
298
299
300
301
302
303
304
305
306
307
308
309
310
311
312
313
314
315
316
0.7200000000002212 0.6 0.08333333333316043
0.7200000000002214 0.6 0.1666666666662505
0.7200000000002214 0.6 0.2499999999993461
0.7200000000002214 0.6 0.3333333333328937
0.7200000000002215 0.6 0.4166666666664468
0.6400000000004425 0.6 0.08333333333316043
0.6400000000004431 0.6 0.1666666666662505
0.6400000000004428 0.6 0.2499999999993461
0.6400000000004428 0.6 0.3333333333328937
0.6400000000004428 0.6 0.4166666666664468
0.5600000000006644 0.6 0.08333333333316043
0.5600000000006642 0.6 0.1666666666662505
0.5600000000006642 0.6 0.249999999999346
0.5600000000006642 0.6 0.3333333333328937
0.5600000000006642 0.6 0.4166666666664469
0.4800000000008855 0.6 0.08333333333316043
0.4800000000008855 0.6 0.1666666666662505
0.4800000000008854 0.6 0.249999999999346
0.4800000000008854 0.6 0.3333333333328937
0.4800000000008855 0.6 0.4166666666664469
0.4000000000010959 0.6 0.08333333333316043
0.4000000000010959 0.6 0.1666666666662505
0.4000000000010959 0.6 0.249999999999346
0.4000000000010959 0.6 0.3333333333328937
0.4000000000010959 0.6 0.4166666666664469
0.3200000000008811 0.6 0.08333333333316043
0.3200000000008812 0.6 0.1666666666662505
0.3200000000008811 0.6 0.249999999999346
0.3200000000008811 0.6 0.3333333333328937
0.3200000000008811 0.6 0.4166666666664469
0.2400000000006685 0.6 0.08333333333316043
0.2400000000006684 0.6 0.1666666666662505
0.2400000000006684 0.6 0.249999999999346
0.2400000000006684 0.6 0.3333333333328937
0.2400000000006685 0.6 0.4166666666664469
0.1600000000004383 0.6 0.08333333333316043
0.1600000000004384 0.6 0.1666666666662505
0.1600000000004383 0.6 0.249999999999346
0.1600000000004383 0.6 0.3333333333328937
0.1600000000004383 0.6 0.4166666666664469
0.08000000000022565 0.6 0.08333333333316043
0.08000000000022567 0.6 0.1666666666662505
0.08000000000022567 0.6 0.249999999999346
0.08000000000022567 0.6 0.3333333333328937
0.08000000000022567 0.6 0.4166666666664469
2 6 0 30
317
318
319
320
321
322
323
324
325
326
327
328
329
330
331
332
333
334
335
336
337
338
339
340
341
342
343
344
345
346
0 0.5142857142858537 0.08333333333316043
0 0.5142857142858537 0.1666666666662505
0 0.5142857142858537 0.249999999999346
0 0.5142857142858537 0.3333333333328937
0 0.5142857142858537 0.4166666666664469
0 0.4285714285718593 0.08333333333316043
0 0.4285714285718591 0.1666666666662505
0 0.4285714285718593 0.249999999999346
0 0.4285714285718593 0.3333333333328937
0 0.4285714285718593 0.4166666666664468
0 0.3428571428577997 0.08333333333316043
0 0.3428571428577996 0.1666666666662505
0 0.3428571428577996 0.249999999999346
0 0.3428571428577997 0.3333333333328937
0 0.3428571428577997 0.4166666666664468
0 0.2571428571435294 0.08333333333316043
0 0.2571428571435294 0.1666666666662505
0 0.2571428571435294 0.249999999999346
0 0.2571428571435294 0.3333333333328937
0 0.2571428571435294 0.4166666666664469
0 0.1714285714290098 0.08333333333316043
0 0.1714285714290098 0.1666666666662505
0 0.1714285714290098 0.249999999999346
0 0.1714285714290098 0.3333333333328937
0 0.1714285714290098 0.4166666666664469
0 0.08571428571452111 0.08333333333316043
0 0.08571428571452108 0.1666666666662505
0 0.08571428571452111 0.249999999999346
0 0.08571428571452111 0.3333333333328937
0 0.08571428571452111 0.4166666666664469
3 1 0 270
347
348
349
350
351
352
353
354
355
356
357
358
359
360
361
362
363
364
365
366
367
368
369
370
371
372
373
374
375
376
377
378
379
380
381
382
383
384
385
386
387
388
389
390
391
392
393
394
395
396
397
398
399
400
401
402
403
404
405
406
407
408
409
410
411
412
413
414
415
416
417
418
419
420
421
422
423
424
425
426
427
428
429
430
431
432
433
434
435
436
437
438
439
440
441
442
443
444
445
446
447
448
449
450
451
452
453
454
455
456
457
458
459
460
461
462
463
464
465
466
467
468
469
470
471
472
473
474
475
476
477
478
479
480
481
482
483
484
485
486
487
488
489
490
491
492
493
494
495
496
497
498
499
500
501
502
503
504
505
506
507
508
509
510
511
512
513
514
515
516
517
518
519
520
521
522
523
524
525
526
527
528
529
530
531
532
533
534
535
536
537
538
539
540
541
542
543
544
545
546
547
548
549
550
551
552
553
554
555
556
557
558
559
560
561
562
563
564
565
566
567
568
569
570
571
572
573
574
575
576
577
578
579
580
581
582
583
584
585
586
587
588
589
590
591
592
593
594
595
596
597
598
599
600
601
602
603
604
605
606
607
608
609
610
611
612
613
614
615
616
0.07999999999991221 0.08571428571448103 0.08333333333316043
0.07999999999991216 0.08571428571448107 0.1666666666662505
0.07999999999991216 0.08571428571448107 0.249999999999346
0.07999999999991216 0.08571428571448109 0.3333333333328937
0.07999999999991211 0.085714285714481 0.4166666666664467
0.07999999999996438 0.171428571428925 0.08333333333316041
0.07999999999996438 0.1714285714289251 0.1666666666662505
0.07999999999996436 0.171428571428925 0.249999999999346
0.07999999999996435 0.171428571428925 0.3333333333328937
0.07999999999996438 0.171428571428925 0.4166666666664467
0.0800000000000167 0.2571428571433974 0.08333333333316044
0.08000000000001666 0.2571428571433972 0.1666666666662505
0.08000000000001667 0.2571428571433974 0.249999999999346
0.08000000000001667 0.2571428571433974 0.3333333333328937
0.08000000000001667 0.2571428571433974 0.4166666666664467
0.08000000000006889 0.3428571428576675 0.08333333333316043
0.08000000000006888 0.3428571428576676 0.1666666666662505
0.0800000000000689 0.3428571428576673 0.2499999999993461
0.08000000000006886 0.3428571428576675 0.3333333333328938
0.0800000000000689 0.3428571428576674 0.4166666666664468
0.08000000000012117 0.4285714285717727 0.08333333333316044
0.08000000000012114 0.4285714285717728 0.1666666666662505
0.08000000000012114 0.4285714285717729 0.249999999999346
0.08000000000012114 0.4285714285717729 0.3333333333328938
0.08000000000012118 0.4285714285717727 0.4166666666664467
0.08000000000017345 0.5142857142858164 0.08333333333316044
0.08000000000017345 0.5142857142858164 0.1666666666662505
0.08000000000017345 0.5142857142858164 0.249999999999346
0.08000000000017346 0.5142857142858164 0.3333333333328937
0.0800000000001734 0.5142857142858165 0.4166666666664468
0.159999999999761 0.08571428571444099 0.08333333333316045
0.159999999999761 0.08571428571444099 0.1666666666662505
0.159999999999761 0.08571428571444101 0.249999999999346
0.159999999999761 0.08571428571444101 0.3333333333328938
0.159999999999761 0.08571428571444101 0.416666666666447
0.1599999999998739 0.1714285714288403 0.08333333333316037
0.159999999999874 0.1714285714288403 0.1666666666662504
0.1599999999998739 0.1714285714288403 0.249999999999346
0.1599999999998739 0.1714285714288403 0.3333333333328937
0.1599999999998739 0.1714285714288403 0.4166666666664469
0.1599999999999868 0.2571428571432653 0.08333333333316043
0.1599999999999868 0.2571428571432651 0.1666666666662505
0.1599999999999867 0.2571428571432653 0.249999999999346
0.1599999999999867 0.2571428571432653 0.3333333333328937
0.1599999999999867 0.2571428571432653 0.4166666666664469
0.1600000000000996 0.342857142857535 0.08333333333316043
0.1600000000000997 0.342857142857535 0.1666666666662505
0.1600000000000996 0.342857142857535 0.249999999999346
0.1600000000000996 0.3428571428575353 0.3333333333328937
0.1600000000000996 0.342857142857535 0.4166666666664469
0.1600000000002124 0.4285714285716861 0.08333333333316043
0.1600000000002125 0.4285714285716862 0.1666666666662505
0.1600000000002124 0.4285714285716862 0.2499999999993459
0.1600000000002124 0.4285714285716862 0.3333333333328936
0.1600000000002124 0.4285714285716861 0.4166666666664467
0.1600000000003254 0.514285714285779 0.08333333333316043
0.1600000000003255 0.5142857142857788 0.1666666666662505
0.1600000000003254 0.514285714285779 0.249999999999346
0.1600000000003254 0.5142857142857791 0.3333333333328937
0.1600000000003254 0.5142857142857788 0.4166666666664469
0.2399999999995971 0.08571428571440096 0.08333333333316048
0.2399999999995971 0.08571428571440097 0.1666666666662505
0.2399999999995971 0.08571428571440096 0.249999999999346
0.239999999999597 0.08571428571440097 0.3333333333328937
0.2399999999995972 0.08571428571440096 0.4166666666664467
0.2399999999997755 0.1714285714287554 0.0833333333331604
0.2399999999997756 0.1714285714287554 0.1666666666662505
0.2399999999997755 0.1714285714287555 0.249999999999346
0.2399999999997757 0.1714285714287554 0.3333333333328937
0.2399999999997757 0.1714285714287554 0.4166666666664467
0.2399999999999542 0.2571428571431331 0.08333333333316043
0.2399999999999542 0.2571428571431332 0.1666666666662505
0.2399999999999542 0.2571428571431333 0.249999999999346
0.2399999999999542 0.2571428571431331 0.3333333333328937
0.2399999999999542 0.2571428571431331 0.4166666666664467
0.2400000000001327 0.3428571428574028 0.08333333333316043
0.2400000000001328 0.3428571428574028 0.1666666666662505
0.2400000000001327 0.3428571428574025 0.249999999999346
0.2400000000001327 0.3428571428574028 0.3333333333328937
0.2400000000001328 0.3428571428574031 0.4166666666664467
0.2400000000003113 0.4285714285715997 0.08333333333316043
0.2400000000003113 0.4285714285715997 0.1666666666662505
0.2400000000003114 0.4285714285715997 0.249999999999346
0.2400000000003113 0.4285714285715997 0.3333333333328937
0.2400000000003112 0.4285714285715997 0.4166666666664467
0.24000000000049 0.5142857142857418 0.08333333333316043
0.2400000000004898 0.5142857142857417 0.1666666666662505
0.2400000000004898 0.5142857142857418 0.249999999999346
0.2400000000004898 0.5142857142857417 0.3333333333328937
0.2400000000004898 0.5142857142857417 0.4166666666664467
0.3199999999994118 0.08571428571436093 0.08333333333316047
0.3199999999994119 0.0857142857143609 0.1666666666662505
0.319999999999412 0.08571428571436093 0.249999999999346
0.319999999999412 0.08571428571436096 0.3333333333328937
0.3199999999994119 0.08571428571436093 0.4166666666664468
0.3199999999996567 0.1714285714286708 0.0833333333331604
0.3199999999996571 0.1714285714286708 0.1666666666662505
0.319999999999657 0.1714285714286708 0.2499999999993459
0.3199999999996569 0.1714285714286708 0.3333333333328937
0.3199999999996568 0.1714285714286707 0.4166666666664469
0.3199999999999017 0.2571428571430013 0.08333333333316043
0.3199999999999017 0.2571428571430013 0.1666666666662505
0.3199999999999017 0.2571428571430013 0.2499999999993459
0.3199999999999017 0.2571428571430013 0.3333333333328937
0.3199999999999017 0.2571428571430012 0.4166666666664468
0.3200000000001465 0.3428571428572706 0.08333333333316043
0.3200000000001467 0.3428571428572704 0.1666666666662505
0.3200000000001466 0.3428571428572706 0.249999999999346
0.3200000000001466 0.3428571428572704 0.3333333333328937
0.3200000000001464 0.3428571428572703 0.4166666666664469
0.3200000000003914 0.4285714285715131 0.08333333333316043
0.3200000000003915 0.4285714285715131 0.1666666666662505
0.3200000000003914 0.4285714285715133 0.249999999999346
0.3200000000003914 0.4285714285715134 0.3333333333328937
0.3200000000003914 0.4285714285715131 0.4166666666664467
0.3200000000006362 0.5142857142857042 0.08333333333316043
0.3200000000006362 0.5142857142857044 0.1666666666662505
0.3200000000006362 0.5142857142857045 0.249999999999346
0.3200000000006362 0.5142857142857042 0.3333333333328937
0.3200000000006361 0.5142857142857042 0.4166666666664468
0.399999999999255 0.08571428571432091 0.08333333333316047
0.3999999999992552 0.08571428571432085 0.1666666666662505
0.3999999999992553 0.08571428571432094 0.2499999999993459
0.3999999999992553 0.08571428571432094 0.3333333333328937
0.399999999999255 0.08571428571432094 0.4166666666664468
0.399999999999562 0.171428571428586 0.0833333333331604
0.399999999999562 0.1714285714285859 0.1666666666662505
0.399999999999562 0.171428571428586 0.249999999999346
0.399999999999562 0.1714285714285859 0.3333333333328937
0.3999999999995619 0.171428571428586 0.4166666666664468
0.3999999999998689 0.257142857142869 0.08333333333316043
0.3999999999998687 0.2571428571428691 0.1666666666662505
0.3999999999998687 0.2571428571428692 0.249999999999346
0.3999999999998687 0.2571428571428692 0.3333333333328937
0.3999999999998687 0.2571428571428692 0.4166666666664467
0.4000000000001754 0.3428571428571386 0.08333333333316043
0.4000000000001755 0.3428571428571384 0.1666666666662505
0.4000000000001757 0.3428571428571384 0.249999999999346
0.4000000000001757 0.3428571428571386 0.3333333333328937
0.4000000000001757 0.3428571428571386 0.4166666666664467
0.4000000000004823 0.4285714285714269 0.08333333333316043
0.4000000000004825 0.4285714285714266 0.1666666666662505
0.4000000000004824 0.4285714285714268 0.249999999999346
0.4000000000004825 0.4285714285714271 0.3333333333328937
0.4000000000004824 0.4285714285714268 0.4166666666664468
0.4000000000007889 0.5142857142856671 0.08333333333316043
0.4000000000007892 0.5142857142856668 0.1666666666662505
0.4000000000007892 0.5142857142856671 0.249999999999346
0.4000000000007892 0.5142857142856671 0.3333333333328937
0.4000000000007889 0.5142857142856671 0.4166666666664467
0.4799999999994017 0.0857142857142809 0.08333333333316045
0.4799999999994017 0.08571428571428086 0.1666666666662505
0.4799999999994015 0.0857142857142809 0.249999999999346
0.4799999999994018 0.08571428571428091 0.3333333333328937
0.4799999999994018 0.08571428571428091 0.4166666666664469
0.4799999999996489 0.1714285714285011 0.0833333333331604
0.4799999999996492 0.1714285714285012 0.1666666666662505
0.479999999999649 0.1714285714285013 0.249999999999346
0.479999999999649 0.1714285714285012 0.3333333333328937
0.479999999999649 0.1714285714285011 0.4166666666664467
0.4799999999998961 0.2571428571427372 0.08333333333316043
0.4799999999998963 0.2571428571427371 0.1666666666662505
0.4799999999998962 0.2571428571427372 0.249999999999346
0.4799999999998958 0.2571428571427372 0.3333333333328937
0.4799999999998962 0.2571428571427372 0.4166666666664469
0.4800000000001435 0.3428571428570061 0.08333333333316043
0.4800000000001438 0.3428571428570059 0.1666666666662505
0.4800000000001436 0.3428571428570059 0.249999999999346
0.4800000000001436 0.3428571428570059 0.3333333333328937
0.4800000000001436 0.3428571428570059 0.4166666666664467
0.4800000000003907 0.4285714285713403 0.08333333333316043
0.4800000000003909 0.4285714285713403 0.1666666666662505
0.4800000000003907 0.4285714285713401 0.249999999999346
0.4800000000003907 0.4285714285713403 0.3333333333328937
0.4800000000003908 0.4285714285713403 0.4166666666664469
0.4800000000006381 0.5142857142856296 0.08333333333316043
0.4800000000006381 0.5142857142856296 0.1666666666662505
0.4800000000006381 0.5142857142856299 0.249999999999346
0.4800000000006382 0.5142857142856296 0.3333333333328937
0.4800000000006381 0.5142857142856296 0.416666666666447
0.5599999999995446 0.0857142857142409 0.08333333333316047
0.559999999999545 0.08571428571424081 0.1666666666662505
0.559999999999545 0.08571428571424085 0.249999999999346
0.5599999999995446 0.08571428571424092 0.3333333333328937
0.559999999999545 0.08571428571424085 0.4166666666664467
0.5599999999997312 0.1714285714284164 0.0833333333331604
0.5599999999997315 0.1714285714284163 0.1666666666662505
0.5599999999997314 0.1714285714284165 0.249999999999346
0.5599999999997314 0.1714285714284164 0.3333333333328937
0.5599999999997314 0.1714285714284164 0.4166666666664467
0.5599999999999178 0.2571428571426052 0.08333333333316043
0.5599999999999179 0.2571428571426052 0.1666666666662505
0.559999999999918 0.2571428571426052 0.2499999999993459
0.5599999999999178 0.2571428571426052 0.3333333333328937
0.559999999999918 0.2571428571426052 0.4166666666664469
0.5600000000001043 0.3428571428568742 0.08333333333316043
0.5600000000001043 0.342857142856874 0.1666666666662505
0.5600000000001045 0.3428571428568739 0.249999999999346
0.5600000000001044 0.3428571428568742 0.3333333333328938
0.5600000000001044 0.3428571428568742 0.4166666666664467
0.5600000000002913 0.4285714285712538 0.08333333333316043
0.5600000000002912 0.4285714285712541 0.1666666666662505
0.5600000000002912 0.4285714285712541 0.249999999999346
0.5600000000002912 0.4285714285712539 0.3333333333328937
0.5600000000002914 0.4285714285712539 0.4166666666664467
0.5600000000004781 0.5142857142855921 0.08333333333316043
0.5600000000004777 0.5142857142855923 0.1666666666662505
0.5600000000004777 0.5142857142855923 0.249999999999346
0.5600000000004776 0.5142857142855922 0.3333333333328937
0.5600000000004779 0.5142857142855923 0.4166666666664469
0.6399999999997027 0.08571428571420089 0.08333333333316048
0.6399999999997024 0.08571428571420081 0.1666666666662505
0.6399999999997027 0.0857142857142008 0.2499999999993459
0.6399999999997028 0.08571428571420087 0.3333333333328937
0.6399999999997027 0.08571428571420081 0.4166666666664468
0.6399999999998264 0.1714285714283317 0.0833333333331604
0.6399999999998258 0.1714285714283317 0.1666666666662505
0.6399999999998262 0.1714285714283317 0.249999999999346
0.6399999999998264 0.1714285714283317 0.3333333333328938
0.639999999999826 0.1714285714283316 0.4166666666664468
0.6399999999999491 0.2571428571424732 0.08333333333316043
0.6399999999999493 0.2571428571424729 0.1666666666662505
0.6399999999999495 0.2571428571424732 0.249999999999346
0.6399999999999494 0.257142857142473 0.3333333333328937
0.6399999999999494 0.257142857142473 0.4166666666664468
0.6400000000000727 0.3428571428567417 0.08333333333316044
0.6400000000000727 0.3428571428567415 0.1666666666662505
0.6400000000000725 0.3428571428567417 0.249999999999346
0.6400000000000727 0.3428571428567416 0.3333333333328937
0.640000000000073 0.3428571428567415 0.4166666666664469
0.6400000000001957 0.4285714285711674 0.08333333333316043
0.640000000000196 0.4285714285711674 0.1666666666662505
0.6400000000001961 0.4285714285711675 0.249999999999346
0.640000000000196 0.4285714285711673 0.3333333333328937
0.640000000000196 0.4285714285711675 0.4166666666664468
0.6400000000003192 0.514285714285555 0.08333333333316043
0.6400000000003196 0.514285714285555 0.1666666666662505
0.6400000000003194 0.5142857142855551 0.2499999999993461
0.6400000000003192 0.514285714285555 0.3333333333328937
0.6400000000003194 0.514285714285555 0.4166666666664468
0.7199999999998454 0.08571428571416086 0.08333333333316045
0.7199999999998454 0.08571428571416081 0.1666666666662505
0.7199999999998457 0.0857142857141608 0.2499999999993459
0.7199999999998457 0.08571428571416084 0.3333333333328937
0.7199999999998457 0.08571428571416087 0.4166666666664468
0.7199999999999084 0.1714285714282469 0.0833333333331604
0.7199999999999083 0.1714285714282469 0.1666666666662505
0.7199999999999084 0.1714285714282469 0.2499999999993459
0.7199999999999084 0.1714285714282469 0.3333333333328937
0.7199999999999083 0.1714285714282469 0.4166666666664467
0.7199999999999709 0.257142857142341 0.08333333333316043
0.7199999999999709 0.2571428571423409 0.1666666666662505
0.7199999999999711 0.257142857142341 0.249999999999346
0.7199999999999709 0.257142857142341 0.3333333333328938
0.719999999999971 0.257142857142341 0.4166666666664467
0.7200000000000335 0.3428571428566093 0.08333333333316043
0.7200000000000334 0.3428571428566093 0.1666666666662505
0.7200000000000339 0.3428571428566093 0.249999999999346
0.7200000000000339 0.3428571428566092 0.3333333333328937
0.7200000000000339 0.3428571428566092 0.4166666666664467
0.7200000000000959 0.4285714285710809 0.08333333333316043
0.720000000000096 0.4285714285710805 0.1666666666662505
0.7200000000000961 0.428571428571081 0.249999999999346
0.7200000000000961 0.428571428571081 0.3333333333328937
0.7200000000000961 0.4285714285710807 0.4166666666664468
0.7200000000001588 0.5142857142855177 0.08333333333316043
0.7200000000001587 0.5142857142855175 0.1666666666662505
0.7200000000001587 0.5142857142855182 0.2499999999993461
0.7200000000001587 0.5142857142855177 0.3333333333328937
0.7200000000001588 0.5142857142855177 0.4166666666664468
$EndNodes
$Elements
11 798 1 798
1 5 1 10
1 5 39 
2 39 40 
3 40 41 
4 41 42 
5 42 43 
6 43 44 
7 44 45 
8 45 46 
9 46 47 
10 47 6 
1 6 1 7
11 6 48 
12 48 49 
13 49 50 
14 50 51 
15 51 52 
16 52 53 
17 53 7 
1 7 1 10
18 7 54 
19 54 55 
20 55 56 
21 56 57 
22 57 58 
23 58 59 
24 59 60 
25 60 61 
26 61 62 
27 62 8 
1 8 1 7
28 8 63 
29 63 64 
30 64 65 
31 65 66 
32 66 67 
33 67 68 
34 68 5 
2 1 3 70
35 1 9 89 38 
36 38 89 90 37 
37 37 90 91 36 
38 36 91 92 35 
39 35 92 93 34 
40 34 93 94 33 
41 33 94 32 4 
42 9 10 95 89 
43 89 95 96 90 
44 90 96 97 91 
45 91 97 98 92 
46 92 98 99 93 
47 93 99 100 94 
48 94 100 31 32 
49 10 11 101 95 
50 95 101 102 96 
51 96 102 103 97 
52 97 103 104 98 
53 98 104 105 99 
54 99 105 106 100 
55 100 106 30 31 
56 11 12 107 101 
57 101 107 108 102 
58 102 108 109 103 
59 103 109 110 104 
60 104 110 111 105 
61 105 111 112 106 
62 106 112 29 30 
63 12 13 113 107 
64 107 113 114 108 
65 108 114 115 109 
66 109 115 116 110 
67 110 116 117 111 
68 111 117 118 112 
69 112 118 28 29 
70 13 14 119 113 
71 113 119 120 114 
72 114 120 121 115 
73 115 121 122 116 
74 116 122 123 117 
75 117 123 124 118 
76 118 124 27 28 
77 14 15 125 119 
78 119 125 126 120 
79 120 126 127 121 
80 121 127 128 122 
81 122 128 129 123 
82 123 129 130 124 
83 124 130 26 27 
84 15 16 131 125 
85 125 131 132 126 
86 126 132 133 127 
87 127 133 134 128 
88 128 134 135 129 
89 129 135 136 130 
90 130 136 25 26 
91 16 17 137 131 
92 131 137 138 132 
93 132 138 139 133 
94 133 139 140 134 
95 134 140 141 135 
96 135 141 142 136 
97 136 142 24 25 
98 17 2 18 137 
99 137 18 19 138 
100 138 19 20 139 
101 139 20 21 140 
102 140 21 22 141 
103 141 22 23 142 
104 142 23 3 24 
2 2 3 70
105 5 39 143 68 
106 68 143 144 67 
107 67 144 145 66 
108 66 145 146 65 
109 65 146 147 64 
110 64 147 148 63 
111 63 148 62 8 
112 39 40 149 143 
113 143 149 150 144 
114 144 150 151 145 
115 145 151 152 146 
116 146 152 153 147 
117 147 153 154 148 
118 148 154 61 62 
119 40 41 155 149 
120 149 155 156 150 
121 150 156 157 151 
122 151 157 158 152 
123 152 158 159 153 
124 153 159 160 154 
125 154 160 60 61 
126 41 42 161 155 
127 155 161 162 156 
128 156 162 163 157 
129 157 163 164 158 
130 158 164 165 159 
131 159 165 166 160 
132 160 166 59 60 
133 42 43 167 161 
134 161 167 168 162 
135 162 168 169 163 
136 163 169 170 164 
137 164 170 171 165 
138 165 171 172 166 
139 166 172 58 59 
140 43 44 173 167 
141 167 173 174 168 
142 168 174 175 169 
143 169 175 176 170 
144 170 176 177 171 
145 171 177 178 172 
146 172 178 57 58 
147 44 45 179 173 
148 173 179 180 174 
149 174 180 181 175 
150 175 181 182 176 
151 176 182 183 177 
152 177 183 184 178 
153 178 184 56 57 
154 45 46 185 179 
155 179 185 186 180 
156 180 186 187 181 
157 181 187 188 182 
158 182 188 189 183 
159 183 189 190 184 
160 184 190 55 56 
161 46 47 191 185 
162 185 191 192 186 
163 186 192 193 187 
164 187 193 194 188 
165 188 194 195 189 
166 189 195 196 190 
167 190 196 54 55 
168 47 6 48 191 
169 191 48 49 192 
170 192 49 50 193 
171 193 50 51 194 
172 194 51 52 195 
173 195 52 53 196 
174 196 53 7 54 
2 3 3 60
175 1 9 197 69 
176 69 197 198 70 
177 70 198 199 71 
178 71 199 200 72 
179 72 200 201 73 
180 73 201 39 5 
181 9 10 202 197 
182 197 202 203 198 
183 198 203 204 199 
184 199 204 205 200 
185 200 205 206 201 
186 201 206 40 39 
187 10 11 207 202 
188 202 207 208 203 
189 203 208 209 204 
190 204 209 210 205 
191 205 210 211 206 
192 206 211 41 40 
193 11 12 212 207 
194 207 212 213 208 
195 208 213 214 209 
196 209 214 215 210 
197 210 215 216 211 
198 211 216 42 41 
199 12 13 217 212 
200 212 217 218 213 
201 213 218 219 214 
202 214 219 220 215 
203 215 220 221 216 
204 216 221 43 42 
205 13 14 222 217 
206 217 222 223 218 
207 218 223 224 219 
208 219 224 225 220 
209 220 225 226 221 
210 221 226 44 43 
211 14 15 227 222 
212 222 227 228 223 
213 223 228 229 224 
214 224 229 230 225 
215 225 230 231 226 
216 226 231 45 44 
217 15 16 232 227 
218 227 232 233 228 
219 228 233 234 229 
220 229 234 235 230 
221 230 235 236 231 
222 231 236 46 45 
223 16 17 237 232 
224 232 237 238 233 
225 233 238 239 234 
226 234 239 240 235 
227 235 240 241 236 
228 236 241 47 46 
229 17 2 74 237 
230 237 74 75 238 
231 238 75 76 239 
232 239 76 77 240 
233 240 77 78 241 
234 241 78 6 47 
2 4 3 42
235 2 18 242 74 
236 74 242 243 75 
237 75 243 244 76 
238 76 244 245 77 
239 77 245 246 78 
240 78 246 48 6 
241 18 19 247 242 
242 242 247 248 243 
243 243 248 249 244 
244 244 249 250 245 
245 245 250 251 246 
246 246 251 49 48 
247 19 20 252 247 
248 247 252 253 248 
249 248 253 254 249 
250 249 254 255 250 
251 250 255 256 251 
252 251 256 50 49 
253 20 21 257 252 
254 252 257 258 253 
255 253 258 259 254 
256 254 259 260 255 
257 255 260 261 256 
258 256 261 51 50 
259 21 22 262 257 
260 257 262 263 258 
261 258 263 264 259 
262 259 264 265 260 
263 260 265 266 261 
264 261 266 52 51 
265 22 23 267 262 
266 262 267 268 263 
267 263 268 269 264 
268 264 269 270 265 
269 265 270 271 266 
270 266 271 53 52 
271 23 3 79 267 
272 267 79 80 268 
273 268 80 81 269 
274 269 81 82 270 
275 270 82 83 271 
276 271 83 7 53 
2 5 3 60
277 3 24 272 79 
278 79 272 273 80 
279 80 273 274 81 
280 81 274 275 82 
281 82 275 276 83 
282 83 276 54 7 
283 24 25 277 272 
284 272 277 278 273 
285 273 278 279 274 
286 274 279 280 275 
287 275 280 281 276 
288 276 281 55 54 
289 25 26 282 277 
290 277 282 283 278 
291 278 283 284 279 
292 279 284 285 280 
293 280 285 286 281 
294 281 286 56 55 
295 26 27 287 282 
296 282 287 288 283 
297 283 288 289 284 
298 284 289 290 285 
299 285 290 291 286 
300 286 291 57 56 
301 27 28 292 287 
302 287 292 293 288 
303 288 293 294 289 
304 289 294 295 290 
305 290 295 296 291 
306 291 296 58 57 
307 28 29 297 292 
308 292 297 298 293 
309 293 298 299 294 
310 294 299 300 295 
311 295 300 301 296 
312 296 301 59 58 
313 29 30 302 297 
314 297 302 303 298 
315 298 303 304 299 
316 299 304 305 300 
317 300 305 306 301 
318 301 306 60 59 
319 30 31 307 302 
320 302 307 308 303 
321 303 308 309 304 
322 304 309 310 305 
323 305 310 311 306 
324 306 311 61 60 
325 31 32 312 307 
326 307 312 313 308 
327 308 313 314 309 
328 309 314 315 310 
329 310 315 316 311 
330 311 316 62 61 
331 32 4 84 312 
332 312 84 85 313 
333 313 85 86 314 
334 314 86 87 315 
335 315 87 88 316 
336 316 88 8 62 
2 6 3 42
337 4 33 317 84 
338 84 317 318 85 
339 85 318 319 86 
340 86 319 320 87 
341 87 320 321 88 
342 88 321 63 8 
343 33 34 322 317 
344 317 322 323 318 
345 318 323 324 319 
346 319 324 325 320 
347 320 325 326 321 
348 321 326 64 63 
349 34 35 327 322 
350 322 327 328 323 
351 323 328 329 324 
352 324 329 330 325 
353 325 330 331 326 
354 326 331 65 64 
355 35 36 332 327 
356 327 332 333 328 
357 328 333 334 329 
358 329 334 335 330 
359 330 335 336 331 
360 331 336 66 65 
361 36 37 337 332 
362 332 337 338 333 
363 333 338 339 334 
364 334 339 340 335 
365 335 340 341 336 
366 336 341 67 66 
367 37 38 342 337 
368 337 342 343 338 
369 338 343 344 339 
370 339 344 345 340 
371 340 345 346 341 
372 341 346 68 67 
373 38 1 69 342 
374 342 69 70 343 
375 343 70 71 344 
376 344 71 72 345 
377 345 72 73 346 
378 346 73 5 68 
3 1 5 420
379 1 9 89 38 69 197 347 342 
380 69 197 347 342 70 198 348 343 
381 70 198 348 343 71 199 349 344 
382 71 199 349 344 72 200 350 345 
383 72 200 350 345 73 201 351 346 
384 73 201 351 346 5 39 143 68 
385 38 89 90 37 342 347 352 337 
386 342 347 352 337 343 348 353 338 
387 343 348 353 338 344 349 354 339 
388 344 349 354 339 345 350 355 340 
389 345 350 355 340 346 351 356 341 
390 346 351 356 341 68 143 144 67 
391 37 90 91 36 337 352 357 332 
392 337 352 357 332 338 353 358 333 
393 338 353 358 333 339 354 359 334 
394 339 354 359 334 340 355 360 335 
395 340 355 360 335 341 356 361 336 
396 341 356 361 336 67 144 145 66 
397 36 91 92 35 332 357 362 327 
398 332 357 362 327 333 358 363 328 
399 333 358 363 328 334 359 364 329 
400 334 359 364 329 335 360 365 330 
401 335 360 365 330 336 361 366 331 
402 336 361 366 331 66 145 146 65 
403 35 92 93 34 327 362 367 322 
404 327 362 367 322 328 363 368 323 
405 328 363 368 323 329 364 369 324 
406 329 364 369 324 330 365 370 325 
407 330 365 370 325 331 366 371 326 
408 331 366 371 326 65 146 147 64 
409 34 93 94 33 322 367 372 317 
410 322 367 372 317 323 368 373 318 
411 323 368 373 318 324 369 374 319 
412 324 369 374 319 325 370 375 320 
413 325 370 375 320 326 371 376 321 
414 326 371 376 321 64 147 148 63 
415 33 94 32 4 317 372 312 84 
416 317 372 312 84 318 373 313 85 
417 318 373 313 85 319 374 314 86 
418 319 374 314 86 320 375 315 87 
419 320 375 315 87 321 376 316 88 
420 321 376 316 88 63 148 62 8 
421 9 10 95 89 197 202 377 347 
422 197 202 377 347 198 203 378 348 
423 198 203 378 348 199 204 379 349 
424 199 204 379 349 200 205 380 350 
425 200 205 380 350 201 206 381 351 
426 201 206 381 351 39 40 149 143 
427 89 95 96 90 347 377 382 352 
428 347 377 382 352 348 378 383 353 
429 348 378 383 353 349 379 384 354 
430 349 379 384 354 350 380 385 355 
431 350 380 385 355 351 381 386 356 
432 351 381 386 356 143 149 150 144 
433 90 96 97 91 352 382 387 357 
434 352 382 387 357 353 383 388 358 
435 353 383 388 358 354 384 389 359 
436 354 384 389 359 355 385 390 360 
437 355 385 390 360 356 386 391 361 
438 356 386 391 361 144 150 151 145 
439 91 97 98 92 357 387 392 362 
440 357 387 392 362 358 388 393 363 
441 358 388 393 363 359 389 394 364 
442 359 389 394 364 360 390 395 365 
443 360 390 395 365 361 391 396 366 
444 361 391 396 366 145 151 152 146 
445 92 98 99 93 362 392 397 367 
446 362 392 397 367 363 393 398 368 
447 363 393 398 368 364 394 399 369 
448 364 394 399 369 365 395 400 370 
449 365 395 400 370 366 396 401 371 
450 366 396 401 371 146 152 153 147 
451 93 99 100 94 367 397 402 372 
452 367 397 402 372 368 398 403 373 
453 368 398 403 373 369 399 404 374 
454 369 399 404 374 370 400 405 375 
455 370 400 405 375 371 401 406 376 
456 371 401 406 376 147 153 154 148 
457 94 100 31 32 372 402 307 312 
458 372 402 307 312 373 403 308 313 
459 373 403 308 313 374 404 309 314 
460 374 404 309 314 375 405 310 315 
461 375 405 310 315 376 406 311 316 
462 376 406 311 316 148 154 61 62 
463 10 11 101 95 202 207 407 377 
464 202 207 407 377 203 208 408 378 
465 203 208 408 378 204 209 409 379 
466 204 209 409 379 205 210 410 380 
467 205 210 410 380 206 211 411 381 
468 206 211 411 381 40 41 155 149 
469 95 101 102 96 377 407 412 382 
470 377 407 412 382 378 408 413 383 
471 378 408 413 383 379 409 414 384 
472 379 409 414 384 380 410 415 385 
473 380 410 415 385 381 411 416 386 
474 381 411 416 386 149 155 156 150 
475 96 102 103 97 382 412 417 387 
476 382 412 417 387 383 413 418 388 
477 383 413 418 388 384 414 419 389 
478 384 414 419 389 385 415 420 390 
479 385 415 420 390 386 416 421 391 
480 386 416 421 391 150 156 157 151 
481 97 103 104 98 387 417 422 392 
482 387 417 422 392 388 418 423 393 
483 388 418 423 393 389 419 424 394 
484 389 419 424 394 390 420 425 395 
485 390 420 425 395 391 421 426 396 
486 391 421 426 396 151 157 158 152 
487 98 104 105 99 392 422 427 397 
488 392 422 427 397 393 423 428 398 
489 393 423 428 398 394 424 429 399 
490 394 424 429 399 395 425 430 400 
491 395 425 430 400 396 426 431 401 
492 396 426 431 401 152 158 159 153 
493 99 105 106 100 397 427 432 402 
494 397 427 432 402 398 428 433 403 
495 398 428 433 403 399 429 434 404 
496 399 429 434 404 400 430 435 405 
497 400 430 435 405 401 431 436 406 
498 401 431 436 406 153 159 160 154 
499 100 106 30 31 402 432 302 307 
500 402 432 302 307 403 433 303 308 
501 403 433 303 308 404 434 304 309 
502 404 434 304 309 405 435 305 310 
503 405 435 305 310 406 436 306 311 
504 406 436 306 311 154 160 60 61 
505 11 12 107 101 207 212 437 407 
506 207 212 437 407 208 213 438 408 
507 208 213 438 408 209 214 439 409 
508 209 214 439 409 210 215 440 410 
509 210 215 440 410 211 216 441 411 
510 211 216 441 411 41 42 161 155 
511 101 107 108 102 407 437 442 412 
512 407 437 442 412 408 438 443 413 
513 408 438 443 413 409 439 444 414 
514 409 439 444 414 410 440 445 415 
515 410 440 445 415 411 441 446 416 
516 411 441 446 416 155 161 162 156 
517 102 108 109 103 412 442 447 417 
518 412 442 447 417 413 443 448 418 
519 413 443 448 418 414 444 449 419 
520 414 444 449 419 415 445 450 420 
521 415 445 450 420 416 446 451 421 
522 416 446 451 421 156 162 163 157 
523 103 109 110 104 417 447 452 422 
524 417 447 452 422 418 448 453 423 
525 418 448 453 423 419 449 454 424 
526 419 449 454 424 420 450 455 425 
527 420 450 455 425 421 451 456 426 
528 421 451 456 426 157 163 164 158 
529 104 110 111 105 422 452 457 427 
530 422 452 457 427 423 453 458 428 
531 423 453 458 428 424 454 459 429 
532 424 454 459 429 425 455 460 430 
533 425 455 460 430 426 456 461 431 
534 426 456 461 431 158 164 165 159 
535 105 111 112 106 427 457 462 432 
536 427 457 462 432 428 458 463 433 
537 428 458 463 433 429 459 464 434 
538 429 459 464 434 430 460 465 435 
539 430 460 465 435 431 461 466 436 
540 431 461 466 436 159 165 166 160 
541 106 112 29 30 432 462 297 302 
542 432 462 297 302 433 463 298 303 
543 433 463 298 303 434 464 299 304 
544 434 464 299 304 435 465 300 305 
545 435 465 300 305 436 466 301 306 
546 436 466 301 306 160 166 59 60 
547 12 13 113 107 212 217 467 437 
548 212 217 467 437 213 218 468 438 
549 213 218 468 438 214 219 469 439 
550 214 219 469 439 215 220 470 440 
551 215 220 470 440 216 221 471 441 
552 216 221 471 441 42 43 167 161 
553 107 113 114 108 437 467 472 442 
554 437 467 472 442 438 468 473 443 
555 438 468 473 443 439 469 474 444 
556 439 469 474 444 440 470 475 445 
557 440 470 475 445 441 471 476 446 
558 441 471 476 446 161 167 168 162 
559 108 114 115 109 442 472 477 447 
560 442 472 477 447 443 473 478 448 
561 443 473 478 448 444 474 479 449 
562 444 474 479 449 445 475 480 450 
563 445 475 480 450 446 476 481 451 
564 446 476 481 451 162 168 169 163 
565 109 115 116 110 447 477 482 452 
566 447 477 482 452 448 478 483 453 
567 448 478 483 453 449 479 484 454 
568 449 479 484 454 450 480 485 455 
569 450 480 485 455 451 481 486 456 
570 451 481 486 456 163 169 170 164 
571 110 116 117 111 452 482 487 457 
572 452 482 487 457 453 483 488 458 
573 453 483 488 458 454 484 489 459 
574 454 484 489 459 455 485 490 460 
575 455 485 490 460 456 486 491 461 
576 456 486 491 461 164 170 171 165 
577 111 117 118 112 457 487 492 462 
578 457 487 492 462 458 488 493 463 
579 458 488 493 463 459 489 494 464 
580 459 489 494 464 460 490 495 465 
581 460 490 495 465 461 491 496 466 
582 461 491 496 466 165 171 172 166 
583 112 118 28 29 462 492 292 297 
584 462 492 292 297 463 493 293 298 
585 463 493 293 298 464 494 294 299 
586 464 494 294 299 465 495 295 300 
587 465 495 295 300 466 496 296 301 
588 466 496 296 301 166 172 58 59 
589 13 14 119 113 217 222 497 467 
590 217 222 497 467 218 223 498 468 
591 218 223 498 468 219 224 499 469 
592 219 224 499 469 220 225 500 470 
593 220 225 500 470 221 226 501 471 
594 221 226 501 471 43 44 173 167 
595 113 119 120 114 467 497 502 472 
596 467 497 502 472 468 498 503 473 
597 468 498 503 473 469 499 504 474 
598 469 499 504 474 470 500 505 475 
599 470 500 505 475 471 501 506 476 
600 471 501 506 476 167 173 174 168 
601 114 120 121 115 472 502 507 477 
602 472 502 507 477 473 503 508 478 
603 473 503 508 478 474 504 509 479 
604 474 504 509 479 475 505 510 480 
605 475 505 510 480 476 506 511 481 
606 476 506 511 481 168 174 175 169 
607 115 121 122 116 477 507 512 482 
608 477 507 512 482 478 508 513 483 
609 478 508 513 483 479 509 514 484 
610 479 509 514 484 480 510 515 485 
611 480 510 515 485 481 511 516 486 
612 481 511 516 486 169 175 176 170 
613 116 122 123 117 482 512 517 487 
614 482 512 517 487 483 513 518 488 
615 483 513 518 488 484 514 519 489 
616 484 514 519 489 485 515 520 490 
617 485 515 520 490 486 516 521 491 
618 486 516 521 491 170 176 177 171 
619 117 123 124 118 487 517 522 492 
620 487 517 522 492 488 518 523 493 
621 488 518 523 493 489 519 524 494 
622 489 519 524 494 490 520 525 495 
623 490 520 525 495 491 521 526 496 
624 491 521 526 496 171 177 178 172 
625 118 124 27 28 492 522 287 292 
626 492 522 287 292 493 523 288 293 
627 493 523 288 293 494 524 289 294 
628 494 524 289 294 495 525 290 295 
629 495 525 290 295 496 526 291 296 
630 496 526 291 296 172 178 57 58 
631 14 15 125 119 222 227 527 497 
632 222 227 527 497 223 228 528 498 
633 223 228 528 498 224 229 529 499 
634 224 229 529 499 225 230 530 500 
635 225 230 530 500 226 231 531 501 
636 226 231 531 501 44 45 179 173 
637 119 125 126 120 497 527 532 502 
638 497 527 532 502 498 528 533 503 
639 498 528 533 503 499 529 534 504 
640 499 529 534 504 500 530 535 505 
641 500 530 535 505 501 531 536 506 
642 501 531 536 506 173 179 180 174 
643 120 126 127 121 502 532 537 507 
644 502 532 537 507 503 533 538 508 
645 503 533 538 508 504 534 539 509 
646 504 534 539 509 505 535 540 510 
647 505 535 540 510 506 536 541 511 
648 506 536 541 511 174 180 181 175 
649 121 127 128 122 507 537 542 512 
650 507 537 542 512 508 538 543 513 
651 508 538 543 513 509 539 544 514 
652 509 539 544 514 510 540 545 515 
653 510 540 545 515 511 541 546 516 
654 511 541 546 516 175 181 182 176 
655 122 128 129 123 512 542 547 517 
656 512 542 547 517 513 543 548 518 
657 513 543 548 518 514 544 549 519 
658 514 544 549 519 515 545 550 520 
659 515 545 550 520 516 546 551 521 
660 516 546 551 521 176 182 183 177 
661 123 129 130 124 517 547 552 522 
662 517 547 552 522 518 548 553 523 
663 518 548 553 523 519 549 554 524 
664 519 549 554 524 520 550 555 525 
665 520 550 555 525 521 551 556 526 
666 521 551 556 526 177 183 184 178 
667 124 130 26 27 522 552 282 287 
668 522 552 282 287 523 553 283 288 
669 523 553 283 288 524 554 284 289 
670 524 554 284 289 525 555 285 290 
671 525 555 285 290 526 556 286 291 
672 526 556 286 291 178 184 56 57 
673 15 16 131 125 227 232 557 527 
674 227 232 557 527 228 233 558 528 
675 228 233 558 528 229 234 559 529 
676 229 234 559 529 230 235 560 530 
677 230 235 560 530 231 236 561 531 
678 231 236 561 531 45 46 185 179 
679 125 131 132 126 527 557 562 532 
680 527 557 562 532 528 558 563 533 
681 528 558 563 533 529 559 564 534 
682 529 559 564 534 530 560 565 535 
683 530 560 565 535 531 561 566 536 
684 531 561 566 536 179 185 186 180 
685 126 132 133 127 532 562 567 537 
686 532 562 567 537 533 563 568 538 
687 533 563 568 538 534 564 569 539 
688 534 564 569 539 535 565 570 540 
689 535 565 570 540 536 566 571 541 
690 536 566 571 541 180 186 187 181 
691 127 133 134 128 537 567 572 542 
692 537 567 572 542 538 568 573 543 
693 538 568 573 543 539 569 574 544 
694 539 569 574 544 540 570 575 545 
695 540 570 575 545 541 571 576 546 
696 541 571 576 546 181 187 188 182 
697 128 134 135 129 542 572 577 547 
698 542 572 577 547 543 573 578 548 
699 543 573 578 548 544 574 579 549 
700 544 574 579 549 545 575 580 550 
701 545 575 580 550 546 576 581 551 
702 546 576 581 551 182 188 189 183 
703 129 135 136 130 547 577 582 552 
704 547 577 582 552 548 578 583 553 
705 548 578 583 553 549 579 584 554 
706 549 579 584 554 550 580 585 555 
707 550 580 585 555 551 581 586 556 
708 551 581 586 556 183 189 190 184 
709 130 136 25 26 552 582 277 282 
710 552 582 277 282 553 583 278 283 
711 553 583 278 283 554 584 279 284 
712 554 584 279 284 555 585 280 285 
713 555 585 280 285 556 586 281 286 
714 556 586 281 286 184 190 55 56 
715 16 17 137 131 232 237 587 557 
716 232 237 587 557 233 238 588 558 
717 233 238 588 558 234 239 589 559 
718 234 239 589 559 235 240 590 560 
719 235 240 590 560 236 241 591 561 
720 236 241 591 561 46 47 191 185 
721 131 137 138 132 557 587 592 562 
722 557 587 592 562 558 588 593 563 
723 558 588 593 563 559 589 594 564 
724 559 589 594 564 560 590 595 565 
725 560 590 595 565 561 591 596 566 
726 561 591 596 566 185 191 192 186 
727 132 138 139 133 562 592 597 567 
728 562 592 597 567 563 593 598 568 
729 563 593 598 568 564 594 599 569 
730 564 594 599 569 565 595 600 570 
731 565 595 600 570 566 596 601 571 
732 566 596 601 571 186 192 193 187 
733 133 139 140 134 567 597 602 572 
734 567 597 602 572 568 598 603 573 
735 568 598 603 573 569 599 604 574 
736 569 599 604 574 570 600 605 575 
737 570 600 605 575 571 601 606 576 
738 571 601 606 576 187 193 194 188 
739 134 140 141 135 572 602 607 577 
740 572 602 607 577 573 603 608 578 
741 573 603 608 578 574 604 609 579 
742 574 604 609 579 575 605 610 580 
743 575 605 610 580 576 606 611 581 
744 576 606 611 581 188 194 195 189 
745 135 141 142 136 577 607 612 582 
746 577 607 612 582 578 608 613 583 
747 578 608 613 583 579 609 614 584 
748 579 609 614 584 580 610 615 585 
749 580 610 615 585 581 611 616 586 
750 581 611 616 586 189 195 196 190 
751 136 142 24 25 582 612 272 277 
752 582 612 272 277 583 613 273 278 
753 583 613 273 278 584 614 274 279 
754 584 614 274 279 585 615 275 280 
755 585 615 275 280 586 616 276 281 
756 586 616 276 281 190 196 54 55 
757 17 2 18 137 237 74 242 587 
758 237 74 242 587 238 75 243 588 
759 238 75 243 588 239 76 244 589 
760 239 76 244 589 240 77 245 590 
761 240 77 245 590 241 78 246 591 
762 241 78 246 591 47 6 48 191 
763 137 18 19 138 587 242 247 592 
764 587 242 247 592 588 243 248 593 
765 588 243 248 593 589 244 249 594 
766 589 244 249 594 590 245 250 595 
767 590 245 250 595 591 246 251 596 
768 591 246 251 596 191 48 49 192 
769 138 19 20 139 592 247 252 597 
770 592 247 252 597 593 248 253 598 
771 593 248 253 598 594 249 254 599 
772 594 249 254 599 595 250 255 600 
773 595 250 255 600 596 251 256 601 
774 596 251 256 601 192 49 50 193 
775 139 20 21 140 597 252 257 602 
776 597 252 257 602 598 253 258 603 
777 598 253 258 603 599 254 259 604 
778 599 254 259 604 600 255 260 605 
779 600 255 260 605 601 256 261 606 
780 601 256 261 606 193 50 51 194 
781 140 21 22 141 602 257 262 607 
782 602 257 262 607 603 258 263 608 
783 603 258 263 608 604 259 264 609 
784 604 259 264 609 605 260 265 610 
785 605 260 265 610 606 261 266 611 
786 606 261 266 611 194 51 52 195 
787 141 22 23 142 607 262 267 612 
788 607 262 267 612 608 263 268 613 
789 608 263 268 613 609 264 269 614 
790 609 264 269 614 610 265 270 615 
791 610 265 270 615 611 266 271 616 
792 611 266 271 616 195 52 53 196 
793 142 23 3 24 612 267 79 272 
794 612 267 79 272 613 268 80 273 
795 613 268 80 273 614 269 81 274 
796 614 269 81 274 615 270 82 275 
797 615 270 82 275 616 271 83 276 
798 616 271 83 276 196 53 7 54 
$EndElements
