$MeshFormat
4.1 0 8
$EndMeshFormat
$PhysicalNames
6
1 6 "plate_clamp"
2 2 "plate"
2 3 "rigid_walls"
2 4 "inlet"
2 5 "outlet"
3 1 "fluid"
$EndPhysicalNames
$Entities
16 28 16 3
9 0.9999999999999944 -1e-07 -1.000000100000001 0 
10 0.9999999999999944 1.000000100000001 -1.000000100000001 0 
11 0.9999999999999944 1.000000100000001 1e-07 0 
12 0.9999999999999944 -1e-07 1e-07 0 
13 1.999999999999994 -1e-07 -1.000000100000001 0 
14 1.999999999999994 1.000000100000001 -1.000000100000001 0 
15 1.999999999999994 1.000000100000001 1e-07 0 
16 1.999999999999994 -1e-07 1e-07 0 
17 2.999999999999989 1.000000000000001 0 0 
18 2.999999999999989 0 0 0 
19 2.999999999999989 1.4210854715202e-16 -1.000000000000001 0 
20 2.999999999999989 1.000000000000001 -1.000000000000001 0 
21 0 1.000000000000001 0 0 
22 0 0 0 0 
23 0 1.000000000000001 -1.000000000000001 0 
24 0 1.83697019872103e-16 -1.000000000000001 0 
13 0.9999997999999942 -3.000000002861825e-07 -1.000000300000001 1.000000199999995 1.000000300000001 -0.9999999000000005 1 6 2 9 -10 
14 0.9999997999999944 0.9999999000000007 -1.000000300000001 1.000000199999995 1.000000300000001 3.000000000641379e-07 0 2 10 -11 
15 0.9999997999999944 -3.000000000641379e-07 -1e-07 1.000000199999994 1.000000300000001 3e-07 0 2 11 -12 
16 0.9999997999999943 -3.000000001683889e-07 -1.000000300000001 1.000000199999995 1.000000001683889e-07 3.000000001751602e-07 0 2 12 -9 
17 1.999999799999994 -3.000000002861825e-07 -1.000000300000001 2.000000199999995 1.000000300000001 -0.9999999000000005 1 6 2 13 -14 
18 1.999999799999994 0.9999999000000007 -1.000000300000001 2.000000199999994 1.000000300000001 3.000000000641379e-07 0 2 14 -15 
19 1.999999799999995 -3.000000000641379e-07 -1e-07 2.000000199999994 1.000000300000001 3e-07 0 2 15 -16 
20 1.999999799999994 -3.000000001683889e-07 -1.000000300000001 2.000000199999995 1.000000001683889e-07 3.000000001751602e-07 0 2 16 -13 
21 2.999999899999989 -9.999999994736442e-08 -1e-07 3.000000099999989 1.000000100000001 1e-07 0 2 17 -18 
22 2.999999899999989 -1e-07 -1.000000100000001 3.000000099999989 1.000000001421085e-07 9.999999994736442e-08 0 2 18 -19 
23 2.999999899999989 -9.999999983634211e-08 -1.000000100000001 3.000000099999989 1.000000100000001 -0.9999999000000005 0 2 19 -20 
24 2.999999899999989 0.9999999000000005 -1.000000100000001 3.000000099999989 1.000000100000001 9.999999994736442e-08 0 2 20 -17 
25 1.999999899999994 0.9999999000000007 -1e-07 3.000000099999989 1.000000100000001 1e-07 0 2 15 -17 
26 1.999999899999994 -1e-07 -1e-07 3.000000099999989 1e-07 1e-07 0 2 16 -18 
27 1.999999899999994 -9.999999981630298e-08 -1.000000100000001 3.000000099999989 1.00000000183697e-07 -0.9999999000000007 0 2 13 -19 
28 1.999999899999994 0.9999999000000007 -1.000000100000001 3.000000099999989 1.000000100000001 -0.9999999000000007 0 2 14 -20 
29 0.9999998999999942 0.9999999000000007 -1e-07 2.000000099999994 1.000000100000001 1e-07 0 2 11 -15 
30 0.9999998999999942 -1e-07 -1e-07 2.000000099999994 1e-07 1e-07 0 2 12 -16 
31 0.9999998999999942 0.9999999000000007 -1.000000100000001 2.000000099999994 1.000000100000001 -0.9999999000000007 1 6 2 10 -14 
32 0.9999998999999942 -9.999999981630298e-08 -1.000000100000001 2.000000099999994 1.00000000183697e-07 -0.9999999000000007 1 6 2 9 -13 
33 -1.000000000028756e-07 0.9999999000000007 -1e-07 1.000000099999994 1.000000100000001 1e-07 0 2 21 -11 
34 -1.000000000028756e-07 -1e-07 -1e-07 1.000000099999994 1e-07 1e-07 0 2 22 -12 
35 -1e-07 -9.999999994736442e-08 -1e-07 1e-07 1.000000100000001 1e-07 0 2 21 -22 
36 -1.000000000028756e-07 0.9999999000000007 -1.000000100000001 1.000000099999994 1.000000100000001 -0.9999999000000007 0 2 23 -10 
37 -1e-07 0.9999999000000005 -1.000000100000001 1e-07 1.000000100000001 9.999999994736442e-08 0 2 23 -21 
38 -1.000000000028756e-07 -9.999999981630298e-08 -1.000000100000001 1.000000099999994 1.00000000183697e-07 -0.9999999000000007 0 2 24 -9 
39 -1e-07 -1e-07 -1.000000100000001 1e-07 1.00000000183697e-07 9.999999994736442e-08 0 2 22 -24 
40 -1e-07 -9.999999983634211e-08 -1.000000100000001 1e-07 1.000000100000001 -0.9999999000000005 0 2 24 -23 
7 0.9999997999999942 -3.000000002861825e-07 -1.000000300000001 1.000000199999995 1.000000300000001 3.000000002861825e-07 0 4 13 14 15 16 
8 1.999999799999994 -3.000000002861825e-07 -1.000000300000001 2.000000199999995 1.000000300000001 3.000000002861825e-07 0 4 17 18 19 20 
9 2.999999899999989 -9.999999994736442e-08 -1.000000100000001 3.000000099999989 1.000000100000001 9.999999994736442e-08 1 5 4 21 22 23 24 
10 -1.000000000583867e-07 -9.999999994736442e-08 -1e-07 3.000000099999989 1.000000100000001 1e-07 1 3 4 -25 19 26 -21 
11 -1.000000000583867e-07 -1e-07 -1.000000100000001 3.000000099999989 1.00000000183697e-07 9.999999994736442e-08 1 3 4 -26 20 27 -22 
12 -1.000000000583867e-07 -9.999999983634211e-08 -1.000000100000001 3.000000099999989 1.000000100000001 -0.9999999000000005 1 3 4 -27 17 28 -23 
13 -1.000000000583867e-07 0.9999999000000005 -1.000000100000001 3.000000099999989 1.000000100000001 9.999999994736442e-08 1 3 4 -28 18 25 -24 
14 -1.000000000583867e-07 -9.999999994736442e-08 -1e-07 3.000000099999989 1.000000100000001 1e-07 1 3 4 -29 15 30 -19 
15 -1.000000000583867e-07 0.9999999000000005 -1.000000100000001 3.000000099999989 1.000000100000001 9.999999994736442e-08 1 3 4 -31 14 29 -18 
16 -1.000000000583867e-07 -1e-07 -1.000000100000001 3.000000099999989 1.00000000183697e-07 9.999999994736442e-08 1 3 4 -30 16 32 -20 
17 -1.000000000583867e-07 -9.999999983634211e-08 -1.000000100000001 3.000000099999989 1.000000100000001 -0.9999999000000005 1 2 4 -32 13 31 -17 
18 -1.000000000583867e-07 -9.999999994736442e-08 -1e-07 3.000000099999989 1.000000100000001 1e-07 1 3 4 -33 35 34 -15 
19 -1.000000000583867e-07 0.9999999000000005 -1.000000100000001 3.000000099999989 1.000000100000001 9.999999994736442e-08 1 3 4 -36 37 33 -14 
20 -1.000000000583867e-07 -1e-07 -1.000000100000001 3.000000099999989 1.00000000183697e-07 9.999999994736442e-08 1 3 4 -34 39 38 -16 
21 -1e-07 -9.999999994736442e-08 -1.000000100000001 1e-07 1.000000100000001 9.999999994736442e-08 1 4 4 37 35 39 40 
22 -1.000000000583867e-07 -9.999999983634211e-08 -1.000000100000001 3.000000099999989 1.000000100000001 -0.9999999000000005 1 3 4 -38 40 36 -13 
1 -2.00000000338818e-07 -3.000000002861825e-07 -1.000000300000001 3.000000199999989 1.000000300000001 3.000000002861825e-07 1 1 6 9 10 11 12 13 -8 
2 -2.00000000338818e-07 -3.000000002861825e-07 -1.000000300000001 3.000000199999989 1.000000300000001 3.000000002861825e-07 1 1 6 14 15 8 16 -7 17 
3 -2.00000000338818e-07 -3.000000002861825e-07 -1.000000300000001 3.000000199999989 1.000000300000001 3.000000002861825e-07 1 1 6 18 19 7 20 -21 22 
$EndEntities
$Nodes
63 931 1 931
0 9 0 1
1
0.9999999999999944 -1e-07 -1.000000100000001
0 10 0 1
2
0.9999999999999944 1.000000100000001 -1.000000100000001
0 11 0 1
3
0.9999999999999944 1.000000100000001 1e-07
0 12 0 1
4
0.9999999999999944 -1e-07 1e-07
0 13 0 1
5
1.999999999999994 -1e-07 -1.000000100000001
0 14 0 1
6
1.999999999999994 1.000000100000001 -1.000000100000001
0 15 0 1
7
1.999999999999994 1.000000100000001 1e-07
0 16 0 1
8
1.999999999999994 -1e-07 1e-07
0 17 0 1
9
2.999999999999989 1.000000000000001 0
0 18 0 1
10
2.999999999999989 0 0
0 19 0 1
11
2.999999999999989 1.4210854715202e-16 -1.000000000000001
0 20 0 1
12
2.999999999999989 1.000000000000001 -1.000000000000001
0 21 0 1
13
0 1.000000000000001 0
0 22 0 1
14
0 0 0
0 23 0 1
15
0 1.000000000000001 -1.000000000000001
0 24 0 1
16
0 1.83697019872103e-16 -1.000000000000001
1 13 0 5
17
18
19
20
21
0.9999999999999944 0.1666666 -1.000000100000001
0.9999999999999944 0.3333333000000001 -1.000000100000001
0.9999999999999944 0.5000000000000003 -1.000000100000001
0.9999999999999944 0.6666667000000005 -1.000000100000001
0.9999999999999944 0.8333334000000006 -1.000000100000001
1 14 0 5
22
23
24
25
26
0.9999999999999944 1.000000100000001 -0.8333334000000008
0.9999999999999944 1.000000100000001 -0.6666667000000006
0.9999999999999944 1.000000100000001 -0.5000000000000004
0.9999999999999944 1.000000100000001 -0.3333333000000003
0.9999999999999944 1.000000100000001 -0.1666666000000002
1 15 0 5
27
28
29
30
31
0.9999999999999944 0.8333334000000008 1e-07
0.9999999999999944 0.6666667000000006 1e-07
0.9999999999999944 0.5000000000000004 1e-07
0.9999999999999944 0.3333333000000003 1e-07
0.9999999999999944 0.1666666000000002 1e-07
1 16 0 5
32
33
34
35
36
0.9999999999999944 -1e-07 -0.1666666
0.9999999999999944 -1e-07 -0.3333333000000001
0.9999999999999944 -1e-07 -0.5000000000000003
0.9999999999999944 -1e-07 -0.6666667000000005
0.9999999999999944 -1e-07 -0.8333334000000006
1 17 0 5
37
38
39
40
41
1.999999999999994 0.1666666 -1.000000100000001
1.999999999999994 0.3333333000000001 -1.000000100000001
1.999999999999994 0.5000000000000003 -1.000000100000001
1.999999999999994 0.6666667000000005 -1.000000100000001
1.999999999999994 0.8333334000000006 -1.000000100000001
1 18 0 5
42
43
44
45
46
1.999999999999994 1.000000100000001 -0.8333334000000008
1.999999999999994 1.000000100000001 -0.6666667000000006
1.999999999999994 1.000000100000001 -0.5000000000000004
1.999999999999994 1.000000100000001 -0.3333333000000003
1.999999999999994 1.000000100000001 -0.1666666000000002
1 19 0 5
47
48
49
50
51
1.999999999999994 0.8333334000000008 1e-07
1.999999999999994 0.6666667000000006 1e-07
1.999999999999994 0.5000000000000004 1e-07
1.999999999999994 0.3333333000000003 1e-07
1.999999999999994 0.1666666000000002 1e-07
1 20 0 5
52
53
54
55
56
1.999999999999994 -1e-07 -0.1666666
1.999999999999994 -1e-07 -0.3333333000000001
1.999999999999994 -1e-07 -0.5000000000000003
1.999999999999994 -1e-07 -0.6666667000000005
1.999999999999994 -1e-07 -0.8333334000000006
1 21 0 5
57
58
59
60
61
2.999999999999989 0.8333333333333339 0
2.999999999999989 0.6666666666666671 0
2.999999999999989 0.5000000000000003 0
2.999999999999989 0.3333333333333335 0
2.999999999999989 0.1666666666666668 0
1 22 0 5
62
63
64
65
66
2.999999999999989 2.368475785867001e-17 -0.1666666666666667
2.999999999999989 4.736951571734003e-17 -0.3333333333333336
2.999999999999989 7.105427357601004e-17 -0.5000000000000003
2.999999999999989 9.473903143468007e-17 -0.6666666666666672
2.999999999999989 1.184237892933501e-16 -0.8333333333333339
1 23 0 5
67
68
69
70
71
2.999999999999989 0.1666666666666669 -1.000000000000001
2.999999999999989 0.3333333333333337 -1.000000000000001
2.999999999999989 0.5000000000000004 -1
2.999999999999989 0.6666666666666672 -1.000000000000001
2.999999999999989 0.8333333333333339 -1
1 24 0 5
72
73
74
75
76
2.999999999999989 1.000000000000001 -0.8333333333333339
2.999999999999989 1.000000000000001 -0.6666666666666671
2.999999999999989 1 -0.5000000000000003
2.999999999999989 1.000000000000001 -0.3333333333333335
2.999999999999989 1 -0.1666666666666668
1 25 0 5
77
78
79
80
81
2.166666666666659 1.000000000000001 0
2.333333333333325 1.000000000000001 0
2.49999999999999 1.000000000000001 0
2.666666666666656 1.000000000000001 0
2.833333333333323 1.000000000000001 0
1 26 0 5
82
83
84
85
86
2.166666666666659 0 0
2.333333333333325 0 0
2.49999999999999 0 0
2.666666666666656 0 0
2.833333333333323 0 0
1 27 0 5
87
88
89
90
91
2.166666666666659 1.83697019872103e-16 -1.000000000000001
2.333333333333325 1.83697019872103e-16 -1.000000000000001
2.49999999999999 1.83697019872103e-16 -1.000000000000001
2.666666666666656 1.83697019872103e-16 -1.000000000000001
2.833333333333323 1.83697019872103e-16 -1.000000000000001
1 28 0 5
92
93
94
95
96
2.166666666666659 1.000000000000001 -1.000000000000001
2.333333333333325 1.000000000000001 -1.000000000000001
2.49999999999999 1.000000000000001 -1.000000000000001
2.666666666666656 1.000000000000001 -1.000000000000001
2.833333333333323 1.000000000000001 -1.000000000000001
1 29 0 5
97
98
99
100
101
1.166666666666661 1.000000000000001 0
1.333333333333327 1.000000000000001 0
1.499999999999994 1.000000000000001 0
1.666666666666661 1.000000000000001 0
1.833333333333327 1.000000000000001 0
1 30 0 5
102
103
104
105
106
1.166666666666661 0 0
1.333333333333327 0 0
1.499999999999994 0 0
1.666666666666661 0 0
1.833333333333327 0 0
1 31 0 5
107
108
109
110
111
1.166666666666661 1.000000000000001 -1.000000000000001
1.333333333333327 1.000000000000001 -1.000000000000001
1.499999999999994 1.000000000000001 -1.000000000000001
1.666666666666661 1.000000000000001 -1.000000000000001
1.833333333333327 1.000000000000001 -1.000000000000001
1 32 0 5
112
113
114
115
116
1.166666666666661 1.83697019872103e-16 -1.000000000000001
1.333333333333327 1.83697019872103e-16 -1.000000000000001
1.499999999999994 1.83697019872103e-16 -1.000000000000001
1.666666666666661 1.83697019872103e-16 -1.000000000000001
1.833333333333327 1.83697019872103e-16 -1.000000000000001
1 33 0 5
117
118
119
120
121
0.1666666666666651 1.000000000000001 0
0.3333333333333303 1.000000000000001 0
0.4999999999999954 1.000000000000001 0
0.6666666666666615 1.000000000000001 0
0.8333333333333279 1.000000000000001 0
1 34 0 5
122
123
124
125
126
0.1666666666666651 0 0
0.3333333333333303 0 0
0.4999999999999954 0 0
0.6666666666666615 0 0
0.8333333333333279 0 0
1 35 0 5
127
128
129
130
131
0 0.8333333333333339 0
0 0.6666666666666671 0
0 0.5000000000000003 0
0 0.3333333333333335 0
0 0.1666666666666668 0
1 36 0 5
132
133
134
135
136
0.1666666666666651 1.000000000000001 -1.000000000000001
0.3333333333333303 1.000000000000001 -1.000000000000001
0.4999999999999954 1.000000000000001 -1.000000000000001
0.6666666666666615 1.000000000000001 -1.000000000000001
0.8333333333333279 1.000000000000001 -1.000000000000001
1 37 0 5
137
138
139
140
141
0 1.000000000000001 -0.8333333333333339
0 1.000000000000001 -0.6666666666666671
0 1 -0.5000000000000003
0 1.000000000000001 -0.3333333333333335
0 1 -0.1666666666666668
1 38 0 5
142
143
144
145
146
0.1666666666666651 1.83697019872103e-16 -1.000000000000001
0.3333333333333303 1.83697019872103e-16 -1.000000000000001
0.4999999999999954 1.83697019872103e-16 -1.000000000000001
0.6666666666666615 1.83697019872103e-16 -1.000000000000001
0.8333333333333279 1.83697019872103e-16 -1.000000000000001
1 39 0 5
147
148
149
150
151
0 3.061616997868385e-17 -0.1666666666666667
0 6.123233995736772e-17 -0.3333333333333336
0 9.184850993605157e-17 -0.5000000000000003
0 1.224646799147354e-16 -0.6666666666666672
0 1.530808498934193e-16 -0.8333333333333339
1 40 0 5
152
153
154
155
156
0 0.1666666666666669 -1.000000000000001
0 0.3333333333333337 -1.000000000000001
0 0.5000000000000004 -1
0 0.6666666666666673 -1.000000000000001
0 0.8333333333333339 -1
2 7 0 25
157
158
159
160
161
162
163
164
165
166
167
168
169
170
171
172
173
174
175
176
177
178
179
180
181
0.9999999999999944 0.1666666 -0.8333334000000007
0.9999999999999944 0.1666666000000001 -0.6666667000000005
0.9999999999999944 0.1666666000000002 -0.5000000000000003
0.9999999999999944 0.1666666000000003 -0.3333333000000002
0.9999999999999944 0.1666666000000003 -0.1666665999999999
0.9999999999999944 0.3333333000000001 -0.8333334000000006
0.9999999999999944 0.3333333000000002 -0.6666667000000006
0.9999999999999944 0.3333333000000002 -0.5000000000000004
0.9999999999999944 0.3333333000000003 -0.3333333000000003
0.9999999999999944 0.3333333000000003 -0.1666666000000001
0.9999999999999944 0.5000000000000003 -0.8333334000000007
0.9999999999999944 0.5000000000000003 -0.6666667000000006
0.9999999999999944 0.5000000000000004 -0.5000000000000004
0.9999999999999944 0.5000000000000004 -0.3333333000000003
0.9999999999999944 0.5000000000000004 -0.1666666000000001
0.9999999999999944 0.6666667000000005 -0.8333334000000008
0.9999999999999944 0.6666667000000005 -0.6666667000000006
0.9999999999999944 0.6666667000000005 -0.5000000000000004
0.9999999999999944 0.6666667000000005 -0.3333333000000003
0.9999999999999944 0.6666667000000006 -0.1666666000000002
0.9999999999999944 0.8333334000000006 -0.8333334000000009
0.9999999999999944 0.8333334000000006 -0.6666667000000007
0.9999999999999944 0.8333334000000007 -0.5000000000000004
0.9999999999999944 0.8333334000000008 -0.3333333000000003
0.9999999999999944 0.8333334000000008 -0.1666666000000003
2 8 0 25
182
183
184
185
186
187
188
189
190
191
192
193
194
195
196
197
198
199
200
201
202
203
204
205
206
1.999999999999994 0.1666666 -0.8333334000000007
1.999999999999994 0.1666666000000001 -0.6666667000000005
1.999999999999994 0.1666666000000002 -0.5000000000000003
1.999999999999994 0.1666666000000003 -0.3333333000000002
1.999999999999994 0.1666666000000003 -0.1666665999999999
1.999999999999994 0.3333333000000001 -0.8333334000000006
1.999999999999994 0.3333333000000002 -0.6666667000000006
1.999999999999994 0.3333333000000002 -0.5000000000000004
1.999999999999994 0.3333333000000003 -0.3333333000000003
1.999999999999994 0.3333333000000003 -0.1666666000000001
1.999999999999994 0.5000000000000003 -0.8333334000000007
1.999999999999994 0.5000000000000003 -0.6666667000000006
1.999999999999994 0.5000000000000004 -0.5000000000000004
1.999999999999994 0.5000000000000004 -0.3333333000000003
1.999999999999994 0.5000000000000004 -0.1666666000000001
1.999999999999994 0.6666667000000005 -0.8333334000000008
1.999999999999994 0.6666667000000005 -0.6666667000000006
1.999999999999994 0.6666667000000005 -0.5000000000000004
1.999999999999994 0.6666667000000005 -0.3333333000000003
1.999999999999994 0.6666667000000006 -0.1666666000000002
1.999999999999994 0.8333334000000006 -0.8333334000000009
1.999999999999994 0.8333334000000006 -0.6666667000000007
1.999999999999994 0.8333334000000007 -0.5000000000000004
1.999999999999994 0.8333334000000008 -0.3333333000000003
1.999999999999994 0.8333334000000008 -0.1666666000000003
2 9 0 25
207
208
209
210
211
212
213
214
215
216
217
218
219
220
221
222
223
224
225
226
227
228
229
230
231
2.999999999999989 0.8333333333333338 -0.1666666666666669
2.999999999999989 0.8333333333333338 -0.3333333333333335
2.999999999999989 0.8333333333333339 -0.5000000000000003
2.999999999999989 0.8333333333333338 -0.6666666666666672
2.999999999999989 0.8333333333333339 -0.8333333333333339
2.999999999999989 0.666666666666667 -0.1666666666666667
2.999999999999989 0.6666666666666672 -0.3333333333333336
2.999999999999988 0.6666666666666669 -0.5000000000000003
2.999999999999989 0.6666666666666672 -0.6666666666666672
2.999999999999989 0.6666666666666672 -0.8333333333333339
2.999999999999989 0.5000000000000003 -0.1666666666666667
2.999999999999989 0.5000000000000003 -0.3333333333333335
2.999999999999989 0.5000000000000003 -0.5000000000000003
2.999999999999989 0.5000000000000003 -0.6666666666666672
2.999999999999989 0.5000000000000003 -0.8333333333333339
2.999999999999989 0.3333333333333334 -0.1666666666666667
2.999999999999989 0.3333333333333335 -0.3333333333333336
2.999999999999989 0.3333333333333336 -0.5000000000000003
2.999999999999989 0.3333333333333336 -0.6666666666666672
2.999999999999989 0.3333333333333336 -0.8333333333333339
2.999999999999989 0.1666666666666669 -0.1666666666666667
2.999999999999989 0.1666666666666667 -0.3333333333333336
2.999999999999989 0.1666666666666669 -0.5000000000000003
2.999999999999989 0.1666666666666669 -0.6666666666666671
2.999999999999989 0.1666666666666669 -0.8333333333333339
2 10 0 25
232
233
234
235
236
237
238
239
240
241
242
243
244
245
246
247
248
249
250
251
252
253
254
255
256
2.16666666666666 0.833333333333334 0
2.16666666666666 0.6666666666666673 0
2.166666666666659 0.5000000000000002 0
2.166666666666659 0.3333333333333336 0
2.16666666666666 0.166666666666667 0
2.333333333333324 0.8333333333333339 0
2.333333333333324 0.6666666666666672 0
2.333333333333325 0.5000000000000004 0
2.333333333333325 0.3333333333333338 0
2.333333333333324 0.1666666666666671 0
2.499999999999989 0.833333333333334 0
2.49999999999999 0.6666666666666671 0
2.49999999999999 0.5000000000000003 0
2.499999999999989 0.3333333333333336 0
2.499999999999989 0.166666666666667 0
2.666666666666656 0.833333333333334 0
2.666666666666656 0.6666666666666672 0
2.666666666666656 0.5000000000000004 0
2.666666666666656 0.3333333333333336 0
2.666666666666657 0.166666666666667 0
2.833333333333323 0.833333333333334 0
2.833333333333322 0.6666666666666672 0
2.833333333333323 0.5000000000000004 0
2.833333333333323 0.3333333333333338 0
2.833333333333323 0.1666666666666669 0
2 11 0 25
257
258
259
260
261
262
263
264
265
266
267
268
269
270
271
272
273
274
275
276
277
278
279
280
281
2.16666666666666 3.061616997868385e-17 -0.1666666666666667
2.16666666666666 6.123233995736771e-17 -0.3333333333333336
2.166666666666659 9.184850993605158e-17 -0.5000000000000004
2.166666666666659 1.224646799147354e-16 -0.666666666666667
2.16666666666666 1.530808498934193e-16 -0.8333333333333339
2.333333333333324 3.061616997868385e-17 -0.1666666666666667
2.333333333333324 6.12323399573677e-17 -0.3333333333333335
2.333333333333325 9.18485099360516e-17 -0.5000000000000006
2.333333333333325 1.224646799147354e-16 -0.666666666666667
2.333333333333324 1.530808498934192e-16 -0.8333333333333335
2.499999999999989 3.061616997868385e-17 -0.1666666666666667
2.49999999999999 6.123233995736771e-17 -0.3333333333333336
2.49999999999999 9.184850993605158e-17 -0.5000000000000004
2.499999999999989 1.224646799147354e-16 -0.666666666666667
2.499999999999989 1.530808498934192e-16 -0.8333333333333337
2.666666666666656 3.061616997868385e-17 -0.1666666666666667
2.666666666666656 6.12323399573677e-17 -0.3333333333333335
2.666666666666657 9.18485099360516e-17 -0.5000000000000006
2.666666666666656 1.224646799147354e-16 -0.666666666666667
2.666666666666657 1.530808498934192e-16 -0.8333333333333337
2.833333333333323 3.061616997868385e-17 -0.1666666666666667
2.833333333333322 6.12323399573677e-17 -0.3333333333333335
2.833333333333323 9.184850993605153e-17 -0.5000000000000002
2.833333333333323 1.224646799147354e-16 -0.666666666666667
2.833333333333323 1.530808498934193e-16 -0.8333333333333339
2 12 0 25
282
283
284
285
286
287
288
289
290
291
292
293
294
295
296
297
298
299
300
301
302
303
304
305
306
2.16666666666666 0.1666666666666669 -1.000000000000001
2.16666666666666 0.3333333333333335 -1.000000000000001
2.166666666666659 0.5000000000000004 -1
2.166666666666659 0.6666666666666672 -1
2.16666666666666 0.8333333333333339 -1
2.333333333333324 0.1666666666666669 -1.000000000000001
2.333333333333324 0.3333333333333337 -1.000000000000001
2.333333333333325 0.5000000000000004 -1
2.333333333333325 0.6666666666666672 -1.000000000000001
2.333333333333324 0.8333333333333339 -1
2.499999999999989 0.1666666666666667 -1.000000000000001
2.49999999999999 0.3333333333333338 -1.000000000000001
2.49999999999999 0.5000000000000004 -1
2.49999999999999 0.6666666666666672 -1.000000000000001
2.499999999999989 0.8333333333333339 -1
2.666666666666656 0.1666666666666669 -1.000000000000001
2.666666666666656 0.3333333333333338 -1.000000000000001
2.666666666666656 0.5000000000000004 -1
2.666666666666657 0.6666666666666672 -1.000000000000001
2.666666666666657 0.8333333333333339 -1
2.833333333333323 0.1666666666666669 -1.000000000000001
2.833333333333322 0.3333333333333337 -1.000000000000001
2.833333333333323 0.5000000000000004 -1
2.833333333333323 0.6666666666666672 -1.000000000000001
2.833333333333322 0.833333333333334 -1
2 13 0 25
307
308
309
310
311
312
313
314
315
316
317
318
319
320
321
322
323
324
325
326
327
328
329
330
331
2.16666666666666 1.000000000000001 -0.833333333333334
2.16666666666666 1.000000000000001 -0.6666666666666673
2.166666666666659 1 -0.5000000000000002
2.166666666666659 1 -0.3333333333333336
2.16666666666666 1 -0.166666666666667
2.333333333333324 1.000000000000001 -0.8333333333333339
2.333333333333324 1.000000000000001 -0.6666666666666672
2.333333333333325 1 -0.5000000000000004
2.333333333333325 1.000000000000001 -0.3333333333333338
2.333333333333324 1 -0.1666666666666671
2.499999999999989 1.000000000000001 -0.833333333333334
2.49999999999999 1.000000000000001 -0.6666666666666671
2.49999999999999 1 -0.5000000000000003
2.499999999999989 1 -0.3333333333333336
2.499999999999989 1 -0.166666666666667
2.666666666666656 1.000000000000001 -0.833333333333334
2.666666666666656 1.000000000000001 -0.6666666666666672
2.666666666666656 1 -0.5000000000000004
2.666666666666656 1 -0.3333333333333336
2.666666666666657 1 -0.166666666666667
2.833333333333323 1.000000000000001 -0.833333333333334
2.833333333333322 1.000000000000001 -0.6666666666666672
2.833333333333323 1 -0.5000000000000004
2.833333333333323 1.000000000000001 -0.3333333333333338
2.833333333333323 1 -0.1666666666666669
2 14 0 25
332
333
334
335
336
337
338
339
340
341
342
343
344
345
346
347
348
349
350
351
352
353
354
355
356
1.166666666666661 0.8333333333333339 0
1.166666666666661 0.6666666666666673 0
1.166666666666661 0.5000000000000002 0
1.166666666666661 0.3333333333333336 0
1.166666666666661 0.1666666666666668 0
1.333333333333326 0.833333333333334 0
1.333333333333327 0.6666666666666673 0
1.333333333333327 0.5000000000000003 0
1.333333333333327 0.3333333333333336 0
1.333333333333327 0.1666666666666671 0
1.499999999999994 0.833333333333334 0
1.499999999999994 0.6666666666666673 0
1.499999999999994 0.5000000000000003 0
1.499999999999994 0.3333333333333336 0
1.499999999999994 0.166666666666667 0
1.666666666666661 0.833333333333334 0
1.666666666666661 0.6666666666666672 0
1.666666666666661 0.5000000000000004 0
1.666666666666661 0.3333333333333336 0
1.666666666666661 0.1666666666666671 0
1.833333333333327 0.8333333333333341 0
1.833333333333327 0.6666666666666673 0
1.833333333333327 0.5000000000000003 0
1.833333333333327 0.3333333333333336 0
1.833333333333327 0.166666666666667 0
2 15 0 25
357
358
359
360
361
362
363
364
365
366
367
368
369
370
371
372
373
374
375
376
377
378
379
380
381
1.166666666666661 1.000000000000001 -0.8333333333333339
1.166666666666661 1.000000000000001 -0.6666666666666673
1.166666666666661 1 -0.5000000000000002
1.166666666666661 1 -0.3333333333333336
1.166666666666661 1 -0.1666666666666668
1.333333333333326 1.000000000000001 -0.833333333333334
1.333333333333327 1.000000000000001 -0.6666666666666673
1.333333333333327 1 -0.5000000000000003
1.333333333333327 1 -0.3333333333333336
1.333333333333327 1 -0.1666666666666671
1.499999999999994 1.000000000000001 -0.833333333333334
1.499999999999994 1.000000000000001 -0.6666666666666673
1.499999999999994 1 -0.5000000000000003
1.499999999999994 1 -0.3333333333333336
1.499999999999994 1 -0.166666666666667
1.666666666666661 1.000000000000001 -0.833333333333334
1.666666666666661 1 -0.6666666666666672
1.666666666666661 1 -0.5000000000000004
1.666666666666661 1 -0.3333333333333336
1.666666666666661 1 -0.1666666666666671
1.833333333333327 1.000000000000001 -0.8333333333333341
1.833333333333327 1.000000000000001 -0.6666666666666673
1.833333333333327 1 -0.5000000000000003
1.833333333333327 1 -0.3333333333333336
1.833333333333327 1 -0.166666666666667
2 16 0 25
382
383
384
385
386
387
388
389
390
391
392
393
394
395
396
397
398
399
400
401
402
403
404
405
406
1.166666666666661 3.061616997868385e-17 -0.1666666666666667
1.166666666666661 6.123233995736771e-17 -0.3333333333333336
1.166666666666661 9.184850993605156e-17 -0.5000000000000003
1.166666666666661 1.224646799147354e-16 -0.6666666666666672
1.166666666666661 1.530808498934193e-16 -0.8333333333333338
1.333333333333326 3.061616997868385e-17 -0.1666666666666667
1.333333333333327 6.123233995736771e-17 -0.3333333333333336
1.333333333333327 9.18485099360516e-17 -0.5000000000000006
1.333333333333327 1.224646799147354e-16 -0.666666666666667
1.333333333333328 1.530808498934192e-16 -0.8333333333333336
1.499999999999994 3.061616997868385e-17 -0.1666666666666667
1.499999999999994 6.123233995736771e-17 -0.3333333333333336
1.499999999999994 9.184850993605158e-17 -0.5000000000000004
1.499999999999994 1.224646799147354e-16 -0.6666666666666672
1.499999999999994 1.530808498934192e-16 -0.8333333333333337
1.666666666666661 3.061616997868385e-17 -0.1666666666666667
1.666666666666661 6.12323399573677e-17 -0.3333333333333336
1.666666666666661 9.184850993605156e-17 -0.5000000000000003
1.666666666666661 1.224646799147354e-16 -0.6666666666666672
1.666666666666661 1.530808498934192e-16 -0.8333333333333335
1.833333333333327 3.061616997868385e-17 -0.1666666666666667
1.833333333333327 6.12323399573677e-17 -0.3333333333333335
1.833333333333327 9.184850993605157e-17 -0.5000000000000004
1.833333333333327 1.224646799147354e-16 -0.6666666666666672
1.833333333333327 1.530808498934192e-16 -0.8333333333333336
2 17 0 25
407
408
409
410
411
412
413
414
415
416
417
418
419
420
421
422
423
424
425
426
427
428
429
430
431
1.166666666666661 0.1666666666666669 -1.000000000000001
1.166666666666661 0.3333333333333335 -1.000000000000001
1.166666666666661 0.5000000000000006 -1
1.166666666666661 0.6666666666666672 -1.000000000000001
1.166666666666661 0.8333333333333339 -1
1.333333333333326 0.1666666666666667 -1.000000000000001
1.333333333333327 0.3333333333333336 -1.000000000000001
1.333333333333327 0.5000000000000004 -1
1.333333333333327 0.666666666666667 -1
1.333333333333328 0.8333333333333339 -1
1.499999999999994 0.1666666666666667 -1.000000000000001
1.499999999999994 0.3333333333333336 -1.000000000000001
1.499999999999994 0.5000000000000004 -1
1.499999999999994 0.666666666666667 -1
1.499999999999994 0.8333333333333339 -1
1.666666666666661 0.1666666666666667 -1.000000000000001
1.666666666666661 0.3333333333333336 -1
1.666666666666661 0.5000000000000006 -1
1.666666666666661 0.666666666666667 -1
1.666666666666661 0.8333333333333339 -1
1.833333333333327 0.1666666666666669 -1.000000000000001
1.833333333333327 0.3333333333333335 -1.000000000000001
1.833333333333327 0.5000000000000004 -1
1.833333333333327 0.6666666666666672 -1.000000000000001
1.833333333333327 0.8333333333333339 -1
2 18 0 25
432
433
434
435
436
437
438
439
440
441
442
443
444
445
446
447
448
449
450
451
452
453
454
455
456
0.1666666666666651 0.8333333333333339 0
0.1666666666666651 0.6666666666666671 0
0.1666666666666651 0.5000000000000003 0
0.1666666666666651 0.3333333333333336 0
0.1666666666666651 0.166666666666667 0
0.3333333333333303 0.833333333333334 0
0.3333333333333303 0.6666666666666671 0
0.3333333333333303 0.5000000000000004 0
0.3333333333333303 0.3333333333333336 0
0.3333333333333303 0.1666666666666669 0
0.4999999999999951 0.833333333333334 0
0.4999999999999951 0.6666666666666672 0
0.4999999999999954 0.5000000000000004 0
0.4999999999999951 0.3333333333333336 0
0.4999999999999954 0.1666666666666669 0
0.6666666666666615 0.833333333333334 0
0.6666666666666612 0.6666666666666673 0
0.6666666666666615 0.5000000000000003 0
0.6666666666666612 0.3333333333333336 0
0.6666666666666615 0.166666666666667 0
0.8333333333333279 0.833333333333334 0
0.8333333333333279 0.6666666666666673 0
0.8333333333333279 0.5000000000000003 0
0.8333333333333279 0.3333333333333336 0
0.8333333333333279 0.166666666666667 0
2 19 0 25
457
458
459
460
461
462
463
464
465
466
467
468
469
470
471
472
473
474
475
476
477
478
479
480
481
0.1666666666666651 1.000000000000001 -0.8333333333333339
0.1666666666666651 1.000000000000001 -0.6666666666666671
0.1666666666666651 1 -0.5000000000000003
0.1666666666666651 1 -0.3333333333333336
0.1666666666666651 1 -0.166666666666667
0.3333333333333303 1.000000000000001 -0.833333333333334
0.3333333333333303 1.000000000000001 -0.6666666666666671
0.3333333333333303 1 -0.5000000000000004
0.3333333333333303 1 -0.3333333333333336
0.3333333333333303 1 -0.1666666666666669
0.4999999999999951 1.000000000000001 -0.833333333333334
0.4999999999999951 1.000000000000001 -0.6666666666666672
0.4999999999999954 1 -0.5000000000000004
0.4999999999999951 1 -0.3333333333333336
0.4999999999999954 1 -0.1666666666666669
0.6666666666666615 1.000000000000001 -0.833333333333334
0.6666666666666612 1.000000000000001 -0.6666666666666673
0.6666666666666615 1 -0.5000000000000003
0.6666666666666612 1 -0.3333333333333336
0.6666666666666615 1 -0.166666666666667
0.8333333333333279 1.000000000000001 -0.833333333333334
0.8333333333333279 1.000000000000001 -0.6666666666666673
0.8333333333333279 1 -0.5000000000000003
0.8333333333333279 1 -0.3333333333333336
0.8333333333333279 1 -0.166666666666667
2 20 0 25
482
483
484
485
486
487
488
489
490
491
492
493
494
495
496
497
498
499
500
501
502
503
504
505
506
0.1666666666666651 3.061616997868385e-17 -0.1666666666666667
0.1666666666666651 6.123233995736771e-17 -0.3333333333333336
0.1666666666666651 9.184850993605156e-17 -0.5000000000000003
0.1666666666666651 1.224646799147354e-16 -0.666666666666667
0.1666666666666651 1.530808498934192e-16 -0.8333333333333337
0.3333333333333303 3.061616997868385e-17 -0.1666666666666667
0.3333333333333303 6.123233995736771e-17 -0.3333333333333336
0.3333333333333303 9.184850993605158e-17 -0.5000000000000006
0.3333333333333303 1.224646799147354e-16 -0.666666666666667
0.3333333333333303 1.530808498934193e-16 -0.8333333333333338
0.4999999999999951 3.061616997868385e-17 -0.1666666666666667
0.4999999999999951 6.123233995736771e-17 -0.3333333333333336
0.4999999999999954 9.18485099360516e-17 -0.5000000000000006
0.4999999999999951 1.224646799147354e-16 -0.666666666666667
0.4999999999999954 1.530808498934193e-16 -0.8333333333333338
0.6666666666666615 3.061616997868385e-17 -0.1666666666666667
0.6666666666666612 6.123233995736771e-17 -0.3333333333333336
0.6666666666666615 9.184850993605158e-17 -0.5000000000000004
0.6666666666666612 1.224646799147354e-16 -0.666666666666667
0.6666666666666615 1.530808498934193e-16 -0.8333333333333339
0.8333333333333279 3.061616997868385e-17 -0.1666666666666667
0.8333333333333279 6.123233995736771e-17 -0.3333333333333336
0.8333333333333279 9.184850993605158e-17 -0.5000000000000004
0.8333333333333279 1.224646799147354e-16 -0.666666666666667
0.8333333333333279 1.530808498934192e-16 -0.8333333333333337
2 21 0 25
507
508
509
510
511
512
513
514
515
516
517
518
519
520
521
522
523
524
525
526
527
528
529
530
531
0 0.8333333333333338 -0.8333333333333337
0 0.6666666666666672 -0.8333333333333338
0 0.5000000000000003 -0.8333333333333339
0 0.3333333333333337 -0.8333333333333339
0 0.1666666666666669 -0.8333333333333339
0 0.8333333333333338 -0.6666666666666671
0 0.6666666666666672 -0.6666666666666671
0 0.5000000000000003 -0.666666666666667
0 0.3333333333333336 -0.6666666666666672
0 0.166666666666667 -0.6666666666666671
0 0.8333333333333338 -0.5000000000000003
0 0.6666666666666671 -0.5000000000000002
0 0.5000000000000003 -0.5000000000000002
0 0.3333333333333336 -0.5000000000000003
0 0.1666666666666669 -0.5000000000000002
0 0.8333333333333337 -0.3333333333333335
0 0.6666666666666672 -0.3333333333333335
0 0.5000000000000003 -0.3333333333333336
0 0.3333333333333336 -0.3333333333333336
0 0.1666666666666669 -0.3333333333333335
0 0.8333333333333338 -0.1666666666666669
0 0.6666666666666672 -0.1666666666666669
0 0.5000000000000003 -0.1666666666666667
0 0.3333333333333335 -0.1666666666666669
0 0.1666666666666667 -0.1666666666666667
2 22 0 25
532
533
534
535
536
537
538
539
540
541
542
543
544
545
546
547
548
549
550
551
552
553
554
555
556
0.1666666666666651 0.1666666666666669 -1.000000000000001
0.1666666666666651 0.3333333333333337 -1.000000000000001
0.1666666666666651 0.5000000000000004 -1
0.1666666666666651 0.6666666666666672 -1
0.1666666666666651 0.8333333333333339 -1
0.3333333333333303 0.1666666666666669 -1.000000000000001
0.3333333333333303 0.3333333333333337 -1.000000000000001
0.3333333333333303 0.5000000000000004 -1
0.3333333333333303 0.6666666666666672 -1
0.3333333333333303 0.8333333333333338 -1
0.4999999999999951 0.1666666666666667 -1.000000000000001
0.4999999999999954 0.3333333333333336 -1.000000000000001
0.4999999999999954 0.5000000000000004 -1
0.4999999999999951 0.6666666666666672 -1.000000000000001
0.4999999999999953 0.8333333333333336 -1
0.6666666666666615 0.1666666666666667 -1.000000000000001
0.6666666666666612 0.3333333333333336 -1.000000000000001
0.6666666666666612 0.5000000000000004 -1
0.6666666666666613 0.6666666666666672 -1.000000000000001
0.6666666666666615 0.8333333333333339 -1
0.8333333333333279 0.1666666666666667 -1.000000000000001
0.8333333333333276 0.3333333333333336 -1.000000000000001
0.8333333333333279 0.5000000000000006 -1
0.833333333333328 0.6666666666666672 -1.000000000000001
0.833333333333328 0.8333333333333338 -1
3 1 0 125
557
558
559
560
561
562
563
564
565
566
567
568
569
570
571
572
573
574
575
576
577
578
579
580
581
582
583
584
585
586
587
588
589
590
591
592
593
594
595
596
597
598
599
600
601
602
603
604
605
606
607
608
609
610
611
612
613
614
615
616
617
618
619
620
621
622
623
624
625
626
627
628
629
630
631
632
633
634
635
636
637
638
639
640
641
642
643
644
645
646
647
648
649
650
651
652
653
654
655
656
657
658
659
660
661
662
663
664
665
666
667
668
669
670
671
672
673
674
675
676
677
678
679
680
681
2.833333333333324 0.833333333333334 -0.166666666666667
2.666666666666656 0.8333333333333341 -0.166666666666667
2.499999999999989 0.8333333333333341 -0.166666666666667
2.333333333333323 0.8333333333333335 -0.1666666666666671
2.166666666666659 0.833333333333334 -0.1666666666666671
2.833333333333322 0.833333333333334 -0.3333333333333336
2.666666666666656 0.833333333333334 -0.3333333333333337
2.499999999999987 0.8333333333333339 -0.3333333333333337
2.333333333333325 0.8333333333333341 -0.3333333333333336
2.16666666666666 0.8333333333333341 -0.3333333333333337
2.83333333333332 0.8333333333333336 -0.5000000000000006
2.666666666666656 0.8333333333333336 -0.5000000000000006
2.499999999999987 0.8333333333333337 -0.5
2.333333333333325 0.8333333333333341 -0.5000000000000002
2.16666666666666 0.8333333333333337 -0.5
2.833333333333321 0.8333333333333339 -0.6666666666666676
2.666666666666657 0.8333333333333341 -0.6666666666666676
2.499999999999987 0.8333333333333335 -0.6666666666666671
2.333333333333323 0.8333333333333341 -0.6666666666666674
2.16666666666666 0.8333333333333341 -0.6666666666666675
2.833333333333324 0.8333333333333338 -0.833333333333334
2.666666666666656 0.833333333333334 -0.8333333333333341
2.499999999999988 0.8333333333333339 -0.8333333333333345
2.333333333333322 0.8333333333333341 -0.8333333333333339
2.16666666666666 0.833333333333334 -0.8333333333333339
2.833333333333322 0.6666666666666674 -0.1666666666666669
2.666666666666655 0.6666666666666674 -0.1666666666666669
2.49999999999999 0.6666666666666667 -0.1666666666666669
2.333333333333323 0.6666666666666672 -0.166666666666667
2.16666666666666 0.6666666666666676 -0.1666666666666669
2.833333333333321 0.6666666666666676 -0.3333333333333336
2.666666666666655 0.6666666666666673 -0.3333333333333336
2.499999999999988 0.6666666666666669 -0.3333333333333336
2.333333333333323 0.6666666666666674 -0.3333333333333336
2.16666666666666 0.6666666666666675 -0.3333333333333337
2.833333333333321 0.666666666666667 -0.5000000000000006
2.666666666666656 0.6666666666666669 -0.5000000000000004
2.499999999999989 0.6666666666666667 -0.5000000000000006
2.333333333333325 0.6666666666666667 -0.5000000000000007
2.166666666666659 0.6666666666666672 -0.5000000000000001
2.833333333333321 0.6666666666666676 -0.6666666666666673
2.666666666666656 0.6666666666666679 -0.6666666666666674
2.499999999999988 0.6666666666666674 -0.666666666666667
2.333333333333322 0.6666666666666672 -0.6666666666666671
2.16666666666666 0.6666666666666674 -0.6666666666666674
2.833333333333322 0.6666666666666679 -0.833333333333334
2.666666666666656 0.6666666666666679 -0.833333333333334
2.499999999999988 0.6666666666666673 -0.8333333333333339
2.333333333333324 0.6666666666666673 -0.8333333333333339
2.16666666666666 0.6666666666666673 -0.8333333333333338
2.833333333333321 0.5000000000000006 -0.1666666666666668
2.666666666666657 0.5000000000000007 -0.1666666666666669
2.499999999999988 0.5000000000000004 -0.1666666666666669
2.333333333333325 0.5000000000000001 -0.1666666666666668
2.16666666666666 0.5 -0.1666666666666669
2.833333333333323 0.5000000000000004 -0.3333333333333335
2.666666666666656 0.5000000000000004 -0.3333333333333337
2.499999999999989 0.5000000000000001 -0.3333333333333337
2.333333333333325 0.5000000000000001 -0.3333333333333336
2.16666666666666 0.5000000000000001 -0.3333333333333337
2.833333333333322 0.5000000000000007 -0.5000000000000002
2.666666666666657 0.5000000000000006 -0.5000000000000004
2.499999999999989 0.5000000000000004 -0.5000000000000004
2.333333333333325 0.5 -0.5000000000000002
2.166666666666659 0.5 -0.5000000000000001
2.833333333333323 0.5000000000000004 -0.6666666666666671
2.666666666666656 0.5000000000000004 -0.666666666666667
2.499999999999988 0.5000000000000007 -0.6666666666666665
2.333333333333325 0.5000000000000001 -0.6666666666666671
2.166666666666659 0.5000000000000003 -0.6666666666666674
2.833333333333321 0.5000000000000003 -0.8333333333333337
2.666666666666657 0.5000000000000004 -0.8333333333333336
2.499999999999987 0.5000000000000003 -0.8333333333333337
2.333333333333324 0.5000000000000002 -0.8333333333333331
2.16666666666666 0.5000000000000003 -0.8333333333333337
2.833333333333321 0.3333333333333335 -0.1666666666666668
2.666666666666657 0.3333333333333336 -0.1666666666666669
2.499999999999989 0.3333333333333333 -0.1666666666666669
2.333333333333325 0.3333333333333336 -0.1666666666666669
2.16666666666666 0.3333333333333335 -0.1666666666666669
2.833333333333321 0.3333333333333335 -0.3333333333333335
2.666666666666656 0.3333333333333335 -0.3333333333333337
2.499999999999989 0.3333333333333335 -0.3333333333333336
2.333333333333323 0.3333333333333338 -0.3333333333333336
2.16666666666666 0.3333333333333335 -0.3333333333333338
2.833333333333321 0.3333333333333335 -0.5000000000000006
2.666666666666656 0.3333333333333339 -0.5000000000000004
2.499999999999989 0.3333333333333336 -0.5000000000000006
2.333333333333325 0.3333333333333336 -0.5000000000000006
2.166666666666658 0.3333333333333336 -0.5000000000000006
2.833333333333321 0.3333333333333335 -0.6666666666666675
2.666666666666656 0.3333333333333338 -0.6666666666666675
2.499999999999988 0.3333333333333338 -0.666666666666667
2.333333333333323 0.3333333333333336 -0.666666666666667
2.16666666666666 0.3333333333333336 -0.6666666666666675
2.833333333333322 0.3333333333333338 -0.8333333333333339
2.666666666666657 0.3333333333333339 -0.8333333333333341
2.499999999999988 0.3333333333333336 -0.8333333333333339
2.333333333333322 0.3333333333333337 -0.8333333333333331
2.16666666666666 0.3333333333333335 -0.833333333333334
2.833333333333323 0.1666666666666669 -0.1666666666666668
2.666666666666657 0.166666666666667 -0.1666666666666667
2.499999999999988 0.166666666666667 -0.1666666666666667
2.333333333333323 0.1666666666666672 -0.1666666666666667
2.16666666666666 0.1666666666666671 -0.1666666666666667
2.833333333333322 0.1666666666666669 -0.3333333333333336
2.666666666666656 0.1666666666666669 -0.3333333333333335
2.499999999999988 0.1666666666666669 -0.3333333333333336
2.333333333333323 0.166666666666667 -0.3333333333333336
2.16666666666666 0.1666666666666672 -0.3333333333333338
2.833333333333322 0.1666666666666669 -0.5
2.666666666666657 0.1666666666666669 -0.5000000000000004
2.499999999999988 0.166666666666667 -0.5000000000000006
2.333333333333325 0.166666666666667 -0.5000000000000006
2.16666666666666 0.1666666666666669 -0.5000000000000007
2.833333333333322 0.1666666666666669 -0.6666666666666672
2.666666666666656 0.1666666666666669 -0.6666666666666671
2.499999999999988 0.1666666666666669 -0.6666666666666669
2.333333333333322 0.166666666666667 -0.666666666666667
2.166666666666659 0.1666666666666669 -0.6666666666666671
2.833333333333323 0.1666666666666669 -0.8333333333333338
2.666666666666657 0.1666666666666669 -0.8333333333333337
2.499999999999988 0.1666666666666667 -0.8333333333333335
2.333333333333322 0.1666666666666669 -0.833333333333333
2.166666666666659 0.1666666666666668 -0.833333333333334
3 2 0 125
682
683
684
685
686
687
688
689
690
691
692
693
694
695
696
697
698
699
700
701
702
703
704
705
706
707
708
709
710
711
712
713
714
715
716
717
718
719
720
721
722
723
724
725
726
727
728
729
730
731
732
733
734
735
736
737
738
739
740
741
742
743
744
745
746
747
748
749
750
751
752
753
754
755
756
757
758
759
760
761
762
763
764
765
766
767
768
769
770
771
772
773
774
775
776
777
778
779
780
781
782
783
784
785
786
787
788
789
790
791
792
793
794
795
796
797
798
799
800
801
802
803
804
805
806
1.166666666666662 0.8333333333333338 -0.1666666666666669
1.166666666666661 0.833333333333334 -0.3333333333333338
1.166666666666661 0.8333333333333334 -0.4999999999999999
1.166666666666662 0.8333333333333339 -0.6666666666666676
1.166666666666662 0.8333333333333341 -0.8333333333333339
1.166666666666662 0.6666666666666672 -0.1666666666666669
1.166666666666661 0.6666666666666675 -0.3333333333333337
1.166666666666661 0.6666666666666669 -0.5000000000000004
1.166666666666661 0.6666666666666675 -0.6666666666666675
1.166666666666661 0.6666666666666675 -0.833333333333334
1.166666666666662 0.5000000000000001 -0.1666666666666668
1.166666666666661 0.5000000000000006 -0.3333333333333336
1.166666666666661 0.5000000000000006 -0.5000000000000004
1.166666666666661 0.5000000000000004 -0.6666666666666672
1.166666666666661 0.5000000000000004 -0.8333333333333337
1.166666666666661 0.3333333333333334 -0.1666666666666669
1.166666666666661 0.3333333333333335 -0.3333333333333338
1.166666666666661 0.3333333333333335 -0.5000000000000003
1.166666666666661 0.3333333333333336 -0.6666666666666675
1.166666666666661 0.3333333333333337 -0.8333333333333335
1.166666666666661 0.1666666666666669 -0.1666666666666667
1.166666666666661 0.166666666666667 -0.3333333333333338
1.166666666666661 0.1666666666666667 -0.5000000000000003
1.166666666666661 0.1666666666666669 -0.6666666666666673
1.166666666666661 0.1666666666666669 -0.8333333333333339
1.333333333333326 0.8333333333333338 -0.1666666666666671
1.333333333333327 0.8333333333333346 -0.3333333333333336
1.333333333333327 0.8333333333333339 -0.5
1.333333333333327 0.8333333333333343 -0.6666666666666672
1.333333333333327 0.8333333333333341 -0.8333333333333339
1.333333333333326 0.6666666666666674 -0.1666666666666671
1.333333333333327 0.666666666666667 -0.3333333333333338
1.333333333333327 0.666666666666667 -0.5000000000000004
1.333333333333326 0.6666666666666671 -0.6666666666666673
1.333333333333326 0.6666666666666671 -0.8333333333333339
1.333333333333326 0.5000000000000004 -0.1666666666666669
1.333333333333327 0.5000000000000003 -0.3333333333333336
1.333333333333326 0.5000000000000002 -0.5000000000000004
1.333333333333326 0.5000000000000006 -0.6666666666666672
1.333333333333327 0.5000000000000003 -0.833333333333334
1.333333333333326 0.3333333333333336 -0.1666666666666669
1.333333333333327 0.3333333333333335 -0.3333333333333337
1.333333333333327 0.3333333333333338 -0.5000000000000006
1.333333333333326 0.3333333333333337 -0.6666666666666672
1.333333333333327 0.3333333333333337 -0.8333333333333337
1.333333333333327 0.166666666666667 -0.1666666666666667
1.333333333333327 0.166666666666667 -0.3333333333333337
1.333333333333326 0.1666666666666669 -0.5000000000000004
1.333333333333326 0.1666666666666669 -0.666666666666667
1.333333333333327 0.1666666666666668 -0.8333333333333339
1.499999999999995 0.8333333333333337 -0.1666666666666671
1.499999999999994 0.8333333333333343 -0.3333333333333336
1.499999999999994 0.8333333333333333 -0.5
1.499999999999994 0.833333333333334 -0.6666666666666673
1.499999999999994 0.8333333333333341 -0.8333333333333339
1.499999999999994 0.6666666666666673 -0.166666666666667
1.499999999999994 0.666666666666667 -0.3333333333333336
1.499999999999994 0.666666666666667 -0.5000000000000004
1.499999999999994 0.666666666666667 -0.6666666666666674
1.499999999999993 0.666666666666667 -0.833333333333334
1.499999999999994 0.5000000000000004 -0.1666666666666668
1.499999999999994 0.5000000000000002 -0.3333333333333337
1.499999999999994 0.5 -0.5000000000000004
1.499999999999994 0.5000000000000004 -0.6666666666666675
1.499999999999994 0.5000000000000006 -0.8333333333333336
1.499999999999994 0.3333333333333335 -0.1666666666666669
1.499999999999994 0.3333333333333336 -0.3333333333333337
1.499999999999994 0.3333333333333338 -0.5000000000000004
1.499999999999994 0.3333333333333336 -0.6666666666666675
1.499999999999994 0.3333333333333336 -0.8333333333333341
1.499999999999995 0.166666666666667 -0.1666666666666667
1.499999999999995 0.166666666666667 -0.3333333333333337
1.499999999999995 0.1666666666666669 -0.5000000000000004
1.499999999999994 0.1666666666666669 -0.6666666666666672
1.499999999999994 0.1666666666666667 -0.8333333333333339
1.66666666666666 0.8333333333333339 -0.1666666666666672
1.66666666666666 0.8333333333333345 -0.3333333333333336
1.66666666666666 0.8333333333333339 -0.5000000000000004
1.666666666666659 0.833333333333334 -0.6666666666666674
1.666666666666659 0.833333333333334 -0.8333333333333339
1.66666666666666 0.6666666666666666 -0.166666666666667
1.66666666666666 0.6666666666666669 -0.3333333333333337
1.666666666666661 0.6666666666666669 -0.5000000000000004
1.66666666666666 0.6666666666666669 -0.6666666666666672
1.666666666666659 0.6666666666666669 -0.8333333333333339
1.66666666666666 0.5000000000000004 -0.1666666666666669
1.666666666666661 0.5000000000000004 -0.3333333333333337
1.666666666666661 0.5000000000000004 -0.5000000000000004
1.666666666666661 0.5000000000000006 -0.6666666666666673
1.66666666666666 0.5000000000000004 -0.8333333333333339
1.66666666666666 0.3333333333333334 -0.1666666666666669
1.666666666666661 0.3333333333333334 -0.3333333333333338
1.666666666666661 0.3333333333333337 -0.5000000000000006
1.66666666666666 0.3333333333333336 -0.6666666666666673
1.66666666666666 0.3333333333333336 -0.8333333333333335
1.66666666666666 0.166666666666667 -0.1666666666666667
1.66666666666666 0.166666666666667 -0.3333333333333337
1.666666666666661 0.1666666666666669 -0.5000000000000004
1.66666666666666 0.1666666666666669 -0.6666666666666673
1.666666666666659 0.1666666666666669 -0.8333333333333336
1.833333333333327 0.8333333333333338 -0.1666666666666671
1.833333333333326 0.8333333333333343 -0.3333333333333336
1.833333333333326 0.8333333333333338 -0.5
1.833333333333327 0.8333333333333339 -0.6666666666666676
1.833333333333327 0.8333333333333341 -0.8333333333333343
1.833333333333326 0.6666666666666675 -0.166666666666667
1.833333333333325 0.6666666666666671 -0.3333333333333338
1.833333333333326 0.6666666666666671 -0.5000000000000004
1.833333333333327 0.6666666666666677 -0.6666666666666676
1.833333333333327 0.6666666666666679 -0.8333333333333345
1.833333333333327 0.5000000000000004 -0.1666666666666668
1.833333333333327 0.5000000000000002 -0.3333333333333337
1.833333333333326 0.5000000000000003 -0.5000000000000004
1.833333333333326 0.5000000000000004 -0.6666666666666674
1.833333333333326 0.5000000000000004 -0.8333333333333336
1.833333333333326 0.3333333333333334 -0.1666666666666669
1.833333333333325 0.3333333333333334 -0.3333333333333336
1.833333333333326 0.3333333333333335 -0.5000000000000004
1.833333333333327 0.3333333333333336 -0.6666666666666675
1.833333333333326 0.3333333333333337 -0.8333333333333336
1.833333333333326 0.1666666666666671 -0.1666666666666667
1.833333333333327 0.1666666666666671 -0.3333333333333337
1.833333333333326 0.1666666666666669 -0.5000000000000004
1.833333333333327 0.166666666666667 -0.6666666666666676
1.833333333333327 0.1666666666666669 -0.8333333333333336
3 3 0 125
807
808
809
810
811
812
813
814
815
816
817
818
819
820
821
822
823
824
825
826
827
828
829
830
831
832
833
834
835
836
837
838
839
840
841
842
843
844
845
846
847
848
849
850
851
852
853
854
855
856
857
858
859
860
861
862
863
864
865
866
867
868
869
870
871
872
873
874
875
876
877
878
879
880
881
882
883
884
885
886
887
888
889
890
891
892
893
894
895
896
897
898
899
900
901
902
903
904
905
906
907
908
909
910
911
912
913
914
915
916
917
918
919
920
921
922
923
924
925
926
927
928
929
930
931
0.1666666666666652 0.8333333333333338 -0.166666666666667
0.1666666666666652 0.8333333333333337 -0.3333333333333336
0.1666666666666652 0.8333333333333334 -0.5
0.1666666666666652 0.8333333333333339 -0.6666666666666671
0.1666666666666653 0.8333333333333339 -0.8333333333333335
0.1666666666666652 0.6666666666666674 -0.166666666666667
0.166666666666665 0.666666666666667 -0.3333333333333336
0.1666666666666651 0.6666666666666666 -0.4999999999999999
0.1666666666666651 0.6666666666666674 -0.666666666666667
0.1666666666666652 0.6666666666666674 -0.8333333333333335
0.1666666666666652 0.5000000000000006 -0.1666666666666669
0.1666666666666651 0.5000000000000001 -0.3333333333333335
0.1666666666666651 0.5000000000000004 -0.5000000000000001
0.1666666666666651 0.5000000000000003 -0.6666666666666671
0.1666666666666652 0.5000000000000003 -0.8333333333333334
0.1666666666666652 0.3333333333333338 -0.1666666666666669
0.1666666666666651 0.3333333333333336 -0.3333333333333336
0.1666666666666651 0.3333333333333338 -0.5000000000000004
0.1666666666666651 0.3333333333333338 -0.6666666666666671
0.1666666666666652 0.3333333333333338 -0.833333333333334
0.1666666666666652 0.166666666666667 -0.1666666666666669
0.1666666666666651 0.166666666666667 -0.3333333333333337
0.1666666666666651 0.166666666666667 -0.5000000000000002
0.1666666666666651 0.166666666666667 -0.6666666666666671
0.1666666666666652 0.1666666666666669 -0.8333333333333339
0.3333333333333304 0.833333333333334 -0.1666666666666669
0.3333333333333305 0.8333333333333336 -0.3333333333333335
0.3333333333333304 0.8333333333333334 -0.5000000000000001
0.3333333333333305 0.8333333333333341 -0.6666666666666676
0.3333333333333305 0.8333333333333339 -0.8333333333333339
0.3333333333333304 0.6666666666666672 -0.166666666666667
0.3333333333333301 0.6666666666666671 -0.3333333333333335
0.3333333333333303 0.6666666666666672 -0.5
0.3333333333333303 0.6666666666666676 -0.6666666666666671
0.3333333333333304 0.6666666666666675 -0.8333333333333339
0.3333333333333304 0.5000000000000006 -0.1666666666666667
0.3333333333333302 0.5000000000000006 -0.3333333333333336
0.3333333333333303 0.5000000000000004 -0.5000000000000001
0.3333333333333303 0.5000000000000003 -0.6666666666666667
0.3333333333333304 0.5000000000000003 -0.8333333333333334
0.3333333333333304 0.3333333333333337 -0.1666666666666669
0.3333333333333302 0.3333333333333336 -0.3333333333333336
0.3333333333333303 0.3333333333333339 -0.5000000000000004
0.3333333333333302 0.3333333333333339 -0.666666666666667
0.3333333333333304 0.3333333333333339 -0.8333333333333339
0.3333333333333304 0.1666666666666669 -0.1666666666666666
0.3333333333333304 0.166666666666667 -0.3333333333333337
0.3333333333333304 0.1666666666666668 -0.5000000000000004
0.3333333333333303 0.166666666666667 -0.6666666666666667
0.3333333333333304 0.1666666666666669 -0.8333333333333339
0.499999999999995 0.8333333333333336 -0.166666666666667
0.4999999999999948 0.8333333333333329 -0.3333333333333335
0.4999999999999952 0.8333333333333338 -0.5000000000000001
0.4999999999999948 0.8333333333333341 -0.6666666666666669
0.4999999999999951 0.8333333333333336 -0.8333333333333343
0.499999999999995 0.6666666666666672 -0.166666666666667
0.4999999999999946 0.6666666666666672 -0.3333333333333336
0.4999999999999951 0.6666666666666667 -0.5000000000000004
0.4999999999999948 0.6666666666666676 -0.6666666666666675
0.4999999999999951 0.6666666666666676 -0.8333333333333338
0.4999999999999951 0.5000000000000006 -0.1666666666666668
0.4999999999999952 0.5000000000000003 -0.3333333333333335
0.4999999999999954 0.5000000000000004 -0.5000000000000004
0.499999999999995 0.5000000000000003 -0.666666666666667
0.4999999999999954 0.5000000000000004 -0.8333333333333336
0.4999999999999947 0.3333333333333336 -0.1666666666666669
0.4999999999999947 0.3333333333333336 -0.3333333333333336
0.4999999999999951 0.3333333333333339 -0.5000000000000004
0.4999999999999949 0.3333333333333336 -0.6666666666666675
0.4999999999999953 0.3333333333333336 -0.8333333333333341
0.4999999999999953 0.1666666666666667 -0.1666666666666667
0.4999999999999951 0.1666666666666669 -0.3333333333333337
0.4999999999999956 0.1666666666666667 -0.5000000000000004
0.4999999999999948 0.1666666666666669 -0.666666666666667
0.4999999999999954 0.1666666666666667 -0.8333333333333338
0.6666666666666614 0.8333333333333338 -0.166666666666667
0.6666666666666609 0.8333333333333341 -0.3333333333333336
0.6666666666666614 0.8333333333333339 -0.5
0.6666666666666609 0.8333333333333341 -0.6666666666666675
0.6666666666666613 0.833333333333334 -0.8333333333333339
0.6666666666666614 0.6666666666666674 -0.166666666666667
0.6666666666666607 0.6666666666666672 -0.3333333333333337
0.6666666666666614 0.666666666666667 -0.5000000000000002
0.6666666666666607 0.6666666666666673 -0.6666666666666674
0.6666666666666613 0.6666666666666674 -0.8333333333333344
0.6666666666666613 0.5000000000000003 -0.1666666666666668
0.6666666666666613 0.5000000000000002 -0.3333333333333337
0.6666666666666613 0.5000000000000002 -0.5
0.6666666666666609 0.5000000000000003 -0.6666666666666674
0.6666666666666612 0.5000000000000003 -0.8333333333333338
0.6666666666666613 0.3333333333333336 -0.166666666666667
0.6666666666666609 0.3333333333333336 -0.3333333333333337
0.6666666666666613 0.3333333333333338 -0.5000000000000004
0.6666666666666607 0.3333333333333336 -0.6666666666666673
0.6666666666666614 0.3333333333333337 -0.8333333333333339
0.6666666666666614 0.1666666666666669 -0.1666666666666667
0.6666666666666613 0.166666666666667 -0.3333333333333336
0.6666666666666613 0.1666666666666669 -0.5000000000000004
0.6666666666666613 0.1666666666666669 -0.6666666666666669
0.6666666666666614 0.1666666666666667 -0.8333333333333339
0.8333333333333278 0.8333333333333339 -0.1666666666666671
0.833333333333328 0.8333333333333344 -0.3333333333333337
0.8333333333333285 0.8333333333333335 -0.5
0.8333333333333284 0.833333333333334 -0.6666666666666671
0.8333333333333284 0.8333333333333341 -0.8333333333333339
0.8333333333333279 0.6666666666666674 -0.166666666666667
0.8333333333333279 0.6666666666666671 -0.3333333333333337
0.8333333333333283 0.666666666666667 -0.5000000000000004
0.8333333333333279 0.6666666666666674 -0.6666666666666674
0.8333333333333284 0.6666666666666675 -0.833333333333334
0.8333333333333279 0.5000000000000006 -0.1666666666666669
0.8333333333333279 0.5000000000000004 -0.3333333333333337
0.8333333333333284 0.5000000000000006 -0.5000000000000004
0.8333333333333277 0.5000000000000004 -0.6666666666666667
0.8333333333333279 0.5000000000000004 -0.8333333333333334
0.8333333333333275 0.3333333333333336 -0.166666666666667
0.8333333333333276 0.3333333333333336 -0.3333333333333338
0.8333333333333275 0.3333333333333338 -0.5000000000000004
0.8333333333333275 0.3333333333333336 -0.6666666666666673
0.8333333333333275 0.3333333333333336 -0.8333333333333341
0.8333333333333279 0.166666666666667 -0.1666666666666667
0.8333333333333279 0.166666666666667 -0.3333333333333336
0.8333333333333284 0.1666666666666669 -0.5000000000000004
0.8333333333333279 0.1666666666666669 -0.6666666666666671
0.8333333333333279 0.1666666666666667 -0.8333333333333339
$EndNodes
$Elements
21 1176 1 1176
1 13 1 6
1 1 17 
2 17 18 
3 18 19 
4 19 20 
5 20 21 
6 21 2 
1 17 1 6
7 5 37 
8 37 38 
9 38 39 
10 39 40 
11 40 41 
12 41 6 
1 31 1 6
13 2 107 
14 107 108 
15 108 109 
16 109 110 
17 110 111 
18 111 6 
1 32 1 6
19 1 112 
20 112 113 
21 113 114 
22 114 115 
23 115 116 
24 116 5 
2 9 3 36
25 9 57 207 76 
26 76 207 208 75 
27 75 208 209 74 
28 74 209 210 73 
29 73 210 211 72 
30 72 211 71 12 
31 57 58 212 207 
32 207 212 213 208 
33 208 213 214 209 
34 209 214 215 210 
35 210 215 216 211 
36 211 216 70 71 
37 58 59 217 212 
38 212 217 218 213 
39 213 218 219 214 
40 214 219 220 215 
41 215 220 221 216 
42 216 221 69 70 
43 59 60 222 217 
44 217 222 223 218 
45 218 223 224 219 
46 219 224 225 220 
47 220 225 226 221 
48 221 226 68 69 
49 60 61 227 222 
50 222 227 228 223 
51 223 228 229 224 
52 224 229 230 225 
53 225 230 231 226 
54 226 231 67 68 
55 61 10 62 227 
56 227 62 63 228 
57 228 63 64 229 
58 229 64 65 230 
59 230 65 66 231 
60 231 66 11 67 
2 10 3 36
61 7 47 232 77 
62 47 48 233 232 
63 48 49 234 233 
64 49 50 235 234 
65 50 51 236 235 
66 51 8 82 236 
67 77 232 237 78 
68 232 233 238 237 
69 233 234 239 238 
70 234 235 240 239 
71 235 236 241 240 
72 236 82 83 241 
73 78 237 242 79 
74 237 238 243 242 
75 238 239 244 243 
76 239 240 245 244 
77 240 241 246 245 
78 241 83 84 246 
79 79 242 247 80 
80 242 243 248 247 
81 243 244 249 248 
82 244 245 250 249 
83 245 246 251 250 
84 246 84 85 251 
85 80 247 252 81 
86 247 248 253 252 
87 248 249 254 253 
88 249 250 255 254 
89 250 251 256 255 
90 251 85 86 256 
91 81 252 57 9 
92 252 253 58 57 
93 253 254 59 58 
94 254 255 60 59 
95 255 256 61 60 
96 256 86 10 61 
2 11 3 36
97 8 52 257 82 
98 52 53 258 257 
99 53 54 259 258 
100 54 55 260 259 
101 55 56 261 260 
102 56 5 87 261 
103 82 257 262 83 
104 257 258 263 262 
105 258 259 264 263 
106 259 260 265 264 
107 260 261 266 265 
108 261 87 88 266 
109 83 262 267 84 
110 262 263 268 267 
111 263 264 269 268 
112 264 265 270 269 
113 265 266 271 270 
114 266 88 89 271 
115 84 267 272 85 
116 267 268 273 272 
117 268 269 274 273 
118 269 270 275 274 
119 270 271 276 275 
120 271 89 90 276 
121 85 272 277 86 
122 272 273 278 277 
123 273 274 279 278 
124 274 275 280 279 
125 275 276 281 280 
126 276 90 91 281 
127 86 277 62 10 
128 277 278 63 62 
129 278 279 64 63 
130 279 280 65 64 
131 280 281 66 65 
132 281 91 11 66 
2 12 3 36
133 5 37 282 87 
134 37 38 283 282 
135 38 39 284 283 
136 39 40 285 284 
137 40 41 286 285 
138 41 6 92 286 
139 87 282 287 88 
140 282 283 288 287 
141 283 284 289 288 
142 284 285 290 289 
143 285 286 291 290 
144 286 92 93 291 
145 88 287 292 89 
146 287 288 293 292 
147 288 289 294 293 
148 289 290 295 294 
149 290 291 296 295 
150 291 93 94 296 
151 89 292 297 90 
152 292 293 298 297 
153 293 294 299 298 
154 294 295 300 299 
155 295 296 301 300 
156 296 94 95 301 
157 90 297 302 91 
158 297 298 303 302 
159 298 299 304 303 
160 299 300 305 304 
161 300 301 306 305 
162 301 95 96 306 
163 91 302 67 11 
164 302 303 68 67 
165 303 304 69 68 
166 304 305 70 69 
167 305 306 71 70 
168 306 96 12 71 
2 13 3 36
169 6 42 307 92 
170 42 43 308 307 
171 43 44 309 308 
172 44 45 310 309 
173 45 46 311 310 
174 46 7 77 311 
175 92 307 312 93 
176 307 308 313 312 
177 308 309 314 313 
178 309 310 315 314 
179 310 311 316 315 
180 311 77 78 316 
181 93 312 317 94 
182 312 313 318 317 
183 313 314 319 318 
184 314 315 320 319 
185 315 316 321 320 
186 316 78 79 321 
187 94 317 322 95 
188 317 318 323 322 
189 318 319 324 323 
190 319 320 325 324 
191 320 321 326 325 
192 321 79 80 326 
193 95 322 327 96 
194 322 323 328 327 
195 323 324 329 328 
196 324 325 330 329 
197 325 326 331 330 
198 326 80 81 331 
199 96 327 72 12 
200 327 328 73 72 
201 328 329 74 73 
202 329 330 75 74 
203 330 331 76 75 
204 331 81 9 76 
2 14 3 36
205 3 27 332 97 
206 27 28 333 332 
207 28 29 334 333 
208 29 30 335 334 
209 30 31 336 335 
210 31 4 102 336 
211 97 332 337 98 
212 332 333 338 337 
213 333 334 339 338 
214 334 335 340 339 
215 335 336 341 340 
216 336 102 103 341 
217 98 337 342 99 
218 337 338 343 342 
219 338 339 344 343 
220 339 340 345 344 
221 340 341 346 345 
222 341 103 104 346 
223 99 342 347 100 
224 342 343 348 347 
225 343 344 349 348 
226 344 345 350 349 
227 345 346 351 350 
228 346 104 105 351 
229 100 347 352 101 
230 347 348 353 352 
231 348 349 354 353 
232 349 350 355 354 
233 350 351 356 355 
234 351 105 106 356 
235 101 352 47 7 
236 352 353 48 47 
237 353 354 49 48 
238 354 355 50 49 
239 355 356 51 50 
240 356 106 8 51 
2 15 3 36
241 2 22 357 107 
242 22 23 358 357 
243 23 24 359 358 
244 24 25 360 359 
245 25 26 361 360 
246 26 3 97 361 
247 107 357 362 108 
248 357 358 363 362 
249 358 359 364 363 
250 359 360 365 364 
251 360 361 366 365 
252 361 97 98 366 
253 108 362 367 109 
254 362 363 368 367 
255 363 364 369 368 
256 364 365 370 369 
257 365 366 371 370 
258 366 98 99 371 
259 109 367 372 110 
260 367 368 373 372 
261 368 369 374 373 
262 369 370 375 374 
263 370 371 376 375 
264 371 99 100 376 
265 110 372 377 111 
266 372 373 378 377 
267 373 374 379 378 
268 374 375 380 379 
269 375 376 381 380 
270 376 100 101 381 
271 111 377 42 6 
272 377 378 43 42 
273 378 379 44 43 
274 379 380 45 44 
275 380 381 46 45 
276 381 101 7 46 
2 16 3 36
277 4 32 382 102 
278 32 33 383 382 
279 33 34 384 383 
280 34 35 385 384 
281 35 36 386 385 
282 36 1 112 386 
283 102 382 387 103 
284 382 383 388 387 
285 383 384 389 388 
286 384 385 390 389 
287 385 386 391 390 
288 386 112 113 391 
289 103 387 392 104 
290 387 388 393 392 
291 388 389 394 393 
292 389 390 395 394 
293 390 391 396 395 
294 391 113 114 396 
295 104 392 397 105 
296 392 393 398 397 
297 393 394 399 398 
298 394 395 400 399 
299 395 396 401 400 
300 396 114 115 401 
301 105 397 402 106 
302 397 398 403 402 
303 398 399 404 403 
304 399 400 405 404 
305 400 401 406 405 
306 401 115 116 406 
307 106 402 52 8 
308 402 403 53 52 
309 403 404 54 53 
310 404 405 55 54 
311 405 406 56 55 
312 406 116 5 56 
2 17 3 36
313 1 17 407 112 
314 17 18 408 407 
315 18 19 409 408 
316 19 20 410 409 
317 20 21 411 410 
318 21 2 107 411 
319 112 407 412 113 
320 407 408 413 412 
321 408 409 414 413 
322 409 410 415 414 
323 410 411 416 415 
324 411 107 108 416 
325 113 412 417 114 
326 412 413 418 417 
327 413 414 419 418 
328 414 415 420 419 
329 415 416 421 420 
330 416 108 109 421 
331 114 417 422 115 
332 417 418 423 422 
333 418 419 424 423 
334 419 420 425 424 
335 420 421 426 425 
336 421 109 110 426 
337 115 422 427 116 
338 422 423 428 427 
339 423 424 429 428 
340 424 425 430 429 
341 425 426 431 430 
342 426 110 111 431 
343 116 427 37 5 
344 427 428 38 37 
345 428 429 39 38 
346 429 430 40 39 
347 430 431 41 40 
348 431 111 6 41 
2 18 3 36
349 13 127 432 117 
350 127 128 433 432 
351 128 129 434 433 
352 129 130 435 434 
353 130 131 436 435 
354 131 14 122 436 
355 117 432 437 118 
356 432 433 438 437 
357 433 434 439 438 
358 434 435 440 439 
359 435 436 441 440 
360 436 122 123 441 
361 118 437 442 119 
362 437 438 443 442 
363 438 439 444 443 
364 439 440 445 444 
365 440 441 446 445 
366 441 123 124 446 
367 119 442 447 120 
368 442 443 448 447 
369 443 444 449 448 
370 444 445 450 449 
371 445 446 451 450 
372 446 124 125 451 
373 120 447 452 121 
374 447 448 453 452 
375 448 449 454 453 
376 449 450 455 454 
377 450 451 456 455 
378 451 125 126 456 
379 121 452 27 3 
380 452 453 28 27 
381 453 454 29 28 
382 454 455 30 29 
383 455 456 31 30 
384 456 126 4 31 
2 19 3 36
385 15 137 457 132 
386 137 138 458 457 
387 138 139 459 458 
388 139 140 460 459 
389 140 141 461 460 
390 141 13 117 461 
391 132 457 462 133 
392 457 458 463 462 
393 458 459 464 463 
394 459 460 465 464 
395 460 461 466 465 
396 461 117 118 466 
397 133 462 467 134 
398 462 463 468 467 
399 463 464 469 468 
400 464 465 470 469 
401 465 466 471 470 
402 466 118 119 471 
403 134 467 472 135 
404 467 468 473 472 
405 468 469 474 473 
406 469 470 475 474 
407 470 471 476 475 
408 471 119 120 476 
409 135 472 477 136 
410 472 473 478 477 
411 473 474 479 478 
412 474 475 480 479 
413 475 476 481 480 
414 476 120 121 481 
415 136 477 22 2 
416 477 478 23 22 
417 478 479 24 23 
418 479 480 25 24 
419 480 481 26 25 
420 481 121 3 26 
2 20 3 36
421 14 147 482 122 
422 147 148 483 482 
423 148 149 484 483 
424 149 150 485 484 
425 150 151 486 485 
426 151 16 142 486 
427 122 482 487 123 
428 482 483 488 487 
429 483 484 489 488 
430 484 485 490 489 
431 485 486 491 490 
432 486 142 143 491 
433 123 487 492 124 
434 487 488 493 492 
435 488 489 494 493 
436 489 490 495 494 
437 490 491 496 495 
438 491 143 144 496 
439 124 492 497 125 
440 492 493 498 497 
441 493 494 499 498 
442 494 495 500 499 
443 495 496 501 500 
444 496 144 145 501 
445 125 497 502 126 
446 497 498 503 502 
447 498 499 504 503 
448 499 500 505 504 
449 500 501 506 505 
450 501 145 146 506 
451 126 502 32 4 
452 502 503 33 32 
453 503 504 34 33 
454 504 505 35 34 
455 505 506 36 35 
456 506 146 1 36 
2 21 3 36
457 15 156 507 137 
458 156 155 508 507 
459 155 154 509 508 
460 154 153 510 509 
461 153 152 511 510 
462 152 16 151 511 
463 137 507 512 138 
464 507 508 513 512 
465 508 509 514 513 
466 509 510 515 514 
467 510 511 516 515 
468 511 151 150 516 
469 138 512 517 139 
470 512 513 518 517 
471 513 514 519 518 
472 514 515 520 519 
473 515 516 521 520 
474 516 150 149 521 
475 139 517 522 140 
476 517 518 523 522 
477 518 519 524 523 
478 519 520 525 524 
479 520 521 526 525 
480 521 149 148 526 
481 140 522 527 141 
482 522 523 528 527 
483 523 524 529 528 
484 524 525 530 529 
485 525 526 531 530 
486 526 148 147 531 
487 141 527 127 13 
488 527 528 128 127 
489 528 529 129 128 
490 529 530 130 129 
491 530 531 131 130 
492 531 147 14 131 
2 22 3 36
493 16 152 532 142 
494 152 153 533 532 
495 153 154 534 533 
496 154 155 535 534 
497 155 156 536 535 
498 156 15 132 536 
499 142 532 537 143 
500 532 533 538 537 
501 533 534 539 538 
502 534 535 540 539 
503 535 536 541 540 
504 536 132 133 541 
505 143 537 542 144 
506 537 538 543 542 
507 538 539 544 543 
508 539 540 545 544 
509 540 541 546 545 
510 541 133 134 546 
511 144 542 547 145 
512 542 543 548 547 
513 543 544 549 548 
514 544 545 550 549 
515 545 546 551 550 
516 546 134 135 551 
517 145 547 552 146 
518 547 548 553 552 
519 548 549 554 553 
520 549 550 555 554 
521 550 551 556 555 
522 551 135 136 556 
523 146 552 17 1 
524 552 553 18 17 
525 553 554 19 18 
526 554 555 20 19 
527 555 556 21 20 
528 556 136 2 21 
3 1 5 216
529 207 57 9 76 557 252 81 331 
530 557 252 81 331 558 247 80 326 
531 558 247 80 326 559 242 79 321 
532 559 242 79 321 560 237 78 316 
533 560 237 78 316 561 232 77 311 
534 561 232 77 311 206 47 7 46 
535 208 207 76 75 562 557 331 330 
536 562 557 331 330 563 558 326 325 
537 563 558 326 325 564 559 321 320 
538 564 559 321 320 565 560 316 315 
539 565 560 316 315 566 561 311 310 
540 566 561 311 310 205 206 46 45 
541 209 208 75 74 567 562 330 329 
542 567 562 330 329 568 563 325 324 
543 568 563 325 324 569 564 320 319 
544 569 564 320 319 570 565 315 314 
545 570 565 315 314 571 566 310 309 
546 571 566 310 309 204 205 45 44 
547 210 209 74 73 572 567 329 328 
548 572 567 329 328 573 568 324 323 
549 573 568 324 323 574 569 319 318 
550 574 569 319 318 575 570 314 313 
551 575 570 314 313 576 571 309 308 
552 576 571 309 308 203 204 44 43 
553 211 210 73 72 577 572 328 327 
554 577 572 328 327 578 573 323 322 
555 578 573 323 322 579 574 318 317 
556 579 574 318 317 580 575 313 312 
557 580 575 313 312 581 576 308 307 
558 581 576 308 307 202 203 43 42 
559 71 211 72 12 306 577 327 96 
560 306 577 327 96 301 578 322 95 
561 301 578 322 95 296 579 317 94 
562 296 579 317 94 291 580 312 93 
563 291 580 312 93 286 581 307 92 
564 286 581 307 92 41 202 42 6 
565 212 58 57 207 582 253 252 557 
566 582 253 252 557 583 248 247 558 
567 583 248 247 558 584 243 242 559 
568 584 243 242 559 585 238 237 560 
569 585 238 237 560 586 233 232 561 
570 586 233 232 561 201 48 47 206 
571 213 212 207 208 587 582 557 562 
572 587 582 557 562 588 583 558 563 
573 588 583 558 563 589 584 559 564 
574 589 584 559 564 590 585 560 565 
575 590 585 560 565 591 586 561 566 
576 591 586 561 566 200 201 206 205 
577 214 213 208 209 592 587 562 567 
578 592 587 562 567 593 588 563 568 
579 593 588 563 568 594 589 564 569 
580 594 589 564 569 595 590 565 570 
581 595 590 565 570 596 591 566 571 
582 596 591 566 571 199 200 205 204 
583 215 214 209 210 597 592 567 572 
584 597 592 567 572 598 593 568 573 
585 598 593 568 573 599 594 569 574 
586 599 594 569 574 600 595 570 575 
587 600 595 570 575 601 596 571 576 
588 601 596 571 576 198 199 204 203 
589 216 215 210 211 602 597 572 577 
590 602 597 572 577 603 598 573 578 
591 603 598 573 578 604 599 574 579 
592 604 599 574 579 605 600 575 580 
593 605 600 575 580 606 601 576 581 
594 606 601 576 581 197 198 203 202 
595 70 216 211 71 305 602 577 306 
596 305 602 577 306 300 603 578 301 
597 300 603 578 301 295 604 579 296 
598 295 604 579 296 290 605 580 291 
599 290 605 580 291 285 606 581 286 
600 285 606 581 286 40 197 202 41 
601 217 59 58 212 607 254 253 582 
602 607 254 253 582 608 249 248 583 
603 608 249 248 583 609 244 243 584 
604 609 244 243 584 610 239 238 585 
605 610 239 238 585 611 234 233 586 
606 611 234 233 586 196 49 48 201 
607 218 217 212 213 612 607 582 587 
608 612 607 582 587 613 608 583 588 
609 613 608 583 588 614 609 584 589 
610 614 609 584 589 615 610 585 590 
611 615 610 585 590 616 611 586 591 
612 616 611 586 591 195 196 201 200 
613 219 218 213 214 617 612 587 592 
614 617 612 587 592 618 613 588 593 
615 618 613 588 593 619 614 589 594 
616 619 614 589 594 620 615 590 595 
617 620 615 590 595 621 616 591 596 
618 621 616 591 596 194 195 200 199 
619 220 219 214 215 622 617 592 597 
620 622 617 592 597 623 618 593 598 
621 623 618 593 598 624 619 594 599 
622 624 619 594 599 625 620 595 600 
623 625 620 595 600 626 621 596 601 
624 626 621 596 601 193 194 199 198 
625 221 220 215 216 627 622 597 602 
626 627 622 597 602 628 623 598 603 
627 628 623 598 603 629 624 599 604 
628 629 624 599 604 630 625 600 605 
629 630 625 600 605 631 626 601 606 
630 631 626 601 606 192 193 198 197 
631 69 221 216 70 304 627 602 305 
632 304 627 602 305 299 628 603 300 
633 299 628 603 300 294 629 604 295 
634 294 629 604 295 289 630 605 290 
635 289 630 605 290 284 631 606 285 
636 284 631 606 285 39 192 197 40 
637 222 60 59 217 632 255 254 607 
638 632 255 254 607 633 250 249 608 
639 633 250 249 608 634 245 244 609 
640 634 245 244 609 635 240 239 610 
641 635 240 239 610 636 235 234 611 
642 636 235 234 611 191 50 49 196 
643 223 222 217 218 637 632 607 612 
644 637 632 607 612 638 633 608 613 
645 638 633 608 613 639 634 609 614 
646 639 634 609 614 640 635 610 615 
647 640 635 610 615 641 636 611 616 
648 641 636 611 616 190 191 196 195 
649 224 223 218 219 642 637 612 617 
650 642 637 612 617 643 638 613 618 
651 643 638 613 618 644 639 614 619 
652 644 639 614 619 645 640 615 620 
653 645 640 615 620 646 641 616 621 
654 646 641 616 621 189 190 195 194 
655 225 224 219 220 647 642 617 622 
656 647 642 617 622 648 643 618 623 
657 648 643 618 623 649 644 619 624 
658 649 644 619 624 650 645 620 625 
659 650 645 620 625 651 646 621 626 
660 651 646 621 626 188 189 194 193 
661 226 225 220 221 652 647 622 627 
662 652 647 622 627 653 648 623 628 
663 653 648 623 628 654 649 624 629 
664 654 649 624 629 655 650 625 630 
665 655 650 625 630 656 651 626 631 
666 656 651 626 631 187 188 193 192 
667 68 226 221 69 303 652 627 304 
668 303 652 627 304 298 653 628 299 
669 298 653 628 299 293 654 629 294 
670 293 654 629 294 288 655 630 289 
671 288 655 630 289 283 656 631 284 
672 283 656 631 284 38 187 192 39 
673 227 61 60 222 657 256 255 632 
674 657 256 255 632 658 251 250 633 
675 658 251 250 633 659 246 245 634 
676 659 246 245 634 660 241 240 635 
677 660 241 240 635 661 236 235 636 
678 661 236 235 636 186 51 50 191 
679 228 227 222 223 662 657 632 637 
680 662 657 632 637 663 658 633 638 
681 663 658 633 638 664 659 634 639 
682 664 659 634 639 665 660 635 640 
683 665 660 635 640 666 661 636 641 
684 666 661 636 641 185 186 191 190 
685 229 228 223 224 667 662 637 642 
686 667 662 637 642 668 663 638 643 
687 668 663 638 643 669 664 639 644 
688 669 664 639 644 670 665 640 645 
689 670 665 640 645 671 666 641 646 
690 671 666 641 646 184 185 190 189 
691 230 229 224 225 672 667 642 647 
692 672 667 642 647 673 668 643 648 
693 673 668 643 648 674 669 644 649 
694 674 669 644 649 675 670 645 650 
695 675 670 645 650 676 671 646 651 
696 676 671 646 651 183 184 189 188 
697 231 230 225 226 677 672 647 652 
698 677 672 647 652 678 673 648 653 
699 678 673 648 653 679 674 649 654 
700 679 674 649 654 680 675 650 655 
701 680 675 650 655 681 676 651 656 
702 681 676 651 656 182 183 188 187 
703 67 231 226 68 302 677 652 303 
704 302 677 652 303 297 678 653 298 
705 297 678 653 298 292 679 654 293 
706 292 679 654 293 287 680 655 288 
707 287 680 655 288 282 681 656 283 
708 282 681 656 283 37 182 187 38 
709 62 10 61 227 277 86 256 657 
710 277 86 256 657 272 85 251 658 
711 272 85 251 658 267 84 246 659 
712 267 84 246 659 262 83 241 660 
713 262 83 241 660 257 82 236 661 
714 257 82 236 661 52 8 51 186 
715 63 62 227 228 278 277 657 662 
716 278 277 657 662 273 272 658 663 
717 273 272 658 663 268 267 659 664 
718 268 267 659 664 263 262 660 665 
719 263 262 660 665 258 257 661 666 
720 258 257 661 666 53 52 186 185 
721 64 63 228 229 279 278 662 667 
722 279 278 662 667 274 273 663 668 
723 274 273 663 668 269 268 664 669 
724 269 268 664 669 264 263 665 670 
725 264 263 665 670 259 258 666 671 
726 259 258 666 671 54 53 185 184 
727 65 64 229 230 280 279 667 672 
728 280 279 667 672 275 274 668 673 
729 275 274 668 673 270 269 669 674 
730 270 269 669 674 265 264 670 675 
731 265 264 670 675 260 259 671 676 
732 260 259 671 676 55 54 184 183 
733 66 65 230 231 281 280 672 677 
734 281 280 672 677 276 275 673 678 
735 276 275 673 678 271 270 674 679 
736 271 270 674 679 266 265 675 680 
737 266 265 675 680 261 260 676 681 
738 261 260 676 681 56 55 183 182 
739 11 66 231 67 91 281 677 302 
740 91 281 677 302 90 276 678 297 
741 90 276 678 297 89 271 679 292 
742 89 271 679 292 88 266 680 287 
743 88 266 680 287 87 261 681 282 
744 87 261 681 282 5 56 182 37 
3 2 5 216
745 3 97 332 27 26 361 682 181 
746 26 361 682 181 25 360 683 180 
747 25 360 683 180 24 359 684 179 
748 24 359 684 179 23 358 685 178 
749 23 358 685 178 22 357 686 177 
750 22 357 686 177 2 107 411 21 
751 27 332 333 28 181 682 687 176 
752 181 682 687 176 180 683 688 175 
753 180 683 688 175 179 684 689 174 
754 179 684 689 174 178 685 690 173 
755 178 685 690 173 177 686 691 172 
756 177 686 691 172 21 411 410 20 
757 28 333 334 29 176 687 692 171 
758 176 687 692 171 175 688 693 170 
759 175 688 693 170 174 689 694 169 
760 174 689 694 169 173 690 695 168 
761 173 690 695 168 172 691 696 167 
762 172 691 696 167 20 410 409 19 
763 29 334 335 30 171 692 697 166 
764 171 692 697 166 170 693 698 165 
765 170 693 698 165 169 694 699 164 
766 169 694 699 164 168 695 700 163 
767 168 695 700 163 167 696 701 162 
768 167 696 701 162 19 409 408 18 
769 30 335 336 31 166 697 702 161 
770 166 697 702 161 165 698 703 160 
771 165 698 703 160 164 699 704 159 
772 164 699 704 159 163 700 705 158 
773 163 700 705 158 162 701 706 157 
774 162 701 706 157 18 408 407 17 
775 31 336 102 4 161 702 382 32 
776 161 702 382 32 160 703 383 33 
777 160 703 383 33 159 704 384 34 
778 159 704 384 34 158 705 385 35 
779 158 705 385 35 157 706 386 36 
780 157 706 386 36 17 407 112 1 
781 97 98 337 332 361 366 707 682 
782 361 366 707 682 360 365 708 683 
783 360 365 708 683 359 364 709 684 
784 359 364 709 684 358 363 710 685 
785 358 363 710 685 357 362 711 686 
786 357 362 711 686 107 108 416 411 
787 332 337 338 333 682 707 712 687 
788 682 707 712 687 683 708 713 688 
789 683 708 713 688 684 709 714 689 
790 684 709 714 689 685 710 715 690 
791 685 710 715 690 686 711 716 691 
792 686 711 716 691 411 416 415 410 
793 333 338 339 334 687 712 717 692 
794 687 712 717 692 688 713 718 693 
795 688 713 718 693 689 714 719 694 
796 689 714 719 694 690 715 720 695 
797 690 715 720 695 691 716 721 696 
798 691 716 721 696 410 415 414 409 
799 334 339 340 335 692 717 722 697 
800 692 717 722 697 693 718 723 698 
801 693 718 723 698 694 719 724 699 
802 694 719 724 699 695 720 725 700 
803 695 720 725 700 696 721 726 701 
804 696 721 726 701 409 414 413 408 
805 335 340 341 336 697 722 727 702 
806 697 722 727 702 698 723 728 703 
807 698 723 728 703 699 724 729 704 
808 699 724 729 704 700 725 730 705 
809 700 725 730 705 701 726 731 706 
810 701 726 731 706 408 413 412 407 
811 336 341 103 102 702 727 387 382 
812 702 727 387 382 703 728 388 383 
813 703 728 388 383 704 729 389 384 
814 704 729 389 384 705 730 390 385 
815 705 730 390 385 706 731 391 386 
816 706 731 391 386 407 412 113 112 
817 98 99 342 337 366 371 732 707 
818 366 371 732 707 365 370 733 708 
819 365 370 733 708 364 369 734 709 
820 364 369 734 709 363 368 735 710 
821 363 368 735 710 362 367 736 711 
822 362 367 736 711 108 109 421 416 
823 337 342 343 338 707 732 737 712 
824 707 732 737 712 708 733 738 713 
825 708 733 738 713 709 734 739 714 
826 709 734 739 714 710 735 740 715 
827 710 735 740 715 711 736 741 716 
828 711 736 741 716 416 421 420 415 
829 338 343 344 339 712 737 742 717 
830 712 737 742 717 713 738 743 718 
831 713 738 743 718 714 739 744 719 
832 714 739 744 719 715 740 745 720 
833 715 740 745 720 716 741 746 721 
834 716 741 746 721 415 420 419 414 
835 339 344 345 340 717 742 747 722 
836 717 742 747 722 718 743 748 723 
837 718 743 748 723 719 744 749 724 
838 719 744 749 724 720 745 750 725 
839 720 745 750 725 721 746 751 726 
840 721 746 751 726 414 419 418 413 
841 340 345 346 341 722 747 752 727 
842 722 747 752 727 723 748 753 728 
843 723 748 753 728 724 749 754 729 
844 724 749 754 729 725 750 755 730 
845 725 750 755 730 726 751 756 731 
846 726 751 756 731 413 418 417 412 
847 341 346 104 103 727 752 392 387 
848 727 752 392 387 728 753 393 388 
849 728 753 393 388 729 754 394 389 
850 729 754 394 389 730 755 395 390 
851 730 755 395 390 731 756 396 391 
852 731 756 396 391 412 417 114 113 
853 99 100 347 342 371 376 757 732 
854 371 376 757 732 370 375 758 733 
855 370 375 758 733 369 374 759 734 
856 369 374 759 734 368 373 760 735 
857 368 373 760 735 367 372 761 736 
858 367 372 761 736 109 110 426 421 
859 342 347 348 343 732 757 762 737 
860 732 757 762 737 733 758 763 738 
861 733 758 763 738 734 759 764 739 
862 734 759 764 739 735 760 765 740 
863 735 760 765 740 736 761 766 741 
864 736 761 766 741 421 426 425 420 
865 343 348 349 344 737 762 767 742 
866 737 762 767 742 738 763 768 743 
867 738 763 768 743 739 764 769 744 
868 739 764 769 744 740 765 770 745 
869 740 765 770 745 741 766 771 746 
870 741 766 771 746 420 425 424 419 
871 344 349 350 345 742 767 772 747 
872 742 767 772 747 743 768 773 748 
873 743 768 773 748 744 769 774 749 
874 744 769 774 749 745 770 775 750 
875 745 770 775 750 746 771 776 751 
876 746 771 776 751 419 424 423 418 
877 345 350 351 346 747 772 777 752 
878 747 772 777 752 748 773 778 753 
879 748 773 778 753 749 774 779 754 
880 749 774 779 754 750 775 780 755 
881 750 775 780 755 751 776 781 756 
882 751 776 781 756 418 423 422 417 
883 346 351 105 104 752 777 397 392 
884 752 777 397 392 753 778 398 393 
885 753 778 398 393 754 779 399 394 
886 754 779 399 394 755 780 400 395 
887 755 780 400 395 756 781 401 396 
888 756 781 401 396 417 422 115 114 
889 100 101 352 347 376 381 782 757 
890 376 381 782 757 375 380 783 758 
891 375 380 783 758 374 379 784 759 
892 374 379 784 759 373 378 785 760 
893 373 378 785 760 372 377 786 761 
894 372 377 786 761 110 111 431 426 
895 347 352 353 348 757 782 787 762 
896 757 782 787 762 758 783 788 763 
897 758 783 788 763 759 784 789 764 
898 759 784 789 764 760 785 790 765 
899 760 785 790 765 761 786 791 766 
900 761 786 791 766 426 431 430 425 
901 348 353 354 349 762 787 792 767 
902 762 787 792 767 763 788 793 768 
903 763 788 793 768 764 789 794 769 
904 764 789 794 769 765 790 795 770 
905 765 790 795 770 766 791 796 771 
906 766 791 796 771 425 430 429 424 
907 349 354 355 350 767 792 797 772 
908 767 792 797 772 768 793 798 773 
909 768 793 798 773 769 794 799 774 
910 769 794 799 774 770 795 800 775 
911 770 795 800 775 771 796 801 776 
912 771 796 801 776 424 429 428 423 
913 350 355 356 351 772 797 802 777 
914 772 797 802 777 773 798 803 778 
915 773 798 803 778 774 799 804 779 
916 774 799 804 779 775 800 805 780 
917 775 800 805 780 776 801 806 781 
918 776 801 806 781 423 428 427 422 
919 351 356 106 105 777 802 402 397 
920 777 802 402 397 778 803 403 398 
921 778 803 403 398 779 804 404 399 
922 779 804 404 399 780 805 405 400 
923 780 805 405 400 781 806 406 401 
924 781 806 406 401 422 427 116 115 
925 101 7 47 352 381 46 206 782 
926 381 46 206 782 380 45 205 783 
927 380 45 205 783 379 44 204 784 
928 379 44 204 784 378 43 203 785 
929 378 43 203 785 377 42 202 786 
930 377 42 202 786 111 6 41 431 
931 352 47 48 353 782 206 201 787 
932 782 206 201 787 783 205 200 788 
933 783 205 200 788 784 204 199 789 
934 784 204 199 789 785 203 198 790 
935 785 203 198 790 786 202 197 791 
936 786 202 197 791 431 41 40 430 
937 353 48 49 354 787 201 196 792 
938 787 201 196 792 788 200 195 793 
939 788 200 195 793 789 199 194 794 
940 789 199 194 794 790 198 193 795 
941 790 198 193 795 791 197 192 796 
942 791 197 192 796 430 40 39 429 
943 354 49 50 355 792 196 191 797 
944 792 196 191 797 793 195 190 798 
945 793 195 190 798 794 194 189 799 
946 794 194 189 799 795 193 188 800 
947 795 193 188 800 796 192 187 801 
948 796 192 187 801 429 39 38 428 
949 355 50 51 356 797 191 186 802 
950 797 191 186 802 798 190 185 803 
951 798 190 185 803 799 189 184 804 
952 799 189 184 804 800 188 183 805 
953 800 188 183 805 801 187 182 806 
954 801 187 182 806 428 38 37 427 
955 356 51 8 106 802 186 52 402 
956 802 186 52 402 803 185 53 403 
957 803 185 53 403 804 184 54 404 
958 804 184 54 404 805 183 55 405 
959 805 183 55 405 806 182 56 406 
960 806 182 56 406 427 37 5 116 
3 3 5 216
961 13 117 432 127 141 461 807 527 
962 141 461 807 527 140 460 808 522 
963 140 460 808 522 139 459 809 517 
964 139 459 809 517 138 458 810 512 
965 138 458 810 512 137 457 811 507 
966 137 457 811 507 15 132 536 156 
967 127 432 433 128 527 807 812 528 
968 527 807 812 528 522 808 813 523 
969 522 808 813 523 517 809 814 518 
970 517 809 814 518 512 810 815 513 
971 512 810 815 513 507 811 816 508 
972 507 811 816 508 156 536 535 155 
973 128 433 434 129 528 812 817 529 
974 528 812 817 529 523 813 818 524 
975 523 813 818 524 518 814 819 519 
976 518 814 819 519 513 815 820 514 
977 513 815 820 514 508 816 821 509 
978 508 816 821 509 155 535 534 154 
979 129 434 435 130 529 817 822 530 
980 529 817 822 530 524 818 823 525 
981 524 818 823 525 519 819 824 520 
982 519 819 824 520 514 820 825 515 
983 514 820 825 515 509 821 826 510 
984 509 821 826 510 154 534 533 153 
985 130 435 436 131 530 822 827 531 
986 530 822 827 531 525 823 828 526 
987 525 823 828 526 520 824 829 521 
988 520 824 829 521 515 825 830 516 
989 515 825 830 516 510 826 831 511 
990 510 826 831 511 153 533 532 152 
991 131 436 122 14 531 827 482 147 
992 531 827 482 147 526 828 483 148 
993 526 828 483 148 521 829 484 149 
994 521 829 484 149 516 830 485 150 
995 516 830 485 150 511 831 486 151 
996 511 831 486 151 152 532 142 16 
997 117 118 437 432 461 466 832 807 
998 461 466 832 807 460 465 833 808 
999 460 465 833 808 459 464 834 809 
1000 459 464 834 809 458 463 835 810 
1001 458 463 835 810 457 462 836 811 
1002 457 462 836 811 132 133 541 536 
1003 432 437 438 433 807 832 837 812 
1004 807 832 837 812 808 833 838 813 
1005 808 833 838 813 809 834 839 814 
1006 809 834 839 814 810 835 840 815 
1007 810 835 840 815 811 836 841 816 
1008 811 836 841 816 536 541 540 535 
1009 433 438 439 434 812 837 842 817 
1010 812 837 842 817 813 838 843 818 
1011 813 838 843 818 814 839 844 819 
1012 814 839 844 819 815 840 845 820 
1013 815 840 845 820 816 841 846 821 
1014 816 841 846 821 535 540 539 534 
1015 434 439 440 435 817 842 847 822 
1016 817 842 847 822 818 843 848 823 
1017 818 843 848 823 819 844 849 824 
1018 819 844 849 824 820 845 850 825 
1019 820 845 850 825 821 846 851 826 
1020 821 846 851 826 534 539 538 533 
1021 435 440 441 436 822 847 852 827 
1022 822 847 852 827 823 848 853 828 
1023 823 848 853 828 824 849 854 829 
1024 824 849 854 829 825 850 855 830 
1025 825 850 855 830 826 851 856 831 
1026 826 851 856 831 533 538 537 532 
1027 436 441 123 122 827 852 487 482 
1028 827 852 487 482 828 853 488 483 
1029 828 853 488 483 829 854 489 484 
1030 829 854 489 484 830 855 490 485 
1031 830 855 490 485 831 856 491 486 
1032 831 856 491 486 532 537 143 142 
1033 118 119 442 437 466 471 857 832 
1034 466 471 857 832 465 470 858 833 
1035 465 470 858 833 464 469 859 834 
1036 464 469 859 834 463 468 860 835 
1037 463 468 860 835 462 467 861 836 
1038 462 467 861 836 133 134 546 541 
1039 437 442 443 438 832 857 862 837 
1040 832 857 862 837 833 858 863 838 
1041 833 858 863 838 834 859 864 839 
1042 834 859 864 839 835 860 865 840 
1043 835 860 865 840 836 861 866 841 
1044 836 861 866 841 541 546 545 540 
1045 438 443 444 439 837 862 867 842 
1046 837 862 867 842 838 863 868 843 
1047 838 863 868 843 839 864 869 844 
1048 839 864 869 844 840 865 870 845 
1049 840 865 870 845 841 866 871 846 
1050 841 866 871 846 540 545 544 539 
1051 439 444 445 440 842 867 872 847 
1052 842 867 872 847 843 868 873 848 
1053 843 868 873 848 844 869 874 849 
1054 844 869 874 849 845 870 875 850 
1055 845 870 875 850 846 871 876 851 
1056 846 871 876 851 539 544 543 538 
1057 440 445 446 441 847 872 877 852 
1058 847 872 877 852 848 873 878 853 
1059 848 873 878 853 849 874 879 854 
1060 849 874 879 854 850 875 880 855 
1061 850 875 880 855 851 876 881 856 
1062 851 876 881 856 538 543 542 537 
1063 441 446 124 123 852 877 492 487 
1064 852 877 492 487 853 878 493 488 
1065 853 878 493 488 854 879 494 489 
1066 854 879 494 489 855 880 495 490 
1067 855 880 495 490 856 881 496 491 
1068 856 881 496 491 537 542 144 143 
1069 119 120 447 442 471 476 882 857 
1070 471 476 882 857 470 475 883 858 
1071 470 475 883 858 469 474 884 859 
1072 469 474 884 859 468 473 885 860 
1073 468 473 885 860 467 472 886 861 
1074 467 472 886 861 134 135 551 546 
1075 442 447 448 443 857 882 887 862 
1076 857 882 887 862 858 883 888 863 
1077 858 883 888 863 859 884 889 864 
1078 859 884 889 864 860 885 890 865 
1079 860 885 890 865 861 886 891 866 
1080 861 886 891 866 546 551 550 545 
1081 443 448 449 444 862 887 892 867 
1082 862 887 892 867 863 888 893 868 
1083 863 888 893 868 864 889 894 869 
1084 864 889 894 869 865 890 895 870 
1085 865 890 895 870 866 891 896 871 
1086 866 891 896 871 545 550 549 544 
1087 444 449 450 445 867 892 897 872 
1088 867 892 897 872 868 893 898 873 
1089 868 893 898 873 869 894 899 874 
1090 869 894 899 874 870 895 900 875 
1091 870 895 900 875 871 896 901 876 
1092 871 896 901 876 544 549 548 543 
1093 445 450 451 446 872 897 902 877 
1094 872 897 902 877 873 898 903 878 
1095 873 898 903 878 874 899 904 879 
1096 874 899 904 879 875 900 905 880 
1097 875 900 905 880 876 901 906 881 
1098 876 901 906 881 543 548 547 542 
1099 446 451 125 124 877 902 497 492 
1100 877 902 497 492 878 903 498 493 
1101 878 903 498 493 879 904 499 494 
1102 879 904 499 494 880 905 500 495 
1103 880 905 500 495 881 906 501 496 
1104 881 906 501 496 542 547 145 144 
1105 120 121 452 447 476 481 907 882 
1106 476 481 907 882 475 480 908 883 
1107 475 480 908 883 474 479 909 884 
1108 474 479 909 884 473 478 910 885 
1109 473 478 910 885 472 477 911 886 
1110 472 477 911 886 135 136 556 551 
1111 447 452 453 448 882 907 912 887 
1112 882 907 912 887 883 908 913 888 
1113 883 908 913 888 884 909 914 889 
1114 884 909 914 889 885 910 915 890 
1115 885 910 915 890 886 911 916 891 
1116 886 911 916 891 551 556 555 550 
1117 448 453 454 449 887 912 917 892 
1118 887 912 917 892 888 913 918 893 
1119 888 913 918 893 889 914 919 894 
1120 889 914 919 894 890 915 920 895 
1121 890 915 920 895 891 916 921 896 
1122 891 916 921 896 550 555 554 549 
1123 449 454 455 450 892 917 922 897 
1124 892 917 922 897 893 918 923 898 
1125 893 918 923 898 894 919 924 899 
1126 894 919 924 899 895 920 925 900 
1127 895 920 925 900 896 921 926 901 
1128 896 921 926 901 549 554 553 548 
1129 450 455 456 451 897 922 927 902 
1130 897 922 927 902 898 923 928 903 
1131 898 923 928 903 899 924 929 904 
1132 899 924 929 904 900 925 930 905 
1133 900 925 930 905 901 926 931 906 
1134 901 926 931 906 548 553 552 547 
1135 451 456 126 125 902 927 502 497 
1136 902 927 502 497 903 928 503 498 
1137 903 928 503 498 904 929 504 499 
1138 904 929 504 499 905 930 505 500 
1139 905 930 505 500 906 931 506 501 
1140 906 931 506 501 547 552 146 145 
1141 121 3 27 452 481 26 181 907 
1142 481 26 181 907 480 25 180 908 
1143 480 25 180 908 479 24 179 909 
1144 479 24 179 909 478 23 178 910 
1145 478 23 178 910 477 22 177 911 
1146 477 22 177 911 136 2 21 556 
1147 452 27 28 453 907 181 176 912 
1148 907 181 176 912 908 180 175 913 
1149 908 180 175 913 909 179 174 914 
1150 909 179 174 914 910 178 173 915 
1151 910 178 173 915 911 177 172 916 
1152 911 177 172 916 556 21 20 555 
1153 453 28 29 454 912 176 171 917 
1154 912 176 171 917 913 175 170 918 
1155 913 175 170 918 914 174 169 919 
1156 914 174 169 919 915 173 168 920 
1157 915 173 168 920 916 172 167 921 
1158 916 172 167 921 555 20 19 554 
1159 454 29 30 455 917 171 166 922 
1160 917 171 166 922 918 170 165 923 
1161 918 170 165 923 919 169 164 924 
1162 919 169 164 924 920 168 163 925 
1163 920 168 163 925 921 167 162 926 
1164 921 167 162 926 554 19 18 553 
1165 455 30 31 456 922 166 161 927 
1166 922 166 161 927 923 165 160 928 
1167 923 165 160 928 924 164 159 929 
1168 924 164 159 929 925 163 158 930 
1169 925 163 158 930 926 162 157 931 
1170 926 162 157 931 553 18 17 552 
1171 456 31 4 126 927 161 32 502 
1172 927 161 32 502 928 160 33 503 
1173 928 160 33 503 929 159 34 504 
1174 929 159 34 504 930 158 35 505 
1175 930 158 35 505 931 157 36 506 
1176 931 157 36 506 552 17 1 146 
$EndElements
