$MeshFormat
4.1 0 8
$EndMeshFormat
$PhysicalNames
5
1 2 "inlet"
1 3 "outlet"
1 4 "top"
1 5 "bottom"
2 1 "fluid"
$EndPhysicalNames
$Entities
4 4 1 0
1 0 0 0 0 
2 1 0 0 0 
3 1 0.1 0 0 
4 0 0.1 0 0 
1 0 0 0 1 0 0 1 5 2 1 -2 
2 1 0 0 1 0.1 0 1 3 2 2 -3 
3 0 0.1 0 1 0.1 0 1 4 2 3 -4 
4 0 0 0 0 0.1 0 1 2 2 4 -1 
1 0 0 0 1 0.1 0 1 1 4 1 2 3 4 
$EndEntities
$Nodes
9 112 1 112
0 1 0 1
1
0 0 0
0 2 0 1
2
1 0 0
0 3 0 1
3
1 0.1 0
0 4 0 1
4
0 0.1 0
1 1 0 26
5
6
7
8
9
10
11
12
13
14
15
16
17
18
19
20
21
22
23
24
25
26
27
28
29
30
0.0370370370369651 0 0
0.0740740740739279 0 0
0.1111111111109082 0 0
0.1481481481478564 0 0
0.1851851851847853 0 0
0.2222222222217143 0 0
0.2592592592586432 0 0
0.2962962962955721 0 0
0.333333333332501 0 0
0.3703703703694299 0 0
0.4074074074063589 0 0
0.4444444444432878 0 0
0.4814814814802167 0 0
0.5185185185172486 0 0
0.5555555555543833 0 0
0.592592592591518 0 0
0.6296296296286528 0 0
0.6666666666657874 0 0
0.7037037037029222 0 0
0.7407407407400569 0 0
0.7777777777771916 0 0
0.8148148148143264 0 0
0.8518518518514611 0 0
0.8888888888885959 0 0
0.9259259259257305 0 0
0.9629629629628652 0 0
1 2 0 2
31
32
1 0.03333333333325108 0
1 0.06666666666657722 0
1 3 0 26
33
34
35
36
37
38
39
40
41
42
43
44
45
46
47
48
49
50
51
52
53
54
55
56
57
58
0.9629629629628087 0.1 0
0.9259259259256175 0.1 0
0.8888888888884262 0.1 0
0.851851851851492 0.1 0
0.814814814814712 0.1 0
0.777777777777932 0.1 0
0.7407407407411519 0.1 0
0.7037037037043719 0.1 0
0.6666666666675918 0.1 0
0.6296296296308116 0.1 0
0.5925925925940314 0.1 0
0.5555555555572513 0.1 0
0.5185185185204713 0.1 0
0.4814814814834855 0.1 0
0.4444444444462943 0.1 0
0.4074074074091031 0.1 0
0.3703703703719119 0.1 0
0.3333333333347207 0.1 0
0.2962962962975295 0.1 0
0.2592592592603383 0.1 0
0.2222222222231471 0.1 0
0.1851851851859559 0.1 0
0.1481481481487648 0.1 0
0.1111111111115736 0.1 0
0.07407407407438238 0.1 0
0.03703703703719119 0.1 0
1 4 0 2
59
60
0 0.0666666666667589 0
0 0.03333333333342646 0
2 1 0 52
61
62
63
64
65
66
67
68
69
70
71
72
73
74
75
76
77
78
79
80
81
82
83
84
85
86
87
88
89
90
91
92
93
94
95
96
97
98
99
100
101
102
103
104
105
106
107
108
109
110
111
112
0.03703703703704046 0.03333333333341996 0
0.03703703703711582 0.06666666666675219 0
0.07407407407407939 0.03333333333341347 0
0.07407407407423088 0.06666666666674544 0
0.11111111111113 0.03333333333340698 0
0.1111111111113518 0.06666666666673869 0
0.1481481481481592 0.03333333333340048 0
0.1481481481484619 0.06666666666673196 0
0.1851851851851755 0.03333333333339397 0
0.1851851851855657 0.06666666666672526 0
0.2222222222221919 0.03333333333338748 0
0.2222222222226695 0.06666666666671854 0
0.2592592592592082 0.03333333333338098 0
0.2592592592597733 0.0666666666667118 0
0.2962962962962246 0.03333333333337449 0
0.296296296296877 0.06666666666670505 0
0.3333333333332409 0.03333333333336799 0
0.3333333333339808 0.06666666666669833 0
0.3703703703702573 0.0333333333333615 0
0.3703703703710846 0.06666666666669163 0
0.4074074074072735 0.033333333333355 0
0.4074074074081883 0.06666666666668487 0
0.44444444444429 0.03333333333334851 0
0.4444444444452921 0.06666666666667816 0
0.4814814814813063 0.03333333333334201 0
0.4814814814823959 0.06666666666667141 0
0.5185185185183228 0.03333333333333552 0
0.518518518519397 0.0666666666666647 0
0.5555555555553392 0.03333333333332902 0
0.5555555555562953 0.06666666666665798 0
0.5925925925923559 0.03333333333332253 0
0.5925925925931936 0.06666666666665126 0
0.6296296296293723 0.03333333333331603 0
0.6296296296300919 0.06666666666664452 0
0.6666666666663891 0.03333333333330954 0
0.6666666666669904 0.06666666666663777 0
0.7037037037034056 0.03333333333330304 0
0.7037037037038888 0.06666666666663106 0
0.7407407407404221 0.03333333333329655 0
0.7407407407407869 0.06666666666662434 0
0.7777777777774386 0.03333333333329005 0
0.7777777777776852 0.06666666666661759 0
0.8148148148144552 0.03333333333328356 0
0.8148148148145833 0.06666666666661085 0
0.8518518518514715 0.03333333333327707 0
0.8518518518514815 0.06666666666660412 0
0.8888888888885393 0.03333333333327057 0
0.8888888888884829 0.06666666666659743 0
0.9259259259256928 0.03333333333326408 0
0.9259259259256551 0.0666666666665907 0
0.9629629629628462 0.03333333333325758 0
0.9629629629628276 0.06666666666658395 0
$EndNodes
$Elements
5 141 1 141
1 1 1 27
1 1 5 
2 5 6 
3 6 7 
4 7 8 
5 8 9 
6 9 10 
7 10 11 
8 11 12 
9 12 13 
10 13 14 
11 14 15 
12 15 16 
13 16 17 
14 17 18 
15 18 19 
16 19 20 
17 20 21 
18 21 22 
19 22 23 
20 23 24 
21 24 25 
22 25 26 
23 26 27 
24 27 28 
25 28 29 
26 29 30 
27 30 2 
1 2 1 3
28 2 31 
29 31 32 
30 32 3 
1 3 1 27
31 3 33 
32 33 34 
33 34 35 
34 35 36 
35 36 37 
36 37 38 
37 38 39 
38 39 40 
39 40 41 
40 41 42 
41 42 43 
42 43 44 
43 44 45 
44 45 46 
45 46 47 
46 47 48 
47 48 49 
48 49 50 
49 50 51 
50 51 52 
51 52 53 
52 53 54 
53 54 55 
54 55 56 
55 56 57 
56 57 58 
57 58 4 
1 4 1 3
58 4 59 
59 59 60 
60 60 1 
2 1 3 81
61 1 5 61 60 
62 60 61 62 59 
63 59 62 58 4 
64 5 6 63 61 
65 61 63 64 62 
66 62 64 57 58 
67 6 7 65 63 
68 63 65 66 64 
69 64 66 56 57 
70 7 8 67 65 
71 65 67 68 66 
72 66 68 55 56 
73 8 9 69 67 
74 67 69 70 68 
75 68 70 54 55 
76 9 10 71 69 
77 69 71 72 70 
78 70 72 53 54 
79 10 11 73 71 
80 71 73 74 72 
81 72 74 52 53 
82 11 12 75 73 
83 73 75 76 74 
84 74 76 51 52 
85 12 13 77 75 
86 75 77 78 76 
87 76 78 50 51 
88 13 14 79 77 
89 77 79 80 78 
90 78 80 49 50 
91 14 15 81 79 
92 79 81 82 80 
93 80 82 48 49 
94 15 16 83 81 
95 81 83 84 82 
96 82 84 47 48 
97 16 17 85 83 
98 83 85 86 84 
99 84 86 46 47 
100 17 18 87 85 
101 85 87 88 86 
102 86 88 45 46 
103 18 19 89 87 
104 87 89 90 88 
105 88 90 44 45 
106 19 20 91 89 
107 89 91 92 90 
108 90 92 43 44 
109 20 21 93 91 
110 91 93 94 92 
111 92 94 42 43 
112 21 22 95 93 
113 93 95 96 94 
114 94 96 41 42 
115 22 23 97 95 
116 95 97 98 96 
117 96 98 40 41 
118 23 24 99 97 
119 97 99 100 98 
120 98 100 39 40 
121 24 25 101 99 
122 99 101 102 100 
123 100 102 38 39 
124 25 26 103 101 
125 101 103 104 102 
126 102 104 37 38 
127 26 27 105 103 
128 103 105 106 104 
129 104 106 36 37 
130 27 28 107 105 
131 105 107 108 106 
132 106 108 35 36 
133 28 29 109 107 
134 107 109 110 108 
135 108 110 34 35 
136 29 30 111 109 
137 109 111 112 110 
138 110 112 33 34 
139 30 2 31 111 
140 111 31 32 112 
141 112 32 3 33 
$EndElements
