$MeshFormat
4.1 0 8
$EndMeshFormat
$PhysicalNames
2
1 2 "plate_clamp"
2 1 "plate"
$EndPhysicalNames
$Entities
4 4 1 0
1 0 0 0 0 
2 0.4 0 0 0 
3 0.4 0.3 0 0 
4 0 0.3 0 0 
1 0 0 0 0.4 0 0 1 2 2 1 -2 
2 0.4 0 0 0.4 0.3 0 1 2 2 2 -3 
3 0 0.3 0 0.4 0.3 0 1 2 2 3 -4 
4 0 0 0 0 0.3 0 1 2 2 4 -1 
1 0 0 0 0.4 0.3 0 1 1 4 1 2 3 4 
$EndEntities
$Nodes
9 42 1 42
0 1 0 1
1
0 0 0
0 2 0 1
2
0.4 0 0
0 3 0 1
3
0.4 0.3 0
0 4 0 1
4
0 0.3 0
1 1 0 5
5
6
7
8
9
0.06666666666653442 0 0
0.1333333333330043 0 0
0.1999999999994742 0 0
0.2666666666663089 0 0
0.3333333333331599 0 0
1 2 0 4
10
11
12
13
0.4 0.0599999999998703 0
0.4 0.119999999999701 0
0.4 0.179999999999692 0
0.4 0.2399999999998508 0
1 3 0 5
14
15
16
17
18
0.3333333333335178 0.3 0
0.2666666666670356 0.3 0
0.2000000000005479 0.3 0
0.1333333333337058 0.3 0
0.06666666666684751 0.3 0
1 4 0 4
19
20
21
22
0 0.240000000000141 0
0 0.1800000000003036 0
0 0.1200000000003112 0
0 0.06000000000015071 0
2 1 0 20
23
24
25
26
27
28
29
30
31
32
33
34
35
36
37
38
39
40
41
42
0.06666666666659704 0.06000000000010397 0
0.06666666666665967 0.1200000000002095 0
0.06666666666672226 0.1800000000002016 0
0.06666666666678489 0.2400000000000925 0
0.1333333333331446 0.06000000000005721 0
0.133333333333285 0.1200000000001078 0
0.1333333333334252 0.1800000000000997 0
0.1333333333335656 0.2400000000000442 0
0.199999999999689 0.0600000000000105 0
0.1999999999999037 0.1200000000000061 0
0.2000000000001184 0.1799999999999977 0
0.2000000000003332 0.2399999999999959 0
0.2666666666664542 0.05999999999996375 0
0.2666666666665996 0.1199999999999043 0
0.2666666666667449 0.1799999999998958 0
0.2666666666668903 0.2399999999999475 0
0.3333333333332315 0.05999999999991703 0
0.3333333333333031 0.1199999999998026 0
0.3333333333333748 0.1799999999997938 0
0.3333333333334462 0.2399999999998992 0
$EndNodes
$Elements
5 52 1 52
1 1 1 6
1 1 5 
2 5 6 
3 6 7 
4 7 8 
5 8 9 
6 9 2 
1 2 1 5
7 2 10 
8 10 11 
9 11 12 
10 12 13 
11 13 3 
1 3 1 6
12 3 14 
13 14 15 
14 15 16 
15 16 17 
16 17 18 
17 18 4 
1 4 1 5
18 4 19 
19 19 20 
20 20 21 
21 21 22 
22 22 1 
2 1 3 30
23 1 5 23 22 
24 22 23 24 21 
25 21 24 25 20 
26 20 25 26 19 
27 19 26 18 4 
28 5 6 27 23 
29 23 27 28 24 
30 24 28 29 25 
31 25 29 30 26 
32 26 30 17 18 
33 6 7 31 27 
34 27 31 32 28 
35 28 32 33 29 
36 29 33 34 30 
37 30 34 16 17 
38 7 8 35 31 
39 31 35 36 32 
40 32 36 37 33 
41 33 37 38 34 
42 34 38 15 16 
43 8 9 39 35 
44 35 39 40 36 
45 36 40 41 37 
46 37 41 42 38 
47 38 42 14 15 
48 9 2 10 39 
49 39 10 11 40 
50 40 11 12 41 
51 41 12 13 42 
52 42 13 3 14 
$EndElements
