$MeshFormat
4.1 0 8
$EndMeshFormat
$PhysicalNames
3
1 3 "plate_clamp"
2 2 "plate"
3 1 "fluid"
$EndPhysicalNames
$Entities
12 16 7 1
1 0 0 0.5 0 
2 0 0 0 0 
3 0 0.6 0.5 0 
4 0 0.6 0 0 
5 0.8 0 0.5 0 
6 0.8 0 0 0 
7 0.8 0.6 0.5 0 
8 0.8 0.6 0 0 
9 0 0 0.5 0 
10 0.8 0 0.5 0 
11 0.8 0.6 0.5 0 
12 0 0.6 0.5 0 
1 -1e-07 -1e-07 -9.999999997511999e-08 1e-07 1e-07 0.5000000999999999 0 2 2 -1 
2 -1e-07 -1.000000000028756e-07 0.4999999 1e-07 0.6000000999999999 0.5000000999999999 0 2 1 -3 
3 -1e-07 0.5999999 -9.999999997511999e-08 1e-07 0.6000000999999999 0.5000000999999999 0 2 4 -3 
4 -1e-07 -1.000000000028756e-07 -1e-07 1e-07 0.6000000999999999 1e-07 0 2 2 -4 
5 0.7999999000000001 -1e-07 -9.999999997511999e-08 0.8000001 1e-07 0.5000000999999999 0 2 6 -5 
6 0.7999999000000001 -1.000000000028756e-07 0.4999999 0.8000001 0.6000000999999999 0.5000000999999999 0 2 5 -7 
7 0.7999999000000001 0.5999999 -9.999999997511999e-08 0.8000001 0.6000000999999999 0.5000000999999999 0 2 8 -7 
8 0.7999999000000001 -1.000000000028756e-07 -1e-07 0.8000001 0.6000000999999999 1e-07 0 2 6 -8 
9 -1.000000000028756e-07 -1e-07 -1e-07 0.8000001 1e-07 1e-07 0 2 2 -6 
10 -1.000000000028756e-07 -1e-07 0.4999999 0.8000001 1e-07 0.5000000999999999 0 2 1 -5 
11 -1.000000000028756e-07 0.5999999 -1e-07 0.8000001 0.6000000999999999 1e-07 0 2 4 -8 
12 -1.000000000028756e-07 0.5999999 0.4999999 0.8000001 0.6000000999999999 0.5000000999999999 0 2 3 -7 
13 -1.000000000028756e-07 -1e-07 0.4999999 0.8000001 1e-07 0.5000000999999999 1 3 2 9 -10 
14 0.7999999000000001 -1.000000000028756e-07 0.4999999 0.8000001 0.6000000999999999 0.5000000999999999 1 3 2 10 -11 
15 -1.000000000028756e-07 0.5999999 0.4999999 0.8000001 0.6000000999999999 0.5000000999999999 1 3 2 11 -12 
16 -1e-07 -1.000000000028756e-07 0.4999999 1e-07 0.6000000999999999 0.5000000999999999 1 3 2 12 -9 
1 -1e-07 -1.000000000028756e-07 -9.999999997511999e-08 1e-07 0.6000000999999999 0.5000000999999999 0 4 -1 4 3 -2 
2 0.7999999000000001 -1.000000000028756e-07 -9.999999997511999e-08 0.8000001 0.6000000999999999 0.5000000999999999 0 4 -5 8 7 -6 
3 -1.000000000028756e-07 -1e-07 -9.999999997511999e-08 0.8000001 1e-07 0.5000000999999999 0 4 -9 1 10 -5 
4 -1.000000000028756e-07 0.5999999 -9.999999997511999e-08 0.8000001 0.6000000999999999 0.5000000999999999 0 4 -11 3 12 -7 
5 -1.000000000028756e-07 -1.000000000028756e-07 -1e-07 0.8000001 0.6000000999999999 1e-07 0 4 -4 9 8 -11 
6 -1.000000000028756e-07 -1.000000000028756e-07 0.4999999 0.8000001 0.6000000999999999 0.5000000999999999 0 4 -2 10 6 -12 
7 -1.000000000028756e-07 -1.000000000028756e-07 0.4999999 0.8000001 0.6000000999999999 0.5000000999999999 1 2 4 13 14 15 16 
1 -1.000000000028756e-07 -1.000000000028756e-07 -9.999999997511999e-08 0.8000001 0.6000000999999999 0.5000000999999999 1 1 6 -1 2 -3 4 -5 6 
$EndEntities
$Nodes
36 441 1 441
0 1 0 1
1
0 0 0.5
0 2 0 1
2
0 0 0
0 3 0 1
3
0 0.6 0.5
0 4 0 1
4
0 0.6 0
0 5 0 1
5
0.8 0 0.5
0 6 0 1
6
0.8 0 0
0 7 0 1
7
0.8 0.6 0.5
0 8 0 1
8
0.8 0.6 0
0 9 0 1
9
0 0 0.5
0 10 0 1
10
0.8 0 0.5
0 11 0 1
11
0.8 0.6 0.5
0 12 0 1
12
0 0.6 0.5
1 1 0 4
13
14
15
16
0 0 0.1
0 0 0.2
0 0 0.3
0 0 0.4
1 2 0 5
17
18
19
20
21
0 0.09999999999999984 0.5
0 0.1999999999999997 0.5
0 0.2999999999999995 0.5
0 0.3999999999999996 0.5
0 0.4999999999999998 0.5
1 3 0 4
22
23
24
25
0 0.6 0.1
0 0.6 0.2
0 0.6 0.3
0 0.6 0.4
1 4 0 5
26
27
28
29
30
0 0.09999999999999984 0
0 0.1999999999999997 0
0 0.2999999999999995 0
0 0.3999999999999996 0
0 0.4999999999999998 0
1 5 0 4
31
32
33
34
0.8 0 0.1
0.8 0 0.2
0.8 0 0.3
0.8 0 0.4
1 6 0 5
35
36
37
38
39
0.8 0.09999999999999984 0.5
0.8 0.1999999999999997 0.5
0.8 0.2999999999999995 0.5
0.8 0.3999999999999996 0.5
0.8 0.4999999999999998 0.5
1 7 0 4
40
41
42
43
0.8 0.6 0.1
0.8 0.6 0.2
0.8 0.6 0.3
0.8 0.6 0.4
1 8 0 5
44
45
46
47
48
0.8 0.09999999999999984 0
0.8 0.1999999999999997 0
0.8 0.2999999999999995 0
0.8 0.3999999999999996 0
0.8 0.4999999999999998 0
1 9 0 7
49
50
51
52
53
54
55
0.1000000000000002 0 0
0.2000000000000004 0 0
0.3000000000000004 0 0
0.4000000000000003 0 0
0.5000000000000004 0 0
0.6000000000000003 0 0
0.7000000000000002 0 0
1 10 0 7
56
57
58
59
60
61
62
0.1000000000000002 0 0.5
0.2000000000000004 0 0.5
0.3000000000000004 0 0.5
0.4000000000000003 0 0.5
0.5000000000000004 0 0.5
0.6000000000000003 0 0.5
0.7000000000000002 0 0.5
1 11 0 7
63
64
65
66
67
68
69
0.1000000000000002 0.6 0
0.2000000000000004 0.6 0
0.3000000000000004 0.6 0
0.4000000000000003 0.6 0
0.5000000000000004 0.6 0
0.6000000000000003 0.6 0
0.7000000000000002 0.6 0
1 12 0 7
70
71
72
73
74
75
76
0.1000000000000002 0.6 0.5
0.2000000000000004 0.6 0.5
0.3000000000000004 0.6 0.5
0.4000000000000003 0.6 0.5
0.5000000000000004 0.6 0.5
0.6000000000000003 0.6 0.5
0.7000000000000002 0.6 0.5
1 13 0 7
77
78
79
80
81
82
83
0.1000000000000002 0 0.5
0.2000000000000004 0 0.5
0.3000000000000004 0 0.5
0.4000000000000003 0 0.5
0.5000000000000004 0 0.5
0.6000000000000003 0 0.5
0.7000000000000002 0 0.5
1 14 0 5
84
85
86
87
88
0.8 0.09999999999999984 0.5
0.8 0.1999999999999997 0.5
0.8 0.2999999999999995 0.5
0.8 0.3999999999999996 0.5
0.8 0.4999999999999998 0.5
1 15 0 7
89
90
91
92
93
94
95
0.6999999999999998 0.6 0.5
0.5999999999999996 0.6 0.5
0.4999999999999997 0.6 0.5
0.3999999999999997 0.6 0.5
0.2999999999999996 0.6 0.5
0.1999999999999997 0.6 0.5
0.09999999999999987 0.6 0.5
1 16 0 5
96
97
98
99
100
0 0.5000000000000001 0.5
0 0.4000000000000004 0.5
0 0.3000000000000004 0.5
0 0.2000000000000003 0.5
0 0.1000000000000002 0.5
2 1 0 20
101
102
103
104
105
106
107
108
109
110
111
112
113
114
115
116
117
118
119
120
0 0.09999999999999984 0.1
0 0.1999999999999997 0.1
0 0.2999999999999996 0.1
0 0.3999999999999997 0.1
0 0.4999999999999997 0.1
0 0.09999999999999984 0.2
0 0.1999999999999997 0.2
0 0.2999999999999995 0.2
0 0.3999999999999996 0.2
0 0.4999999999999997 0.2
0 0.09999999999999984 0.3
0 0.1999999999999997 0.3
0 0.2999999999999995 0.3
0 0.3999999999999996 0.3
0 0.4999999999999998 0.3
0 0.09999999999999984 0.4
0 0.1999999999999997 0.4
0 0.2999999999999995 0.4
0 0.3999999999999996 0.4
0 0.4999999999999997 0.4
2 2 0 20
121
122
123
124
125
126
127
128
129
130
131
132
133
134
135
136
137
138
139
140
0.8 0.09999999999999984 0.1
0.8 0.1999999999999997 0.1
0.8 0.2999999999999996 0.1
0.8 0.3999999999999997 0.1
0.8 0.4999999999999997 0.1
0.8 0.09999999999999984 0.2
0.8 0.1999999999999997 0.2
0.8 0.2999999999999995 0.2
0.8 0.3999999999999996 0.2
0.8 0.4999999999999997 0.2
0.8 0.09999999999999984 0.3
0.8 0.1999999999999997 0.3
0.8 0.2999999999999995 0.3
0.8 0.3999999999999996 0.3
0.8 0.4999999999999998 0.3
0.8 0.09999999999999984 0.4
0.8 0.1999999999999997 0.4
0.8 0.2999999999999995 0.4
0.8 0.3999999999999996 0.4
0.8 0.4999999999999997 0.4
2 3 0 28
141
142
143
144
145
146
147
148
149
150
151
152
153
154
155
156
157
158
159
160
161
162
163
164
165
166
167
168
0.1000000000000002 0 0.1
0.1000000000000002 0 0.2
0.1000000000000002 0 0.3
0.1000000000000002 0 0.4
0.2000000000000004 0 0.1
0.2000000000000004 0 0.2
0.2000000000000004 0 0.3
0.2000000000000004 0 0.4
0.3000000000000004 0 0.1
0.3000000000000004 0 0.2
0.3000000000000004 0 0.3
0.3000000000000004 0 0.4
0.4000000000000004 0 0.1
0.4000000000000002 0 0.2
0.4000000000000003 0 0.3
0.4000000000000002 0 0.4
0.5000000000000004 0 0.1
0.5000000000000004 0 0.2
0.5000000000000004 0 0.3
0.5000000000000004 0 0.4
0.6000000000000003 0 0.1
0.6000000000000003 0 0.2
0.6000000000000003 0 0.3
0.6000000000000003 0 0.4
0.7000000000000002 0 0.1
0.7000000000000002 0 0.2
0.7000000000000002 0 0.3
0.7000000000000002 0 0.4
2 4 0 28
169
170
171
172
173
174
175
176
177
178
179
180
181
182
183
184
185
186
187
188
189
190
191
192
193
194
195
196
0.1000000000000002 0.6 0.1
0.1000000000000002 0.6 0.2
0.1000000000000002 0.6 0.3
0.1000000000000002 0.6 0.4
0.2000000000000004 0.6 0.1
0.2000000000000004 0.6 0.2
0.2000000000000004 0.6 0.3
0.2000000000000004 0.6 0.4
0.3000000000000004 0.6 0.1
0.3000000000000004 0.6 0.2
0.3000000000000004 0.6 0.3
0.3000000000000004 0.6 0.4
0.4000000000000004 0.6 0.1
0.4000000000000002 0.6 0.2
0.4000000000000003 0.6 0.3
0.4000000000000002 0.6 0.4
0.5000000000000004 0.6 0.1
0.5000000000000004 0.6 0.2
0.5000000000000004 0.6 0.3
0.5000000000000004 0.6 0.4
0.6000000000000003 0.6 0.1
0.6000000000000003 0.6 0.2
0.6000000000000003 0.6 0.3
0.6000000000000003 0.6 0.4
0.7000000000000002 0.6 0.1
0.7000000000000002 0.6 0.2
0.7000000000000002 0.6 0.3
0.7000000000000002 0.6 0.4
2 5 0 35
197
198
199
200
201
202
203
204
205
206
207
208
209
210
211
212
213
214
215
216
217
218
219
220
221
222
223
224
225
226
227
228
229
230
231
0.1000000000000002 0.09999999999999984 0
0.2000000000000004 0.09999999999999983 0
0.3000000000000004 0.09999999999999984 0
0.4000000000000003 0.09999999999999984 0
0.5000000000000004 0.09999999999999984 0
0.6000000000000004 0.09999999999999984 0
0.7000000000000002 0.09999999999999984 0
0.1000000000000002 0.1999999999999997 0
0.2000000000000004 0.1999999999999997 0
0.3000000000000004 0.1999999999999997 0
0.4000000000000002 0.1999999999999996 0
0.5000000000000004 0.1999999999999997 0
0.6000000000000003 0.1999999999999997 0
0.7000000000000002 0.1999999999999997 0
0.1000000000000002 0.2999999999999995 0
0.2000000000000004 0.2999999999999995 0
0.3000000000000004 0.2999999999999995 0
0.4000000000000004 0.2999999999999995 0
0.5000000000000004 0.2999999999999995 0
0.6000000000000003 0.2999999999999995 0
0.7000000000000002 0.2999999999999995 0
0.1000000000000002 0.3999999999999996 0
0.2000000000000004 0.3999999999999996 0
0.3000000000000004 0.3999999999999996 0
0.4000000000000002 0.3999999999999996 0
0.5000000000000004 0.3999999999999996 0
0.6000000000000003 0.3999999999999996 0
0.7000000000000002 0.3999999999999996 0
0.1000000000000002 0.4999999999999999 0
0.2000000000000004 0.4999999999999997 0
0.3000000000000004 0.4999999999999997 0
0.4000000000000003 0.4999999999999998 0
0.5000000000000004 0.4999999999999997 0
0.6000000000000004 0.4999999999999998 0
0.7000000000000001 0.4999999999999997 0
2 6 0 35
232
233
234
235
236
237
238
239
240
241
242
243
244
245
246
247
248
249
250
251
252
253
254
255
256
257
258
259
260
261
262
263
264
265
266
0.1000000000000002 0.09999999999999984 0.5
0.2000000000000004 0.09999999999999983 0.5
0.3000000000000004 0.09999999999999984 0.5
0.4000000000000003 0.09999999999999984 0.5
0.5000000000000004 0.09999999999999984 0.5
0.6000000000000004 0.09999999999999984 0.5
0.7000000000000002 0.09999999999999984 0.5
0.1000000000000002 0.1999999999999997 0.5
0.2000000000000004 0.1999999999999997 0.5
0.3000000000000004 0.1999999999999997 0.5
0.4000000000000002 0.1999999999999996 0.5
0.5000000000000004 0.1999999999999997 0.5
0.6000000000000003 0.1999999999999997 0.5
0.7000000000000002 0.1999999999999997 0.5
0.1000000000000002 0.2999999999999995 0.5
0.2000000000000004 0.2999999999999995 0.5
0.3000000000000004 0.2999999999999995 0.5
0.4000000000000004 0.2999999999999995 0.5
0.5000000000000004 0.2999999999999995 0.5
0.6000000000000003 0.2999999999999995 0.5
0.7000000000000002 0.2999999999999995 0.5
0.1000000000000002 0.3999999999999996 0.5
0.2000000000000004 0.3999999999999996 0.5
0.3000000000000004 0.3999999999999996 0.5
0.4000000000000002 0.3999999999999996 0.5
0.5000000000000004 0.3999999999999996 0.5
0.6000000000000003 0.3999999999999996 0.5
0.7000000000000002 0.3999999999999996 0.5
0.1000000000000002 0.4999999999999999 0.5
0.2000000000000004 0.4999999999999997 0.5
0.3000000000000004 0.4999999999999997 0.5
0.4000000000000003 0.4999999999999998 0.5
0.5000000000000004 0.4999999999999997 0.5
0.6000000000000004 0.4999999999999998 0.5
0.7000000000000001 0.4999999999999997 0.5
2 7 0 35
267
268
269
270
271
272
273
274
275
276
277
278
279
280
281
282
283
284
285
286
287
288
289
290
291
292
293
294
295
296
297
298
299
300
301
0.1 0.1000000000000001 0.5
0.1 0.2000000000000003 0.5
0.1 0.3000000000000004 0.5
0.09999999999999992 0.4000000000000002 0.5
0.09999999999999981 0.5000000000000001 0.5
0.2000000000000004 0.1000000000000001 0.5
0.2000000000000002 0.2000000000000002 0.5
0.2000000000000001 0.3000000000000003 0.5
0.2 0.4000000000000001 0.5
0.1999999999999999 0.5 0.5
0.3000000000000002 0.1000000000000001 0.5
0.3000000000000002 0.2000000000000001 0.5
0.3 0.3000000000000001 0.5
0.2999999999999998 0.4000000000000001 0.5
0.2999999999999997 0.5 0.5
0.4000000000000002 0.1 0.5
0.4000000000000001 0.2 0.5
0.4 0.3 0.5
0.4 0.4 0.5
0.3999999999999999 0.4999999999999999 0.5
0.5000000000000003 0.1 0.5
0.5000000000000002 0.1999999999999999 0.5
0.5 0.2999999999999999 0.5
0.4999999999999999 0.3999999999999999 0.5
0.4999999999999998 0.4999999999999999 0.5
0.6000000000000002 0.09999999999999987 0.5
0.6000000000000001 0.1999999999999998 0.5
0.6 0.2999999999999998 0.5
0.5999999999999999 0.3999999999999998 0.5
0.5999999999999998 0.4999999999999998 0.5
0.7000000000000002 0.09999999999999987 0.5
0.7 0.1999999999999997 0.5
0.7000000000000001 0.2999999999999997 0.5
0.7 0.3999999999999997 0.5
0.7 0.4999999999999998 0.5
3 1 0 140
302
303
304
305
306
307
308
309
310
311
312
313
314
315
316
317
318
319
320
321
322
323
324
325
326
327
328
329
330
331
332
333
334
335
336
337
338
339
340
341
342
343
344
345
346
347
348
349
350
351
352
353
354
355
356
357
358
359
360
361
362
363
364
365
366
367
368
369
370
371
372
373
374
375
376
377
378
379
380
381
382
383
384
385
386
387
388
389
390
391
392
393
394
395
396
397
398
399
400
401
402
403
404
405
406
407
408
409
410
411
412
413
414
415
416
417
418
419
420
421
422
423
424
425
426
427
428
429
430
431
432
433
434
435
436
437
438
439
440
441
0.1000000000000002 0.09999999999999987 0.09999999999999999
0.2000000000000004 0.09999999999999987 0.1
0.3000000000000002 0.09999999999999981 0.09999999999999998
0.4000000000000004 0.09999999999999981 0.09999999999999998
0.5000000000000006 0.09999999999999987 0.1000000000000001
0.6000000000000005 0.09999999999999983 0.1
0.7000000000000003 0.09999999999999981 0.1
0.1000000000000002 0.1999999999999998 0.09999999999999999
0.2000000000000004 0.1999999999999997 0.1
0.3000000000000004 0.1999999999999997 0.09999999999999998
0.4000000000000002 0.1999999999999996 0.09999999999999999
0.5000000000000004 0.1999999999999997 0.1
0.6000000000000003 0.1999999999999997 0.1
0.7000000000000002 0.1999999999999997 0.1
0.1000000000000002 0.2999999999999993 0.09999999999999998
0.2000000000000004 0.2999999999999997 0.1
0.3000000000000004 0.2999999999999997 0.09999999999999998
0.4000000000000005 0.2999999999999994 0.09999999999999998
0.5000000000000006 0.2999999999999997 0.1
0.6000000000000003 0.2999999999999996 0.1
0.7000000000000003 0.2999999999999997 0.1
0.1000000000000002 0.3999999999999997 0.09999999999999996
0.2000000000000005 0.3999999999999998 0.1
0.3000000000000004 0.3999999999999997 0.09999999999999998
0.4000000000000004 0.3999999999999997 0.09999999999999998
0.5000000000000006 0.3999999999999997 0.1
0.6000000000000003 0.3999999999999997 0.1
0.7000000000000003 0.3999999999999997 0.1
0.1000000000000002 0.4999999999999998 0.09999999999999998
0.2000000000000003 0.4999999999999997 0.1
0.3000000000000004 0.4999999999999994 0.09999999999999998
0.4000000000000004 0.4999999999999996 0.09999999999999998
0.5000000000000006 0.4999999999999995 0.1
0.6000000000000005 0.4999999999999994 0.1
0.7000000000000002 0.4999999999999996 0.1
0.1000000000000002 0.09999999999999987 0.2
0.2000000000000004 0.09999999999999985 0.2000000000000001
0.3000000000000003 0.0999999999999998 0.2
0.4000000000000001 0.09999999999999981 0.2
0.5000000000000004 0.09999999999999989 0.2000000000000001
0.6000000000000006 0.09999999999999981 0.2000000000000001
0.7000000000000003 0.09999999999999981 0.2000000000000001
0.1000000000000002 0.1999999999999998 0.2
0.2000000000000004 0.1999999999999998 0.2000000000000001
0.3000000000000004 0.1999999999999998 0.2
0.4000000000000001 0.1999999999999996 0.2
0.5000000000000004 0.1999999999999997 0.2000000000000001
0.6000000000000003 0.1999999999999997 0.2000000000000001
0.7000000000000002 0.1999999999999997 0.2000000000000001
0.1000000000000003 0.2999999999999994 0.2
0.2000000000000004 0.2999999999999997 0.2000000000000001
0.3000000000000004 0.2999999999999995 0.2
0.4000000000000001 0.2999999999999994 0.2
0.5000000000000004 0.2999999999999997 0.2000000000000001
0.6000000000000003 0.2999999999999997 0.2
0.7000000000000002 0.2999999999999995 0.2000000000000001
0.1000000000000002 0.3999999999999996 0.1999999999999999
0.2000000000000004 0.3999999999999995 0.2000000000000001
0.3000000000000004 0.3999999999999997 0.2
0.4000000000000003 0.3999999999999996 0.2
0.5000000000000004 0.3999999999999996 0.2000000000000001
0.6000000000000003 0.3999999999999996 0.2000000000000001
0.7000000000000002 0.3999999999999995 0.2000000000000001
0.1000000000000002 0.4999999999999998 0.2
0.2000000000000004 0.4999999999999997 0.2000000000000001
0.3000000000000004 0.4999999999999996 0.2
0.4000000000000001 0.4999999999999997 0.2
0.5000000000000004 0.4999999999999995 0.2000000000000001
0.6000000000000004 0.4999999999999998 0.2000000000000001
0.7000000000000002 0.4999999999999995 0.2000000000000001
0.1000000000000002 0.09999999999999989 0.3
0.2000000000000004 0.09999999999999984 0.3
0.3000000000000004 0.09999999999999981 0.3
0.4000000000000004 0.09999999999999981 0.3
0.5000000000000006 0.09999999999999988 0.3
0.6000000000000006 0.09999999999999981 0.3
0.7000000000000003 0.09999999999999981 0.3
0.1000000000000002 0.1999999999999998 0.3
0.2000000000000004 0.1999999999999997 0.3
0.3000000000000004 0.1999999999999997 0.3
0.4000000000000003 0.1999999999999996 0.3
0.5000000000000004 0.1999999999999997 0.3
0.6000000000000002 0.1999999999999997 0.3
0.7000000000000002 0.1999999999999997 0.3
0.1000000000000002 0.2999999999999994 0.3
0.2000000000000004 0.2999999999999997 0.3
0.3000000000000004 0.2999999999999994 0.3
0.4000000000000002 0.2999999999999994 0.3
0.5000000000000004 0.2999999999999997 0.3
0.6000000000000003 0.2999999999999997 0.3
0.7000000000000002 0.2999999999999994 0.3
0.1000000000000001 0.3999999999999996 0.3
0.2000000000000004 0.3999999999999995 0.3
0.3000000000000004 0.3999999999999997 0.3
0.4000000000000002 0.3999999999999995 0.3
0.5000000000000004 0.3999999999999995 0.3
0.6000000000000003 0.3999999999999995 0.3
0.7000000000000002 0.3999999999999995 0.3
0.1000000000000002 0.4999999999999997 0.3
0.2000000000000004 0.4999999999999998 0.3
0.3000000000000004 0.4999999999999997 0.3
0.4000000000000003 0.4999999999999997 0.3
0.5000000000000004 0.4999999999999996 0.3
0.6000000000000003 0.4999999999999998 0.3
0.7000000000000002 0.4999999999999996 0.3
0.1000000000000002 0.09999999999999987 0.4
0.2000000000000004 0.09999999999999987 0.4000000000000002
0.3000000000000003 0.09999999999999981 0.3999999999999999
0.4000000000000004 0.09999999999999983 0.3999999999999999
0.5000000000000006 0.09999999999999987 0.4000000000000002
0.6000000000000005 0.09999999999999983 0.4000000000000002
0.7000000000000003 0.09999999999999981 0.4000000000000001
0.1000000000000002 0.1999999999999998 0.4
0.2000000000000004 0.1999999999999997 0.4000000000000001
0.3000000000000004 0.1999999999999997 0.3999999999999999
0.4000000000000001 0.1999999999999996 0.4
0.5000000000000004 0.1999999999999997 0.4000000000000001
0.6000000000000002 0.1999999999999997 0.4000000000000001
0.7000000000000002 0.1999999999999997 0.4000000000000001
0.1000000000000002 0.2999999999999994 0.3999999999999999
0.2000000000000004 0.2999999999999997 0.4000000000000001
0.3000000000000003 0.2999999999999994 0.3999999999999999
0.4000000000000002 0.2999999999999994 0.3999999999999999
0.5000000000000004 0.2999999999999997 0.4000000000000002
0.6000000000000002 0.2999999999999997 0.4000000000000001
0.7000000000000003 0.2999999999999995 0.4000000000000001
0.1000000000000002 0.3999999999999995 0.3999999999999999
0.2000000000000004 0.3999999999999996 0.4000000000000001
0.3000000000000004 0.3999999999999997 0.3999999999999999
0.4000000000000001 0.3999999999999995 0.3999999999999999
0.5000000000000004 0.3999999999999996 0.4000000000000001
0.6000000000000003 0.3999999999999995 0.4000000000000001
0.7000000000000002 0.3999999999999996 0.4000000000000001
0.1000000000000002 0.4999999999999998 0.3999999999999999
0.2000000000000004 0.4999999999999998 0.4000000000000002
0.3000000000000004 0.4999999999999995 0.3999999999999999
0.4000000000000001 0.4999999999999998 0.3999999999999999
0.5000000000000006 0.4999999999999996 0.4000000000000002
0.6000000000000004 0.4999999999999998 0.4000000000000001
0.7000000000000002 0.4999999999999996 0.4000000000000001
$EndNodes
$Elements
6 316 1 316
1 13 1 8
1 9 77 
2 77 78 
3 78 79 
4 79 80 
5 80 81 
6 81 82 
7 82 83 
8 83 10 
1 14 1 6
9 10 84 
10 84 85 
11 85 86 
12 86 87 
13 87 88 
14 88 11 
1 15 1 8
15 11 89 
16 89 90 
17 90 91 
18 91 92 
19 92 93 
20 93 94 
21 94 95 
22 95 12 
1 16 1 6
23 12 96 
24 96 97 
25 97 98 
26 98 99 
27 99 100 
28 100 9 
2 7 3 48
29 9 77 267 100 
30 100 267 268 99 
31 99 268 269 98 
32 98 269 270 97 
33 97 270 271 96 
34 96 271 95 12 
35 77 78 272 267 
36 267 272 273 268 
37 268 273 274 269 
38 269 274 275 270 
39 270 275 276 271 
40 271 276 94 95 
41 78 79 277 272 
42 272 277 278 273 
43 273 278 279 274 
44 274 279 280 275 
45 275 280 281 276 
46 276 281 93 94 
47 79 80 282 277 
48 277 282 283 278 
49 278 283 284 279 
50 279 284 285 280 
51 280 285 286 281 
52 281 286 92 93 
53 80 81 287 282 
54 282 287 288 283 
55 283 288 289 284 
56 284 289 290 285 
57 285 290 291 286 
58 286 291 91 92 
59 81 82 292 287 
60 287 292 293 288 
61 288 293 294 289 
62 289 294 295 290 
63 290 295 296 291 
64 291 296 90 91 
65 82 83 297 292 
66 292 297 298 293 
67 293 298 299 294 
68 294 299 300 295 
69 295 300 301 296 
70 296 301 89 90 
71 83 10 84 297 
72 297 84 85 298 
73 298 85 86 299 
74 299 86 87 300 
75 300 87 88 301 
76 301 88 11 89 
3 1 5 240
77 101 13 2 26 302 141 49 197 
78 302 141 49 197 303 145 50 198 
79 303 145 50 198 304 149 51 199 
80 304 149 51 199 305 153 52 200 
81 305 153 52 200 306 157 53 201 
82 306 157 53 201 307 161 54 202 
83 307 161 54 202 308 165 55 203 
84 308 165 55 203 121 31 6 44 
85 102 101 26 27 309 302 197 204 
86 309 302 197 204 310 303 198 205 
87 310 303 198 205 311 304 199 206 
88 311 304 199 206 312 305 200 207 
89 312 305 200 207 313 306 201 208 
90 313 306 201 208 314 307 202 209 
91 314 307 202 209 315 308 203 210 
92 315 308 203 210 122 121 44 45 
93 103 102 27 28 316 309 204 211 
94 316 309 204 211 317 310 205 212 
95 317 310 205 212 318 311 206 213 
96 318 311 206 213 319 312 207 214 
97 319 312 207 214 320 313 208 215 
98 320 313 208 215 321 314 209 216 
99 321 314 209 216 322 315 210 217 
100 322 315 210 217 123 122 45 46 
101 104 103 28 29 323 316 211 218 
102 323 316 211 218 324 317 212 219 
103 324 317 212 219 325 318 213 220 
104 325 318 213 220 326 319 214 221 
105 326 319 214 221 327 320 215 222 
106 327 320 215 222 328 321 216 223 
107 328 321 216 223 329 322 217 224 
108 329 322 217 224 124 123 46 47 
109 105 104 29 30 330 323 218 225 
110 330 323 218 225 331 324 219 226 
111 331 324 219 226 332 325 220 227 
112 332 325 220 227 333 326 221 228 
113 333 326 221 228 334 327 222 229 
114 334 327 222 229 335 328 223 230 
115 335 328 223 230 336 329 224 231 
116 336 329 224 231 125 124 47 48 
117 22 105 30 4 169 330 225 63 
118 169 330 225 63 173 331 226 64 
119 173 331 226 64 177 332 227 65 
120 177 332 227 65 181 333 228 66 
121 181 333 228 66 185 334 229 67 
122 185 334 229 67 189 335 230 68 
123 189 335 230 68 193 336 231 69 
124 193 336 231 69 40 125 48 8 
125 106 14 13 101 337 142 141 302 
126 337 142 141 302 338 146 145 303 
127 338 146 145 303 339 150 149 304 
128 339 150 149 304 340 154 153 305 
129 340 154 153 305 341 158 157 306 
130 341 158 157 306 342 162 161 307 
131 342 162 161 307 343 166 165 308 
132 343 166 165 308 126 32 31 121 
133 107 106 101 102 344 337 302 309 
134 344 337 302 309 345 338 303 310 
135 345 338 303 310 346 339 304 311 
136 346 339 304 311 347 340 305 312 
137 347 340 305 312 348 341 306 313 
138 348 341 306 313 349 342 307 314 
139 349 342 307 314 350 343 308 315 
140 350 343 308 315 127 126 121 122 
141 108 107 102 103 351 344 309 316 
142 351 344 309 316 352 345 310 317 
143 352 345 310 317 353 346 311 318 
144 353 346 311 318 354 347 312 319 
145 354 347 312 319 355 348 313 320 
146 355 348 313 320 356 349 314 321 
147 356 349 314 321 357 350 315 322 
148 357 350 315 322 128 127 122 123 
149 109 108 103 104 358 351 316 323 
150 358 351 316 323 359 352 317 324 
151 359 352 317 324 360 353 318 325 
152 360 353 318 325 361 354 319 326 
153 361 354 319 326 362 355 320 327 
154 362 355 320 327 363 356 321 328 
155 363 356 321 328 364 357 322 329 
156 364 357 322 329 129 128 123 124 
157 110 109 104 105 365 358 323 330 
158 365 358 323 330 366 359 324 331 
159 366 359 324 331 367 360 325 332 
160 367 360 325 332 368 361 326 333 
161 368 361 326 333 369 362 327 334 
162 369 362 327 334 370 363 328 335 
163 370 363 328 335 371 364 329 336 
164 371 364 329 336 130 129 124 125 
165 23 110 105 22 170 365 330 169 
166 170 365 330 169 174 366 331 173 
167 174 366 331 173 178 367 332 177 
168 178 367 332 177 182 368 333 181 
169 182 368 333 181 186 369 334 185 
170 186 369 334 185 190 370 335 189 
171 190 370 335 189 194 371 336 193 
172 194 371 336 193 41 130 125 40 
173 111 15 14 106 372 143 142 337 
174 372 143 142 337 373 147 146 338 
175 373 147 146 338 374 151 150 339 
176 374 151 150 339 375 155 154 340 
177 375 155 154 340 376 159 158 341 
178 376 159 158 341 377 163 162 342 
179 377 163 162 342 378 167 166 343 
180 378 167 166 343 131 33 32 126 
181 112 111 106 107 379 372 337 344 
182 379 372 337 344 380 373 338 345 
183 380 373 338 345 381 374 339 346 
184 381 374 339 346 382 375 340 347 
185 382 375 340 347 383 376 341 348 
186 383 376 341 348 384 377 342 349 
187 384 377 342 349 385 378 343 350 
188 385 378 343 350 132 131 126 127 
189 113 112 107 108 386 379 344 351 
190 386 379 344 351 387 380 345 352 
191 387 380 345 352 388 381 346 353 
192 388 381 346 353 389 382 347 354 
193 389 382 347 354 390 383 348 355 
194 390 383 348 355 391 384 349 356 
195 391 384 349 356 392 385 350 357 
196 392 385 350 357 133 132 127 128 
197 114 113 108 109 393 386 351 358 
198 393 386 351 358 394 387 352 359 
199 394 387 352 359 395 388 353 360 
200 395 388 353 360 396 389 354 361 
201 396 389 354 361 397 390 355 362 
202 397 390 355 362 398 391 356 363 
203 398 391 356 363 399 392 357 364 
204 399 392 357 364 134 133 128 129 
205 115 114 109 110 400 393 358 365 
206 400 393 358 365 401 394 359 366 
207 401 394 359 366 402 395 360 367 
208 402 395 360 367 403 396 361 368 
209 403 396 361 368 404 397 362 369 
210 404 397 362 369 405 398 363 370 
211 405 398 363 370 406 399 364 371 
212 406 399 364 371 135 134 129 130 
213 24 115 110 23 171 400 365 170 
214 171 400 365 170 175 401 366 174 
215 175 401 366 174 179 402 367 178 
216 179 402 367 178 183 403 368 182 
217 183 403 368 182 187 404 369 186 
218 187 404 369 186 191 405 370 190 
219 191 405 370 190 195 406 371 194 
220 195 406 371 194 42 135 130 41 
221 116 16 15 111 407 144 143 372 
222 407 144 143 372 408 148 147 373 
223 408 148 147 373 409 152 151 374 
224 409 152 151 374 410 156 155 375 
225 410 156 155 375 411 160 159 376 
226 411 160 159 376 412 164 163 377 
227 412 164 163 377 413 168 167 378 
228 413 168 167 378 136 34 33 131 
229 117 116 111 112 414 407 372 379 
230 414 407 372 379 415 408 373 380 
231 415 408 373 380 416 409 374 381 
232 416 409 374 381 417 410 375 382 
233 417 410 375 382 418 411 376 383 
234 418 411 376 383 419 412 377 384 
235 419 412 377 384 420 413 378 385 
236 420 413 378 385 137 136 131 132 
237 118 117 112 113 421 414 379 386 
238 421 414 379 386 422 415 380 387 
239 422 415 380 387 423 416 381 388 
240 423 416 381 388 424 417 382 389 
241 424 417 382 389 425 418 383 390 
242 425 418 383 390 426 419 384 391 
243 426 419 384 391 427 420 385 392 
244 427 420 385 392 138 137 132 133 
245 119 118 113 114 428 421 386 393 
246 428 421 386 393 429 422 387 394 
247 429 422 387 394 430 423 388 395 
248 430 423 388 395 431 424 389 396 
249 431 424 389 396 432 425 390 397 
250 432 425 390 397 433 426 391 398 
251 433 426 391 398 434 427 392 399 
252 434 427 392 399 139 138 133 134 
253 120 119 114 115 435 428 393 400 
254 435 428 393 400 436 429 394 401 
255 436 429 394 401 437 430 395 402 
256 437 430 395 402 438 431 396 403 
257 438 431 396 403 439 432 397 404 
258 439 432 397 404 440 433 398 405 
259 440 433 398 405 441 434 399 406 
260 441 434 399 406 140 139 134 135 
261 25 120 115 24 172 435 400 171 
262 172 435 400 171 176 436 401 175 
263 176 436 401 175 180 437 402 179 
264 180 437 402 179 184 438 403 183 
265 184 438 403 183 188 439 404 187 
266 188 439 404 187 192 440 405 191 
267 192 440 405 191 196 441 406 195 
268 196 441 406 195 43 140 135 42 
269 17 1 16 116 232 56 144 407 
270 232 56 144 407 233 57 148 408 
271 233 57 148 408 234 58 152 409 
272 234 58 152 409 235 59 156 410 
273 235 59 156 410 236 60 160 411 
274 236 60 160 411 237 61 164 412 
275 237 61 164 412 238 62 168 413 
276 238 62 168 413 35 5 34 136 
277 18 17 116 117 239 232 407 414 
278 239 232 407 414 240 233 408 415 
279 240 233 408 415 241 234 409 416 
280 241 234 409 416 242 235 410 417 
281 242 235 410 417 243 236 411 418 
282 243 236 411 418 244 237 412 419 
283 244 237 412 419 245 238 413 420 
284 245 238 413 420 36 35 136 137 
285 19 18 117 118 246 239 414 421 
286 246 239 414 421 247 240 415 422 
287 247 240 415 422 248 241 416 423 
288 248 241 416 423 249 242 417 424 
289 249 242 417 424 250 243 418 425 
290 250 243 418 425 251 244 419 426 
291 251 244 419 426 252 245 420 427 
292 252 245 420 427 37 36 137 138 
293 20 19 118 119 253 246 421 428 
294 253 246 421 428 254 247 422 429 
295 254 247 422 429 255 248 423 430 
296 255 248 423 430 256 249 424 431 
297 256 249 424 431 257 250 425 432 
298 257 250 425 432 258 251 426 433 
299 258 251 426 433 259 252 427 434 
300 259 252 427 434 38 37 138 139 
301 21 20 119 120 260 253 428 435 
302 260 253 428 435 261 254 429 436 
303 261 254 429 436 262 255 430 437 
304 262 255 430 437 263 256 431 438 
305 263 256 431 438 264 257 432 439 
306 264 257 432 439 265 258 433 440 
307 265 258 433 440 266 259 434 441 
308 266 259 434 441 39 38 139 140 
309 3 21 120 25 70 260 435 172 
310 70 260 435 172 71 261 436 176 
311 71 261 436 176 72 262 437 180 
312 72 262 437 180 73 263 438 184 
313 73 263 438 184 74 264 439 188 
314 74 264 439 188 75 265 440 192 
315 75 265 440 192 76 266 441 196 
316 76 266 441 196 7 39 140 43 
$EndElements
