$MeshFormat
4.1 0 8
$EndMeshFormat
$PhysicalNames
5
1 1 "bottom"
1 2 "right"
1 3 "top"
1 4 "left"
2 5 "domain"
$EndPhysicalNames
$Entities
4 4 1 0
1 0 0 0 0 
2 1 0 0 0 
3 1 0.5 0 0 
4 0 0.5 0 0 
1 0 0 0 1 0 0 1 1 2 1 -2 
2 1 0 0 1 0.5 0 1 2 2 2 -3 
3 0 0.5 0 1 0.5 0 1 3 2 3 -4 
4 0 0 0 0 0.5 0 1 4 2 4 -1 
1 0 0 0 1 0.5 0 1 5 4 1 2 3 4 
$EndEntities
$Nodes
9 629 1 629
0 1 0 1
1
0 0 0
0 2 0 1
2
1 0 0
0 3 0 1
3
1 0.5 0
0 4 0 1
4
0 0.5 0
1 1 0 37
5
6
7
8
9
10
11
12
13
14
15
16
17
18
19
20
21
22
23
24
25
26
27
28
29
30
31
32
33
34
35
36
37
38
39
40
41
0.05263157894726194 0 0
0.1052631578945429 0 0
0.157894736841785 0 0
0.2105263157889998 0 0
0.2631578947362146 0 0
0.3157894736834294 0 0
0.3684210526306442 0 0
0.421052631577859 0 0
0.4736842105250738 0 0
0.5263157894724348 0 0
0.5789473684199421 0 0
0.6315789473674494 0 0
0.6842105263149566 0 0
0.7368421052624637 0 0
0.789473684209971 0 0
0.8421052631574782 0 0
0.8947368421049855 0 0
0.9473684210524927 0 0
0.02631578947363448 0 0
0.07894736842089921 0 0
0.1315789473681782 0 0
0.1842105263153924 0 0
0.2368421052626072 0 0
0.289473684209822 0 0
0.3421052631570368 0 0
0.3947368421042516 0 0
0.4473684210514664 0 0
0.4999999999986813 0 0
0.5526315789461884 0 0
0.6052631578936958 0 0
0.6578947368412029 0 0
0.7105263157887102 0 0
0.7631578947362174 0 0
0.8157894736837246 0 0
0.8684210526312319 0 0
0.9210526315787391 0 0
0.9736842105262464 0 0
1 2 0 19
42
43
44
45
46
47
48
49
50
51
52
53
54
55
56
57
58
59
60
1 0.04999999999990706 0
1 0.09999999999977845 0
1 0.1499999999996325 0
1 0.1999999999994866 0
1 0.2499999999993461 0
1 0.2999999999994725 0
1 0.3499999999996044 0
1 0.3999999999997362 0
1 0.4499999999998681 0
1 0.0249999999999495 0
1 0.07499999999985142 0
1 0.1249999999997055 0
1 0.1749999999995595 0
1 0.2249999999994163 0
1 0.2749999999994093 0
1 0.3249999999995385 0
1 0.3749999999996703 0
1 0.4249999999998022 0
1 0.4749999999999341 0
1 3 0 37
61
62
63
64
65
66
67
68
69
70
71
72
73
74
75
76
77
78
79
80
81
82
83
84
85
86
87
88
89
90
91
92
93
94
95
96
97
0.9473684210524125 0.5 0
0.8947368421048248 0.5 0
0.8421052631576025 0.5 0
0.7894736842105994 0.5 0
0.7368421052635962 0.5 0
0.6842105263165927 0.5 0
0.6315789473695894 0.5 0
0.5789473684225861 0.5 0
0.5263157894755828 0.5 0
0.4736842105282874 0.5 0
0.4210526315806998 0.5 0
0.3684210526331123 0.5 0
0.3157894736855248 0.5 0
0.2631578947379374 0.5 0
0.21052631579035 0.5 0
0.1578947368427625 0.5 0
0.1052631578951749 0.5 0
0.05263157894758741 0.5 0
0.9736842105262195 0.5 0
0.921052631578642 0.5 0
0.8684210526312124 0.5 0
0.815789473684093 0.5 0
0.7631578947370594 0.5 0
0.7105263157900948 0.5 0
0.6578947368430739 0.5 0
0.6052631578960905 0.5 0
0.552631578949108 0.5 0
0.5000000000020269 0.5 0
0.4473684210544936 0.5 0
0.3947368421069061 0.5 0
0.3421052631593186 0.5 0
0.2894736842117311 0.5 0
0.2368421052641436 0.5 0
0.1842105263165562 0.5 0
0.1315789473689687 0.5 0
0.07894736842138117 0.5 0
0.02631578947379376 0.5 0
1 4 0 19
98
99
100
101
102
103
104
105
106
107
108
109
110
111
112
113
114
115
116
0 0.4499999999997918 0
0 0.4 0
0 0.3500000000003469 0
0 0.3000000000006937 0
0 0.2500000000010297 0
0 0.2000000000008325 0
0 0.1500000000006244 0
0 0.1000000000004163 0
0 0.0500000000002081 0
0 0.4749999999999132 0
0 0.4249999999999052 0
0 0.3750000000001674 0
0 0.3250000000005097 0
0 0.2750000000008433 0
0 0.2250000000009311 0
0 0.1750000000007285 0
0 0.1250000000005203 0
0 0.07500000000031215 0
0 0.02500000000010405 0
2 1 0 513
117
118
119
120
121
122
123
124
125
126
127
128
129
130
131
132
133
134
135
136
137
138
139
140
141
142
143
144
145
146
147
148
149
150
151
152
153
154
155
156
157
158
159
160
161
162
163
164
165
166
167
168
169
170
171
172
173
174
175
176
177
178
179
180
181
182
183
184
185
186
187
188
189
190
191
192
193
194
195
196
197
198
199
200
201
202
203
204
205
206
207
208
209
210
211
212
213
214
215
216
217
218
219
220
221
222
223
224
225
226
227
228
229
230
231
232
233
234
235
236
237
238
239
240
241
242
243
244
245
246
247
248
249
250
251
252
253
254
255
256
257
258
259
260
261
262
263
264
265
266
267
268
269
270
271
272
273
274
275
276
277
278
279
280
281
282
283
284
285
286
287
288
289
290
291
292
293
294
295
296
297
298
299
300
301
302
303
304
305
306
307
308
309
310
311
312
313
314
315
316
317
318
319
320
321
322
323
324
325
326
327
328
329
330
331
332
333
334
335
336
337
338
339
340
341
342
343
344
345
346
347
348
349
350
351
352
353
354
355
356
357
358
359
360
361
362
363
364
365
366
367
368
369
370
371
372
373
374
375
376
377
378
379
380
381
382
383
384
385
386
387
388
389
390
391
392
393
394
395
396
397
398
399
400
401
402
403
404
405
406
407
408
409
410
411
412
413
414
415
416
417
418
419
420
421
422
423
424
425
426
427
428
429
430
431
432
433
434
435
436
437
438
439
440
441
442
443
444
445
446
447
448
449
450
451
452
453
454
455
456
457
458
459
460
461
462
463
464
465
466
467
468
469
470
471
472
473
474
475
476
477
478
479
480
481
482
483
484
485
486
487
488
489
490
491
492
493
494
495
496
497
498
499
500
501
502
503
504
505
506
507
508
509
510
511
512
513
514
515
516
517
518
519
520
521
522
523
524
525
526
527
528
529
530
531
532
533
534
535
536
537
538
539
540
541
542
543
544
545
546
547
548
549
550
551
552
553
554
555
556
557
558
559
560
561
562
563
564
565
566
567
568
569
570
571
572
573
574
575
576
577
578
579
580
581
582
583
584
585
586
587
588
589
590
591
592
593
594
595
596
597
598
599
600
601
602
603
604
605
606
607
608
609
610
611
612
613
614
615
616
617
618
619
620
621
622
623
624
625
626
627
628
629
0.05263157894729448 0.05000000000019225 0
0.05263157894732703 0.1000000000003827 0
0.05263157894735958 0.1500000000005722 0
0.05263157894739211 0.2000000000007616 0
0.05263157894742468 0.2500000000009411 0
0.05263157894745722 0.3000000000006294 0
0.05263157894748977 0.3500000000003078 0
0.05263157894752231 0.3999999999999861 0
0.05263157894755487 0.4499999999997958 0
0.1052631578946061 0.0500000000001764 0
0.1052631578946693 0.1000000000003491 0
0.1052631578947325 0.15000000000052 0
0.1052631578947957 0.2000000000006908 0
0.1052631578948589 0.2500000000008525 0
0.1052631578949221 0.3000000000005651 0
0.1052631578949853 0.3500000000002688 0
0.1052631578950485 0.3999999999999723 0
0.1052631578951117 0.4499999999997998 0
0.1578947368418828 0.05000000000016057 0
0.1578947368419805 0.1000000000003156 0
0.1578947368420782 0.1500000000004677 0
0.157894736842176 0.20000000000062 0
0.1578947368422737 0.2500000000007638 0
0.1578947368423715 0.3000000000005009 0
0.1578947368424692 0.3500000000002297 0
0.157894736842567 0.3999999999999584 0
0.1578947368426648 0.4499999999998039 0
0.2105263157891348 0.05000000000014472 0
0.2105263157892698 0.100000000000282 0
0.2105263157894048 0.1500000000004155 0
0.21052631578954 0.2000000000005492 0
0.2105263157896749 0.2500000000006752 0
0.2105263157898098 0.3000000000004366 0
0.2105263157899449 0.3500000000001906 0
0.21052631579008 0.3999999999999445 0
0.210526315790215 0.4499999999998078 0
0.2631578947363869 0.05000000000012889 0
0.2631578947365592 0.1000000000002484 0
0.2631578947367314 0.1500000000003633 0
0.2631578947369037 0.2000000000004783 0
0.263157894737076 0.2500000000005866 0
0.2631578947372483 0.3000000000003724 0
0.2631578947374205 0.3500000000001515 0
0.2631578947375928 0.3999999999999306 0
0.2631578947377651 0.4499999999998118 0
0.3157894736836389 0.05000000000011304 0
0.3157894736838485 0.1000000000002148 0
0.315789473684058 0.1500000000003112 0
0.3157894736842676 0.2000000000004075 0
0.3157894736844771 0.250000000000498 0
0.3157894736846866 0.300000000000308 0
0.3157894736848961 0.3500000000001124 0
0.3157894736851057 0.3999999999999166 0
0.3157894736853152 0.4499999999998159 0
0.368421052630891 0.05000000000009719 0
0.3684210526311377 0.1000000000001813 0
0.3684210526313846 0.150000000000259 0
0.3684210526316314 0.2000000000003367 0
0.3684210526318782 0.2500000000004095 0
0.368421052632125 0.3000000000002438 0
0.3684210526323718 0.3500000000000734 0
0.3684210526326188 0.3999999999999029 0
0.3684210526328655 0.44999999999982 0
0.4210526315781432 0.05000000000008134 0
0.4210526315784272 0.1000000000001477 0
0.4210526315787113 0.1500000000002067 0
0.4210526315789953 0.2000000000002659 0
0.4210526315792794 0.2500000000003209 0
0.4210526315795635 0.3000000000001795 0
0.4210526315798476 0.3500000000000343 0
0.4210526315801317 0.399999999999889 0
0.4210526315804158 0.4499999999998239 0
0.4736842105253952 0.05000000000006551 0
0.4736842105257165 0.1000000000001141 0
0.4736842105260378 0.1500000000001545 0
0.4736842105263592 0.200000000000195 0
0.4736842105266806 0.2500000000002323 0
0.4736842105270019 0.3000000000001153 0
0.4736842105273233 0.3499999999999952 0
0.4736842105276445 0.399999999999875 0
0.4736842105279661 0.449999999999828 0
0.5263157894727496 0.05000000000004966 0
0.5263157894730645 0.1000000000000806 0
0.5263157894733793 0.1500000000001023 0
0.526315789473694 0.2000000000001242 0
0.5263157894740088 0.2500000000001436 0
0.5263157894743237 0.300000000000051 0
0.5263157894746383 0.3499999999999561 0
0.5263157894749532 0.3999999999998612 0
0.526315789475268 0.449999999999832 0
0.5789473684202066 0.05000000000003382 0
0.5789473684204708 0.100000000000047 0
0.5789473684207352 0.1500000000000501 0
0.5789473684209996 0.2000000000000533 0
0.5789473684212642 0.250000000000055 0
0.5789473684215284 0.2999999999999867 0
0.5789473684217928 0.349999999999917 0
0.5789473684220573 0.3999999999998473 0
0.5789473684223215 0.449999999999836 0
0.6315789473676635 0.05000000000001797 0
0.6315789473678773 0.1000000000000134 0
0.6315789473680914 0.1499999999999979 0
0.6315789473683053 0.1999999999999824 0
0.6315789473685193 0.2499999999999664 0
0.6315789473687335 0.2999999999999224 0
0.6315789473689474 0.349999999999878 0
0.6315789473691614 0.3999999999998335 0
0.6315789473693753 0.44999999999984 0
0.6842105263151205 0.05000000000000213 0
0.6842105263152837 0.09999999999997986 0
0.6842105263154475 0.1499999999999457 0
0.6842105263156109 0.1999999999999116 0
0.6842105263157746 0.2499999999998778 0
0.6842105263159383 0.2999999999998582 0
0.6842105263161019 0.3499999999998389 0
0.6842105263162656 0.3999999999998195 0
0.684210526316429 0.449999999999844 0
0.7368421052625768 0.04999999999998628 0
0.7368421052626903 0.0999999999999463 0
0.7368421052628035 0.1499999999998935 0
0.7368421052629166 0.1999999999998407 0
0.7368421052630297 0.2499999999997891 0
0.7368421052631434 0.2999999999997939 0
0.7368421052632564 0.3499999999997998 0
0.7368421052633697 0.3999999999998056 0
0.7368421052634826 0.4499999999998481 0
0.7894736842100339 0.04999999999997043 0
0.7894736842100964 0.09999999999991271 0
0.7894736842101596 0.1499999999998413 0
0.7894736842102222 0.1999999999997699 0
0.7894736842102853 0.2499999999997005 0
0.7894736842103481 0.2999999999997296 0
0.7894736842104111 0.3499999999997607 0
0.7894736842104735 0.3999999999997917 0
0.7894736842105365 0.4499999999998521 0
0.8421052631574905 0.04999999999995459 0
0.8421052631575032 0.09999999999987913 0
0.8421052631575154 0.1499999999997891 0
0.8421052631575281 0.1999999999996991 0
0.8421052631575405 0.2499999999996119 0
0.8421052631575527 0.2999999999996654 0
0.8421052631575652 0.3499999999997216 0
0.8421052631575776 0.3999999999997779 0
0.84210526315759 0.4499999999998561 0
0.8947368421049695 0.04999999999993875 0
0.8947368421049533 0.0999999999998456 0
0.8947368421049373 0.149999999999737 0
0.8947368421049213 0.1999999999996282 0
0.8947368421049051 0.2499999999995233 0
0.8947368421048891 0.299999999999601 0
0.8947368421048731 0.3499999999996826 0
0.8947368421048569 0.399999999999764 0
0.8947368421048409 0.4499999999998601 0
0.9473684210524844 0.04999999999992291 0
0.9473684210524769 0.09999999999981202 0
0.9473684210524688 0.1499999999996847 0
0.9473684210524604 0.1999999999995574 0
0.9473684210524526 0.2499999999994347 0
0.9473684210524445 0.2999999999995369 0
0.9473684210524365 0.3499999999996435 0
0.9473684210524284 0.3999999999997501 0
0.9473684210524204 0.4499999999998641 0
0.05263157894727821 0.02500000000009613 0
0.02631578947364724 0.05000000000020018 0
0.05263157894731076 0.07500000000028746 0
0.02631578947366352 0.1000000000003995 0
0.05263157894734331 0.1250000000004774 0
0.02631578947367979 0.1500000000005983 0
0.05263157894737584 0.1750000000006669 0
0.02631578947369606 0.2000000000007971 0
0.0526315789474084 0.2250000000008514 0
0.02631578947371234 0.2500000000009854 0
0.05263157894744095 0.2750000000007853 0
0.02631578947372861 0.3000000000006616 0
0.05263157894747349 0.3250000000004686 0
0.02631578947374488 0.3500000000003274 0
0.05263157894750604 0.375000000000147 0
0.02631578947376115 0.3999999999999931 0
0.05263157894753859 0.424999999999891 0
0.02631578947377743 0.4499999999997938 0
0.05263157894757114 0.4749999999998979 0
0.1052631578945745 0.0250000000000882 0
0.07894736842095029 0.05000000000018433 0
0.1052631578946377 0.07500000000026277 0
0.07894736842099817 0.1000000000003659 0
0.1052631578947009 0.1250000000004346 0
0.07894736842104605 0.1500000000005461 0
0.1052631578947641 0.1750000000006054 0
0.07894736842109391 0.2000000000007262 0
0.1052631578948273 0.2250000000007717 0
0.07894736842114181 0.2500000000008968 0
0.1052631578948905 0.2750000000007088 0
0.07894736842118968 0.3000000000005973 0
0.1052631578949537 0.325000000000417 0
0.07894736842123753 0.3500000000002883 0
0.1052631578950169 0.3750000000001205 0
0.07894736842128543 0.3999999999999792 0
0.1052631578950801 0.424999999999886 0
0.07894736842133329 0.4499999999997978 0
0.1052631578951433 0.4749999999998999 0
0.1578947368418339 0.02500000000008028 0
0.1315789473682445 0.05000000000016848 0
0.1578947368419317 0.07500000000023807 0
0.1315789473683249 0.1000000000003324 0
0.1578947368420294 0.1250000000003916 0
0.1315789473684054 0.1500000000004938 0
0.1578947368421271 0.1750000000005438 0
0.1315789473684859 0.2000000000006554 0
0.1578947368422249 0.2250000000006919 0
0.1315789473685663 0.2500000000008082 0
0.1578947368423226 0.2750000000006323 0
0.1315789473686468 0.300000000000533 0
0.1578947368424204 0.3250000000003653 0
0.1315789473687273 0.3500000000002492 0
0.1578947368425181 0.375000000000094 0
0.1315789473688078 0.3999999999999653 0
0.1578947368426159 0.4249999999998811 0
0.1315789473688882 0.4499999999998018 0
0.1578947368427136 0.4749999999999019 0
0.2105263157890673 0.02500000000007236 0
0.1842105263155088 0.05000000000015264 0
0.2105263157892023 0.07500000000021334 0
0.1842105263156252 0.1000000000002988 0
0.2105263157893373 0.1250000000003487 0
0.1842105263157415 0.1500000000004416 0
0.2105263157894724 0.1750000000004823 0
0.184210526315858 0.2000000000005846 0
0.2105263157896074 0.2250000000006122 0
0.1842105263159743 0.2500000000007195 0
0.2105263157897424 0.2750000000005559 0
0.1842105263160907 0.3000000000004687 0
0.2105263157898774 0.3250000000003136 0
0.1842105263162071 0.3500000000002101 0
0.2105263157900124 0.3750000000000676 0
0.1842105263163235 0.3999999999999514 0
0.2105263157901475 0.4249999999998761 0
0.1842105263164399 0.4499999999998058 0
0.2105263157902825 0.4749999999999039 0
0.2631578947363007 0.02500000000006444 0
0.2368421052627608 0.0500000000001368 0
0.2631578947364731 0.07500000000018864 0
0.2368421052629145 0.1000000000002652 0
0.2631578947366453 0.1250000000003059 0
0.2368421052630681 0.1500000000003894 0
0.2631578947368176 0.1750000000004208 0
0.2368421052632218 0.2000000000005137 0
0.2631578947369899 0.2250000000005325 0
0.2368421052633755 0.2500000000006309 0
0.2631578947371622 0.2750000000004795 0
0.2368421052635291 0.3000000000004045 0
0.2631578947373344 0.325000000000262 0
0.2368421052636827 0.3500000000001711 0
0.2631578947375067 0.3750000000000411 0
0.2368421052638364 0.3999999999999375 0
0.263157894737679 0.4249999999998712 0
0.23684210526399 0.4499999999998098 0
0.2631578947378512 0.4749999999999059 0
0.3157894736835342 0.02500000000005652 0
0.2894736842100129 0.05000000000012096 0
0.3157894736837437 0.07500000000016394 0
0.2894736842102039 0.1000000000002316 0
0.3157894736839533 0.125000000000263 0
0.2894736842103947 0.1500000000003373 0
0.3157894736841628 0.1750000000003593 0
0.2894736842105857 0.2000000000004429 0
0.3157894736843724 0.2250000000004528 0
0.2894736842107766 0.2500000000005423 0
0.3157894736845819 0.275000000000403 0
0.2894736842109675 0.3000000000003402 0
0.3157894736847914 0.3250000000002102 0
0.2894736842111583 0.350000000000132 0
0.3157894736850009 0.3750000000000145 0
0.2894736842113493 0.3999999999999236 0
0.3157894736852105 0.4249999999998663 0
0.2894736842115402 0.4499999999998139 0
0.31578947368542 0.4749999999999079 0
0.3684210526307676 0.02500000000004859 0
0.342105263157265 0.05000000000010511 0
0.3684210526310144 0.07500000000013923 0
0.3421052631574931 0.100000000000198 0
0.3684210526312612 0.1250000000002201 0
0.3421052631577213 0.1500000000002851 0
0.368421052631508 0.1750000000002978 0
0.3421052631579495 0.2000000000003721 0
0.3684210526317548 0.2250000000003731 0
0.3421052631581777 0.2500000000004537 0
0.3684210526320016 0.2750000000003266 0
0.3421052631584058 0.3000000000002759 0
0.3684210526322484 0.3250000000001586 0
0.342105263158634 0.3500000000000929 0
0.3684210526324953 0.3749999999999881 0
0.3421052631588622 0.3999999999999098 0
0.3684210526327421 0.4249999999998614 0
0.3421052631590903 0.449999999999818 0
0.3684210526329889 0.47499999999991 0
0.4210526315780011 0.02500000000004067 0
0.3947368421045171 0.05000000000008926 0
0.4210526315782852 0.07500000000011452 0
0.3947368421047824 0.1000000000001645 0
0.4210526315785692 0.1250000000001772 0
0.394736842105048 0.1500000000002328 0
0.4210526315788533 0.1750000000002363 0
0.3947368421053133 0.2000000000003013 0
0.4210526315791373 0.2250000000002934 0
0.3947368421055788 0.2500000000003652 0
0.4210526315794214 0.2750000000002502 0
0.3947368421058443 0.3000000000002117 0
0.4210526315797056 0.3250000000001069 0
0.3947368421061097 0.3500000000000538 0
0.4210526315799897 0.3749999999999616 0
0.3947368421063753 0.3999999999998959 0
0.4210526315802737 0.4249999999998565 0
0.3947368421066406 0.449999999999822 0
0.4210526315805578 0.4749999999999119 0
0.4736842105252345 0.02500000000003275 0
0.4473684210517692 0.05000000000007342 0
0.4736842105255559 0.07500000000008983 0
0.4473684210520719 0.1000000000001309 0
0.4736842105258772 0.1250000000001343 0
0.4473684210523746 0.1500000000001806 0
0.4736842105261985 0.1750000000001747 0
0.4473684210526773 0.2000000000002304 0
0.4736842105265199 0.2250000000002136 0
0.44736842105298 0.2500000000002766 0
0.4736842105268413 0.2750000000001738 0
0.4473684210532827 0.3000000000001474 0
0.4736842105271626 0.3250000000000552 0
0.4473684210535855 0.3500000000000147 0
0.4736842105274839 0.3749999999999351 0
0.4473684210538881 0.399999999999882 0
0.4736842105278053 0.4249999999998515 0
0.4473684210541909 0.449999999999826 0
0.4736842105281267 0.474999999999914 0
0.5263157894725923 0.02500000000002483 0
0.4999999999990724 0.05000000000005758 0
0.526315789472907 0.07500000000006513 0
0.4999999999993905 0.1000000000000974 0
0.5263157894732219 0.1250000000000915 0
0.4999999999997086 0.1500000000001284 0
0.5263157894735366 0.1750000000001132 0
0.5000000000000266 0.2000000000001596 0
0.5263157894738514 0.2250000000001339 0
0.5000000000003447 0.2500000000001879 0
0.5263157894741662 0.2750000000000973 0
0.5000000000006628 0.3000000000000831 0
0.526315789474481 0.3250000000000036 0
0.5000000000009808 0.3499999999999757 0
0.5263157894747957 0.3749999999999087 0
0.5000000000012988 0.3999999999998681 0
0.5263157894751106 0.4249999999998466 0
0.500000000001617 0.44999999999983 0
0.5263157894754253 0.474999999999916 0
0.5789473684200743 0.02500000000001691 0
0.5526315789464781 0.05000000000004174 0
0.5789473684203387 0.07500000000004041 0
0.5526315789467676 0.1000000000000638 0
0.578947368420603 0.1250000000000486 0
0.5526315789470573 0.1500000000000762 0
0.5789473684208675 0.1750000000000517 0
0.5526315789473468 0.2000000000000887 0
0.5789473684211319 0.2250000000000541 0
0.5526315789476365 0.2500000000000993 0
0.5789473684213963 0.2750000000000208 0
0.552631578947926 0.3000000000000189 0
0.5789473684216606 0.3249999999999519 0
0.5526315789482156 0.3499999999999366 0
0.5789473684219251 0.3749999999998821 0
0.5526315789485052 0.3999999999998542 0
0.5789473684221894 0.4249999999998416 0
0.5526315789487948 0.449999999999834 0
0.5789473684224538 0.474999999999918 0
0.6315789473675564 0.02500000000000899 0
0.605263157893935 0.0500000000000259 0
0.6315789473677704 0.07500000000001571 0
0.6052631578941741 0.1000000000000302 0
0.6315789473679844 0.1250000000000057 0
0.6052631578944133 0.150000000000024 0
0.6315789473681983 0.1749999999999901 0
0.6052631578946525 0.2000000000000178 0
0.6315789473684124 0.2249999999999744 0
0.6052631578948917 0.2500000000000107 0
0.6315789473686264 0.2749999999999444 0
0.605263157895131 0.2999999999999546 0
0.6315789473688405 0.3249999999999002 0
0.6052631578953701 0.3499999999998975 0
0.6315789473690544 0.3749999999998557 0
0.6052631578956094 0.3999999999998404 0
0.6315789473692683 0.4249999999998367 0
0.6052631578958484 0.449999999999838 0
0.6315789473694824 0.47499999999992 0
0.6842105263150385 0.02500000000000106 0
0.657894736841392 0.05000000000001005 0
0.6842105263152021 0.07499999999999099 0
0.6578947368415805 0.09999999999999665 0
0.6842105263153656 0.1249999999999628 0
0.6578947368417695 0.1499999999999718 0
0.6842105263155291 0.1749999999999287 0
0.6578947368419581 0.199999999999947 0
0.6842105263156928 0.2249999999998947 0
0.6578947368421469 0.2499999999999221 0
0.6842105263158564 0.274999999999868 0
0.6578947368423359 0.2999999999998903 0
0.6842105263160201 0.3249999999998485 0
0.6578947368425246 0.3499999999998584 0
0.6842105263161837 0.3749999999998292 0
0.6578947368427135 0.3999999999998265 0
0.6842105263163473 0.4249999999998317 0
0.6578947368429021 0.449999999999842 0
0.6842105263165108 0.474999999999922 0
0.7368421052625203 0.02499999999999314 0
0.7105263157888486 0.0499999999999942 0
0.7368421052626335 0.07499999999996629 0
0.710526315788987 0.09999999999996308 0
0.736842105262747 0.1249999999999199 0
0.7105263157891255 0.1499999999999196 0
0.73684210526286 0.1749999999998671 0
0.7105263157892637 0.1999999999998762 0
0.7368421052629732 0.2249999999998149 0
0.7105263157894022 0.2499999999998334 0
0.7368421052630866 0.2749999999997915 0
0.7105263157895408 0.299999999999826 0
0.7368421052631999 0.3249999999997968 0
0.7105263157896792 0.3499999999998193 0
0.7368421052633131 0.3749999999998027 0
0.7105263157898176 0.3999999999998126 0
0.7368421052634262 0.4249999999998268 0
0.7105263157899557 0.449999999999846 0
0.7368421052635394 0.474999999999924 0
0.7894736842100025 0.02499999999998521 0
0.7631578947363054 0.04999999999997835 0
0.7894736842100651 0.07499999999994157 0
0.7631578947363934 0.09999999999992951 0
0.789473684210128 0.124999999999877 0
0.7631578947364815 0.1499999999998674 0
0.7894736842101909 0.1749999999998056 0
0.7631578947365694 0.1999999999998053 0
0.7894736842102538 0.2249999999997352 0
0.7631578947366575 0.2499999999997448 0
0.7894736842103167 0.274999999999715 0
0.7631578947367458 0.2999999999997617 0
0.7894736842103796 0.3249999999997452 0
0.7631578947368338 0.3499999999997803 0
0.7894736842104423 0.3749999999997762 0
0.7631578947369215 0.3999999999997987 0
0.789473684210505 0.4249999999998219 0
0.7631578947370096 0.4499999999998501 0
0.789473684210568 0.474999999999926 0
0.8421052631574844 0.0249999999999773 0
0.8157894736837622 0.04999999999996251 0
0.8421052631574968 0.07499999999991686 0
0.8157894736837998 0.09999999999989592 0
0.8421052631575093 0.1249999999998341 0
0.8157894736838376 0.1499999999998152 0
0.8421052631575218 0.1749999999997441 0
0.8157894736838751 0.1999999999997345 0
0.8421052631575343 0.2249999999996555 0
0.8157894736839129 0.2499999999996562 0
0.8421052631575466 0.2749999999996386 0
0.8157894736839504 0.2999999999996975 0
0.842105263157559 0.3249999999996935 0
0.8157894736839881 0.3499999999997412 0
0.8421052631575714 0.3749999999997498 0
0.8157894736840255 0.3999999999997848 0
0.8421052631575838 0.424999999999817 0
0.8157894736840633 0.4499999999998541 0
0.8421052631575963 0.474999999999928 0
0.8947368421049775 0.02499999999996937 0
0.8684210526312299 0.04999999999994667 0
0.8947368421049614 0.07499999999989218 0
0.8684210526312283 0.09999999999986237 0
0.8947368421049453 0.1249999999997913 0
0.8684210526312264 0.149999999999763 0
0.8947368421049293 0.1749999999996826 0
0.8684210526312247 0.1999999999996636 0
0.8947368421049132 0.2249999999995758 0
0.8684210526312228 0.2499999999995676 0
0.8947368421048971 0.2749999999995622 0
0.8684210526312209 0.2999999999996332 0
0.8947368421048811 0.3249999999996418 0
0.8684210526312192 0.3499999999997021 0
0.894736842104865 0.3749999999997233 0
0.8684210526312173 0.3999999999997709 0
0.8947368421048489 0.424999999999812 0
0.8684210526312155 0.4499999999998581 0
0.894736842104833 0.47499999999993 0
0.9473684210524886 0.02499999999996146 0
0.921052631578727 0.04999999999993083 0
0.9473684210524806 0.07499999999986746 0
0.9210526315787151 0.09999999999982881 0
0.9473684210524729 0.1249999999997484 0
0.9210526315787031 0.1499999999997108 0
0.9473684210524647 0.1749999999996211 0
0.9210526315786909 0.1999999999995928 0
0.9473684210524564 0.224999999999496 0
0.9210526315786789 0.249999999999479 0
0.9473684210524485 0.2749999999994858 0
0.9210526315786668 0.2999999999995689 0
0.9473684210524405 0.3249999999995902 0
0.9210526315786548 0.349999999999663 0
0.9473684210524325 0.3749999999996968 0
0.9210526315786427 0.399999999999757 0
0.9473684210524244 0.4249999999998071 0
0.9210526315786307 0.4499999999998621 0
0.9473684210524165 0.474999999999932 0
0.9736842105262422 0.04999999999991499 0
0.9736842105262384 0.09999999999979522 0
0.9736842105262344 0.1499999999996586 0
0.9736842105262302 0.199999999999522 0
0.9736842105262262 0.2499999999993904 0
0.9736842105262222 0.2999999999995047 0
0.9736842105262182 0.3499999999996239 0
0.9736842105262142 0.3999999999997432 0
0.9736842105262102 0.4499999999998661 0
$EndNodes
$Elements
5 248 1 248
1 1 8 19
1 1 5 23 
2 5 6 24 
3 6 7 25 
4 7 8 26 
5 8 9 27 
6 9 10 28 
7 10 11 29 
8 11 12 30 
9 12 13 31 
10 13 14 32 
11 14 15 33 
12 15 16 34 
13 16 17 35 
14 17 18 36 
15 18 19 37 
16 19 20 38 
17 20 21 39 
18 21 22 40 
19 22 2 41 
1 2 8 10
20 2 42 51 
21 42 43 52 
22 43 44 53 
23 44 45 54 
24 45 46 55 
25 46 47 56 
26 47 48 57 
27 48 49 58 
28 49 50 59 
29 50 3 60 
1 3 8 19
30 3 61 79 
31 61 62 80 
32 62 63 81 
33 63 64 82 
34 64 65 83 
35 65 66 84 
36 66 67 85 
37 67 68 86 
38 68 69 87 
39 69 70 88 
40 70 71 89 
41 71 72 90 
42 72 73 91 
43 73 74 92 
44 74 75 93 
45 75 76 94 
46 76 77 95 
47 77 78 96 
48 78 4 97 
1 4 8 10
49 4 98 107 
50 98 99 108 
51 99 100 109 
52 100 101 110 
53 101 102 111 
54 102 103 112 
55 103 104 113 
56 104 105 114 
57 105 106 115 
58 106 1 116 
2 1 16 190
59 1 5 117 106 23 279 280 116 
60 106 117 118 105 280 281 282 115 
61 105 118 119 104 282 283 284 114 
62 104 119 120 103 284 285 286 113 
63 103 120 121 102 286 287 288 112 
64 102 121 122 101 288 289 290 111 
65 101 122 123 100 290 291 292 110 
66 100 123 124 99 292 293 294 109 
67 99 124 125 98 294 295 296 108 
68 98 125 78 4 296 297 97 107 
69 5 6 126 117 24 298 299 279 
70 117 126 127 118 299 300 301 281 
71 118 127 128 119 301 302 303 283 
72 119 128 129 120 303 304 305 285 
73 120 129 130 121 305 306 307 287 
74 121 130 131 122 307 308 309 289 
75 122 131 132 123 309 310 311 291 
76 123 132 133 124 311 312 313 293 
77 124 133 134 125 313 314 315 295 
78 125 134 77 78 315 316 96 297 
79 6 7 135 126 25 317 318 298 
80 126 135 136 127 318 319 320 300 
81 127 136 137 128 320 321 322 302 
82 128 137 138 129 322 323 324 304 
83 129 138 139 130 324 325 326 306 
84 130 139 140 131 326 327 328 308 
85 131 140 141 132 328 329 330 310 
86 132 141 142 133 330 331 332 312 
87 133 142 143 134 332 333 334 314 
88 134 143 76 77 334 335 95 316 
89 7 8 144 135 26 336 337 317 
90 135 144 145 136 337 338 339 319 
91 136 145 146 137 339 340 341 321 
92 137 146 147 138 341 342 343 323 
93 138 147 148 139 343 344 345 325 
94 139 148 149 140 345 346 347 327 
95 140 149 150 141 347 348 349 329 
96 141 150 151 142 349 350 351 331 
97 142 151 152 143 351 352 353 333 
98 143 152 75 76 353 354 94 335 
99 8 9 153 144 27 355 356 336 
100 144 153 154 145 356 357 358 338 
101 145 154 155 146 358 359 360 340 
102 146 155 156 147 360 361 362 342 
103 147 156 157 148 362 363 364 344 
104 148 157 158 149 364 365 366 346 
105 149 158 159 150 366 367 368 348 
106 150 159 160 151 368 369 370 350 
107 151 160 161 152 370 371 372 352 
108 152 161 74 75 372 373 93 354 
109 9 10 162 153 28 374 375 355 
110 153 162 163 154 375 376 377 357 
111 154 163 164 155 377 378 379 359 
112 155 164 165 156 379 380 381 361 
113 156 165 166 157 381 382 383 363 
114 157 166 167 158 383 384 385 365 
115 158 167 168 159 385 386 387 367 
116 159 168 169 160 387 388 389 369 
117 160 169 170 161 389 390 391 371 
118 161 170 73 74 391 392 92 373 
119 10 11 171 162 29 393 394 374 
120 162 171 172 163 394 395 396 376 
121 163 172 173 164 396 397 398 378 
122 164 173 174 165 398 399 400 380 
123 165 174 175 166 400 401 402 382 
124 166 175 176 167 402 403 404 384 
125 167 176 177 168 404 405 406 386 
126 168 177 178 169 406 407 408 388 
127 169 178 179 170 408 409 410 390 
128 170 179 72 73 410 411 91 392 
129 11 12 180 171 30 412 413 393 
130 171 180 181 172 413 414 415 395 
131 172 181 182 173 415 416 417 397 
132 173 182 183 174 417 418 419 399 
133 174 183 184 175 419 420 421 401 
134 175 184 185 176 421 422 423 403 
135 176 185 186 177 423 424 425 405 
136 177 186 187 178 425 426 427 407 
137 178 187 188 179 427 428 429 409 
138 179 188 71 72 429 430 90 411 
139 12 13 189 180 31 431 432 412 
140 180 189 190 181 432 433 434 414 
141 181 190 191 182 434 435 436 416 
142 182 191 192 183 436 437 438 418 
143 183 192 193 184 438 439 440 420 
144 184 193 194 185 440 441 442 422 
145 185 194 195 186 442 443 444 424 
146 186 195 196 187 444 445 446 426 
147 187 196 197 188 446 447 448 428 
148 188 197 70 71 448 449 89 430 
149 13 14 198 189 32 450 451 431 
150 189 198 199 190 451 452 453 433 
151 190 199 200 191 453 454 455 435 
152 191 200 201 192 455 456 457 437 
153 192 201 202 193 457 458 459 439 
154 193 202 203 194 459 460 461 441 
155 194 203 204 195 461 462 463 443 
156 195 204 205 196 463 464 465 445 
157 196 205 206 197 465 466 467 447 
158 197 206 69 70 467 468 88 449 
159 14 15 207 198 33 469 470 450 
160 198 207 208 199 470 471 472 452 
161 199 208 209 200 472 473 474 454 
162 200 209 210 201 474 475 476 456 
163 201 210 211 202 476 477 478 458 
164 202 211 212 203 478 479 480 460 
165 203 212 213 204 480 481 482 462 
166 204 213 214 205 482 483 484 464 
167 205 214 215 206 484 485 486 466 
168 206 215 68 69 486 487 87 468 
169 15 16 216 207 34 488 489 469 
170 207 216 217 208 489 490 491 471 
171 208 217 218 209 491 492 493 473 
172 209 218 219 210 493 494 495 475 
173 210 219 220 211 495 496 497 477 
174 211 220 221 212 497 498 499 479 
175 212 221 222 213 499 500 501 481 
176 213 222 223 214 501 502 503 483 
177 214 223 224 215 503 504 505 485 
178 215 224 67 68 505 506 86 487 
179 16 17 225 216 35 507 508 488 
180 216 225 226 217 508 509 510 490 
181 217 226 227 218 510 511 512 492 
182 218 227 228 219 512 513 514 494 
183 219 228 229 220 514 515 516 496 
184 220 229 230 221 516 517 518 498 
185 221 230 231 222 518 519 520 500 
186 222 231 232 223 520 521 522 502 
187 223 232 233 224 522 523 524 504 
188 224 233 66 67 524 525 85 506 
189 17 18 234 225 36 526 527 507 
190 225 234 235 226 527 528 529 509 
191 226 235 236 227 529 530 531 511 
192 227 236 237 228 531 532 533 513 
193 228 237 238 229 533 534 535 515 
194 229 238 239 230 535 536 537 517 
195 230 239 240 231 537 538 539 519 
196 231 240 241 232 539 540 541 521 
197 232 241 242 233 541 542 543 523 
198 233 242 65 66 543 544 84 525 
199 18 19 243 234 37 545 546 526 
200 234 243 244 235 546 547 548 528 
201 235 244 245 236 548 549 550 530 
202 236 245 246 237 550 551 552 532 
203 237 246 247 238 552 553 554 534 
204 238 247 248 239 554 555 556 536 
205 239 248 249 240 556 557 558 538 
206 240 249 250 241 558 559 560 540 
207 241 250 251 242 560 561 562 542 
208 242 251 64 65 562 563 83 544 
209 19 20 252 243 38 564 565 545 
210 243 252 253 244 565 566 567 547 
211 244 253 254 245 567 568 569 549 
212 245 254 255 246 569 570 571 551 
213 246 255 256 247 571 572 573 553 
214 247 256 257 248 573 574 575 555 
215 248 257 258 249 575 576 577 557 
216 249 258 259 250 577 578 579 559 
217 250 259 260 251 579 580 581 561 
218 251 260 63 64 581 582 82 563 
219 20 21 261 252 39 583 584 564 
220 252 261 262 253 584 585 586 566 
221 253 262 263 254 586 587 588 568 
222 254 263 264 255 588 589 590 570 
223 255 264 265 256 590 591 592 572 
224 256 265 266 257 592 593 594 574 
225 257 266 267 258 594 595 596 576 
226 258 267 268 259 596 597 598 578 
227 259 268 269 260 598 599 600 580 
228 260 269 62 63 600 601 81 582 
229 21 22 270 261 40 602 603 583 
230 261 270 271 262 603 604 605 585 
231 262 271 272 263 605 606 607 587 
232 263 272 273 264 607 608 609 589 
233 264 273 274 265 609 610 611 591 
234 265 274 275 266 611 612 613 593 
235 266 275 276 267 613 614 615 595 
236 267 276 277 268 615 616 617 597 
237 268 277 278 269 617 618 619 599 
238 269 278 61 62 619 620 80 601 
239 22 2 42 270 41 51 621 602 
240 270 42 43 271 621 52 622 604 
241 271 43 44 272 622 53 623 606 
242 272 44 45 273 623 54 624 608 
243 273 45 46 274 624 55 625 610 
244 274 46 47 275 625 56 626 612 
245 275 47 48 276 626 57 627 614 
246 276 48 49 277 627 58 628 616 
247 277 49 50 278 628 59 629 618 
248 278 50 3 61 629 60 79 620 
$EndElements
