$MeshFormat
4.1 0 8
$EndMeshFormat
$PhysicalNames
5
1 5 "plate_clamp"
2 2 "plate"
2 3 "outer"
2 4 "rigid_walls"
3 1 "fluid"
$EndPhysicalNames
$Entities
22 36 20 2
1 0 0 0.03 0 
2 0 0.03 0 0 
3 0.03 0 0 0 
4 0 0 -0.03 0 
5 0 -0.03 0 0 
6 -0.03 0 0 0 
7 -0.005 0 -0.01 0 
8 0 -0.005 -0.01 0 
9 0 -0.005 0.01 0 
10 -0.005 0 0.01 0 
11 0 0.005 0.01 0 
12 0 0.005 -0.01 0 
13 0.005 0 -0.01 0 
14 0.005 0 0.01 0 
15 -0.005 0 -0.01 0 
16 -0.005 0 0.01 0 
17 0 0.005 0.01 0 
18 0 0.005 -0.01 0 
19 0 -0.005 0.01 0 
20 0.005 0 0.01 0 
21 0 -0.005 -0.01 0 
22 0.005 0 -0.01 0 
1 -1e-07 -9.999999999940612e-08 -9.99999999976714e-08 1.000000000012989e-07 0.03000010000000001 0.03000010000000001 0 2 1 -2 
2 -9.999999999940612e-08 -1e-07 -9.99999999976714e-08 0.03000010000000001 1.000000000012989e-07 0.03000010000000001 0 2 1 -3 
3 -9.999999999940612e-08 -9.99999999976714e-08 -1e-07 0.03000010000000001 0.03000010000000001 1.000000000012989e-07 0 2 2 -3 
4 -1e-07 -9.999999999940612e-08 -0.03000010000000001 1.000000000012989e-07 0.03000010000000001 9.99999999976714e-08 0 2 4 -2 
5 -9.999999999940612e-08 -1e-07 -0.03000010000000001 0.03000010000000001 1.000000000012989e-07 9.99999999976714e-08 0 2 4 -3 
6 -1e-07 -0.03000010000000001 -9.999999999940612e-08 1.000000000012989e-07 9.99999999976714e-08 0.03000010000000001 0 2 5 -1 
7 -9.999999999940612e-08 -0.03000010000000001 -1e-07 0.03000010000000001 9.99999999976714e-08 1.000000000012989e-07 0 2 5 -3 
8 -1e-07 -0.03000010000000001 -0.03000010000000001 1.000000000012989e-07 9.99999999976714e-08 9.999999999940612e-08 0 2 5 -4 
9 -0.03000010000000001 -1e-07 -9.999999999940612e-08 9.99999999976714e-08 1.000000000012989e-07 0.03000010000000001 0 2 6 -1 
10 -0.03000010000000001 -9.999999999940612e-08 -1e-07 9.99999999976714e-08 0.03000010000000001 1.000000000012989e-07 0 2 6 -2 
11 -0.03000010000000001 -1e-07 -0.03000010000000001 9.99999999976714e-08 1.000000000012989e-07 9.999999999940612e-08 0 2 6 -4 
12 -0.03000010000000001 -0.03000010000000001 -1e-07 9.99999999976714e-08 9.999999999940612e-08 1.000000000012989e-07 0 2 6 -5 
13 -0.0050001 -0.0050001 -0.0100001 9.99999999998398e-08 9.99999999998398e-08 -0.009999900000000001 1 5 2 7 -8 
14 -1e-07 -0.0050001 -0.0100001 1e-07 -0.0049999 0.0100001 0 2 8 -9 
15 -0.0050001 -0.0050001 0.009999900000000003 9.99999999998398e-08 9.99999999998398e-08 0.0100001 1 5 2 10 -9 
16 -0.0050001 -1e-07 -0.0100001 -0.0049999 1e-07 0.0100001 0 2 7 -10 
17 -0.0050001 -9.99999999998398e-08 0.009999900000000003 9.99999999998398e-08 0.0050001 0.0100001 1 5 2 11 -10 
18 -1e-07 0.0049999 -0.0100001 1e-07 0.0050001 0.0100001 0 2 12 -11 
19 -0.0050001 -9.99999999998398e-08 -0.0100001 9.99999999998398e-08 0.0050001 -0.009999900000000001 1 5 2 12 -7 
20 -9.99999999998398e-08 -0.0050001 -0.0100001 0.0050001 9.99999999998398e-08 -0.009999900000000001 1 5 2 8 -13 
21 -9.99999999998398e-08 -9.99999999998398e-08 -0.0100001 0.0050001 0.0050001 -0.009999900000000001 1 5 2 13 -12 
22 -9.99999999998398e-08 -9.99999999998398e-08 0.009999900000000003 0.0050001 0.0050001 0.0100001 1 5 2 14 -11 
23 -9.99999999998398e-08 -0.0050001 0.009999900000000003 0.0050001 9.99999999998398e-08 0.0100001 1 5 2 9 -14 
24 0.0049999 -1e-07 -0.0100001 0.0050001 1e-07 0.0100001 0 2 13 -14 
25 -0.0050001 -1e-07 -0.0100001 -0.0049999 1e-07 0.0100001 0 2 15 -16 
26 -0.0050001 -9.99999999998398e-08 0.009999900000000003 9.99999999998398e-08 0.0050001 0.0100001 1 5 2 17 -16 
27 -1e-07 0.0049999 -0.0100001 1e-07 0.0050001 0.0100001 0 2 18 -17 
28 -0.0050001 -9.99999999998398e-08 -0.0100001 9.99999999998398e-08 0.0050001 -0.009999900000000001 1 5 2 18 -15 
29 -0.0050001 -0.0050001 0.009999900000000003 9.99999999998398e-08 9.99999999998398e-08 0.0100001 1 5 2 16 -19 
30 -9.99999999998398e-08 -0.0050001 0.009999900000000003 0.0050001 9.99999999998398e-08 0.0100001 1 5 2 19 -20 
31 -9.99999999998398e-08 -9.99999999998398e-08 0.009999900000000003 0.0050001 0.0050001 0.0100001 1 5 2 20 -17 
32 -1e-07 -0.0050001 -0.0100001 1e-07 -0.0049999 0.0100001 0 2 21 -19 
33 -9.99999999998398e-08 -0.0050001 -0.0100001 0.0050001 9.99999999998398e-08 -0.009999900000000001 1 5 2 21 -22 
34 0.0049999 -1e-07 -0.0100001 0.0050001 1e-07 0.0100001 0 2 22 -20 
35 -9.99999999998398e-08 -9.99999999998398e-08 -0.0100001 0.0050001 0.0050001 -0.009999900000000001 1 5 2 22 -18 
36 -0.0050001 -0.0050001 -0.0100001 9.99999999998398e-08 9.99999999998398e-08 -0.009999900000000001 1 5 2 15 -21 
1 -0.01500021995059679 -0.01500021995059679 -9.999999999940612e-08 0.03000033990503047 0.03000033990503047 0.04242684614814066 1 3 3 -1 2 -3 
2 -0.01500021995059679 -0.01500021995059678 -0.04242684614814064 0.03000033990503047 0.03000033990503048 9.999999999593667e-08 1 3 3 4 3 -5 
3 -0.01500021995059679 -0.03000033990503048 -9.999999999940612e-08 0.03000033990503047 0.01500021995059678 0.04242684614814066 1 3 3 -6 7 -2 
4 -0.01500021995059679 -0.03000033990503048 -0.04242684614814064 0.03000033990503047 0.01500021995059678 9.999999999593667e-08 1 3 3 8 5 -7 
5 -0.03000033990503047 -0.01500021995059679 -9.999999999940612e-08 0.01500021995059679 0.03000033990503047 0.04242684614814066 1 3 3 9 1 -10 
6 -0.03000033990503048 -0.01500021995059679 -0.04242684614814064 0.01500021995059678 0.03000033990503047 9.999999999593667e-08 1 3 3 -11 10 -4 
7 -0.03000033990503048 -0.03000033990503047 -9.999999999940612e-08 0.01500021995059678 0.01500021995059679 0.04242684614814066 1 3 3 12 6 -9 
8 -0.03000033990503048 -0.03000033990503047 -0.04242684614814064 0.01500021995059678 0.01500021995059679 9.999999999593667e-08 1 3 3 -12 11 -8 
9 -0.0050001 -0.0050001 -0.0100001 9.99999999998398e-08 1.000000000015745e-07 0.0100001 1 2 4 13 14 -15 -16 
10 -0.0050001 -1.000000000002735e-07 -0.0100001 1.000000000002735e-07 0.0050001 0.0100001 1 2 4 -17 -18 19 16 
11 -0.0050001 -0.0050001 -0.0100001 0.0050001 0.0050001 -0.009999900000000001 1 4 4 13 20 21 19 
12 -0.0050001 -0.0050001 0.009999900000000001 0.0050001 0.0050001 0.0100001 1 4 4 23 22 17 15 
13 -1.000000000020082e-07 -0.0050001 -0.0100001 0.0050001 9.99999999998398e-08 0.0100001 1 2 4 20 24 -23 -14 
14 -1.000000000007072e-07 -1.000000000007072e-07 -0.0100001 0.0050001 0.0050001 0.0100001 1 2 4 -22 -24 21 18 
15 -0.0050001 -1.000000000002735e-07 -0.0100001 1.000000000002735e-07 0.0050001 0.0100001 1 2 4 25 -26 -27 28 
16 -0.0050001 -0.0050001 0.009999900000000001 0.0050001 0.0050001 0.0100001 1 4 4 29 30 31 26 
17 -1.000000000020082e-07 -0.0050001 -0.0100001 0.0050001 9.99999999998398e-08 0.0100001 1 2 4 -32 33 34 -30 
18 -1.000000000007072e-07 -1.000000000007072e-07 -0.0100001 0.0050001 0.0050001 0.0100001 1 2 4 27 -31 -34 35 
19 -0.0050001 -0.0050001 -0.0100001 0.0050001 0.0050001 -0.009999900000000001 1 4 4 33 35 28 36 
20 -0.0050001 -0.0050001 -0.0100001 9.99999999998398e-08 1.000000000015745e-07 0.0100001 1 2 4 -25 36 32 -29 
1 -0.03000033990503048 -0.03000033990503048 -0.04242684614814063 0.03000033990503047 0.03000033990503048 0.04242684614814066 1 1 14 1 2 3 4 5 6 7 8 -9 -10 11 -12 -13 -14 
2 -0.0050001 -0.0050001 -0.0100001 0.0050001 0.0050001 0.0100001 0 6 15 16 17 18 -19 20 
$EndEntities
$Nodes
79 268 1 268
0 1 0 1
1
0 0 0.03
0 2 0 1
2
0 0.03 0
0 3 0 1
3
0.03 0 0
0 4 0 1
4
0 0 -0.03
0 5 0 1
5
0 -0.03 0
0 6 0 1
6
-0.03 0 0
0 7 0 1
7
-0.005 0 -0.01
0 8 0 1
8
0 -0.005 -0.01
0 9 0 1
9
0 -0.005 0.01
0 10 0 1
10
-0.005 0 0.01
0 11 0 1
11
0 0.005 0.01
0 12 0 1
12
0 0.005 -0.01
0 13 0 1
13
0.005 0 -0.01
0 14 0 1
14
0.005 0 0.01
0 15 0 1
15
-0.005 0 -0.01
0 16 0 1
16
-0.005 0 0.01
0 17 0 1
17
0 0.005 0.01
0 18 0 1
18
0 0.005 -0.01
0 19 0 1
19
0 -0.005 0.01
0 20 0 1
20
0.005 0 0.01
0 21 0 1
21
0 -0.005 -0.01
0 22 0 1
22
0.005 0 -0.01
1 1 0 3
23
24
25
3.982050801397177e-19 0.01148050281566535 0.02771638603966073
5.380361143677914e-19 0.02121320343559644 0.02121320343559642
3.982050801397183e-19 0.02771638603966073 0.01148050281566538
1 2 0 3
26
27
28
0.01148050281566535 3.982050801397177e-19 0.02771638603966073
0.02121320343559644 5.380361143677914e-19 0.02121320343559642
0.02771638603966073 3.982050801397183e-19 0.01148050281566538
1 3 0 3
29
30
31
0.01148050281566535 0.02771638603966073 3.982050801397177e-19
0.02121320343559644 0.02121320343559642 5.380361143677914e-19
0.02771638603966073 0.01148050281566538 3.982050801397183e-19
1 4 0 3
32
33
34
3.982050801397177e-19 0.01148050281566535 -0.02771638603966073
5.380361143677914e-19 0.02121320343559644 -0.02121320343559642
3.982050801397183e-19 0.02771638603966073 -0.01148050281566538
1 5 0 3
35
36
37
0.01148050281566535 3.982050801397177e-19 -0.02771638603966073
0.02121320343559644 5.380361143677914e-19 -0.02121320343559642
0.02771638603966073 3.982050801397183e-19 -0.01148050281566538
1 6 0 3
38
39
40
3.982050801397177e-19 -0.02771638603966073 0.01148050281566535
5.380361143677914e-19 -0.02121320343559642 0.02121320343559644
3.982050801397183e-19 -0.01148050281566538 0.02771638603966073
1 7 0 3
41
42
43
0.01148050281566535 -0.02771638603966073 3.982050801397177e-19
0.02121320343559644 -0.02121320343559642 5.380361143677914e-19
0.02771638603966073 -0.01148050281566538 3.982050801397183e-19
1 8 0 3
44
45
46
3.982050801397177e-19 -0.02771638603966073 -0.01148050281566535
5.380361143677914e-19 -0.02121320343559642 -0.02121320343559644
3.982050801397183e-19 -0.01148050281566538 -0.02771638603966073
1 9 0 3
47
48
49
-0.02771638603966073 3.982050801397177e-19 0.01148050281566535
-0.02121320343559642 5.380361143677914e-19 0.02121320343559644
-0.01148050281566538 3.982050801397183e-19 0.02771638603966073
1 10 0 3
50
51
52
-0.02771638603966073 0.01148050281566535 3.982050801397177e-19
-0.02121320343559642 0.02121320343559644 5.380361143677914e-19
-0.01148050281566538 0.02771638603966073 3.982050801397183e-19
1 11 0 3
53
54
55
-0.02771638603966073 3.982050801397177e-19 -0.01148050281566535
-0.02121320343559642 5.380361143677914e-19 -0.02121320343559644
-0.01148050281566538 3.982050801397183e-19 -0.02771638603966073
1 12 0 3
56
57
58
-0.02771638603966073 -0.01148050281566535 3.982050801397177e-19
-0.02121320343559642 -0.02121320343559644 5.380361143677914e-19
-0.01148050281566538 -0.02771638603966073 3.982050801397183e-19
1 13 0 1
59
-0.003535533905932739 -0.003535533905932737 -0.01
1 14 0 1
60
0 -0.005 -3.122502256758253e-17
1 15 0 1
61
-0.003535533905932739 -0.003535533905932737 0.01
1 16 0 1
62
-0.005 0 -3.122502256758253e-17
1 17 0 1
63
-0.003535533905932737 0.003535533905932739 0.01
1 18 0 1
64
0 0.005 -3.122502256758253e-17
1 19 0 1
65
-0.003535533905932737 0.003535533905932739 -0.01
1 20 0 1
66
0.003535533905932737 -0.003535533905932739 -0.01
1 21 0 1
67
0.003535533905932739 0.003535533905932737 -0.01
1 22 0 1
68
0.003535533905932739 0.003535533905932737 0.01
1 23 0 1
69
0.003535533905932737 -0.003535533905932739 0.01
1 24 0 1
70
0.005 0 -3.122502256758253e-17
1 25 0 1
71
-0.005 0 -3.122502256758253e-17
1 26 0 1
72
-0.003535533905932737 0.003535533905932739 0.01
1 27 0 1
73
0 0.005 -3.122502256758253e-17
1 28 0 1
74
-0.003535533905932737 0.003535533905932739 -0.01
1 29 0 1
75
-0.003535533905932739 -0.003535533905932737 0.01
1 30 0 1
76
0.003535533905932737 -0.003535533905932739 0.01
1 31 0 1
77
0.003535533905932739 0.003535533905932737 0.01
1 32 0 1
78
0 -0.005 -3.122502256758253e-17
1 33 0 1
79
0.003535533905932737 -0.003535533905932739 -0.01
1 34 0 1
80
0.005 0 -3.122502256758253e-17
1 35 0 1
81
0.003535533905932739 0.003535533905932737 -0.01
1 36 0 1
82
-0.003535533905932739 -0.003535533905932737 -0.01
2 1 0 7
83
84
85
86
87
88
89
0.01218532855498466 0.01783546328215251 0.0208185978758913
0.0249040962624213 0.01194533418877095 0.01170875657235362
0.01851843393822755 0.02078334309205397 0.01118571653464698
0.01791279749103072 0.009958047411538344 0.02190819430703678
0.007661758449269537 0.02238868851830075 0.01844028426829575
0.01082054217753605 0.007189359404025751 0.02704124587262781
0.01021760324121903 0.02600649773950277 0.0109207444494534
2 2 0 8
90
91
92
93
94
95
96
97
0.008808765305285123 0.01762136698004765 -0.02262505424415358
0.02360083470648236 0.01191795570922579 -0.0141761395616095
0.01443113824558937 0.0232969954530132 -0.01220623823292706
0.01631414522781118 0.0148648115835827 -0.02031959748790491
0.008646676094816909 0.02351477211910899 -0.01650122676341661
0.006768828571602625 0.01096187800745231 -0.0270928069848436
0.009809980375215886 0.02736319292630331 -0.007417543927459
0.02743936355558706 0.008566472745592413 -0.008584688250795331
2 3 0 7
98
99
100
101
102
103
104
0.01263191142546591 -0.02485454649350643 0.01107638624919296
0.02114309744839612 -0.01203340670285722 0.01755467326415552
0.01198531666869124 -0.01831236392012524 0.02051851632082807
0.0222167548218291 -0.01788356148100368 0.009305591541750322
0.01866896660524443 -0.007341024169734311 0.02230648000092452
0.02703905302031888 -0.01098919804771579 0.006937372559727817
0.01128476288533341 -0.009663411098360322 0.02606285887169496
2 4 0 7
105
106
107
108
109
110
111
0.01203252942347163 -0.02108560208555941 -0.01762429063431327
0.02486602270157519 -0.01261128682742397 -0.01107413019433989
0.0182961211968507 -0.01192776802635347 -0.02056648484937692
0.01789285820095161 -0.02220063233072433 -0.009326175503207945
0.007318143184072564 -0.01860901051110087 -0.02236402262865851
0.01099553708123787 -0.02703320466986039 -0.006950108601494056
0.009640411222394658 -0.01123412941865815 -0.02609323298612051
2 5 0 7
112
113
114
115
116
117
118
-0.02108560208551067 0.01203252942350826 0.01762429063434658
-0.01261128682745398 0.02486602270173599 0.01107413019394465
-0.01192776802653644 0.01829612119716428 0.02056648484899185
-0.02220063233070039 0.01789285820099134 0.00932617550318874
-0.01860901051104008 0.00731814318406879 0.02236402262871034
-0.02703320466982798 0.01099553708122714 0.006950108601637094
-0.01123412941873586 0.009640411222531845 0.02609323298603637
2 6 0 7
119
120
121
122
123
124
125
-0.02347641445432935 0.01350223977476979 -0.01290532779255067
-0.01341774849668648 0.02351397433513408 -0.01292505459355293
-0.0130559078034342 0.01314694607009224 -0.02359451377880699
-0.0173378746437607 0.01743305985571767 -0.01718972154818701
-0.02739424246294596 0.008933769033909378 -0.008351242466249569
-0.008931452284545333 0.02738837969017188 -0.00837292171442384
-0.00837153776408848 0.008398595096165425 -0.02755686767169133
2 7 0 7
126
127
128
129
130
131
132
-0.02485454650682479 -0.01263191142004278 0.01107638622549234
-0.01203340671760286 -0.02114309745418977 0.01755467324706969
-0.01831236393310862 -0.01198531667270295 0.02051851630689733
-0.01788356148818864 -0.02221675482166319 0.00930559152833833
-0.007341024173862452 -0.0186689666157261 0.02230647999079353
-0.01098919804833104 -0.02703905302173878 0.00693737255321899
-0.009663411096208422 -0.01128476289665508 0.02606285886759074
2 8 0 7
133
134
135
136
137
138
139
-0.02108560208403828 -0.01203252942670965 -0.01762429063392248
-0.01261128682589499 -0.02486602270395891 -0.01107413019072864
-0.011927768021661 -0.01829612120420006 -0.02056648484556033
-0.02220063232983454 -0.01789285820257013 -0.009326175502220859
-0.01860901050884449 -0.007318143187964999 -0.02236402262926231
-0.0270332046696352 -0.01099553708193691 -0.006950108601264024
-0.01123412940906839 -0.00964041123228431 -0.02609323298659543
2 9 0 0
2 10 0 0
2 11 0 3
140
141
142
2.718843568979938e-06 2.833200481196143e-05 -0.01
-0.001457142458256634 -0.001467499701573715 -0.01
0.001496121170506409 0.001524048408958258 -0.01
2 12 0 3
143
144
145
2.718843568979938e-06 2.833200481196143e-05 0.01
-0.001457142458256634 -0.001467499701573715 0.01
0.001496121170506409 0.001524048408958258 0.01
2 13 0 0
2 14 0 0
2 15 0 0
2 16 0 3
146
147
148
2.718847928131433e-06 2.833200351922815e-05 0.01
0.001496121171341806 0.001524048407469627 0.01
-0.00145714242514055 -0.00146749969240148 0.01
2 17 0 0
2 18 0 0
2 19 0 3
149
150
151
2.718847928131433e-06 2.833200351922815e-05 -0.01
0.001496121171341806 0.001524048407469627 -0.01
-0.00145714242514055 -0.00146749969240148 -0.01
2 20 0 0
3 1 0 117
152
153
154
155
156
157
158
159
160
161
162
163
164
165
166
167
168
169
170
171
172
173
174
175
176
177
178
179
180
181
182
183
184
185
186
187
188
189
190
191
192
193
194
195
196
197
198
199
200
201
202
203
204
205
206
207
208
209
210
211
212
213
214
215
216
217
218
219
220
221
222
223
224
225
226
227
228
229
230
231
232
233
234
235
236
237
238
239
240
241
242
243
244
245
246
247
248
249
250
251
252
253
254
255
256
257
258
259
260
261
262
263
264
265
266
267
268
0.01579409531495838 0.01115451701529124 0.004703210110037968
0.01353839709517732 0.01125082689941224 0.01411570750712961
0.01648934406718164 0.004189394701196805 0.0141696867673127
0.01299543493799488 0.003738219930813689 0.0209357824820635
0.01265860412816032 0.01989077043334976 0.00458210625763244
0.004189450297488528 0.01528727961792019 0.01827099593182923
0.003796405241872796 0.02048573088616428 0.005091827893086314
0.004054385767653452 0.003325016667303201 0.01938001757958146
0.008697703287188455 0.009910316724547502 0.02009349780192556
0.007508835893557901 0.01442573073725899 0.01322213063258934
0.003124046956732536 0.01837800416798827 0.01351201283857705
0.02245595814074503 0.004668605128928212 0.004777240734714957
0.01333761566887043 0.01253691753316964 -0.01017922347643112
0.01035203804547605 0.01724194350896857 -0.01547260745303399
0.01337604585053316 0.005017339391957923 -0.01634972741511072
0.009831459155053885 0.01772889301244162 -0.004758993274197892
0.01660485636750473 0.007703487169495202 -0.00512909377795851
0.008191281533103258 0.008206466550454183 -0.0191055775358967
0.02107849554184815 0.004528454800569908 -0.01153193992180498
0.004107463802810749 0.005155726161773171 -0.02357219062226037
0.003792055262088656 0.02110555163093649 -0.004277660177760536
0.003559254978559306 0.01828248357357132 -0.01542848394005619
0.02204961631745735 0.00428592045306487 -0.004783813377612596
0.00355591926625642 0.01316794675060283 -0.02130067056984273
0.006094897744016043 0.01816552193289158 -0.0100002304643449
0.004479447877083642 -0.01577632079659964 0.01352924235181732
0.01305677969113336 -0.0136062402050697 0.01261999892361149
0.01222253544513887 -0.01566244373790802 0.003691589253419166
0.01757571782375876 -0.01087538221884122 0.003795891192883423
0.004444503459848135 -0.01097970515589639 0.01870588009505697
0.01857642703158018 -0.003951942369275921 0.0157272673096665
0.02091579437342487 -0.004288938879328703 0.004084988791304353
0.004718906679405449 -0.004334727347797824 0.02253733346386674
0.02100352233450711 -0.008781155679870518 0.008348933614536409
0.01364165330388893 -0.009921644352723235 0.0186102358457359
0.01339123985820383 -0.003623638607608052 0.02092651047052151
0.004137257224381799 -0.01829360379974889 0.005257335908886948
0.01629432046798883 -0.004498566146817411 -0.01330376812997056
0.01354262295035982 -0.01291564466193407 -0.01258077346543786
0.01506340484133659 -0.01192859118289498 -0.003757075390737518
0.01279986887005128 -0.02068412640362743 -0.003621519815136098
0.01248708185475052 -0.004904581701785073 -0.01960377658706938
0.003932495416876628 -0.01854661348619197 -0.0157587561736289
0.004076005057844985 -0.01866754319796564 -0.004184605880190701
0.004323446893094443 -0.004698146191363903 -0.02251609205216202
0.008781509981628325 -0.02097451617411547 -0.008362128552631368
0.009137294559414947 -0.01229596764076376 -0.01799908532769642
0.003610997327778589 -0.01336915891030368 -0.02095682042574247
0.02095778226418076 -0.004536176257808899 -0.004890878731381517
-0.00457969900803954 0.01590600689820737 0.01346910924265152
-0.01308928480087067 0.01379843043999861 0.01260692602186765
-0.01415974495758864 0.01885634647122311 0.003940195419357885
-0.01773725870979692 0.01085881587729873 0.003798210767174909
-0.004904581701774127 0.01248708185477847 0.01960377658694148
-0.01854661348615654 0.003932495416869455 0.01575875617364481
-0.02099002441179911 0.004247917661202889 0.004102717971744791
-0.004674630219423751 0.004282805374878285 0.02286001708914522
-0.02097451617414895 0.00878150998165143 0.008362128552612426
-0.01230884222429676 0.009156270684884341 0.0180010248947634
-0.01336915891031041 0.003610997327810255 0.02095682042573813
-0.004292301823033804 0.01832172098404259 0.005291276810486602
-0.00805945691247539 0.01354987536632346 -0.01513736843911342
-0.01345110407317521 0.008076971119698451 -0.0151094052272952
-0.01104107303640311 0.004555321113852385 -0.0210815263511566
-0.004340966202008978 0.01099868052487781 -0.0211872388015183
-0.01720883514694266 0.008897832232119082 -0.005203521451998168
-0.003436322811371335 0.0175337974065538 -0.004627848263702983
-0.022035350449401 0.003753852642466373 -0.004299708031381192
-0.00397271368125217 0.003983938010092849 -0.02307857760296452
-0.01959966096238096 0.004391499758065075 -0.01073142261447203
-0.004713690596056565 0.02099079359275922 -0.01098234389998851
-0.01553215134614545 0.01538173855509496 -0.009227359458633047
-0.009550660852125895 0.01762812438473179 -0.005199821337045745
-0.01589932067445584 -0.004502817763099484 0.01351701347221657
-0.01359079177752876 -0.01305878754828234 0.01262341256162593
-0.01534183940276109 -0.01222852079846964 0.003749255144608289
-0.01278691878943178 -0.02067984870429988 0.003616467137111603
-0.01090120372359646 -0.004351542150323117 0.01833085052000112
-0.003951942375817473 -0.01857642703361159 0.01572726730150094
-0.004166148530986745 -0.01859269628729188 0.004266338554548297
-0.003329419772824558 -0.003613403465357952 0.01818693137591441
-0.008781155684368474 -0.02100352233805367 0.008348933605223138
-0.009921644357792454 -0.01364165330925777 0.01861023583298712
-0.003623638609024061 -0.01339123986309269 0.02092651046612166
-0.01875519750276277 -0.004152834891341662 0.005275696511444827
-0.004593361216341931 -0.01637175238341294 -0.01348231155484447
-0.01302311859858532 -0.01363982989129829 -0.01263885031596872
-0.01199359724052689 -0.01553022650790385 -0.003704703074700035
-0.01734592603301121 -0.01075322373966701 -0.003813239212248595
-0.004342834745474456 -0.01094097199261894 -0.01834055227628892
-0.01854661348459088 -0.003932495418062105 -0.01575875617324335
-0.02075553213788708 -0.004291149998323476 -0.004017049089287394
-0.003594982125340273 -0.003373612274789709 -0.01820136315294944
-0.02097451617352628 -0.008781509982767775 -0.008362128551717056
-0.0135927822320154 -0.009913321471860062 -0.01865529416414576
-0.0133691589062484 -0.003610997329479297 -0.02095682042437524
-0.004818788505253314 -0.02236945666817824 -0.004628179403931554
-0.005187706611119183 -0.008815362788060633 -0.004768476273343376
-0.004497514466054318 -0.005747514466054317 0.004999999999999985
-0.005184617115685939 0.008584341893209481 0.00477636241272249
-0.008114427220800533 0.01160537652284188 -0.004728221413518988
-0.0004994928033564778 0.002532746628826423 -0.01183726789424066
0.0005202775728112707 -0.002493675400673623 -0.01159450287627346
-0.002497489380155098 0.0005240915522927464 -0.01159377876886291
0.002517237581759895 -0.0004840288860493697 -0.01188339049754288
-0.002772311142267016 -0.002718937768279126 -0.01205046609570168
0.002507913769109787 0.002514895578722749 -0.01143205160082169
-0.0005091734729643387 0.00252197857992574 0.01159131813239662
0.0005202775728112692 -0.002493675400673623 0.01159450287627347
-0.002497489380155097 0.0005240915522927457 0.01159377876886291
0.00250859348000203 -0.0004957883730406299 0.01159817899978177
-0.002705947537672854 -0.002778839950797807 0.01204686331743057
0.002894235943238728 0.00271727088234469 0.01234430583786128
0.004497514466054309 -0.005747514466054309 -0.005000000000000016
0.005842508418521238 -0.009307991454077631 0.00507663821339043
0.007527741481867139 0.005793077869796472 -0.004942678148452537
0.008634091339402015 0.004968186070629252 0.004847496269220636
$EndNodes
$Elements
46 1100 1 1100
1 13 1 2
1 7 59 
2 59 8 
1 15 1 2
3 10 61 
4 61 9 
1 17 1 2
5 11 63 
6 63 10 
1 19 1 2
7 12 65 
8 65 7 
1 20 1 2
9 8 66 
10 66 13 
1 21 1 2
11 13 67 
12 67 12 
1 22 1 2
13 14 68 
14 68 11 
1 23 1 2
15 9 69 
16 69 14 
1 26 1 2
17 17 72 
18 72 16 
1 28 1 2
19 18 74 
20 74 15 
1 29 1 2
21 16 75 
22 75 19 
1 30 1 2
23 19 76 
24 76 20 
1 31 1 2
25 20 77 
26 77 17 
1 33 1 2
27 21 79 
28 79 22 
1 35 1 2
29 22 81 
30 81 18 
1 36 1 2
31 15 82 
32 82 21 
2 1 3 12
33 85 84 31 30 
34 83 86 84 85 
35 28 84 86 27 
36 88 26 27 86 
37 30 29 89 85 
38 23 83 87 24 
39 25 89 29 2 
40 26 88 23 1 
41 86 83 23 88 
42 83 85 89 87 
43 24 87 89 25 
44 84 28 3 31 
2 2 3 13
45 30 91 93 92 
46 93 90 94 92 
47 91 36 35 93 
48 30 92 96 29 
49 30 31 97 91 
50 35 95 90 93 
51 36 91 97 37 
52 32 95 35 4 
53 34 2 29 96 
54 90 33 34 94 
55 37 97 31 3 
56 33 90 95 32 
57 92 94 34 96 
2 3 3 12
58 100 39 38 98 
59 99 100 98 101 
60 41 42 101 98 
61 42 43 103 101 
62 39 100 104 40 
63 28 27 102 99 
64 28 103 43 3 
65 40 104 26 1 
66 101 103 28 99 
67 99 102 104 100 
68 27 26 104 102 
69 98 38 5 41 
2 4 3 12
70 107 36 37 106 
71 105 107 106 108 
72 43 42 108 106 
73 42 41 110 108 
74 36 107 111 35 
75 44 45 109 105 
76 44 110 41 5 
77 35 111 46 4 
78 108 110 44 105 
79 105 109 111 107 
80 45 46 111 109 
81 106 37 3 43 
2 5 3 12
82 114 24 25 113 
83 112 114 113 115 
84 52 51 115 113 
85 51 50 117 115 
86 24 114 118 23 
87 47 48 116 112 
88 47 117 50 6 
89 49 1 23 118 
90 115 117 47 112 
91 112 116 118 114 
92 48 49 118 116 
93 113 25 2 52 
2 6 3 12
94 33 121 122 120 
95 54 119 122 121 
96 54 121 125 55 
97 33 32 125 121 
98 51 119 123 50 
99 34 124 52 2 
100 53 6 50 123 
101 32 4 55 125 
102 54 53 123 119 
103 33 120 124 34 
104 122 119 51 120 
105 51 52 124 120 
2 7 3 12
106 128 48 47 126 
107 127 128 126 129 
108 56 57 129 126 
109 57 58 131 129 
110 48 128 132 49 
111 38 39 130 127 
112 38 131 58 5 
113 40 1 49 132 
114 129 131 38 127 
115 127 130 132 128 
116 39 40 132 130 
117 126 47 6 56 
2 8 3 12
118 135 45 44 134 
119 133 135 134 136 
120 58 57 136 134 
121 57 56 138 136 
122 45 135 139 46 
123 53 54 137 133 
124 53 138 56 6 
125 46 139 55 4 
126 136 138 53 133 
127 133 137 139 135 
128 54 55 139 137 
129 134 44 5 58 
2 9 2 2
130 62 59 7 
131 10 61 62 
2 9 3 2
132 62 60 8 59 
133 62 61 9 60 
2 10 2 2
134 62 7 65 
135 62 63 10 
2 10 3 2
136 62 64 11 63 
137 62 65 12 64 
2 11 3 6
138 140 142 12 65 
139 8 66 140 141 
140 141 140 65 7 
141 142 140 66 13 
142 7 59 8 141 
143 13 67 12 142 
2 12 3 6
144 143 63 11 145 
145 9 144 143 69 
146 144 10 63 143 
147 145 14 69 143 
148 10 144 9 61 
149 14 145 11 68 
2 13 2 2
150 66 70 13 
151 70 69 14 
2 13 3 2
152 70 66 8 60 
153 70 60 9 69 
2 14 2 2
154 64 68 11 
155 67 64 12 
2 14 3 2
156 64 67 13 70 
157 64 70 14 68 
2 15 2 2
158 74 15 71 
159 71 16 72 
2 15 3 2
160 71 72 17 73 
161 71 73 18 74 
2 16 3 6
162 146 147 17 72 
163 19 76 146 148 
164 148 146 72 16 
165 147 146 76 20 
166 20 77 17 147 
167 16 75 19 148 
2 17 2 2
168 76 19 78 
169 21 79 78 
2 17 3 2
170 78 80 20 76 
171 78 79 22 80 
2 18 2 2
172 73 17 77 
173 81 18 73 
2 18 3 2
174 73 77 20 80 
175 73 80 22 81 
2 19 3 6
176 149 74 18 150 
177 21 151 149 79 
178 151 15 74 149 
179 150 22 79 149 
180 22 150 18 81 
181 15 151 21 82 
2 20 2 2
182 78 19 75 
183 82 21 78 
2 20 3 2
184 78 71 15 82 
185 78 75 16 71 
3 1 4 798
186 68 11 156 64 
187 200 70 13 66 
188 236 62 10 61 
189 64 67 12 176 
190 65 7 62 217 
191 185 69 14 70 
192 209 10 62 63 
193 62 7 59 245 
194 26 27 187 155 
195 170 91 36 166 
196 212 63 11 201 
197 200 13 189 66 
198 236 10 225 61 
199 158 156 11 64 
200 67 170 13 166 
201 243 62 7 219 
202 170 13 168 67 
203 207 62 10 236 
204 183 14 163 70 
205 11 212 158 64 
206 64 12 218 172 
207 13 174 70 200 
208 172 64 12 176 
209 69 185 180 70 
210 62 59 240 245 
211 63 62 209 204 
212 7 62 243 245 
213 207 10 62 209 
214 183 185 14 70 
215 176 64 67 167 
216 249 59 240 62 
217 62 63 251 204 
218 180 266 69 70 
219 156 268 68 64 
220 251 63 11 212 
221 157 11 161 68 
222 163 14 268 70 
223 201 63 11 205 
224 189 13 193 66 
225 229 225 10 61 
226 212 11 251 64 
227 64 267 67 167 
228 65 62 252 217 
229 13 168 67 267 
230 176 67 12 165 
231 215 214 7 65 
232 213 216 12 65 
233 14 69 185 182 
234 245 7 59 242 
235 63 209 10 206 
236 169 67 13 166 
237 205 63 11 208 
238 66 13 193 196 
239 63 10 208 211 
240 69 14 184 187 
241 220 215 7 65 
242 255 220 7 65 
243 66 256 13 196 
244 63 259 11 208 
245 126 236 225 61 
246 261 63 10 208 
247 69 184 14 262 
248 237 248 8 59 
249 188 9 177 69 
250 177 98 188 69 
251 63 212 113 201 
252 134 248 237 59 
253 84 154 14 163 
254 168 174 13 170 
255 183 14 28 163 
256 28 14 154 163 
257 54 214 7 215 
258 12 33 216 213 
259 185 28 14 182 
260 249 240 239 62 
261 266 180 179 70 
262 265 70 60 191 
263 60 62 227 250 
264 252 224 203 64 
265 62 240 239 227 
266 180 179 70 191 
267 249 239 60 62 
268 166 13 35 193 
269 179 60 266 70 
270 169 13 35 166 
271 225 229 128 61 
272 100 177 181 69 
273 205 201 63 114 
274 241 135 237 59 
275 70 179 60 191 
276 62 239 60 227 
277 185 14 28 183 
278 243 62 240 245 
279 209 62 207 204 
280 185 183 180 70 
281 173 176 12 165 
282 176 172 64 167 
283 54 7 247 215 
284 33 12 216 175 
285 134 238 239 59 
286 163 3 183 70 
287 169 35 13 171 
288 10 48 225 229 
289 63 113 203 202 
290 3 183 70 200 
291 10 211 48 229 
292 167 267 67 164 
293 68 152 153 84 
294 128 226 61 234 
295 178 69 100 186 
296 135 238 59 246 
297 114 202 63 210 
298 23 11 205 157 
299 3 163 174 70 
300 70 174 3 200 
301 266 188 98 69 
302 65 252 223 217 
303 187 27 14 155 
304 10 48 206 225 
305 59 248 8 249 
306 266 9 188 69 
307 49 229 10 232 
308 171 35 13 196 
309 208 11 23 159 
310 12 33 222 173 
311 203 212 251 64 
312 59 240 239 249 
313 12 33 213 222 
314 11 23 205 208 
315 13 35 193 196 
316 203 251 63 204 
317 111 193 66 198 
318 215 7 55 220 
319 152 156 268 68 
320 10 208 49 232 
321 229 10 211 49 
322 55 7 244 220 
323 68 268 152 84 
324 7 244 247 55 
325 55 247 7 215 
326 208 259 11 159 
327 213 121 216 65 
328 214 215 121 65 
329 187 14 27 182 
330 247 242 7 54 
331 211 10 48 206 
332 10 261 208 232 
333 10 208 211 49 
334 184 14 26 187 
335 179 42 192 191 
336 239 57 228 227 
337 184 26 14 159 
338 111 66 199 198 
339 168 67 267 164 
340 187 14 26 155 
341 57 239 240 227 
342 220 7 244 255 
343 179 180 42 191 
344 7 214 54 221 
345 54 242 7 221 
346 262 184 14 159 
347 208 118 63 211 
348 184 104 69 187 
349 66 196 111 199 
350 63 205 118 208 
351 184 104 181 69 
352 196 193 66 111 
353 174 168 97 170 
354 250 9 61 233 
355 66 265 8 197 
356 173 94 176 165 
357 237 8 241 59 
358 177 9 181 69 
359 222 124 224 218 
360 9 61 233 230 
361 194 66 8 197 
362 217 123 221 219 
363 181 9 184 69 
364 196 66 8 199 
365 267 30 168 164 
366 30 267 167 164 
367 252 51 223 217 
368 224 51 223 252 
369 237 8 248 44 
370 44 8 248 195 
371 192 265 60 191 
372 227 228 60 250 
373 167 176 172 96 
374 44 194 8 197 
375 192 60 179 191 
376 228 60 239 227 
377 208 261 1 232 
378 254 244 4 196 
379 184 232 1 260 
380 1 259 208 159 
381 252 224 51 203 
382 220 244 4 255 
383 262 1 184 159 
384 253 4 220 171 
385 69 9 184 260 
386 207 117 209 204 
387 138 243 240 245 
388 185 183 103 180 
389 254 66 8 196 
390 195 110 197 192 
391 231 228 131 233 
392 231 60 9 188 
393 60 248 8 195 
394 195 44 8 197 
395 195 8 265 197 
396 231 9 250 233 
397 129 228 227 250 
398 84 268 152 163 
399 98 188 266 179 
400 266 188 60 179 
401 60 248 239 249 
402 265 60 8 195 
403 250 60 9 231 
404 8 237 241 45 
405 60 8 248 249 
406 188 60 9 266 
407 45 241 8 199 
408 8 241 244 46 
409 220 4 32 171 
410 216 32 33 175 
411 40 9 184 181 
412 196 8 244 46 
413 184 232 9 40 
414 45 8 194 199 
415 232 235 9 40 
416 8 244 254 196 
417 40 235 9 181 
418 46 8 241 199 
419 9 232 184 260 
420 196 8 46 199 
421 239 57 58 228 
422 42 180 43 191 
423 41 179 42 192 
424 57 240 56 227 
425 167 92 30 164 
426 91 97 168 170 
427 92 164 165 93 
428 120 124 224 222 
429 95 175 32 171 
430 100 178 186 99 
431 128 226 234 127 
432 119 123 221 217 
433 166 164 91 93 
434 45 46 241 199 
435 238 135 133 246 
436 107 198 105 190 
437 210 114 202 112 
438 211 48 229 49 
439 39 235 40 181 
440 87 161 83 157 
441 55 54 247 215 
442 1 26 184 159 
443 137 242 133 246 
444 116 112 210 206 
445 182 186 99 102 
446 90 165 169 93 
447 35 36 166 193 
448 94 176 34 173 
449 183 103 180 43 
450 56 243 240 138 
451 207 50 117 204 
452 131 58 228 231 
453 195 41 110 192 
454 153 86 154 84 
455 55 244 4 220 
456 86 153 160 83 
457 94 92 176 165 
458 177 181 39 100 
459 48 225 229 128 
460 95 35 169 171 
461 28 185 183 103 
462 50 217 51 204 
463 245 138 243 53 
464 209 117 207 47 
465 231 131 38 233 
466 205 24 201 114 
467 36 193 107 189 
468 237 135 241 45 
469 44 195 110 197 
470 159 23 88 160 
471 34 172 176 96 
472 236 225 47 126 
473 106 37 189 200 
474 38 177 98 188 
475 49 132 229 232 
476 113 212 25 201 
477 237 248 134 44 
478 213 122 223 120 
479 184 104 40 181 
480 201 25 24 162 
481 241 139 244 46 
482 118 205 23 208 
483 35 193 196 111 
484 196 244 4 46 
485 49 208 1 232 
486 184 1 232 40 
487 205 24 23 157 
488 23 1 208 159 
489 4 35 171 196 
490 172 29 167 96 
491 178 98 179 101 
492 232 132 235 40 
493 247 244 139 55 
494 104 184 26 187 
495 211 208 118 49 
496 190 108 106 191 
497 46 111 196 199 
498 136 238 239 134 
499 115 203 113 202 
500 167 92 176 96 
501 2 29 158 172 
502 222 33 34 173 
503 107 193 111 198 
504 106 189 107 190 
505 206 48 47 225 
506 218 34 2 172 
507 230 39 38 177 
508 183 3 43 200 
509 56 243 6 236 
510 248 58 5 231 
511 170 36 37 189 
512 185 178 101 99 
513 238 136 245 133 
514 202 115 209 112 
515 230 130 39 235 
516 182 27 187 102 
517 109 45 194 199 
518 48 116 211 206 
519 137 242 247 54 
520 242 54 53 221 
521 84 28 154 163 
522 53 6 243 219 
523 101 179 180 42 
524 240 239 57 136 
525 152 85 153 84 
526 212 2 218 52 
527 57 129 228 227 
528 192 42 108 191 
529 32 220 216 125 
530 55 215 220 125 
531 37 3 174 200 
532 37 174 97 170 
533 163 31 3 174 
534 90 94 173 165 
535 24 87 157 162 
536 29 30 156 167 
537 47 6 207 236 
538 212 2 25 158 
539 152 31 84 163 
540 28 3 183 163 
541 231 38 5 188 
542 248 5 44 195 
543 236 56 227 126 
544 106 43 200 191 
545 161 85 156 89 
546 152 30 31 168 
547 219 217 123 50 
548 34 124 222 218 
549 98 188 179 41 
550 58 134 239 248 
551 152 85 30 156 
552 53 221 123 219 
553 212 113 52 203 
554 218 124 224 52 
555 89 162 25 158 
556 52 51 224 203 
557 29 156 89 158 
558 235 234 130 132 
559 246 139 137 247 
560 199 109 111 198 
561 31 174 168 97 
562 117 209 204 115 
563 138 240 136 245 
564 204 203 51 115 
565 180 103 185 101 
566 108 197 110 192 
567 228 129 131 233 
568 51 120 224 223 
569 121 54 215 214 
570 112 47 209 206 
571 120 33 222 213 
572 33 121 216 213 
573 133 53 245 242 
574 54 119 221 214 
575 51 119 223 217 
576 127 38 233 230 
577 99 28 185 182 
578 23 83 160 157 
579 30 91 168 164 
580 105 44 197 194 
581 35 93 169 166 
582 11 156 161 68 
583 84 14 153 68 
584 84 153 14 154 
585 219 7 217 62 
586 219 217 7 221 
587 168 267 152 30 
588 14 84 268 68 
589 14 268 84 163 
590 69 187 182 14 
591 63 211 206 10 
592 23 159 157 160 
593 23 157 159 11 
594 10 263 229 61 
595 10 229 263 232 
596 7 257 247 244 
597 241 257 8 244 
598 241 8 257 59 
599 191 190 200 106 
600 189 200 190 106 
601 189 190 200 66 
602 61 126 128 225 
603 61 128 126 226 
604 158 162 212 11 
605 158 212 162 25 
606 201 212 162 11 
607 201 162 212 25 
608 225 206 209 47 
609 225 209 206 10 
610 207 225 209 47 
611 207 209 225 10 
612 236 225 207 47 
613 236 207 225 10 
614 189 170 200 37 
615 189 200 170 13 
616 174 200 170 37 
617 174 170 200 13 
618 134 59 135 238 
619 135 59 134 237 
620 113 63 114 202 
621 113 114 63 201 
622 69 98 100 177 
623 100 98 69 178 
624 179 180 178 101 
625 185 180 178 69 
626 185 178 180 101 
627 245 238 240 136 
628 245 240 238 59 
629 239 240 238 136 
630 239 238 240 59 
631 209 202 204 115 
632 209 204 202 63 
633 203 204 202 115 
634 203 202 204 63 
635 213 223 224 120 
636 224 222 213 120 
637 156 167 267 64 
638 267 167 156 30 
639 156 152 267 30 
640 173 222 176 34 
641 173 176 222 12 
642 172 176 218 34 
643 172 218 176 12 
644 176 222 218 34 
645 176 218 222 12 
646 219 221 243 53 
647 219 243 221 7 
648 243 221 245 53 
649 243 245 221 7 
650 245 221 242 53 
651 245 242 221 7 
652 204 203 217 51 
653 252 217 203 51 
654 153 152 156 85 
655 156 152 153 68 
656 153 156 161 85 
657 161 156 153 68 
658 153 161 83 85 
659 165 164 176 67 
660 165 176 164 92 
661 167 176 164 67 
662 167 164 176 92 
663 217 214 221 119 
664 185 178 182 69 
665 185 182 178 99 
666 186 182 178 69 
667 186 178 182 99 
668 246 238 242 133 
669 246 242 238 59 
670 245 242 238 133 
671 245 238 242 59 
672 202 210 209 63 
673 202 209 210 112 
674 206 209 210 63 
675 206 210 209 112 
676 251 204 64 62 
677 64 204 251 203 
678 204 252 64 62 
679 64 252 204 203 
680 204 217 252 62 
681 252 217 204 203 
682 158 172 167 64 
683 167 172 158 29 
684 167 156 158 64 
685 158 156 167 29 
686 166 164 170 91 
687 166 170 164 67 
688 168 170 164 91 
689 168 164 170 67 
690 236 227 240 62 
691 240 227 236 56 
692 240 243 236 62 
693 236 243 240 56 
694 191 200 180 43 
695 191 180 200 70 
696 183 180 200 43 
697 183 200 180 70 
698 219 217 204 62 
699 219 204 217 50 
700 207 219 204 62 
701 207 204 219 50 
702 6 207 219 50 
703 218 172 212 64 
704 218 212 172 2 
705 158 212 172 64 
706 158 172 212 2 
707 193 166 189 36 
708 193 189 166 13 
709 170 189 166 36 
710 170 166 189 13 
711 207 219 236 6 
712 207 236 219 62 
713 243 236 219 6 
714 243 219 236 62 
715 203 212 224 52 
716 203 224 212 64 
717 218 224 212 52 
718 218 212 224 64 
719 69 100 104 181 
720 69 104 100 186 
721 63 114 118 205 
722 63 118 114 210 
723 198 193 190 107 
724 198 190 193 66 
725 189 190 193 107 
726 189 193 190 66 
727 230 234 127 130 
728 247 246 242 137 
729 105 194 198 109 
730 153 161 160 83 
731 153 160 161 68 
732 157 160 161 83 
733 157 161 160 68 
734 152 163 174 31 
735 174 168 152 31 
736 157 205 162 11 
737 157 162 205 24 
738 201 162 205 11 
739 201 205 162 24 
740 186 104 187 69 
741 187 104 186 102 
742 187 182 186 69 
743 186 182 187 102 
744 206 210 211 63 
745 206 211 210 116 
746 118 211 210 63 
747 118 210 211 116 
748 129 250 233 228 
749 169 166 165 67 
750 169 165 166 93 
751 164 165 166 67 
752 164 166 165 93 
753 212 63 203 251 
754 203 63 212 113 
755 59 248 239 134 
756 59 239 248 249 
757 64 267 268 70 
758 268 163 174 152 
759 268 174 163 70 
760 168 268 174 152 
761 168 174 268 70 
762 267 268 168 152 
763 267 168 268 70 
764 191 265 197 192 
765 197 108 191 192 
766 127 226 233 129 
767 233 250 226 61 
768 233 226 250 129 
769 266 98 178 69 
770 178 98 266 179 
771 178 180 266 69 
772 266 180 178 179 
773 13 168 70 174 
774 13 70 168 267 
775 217 214 223 65 
776 213 121 214 122 
777 214 121 213 65 
778 223 213 214 122 
779 214 213 223 65 
780 27 14 28 182 
781 27 28 14 154 
782 258 12 253 142 
783 253 12 258 171 
784 13 258 256 142 
785 4 253 258 171 
786 224 218 12 222 
787 64 224 12 252 
788 64 12 224 218 
789 175 216 171 12 
790 175 171 216 32 
791 220 216 171 32 
792 1 262 260 143 
793 1 260 262 184 
794 69 260 262 143 
795 69 262 260 184 
796 4 254 256 140 
797 4 256 254 196 
798 66 256 254 140 
799 66 254 256 196 
800 1 261 259 143 
801 1 259 261 208 
802 63 259 261 143 
803 63 261 259 208 
804 4 253 255 140 
805 4 255 253 220 
806 65 255 253 140 
807 65 253 255 220 
808 216 220 121 125 
809 216 121 220 65 
810 215 121 220 125 
811 215 220 121 65 
812 169 171 175 95 
813 175 90 169 95 
814 44 8 45 237 
815 44 45 8 194 
816 177 230 233 38 
817 177 233 230 9 
818 231 177 233 38 
819 231 233 177 9 
820 188 177 231 38 
821 188 231 177 9 
822 260 143 232 1 
823 261 232 143 1 
824 140 254 244 4 
825 244 255 140 4 
826 159 259 143 1 
827 143 262 159 1 
828 192 195 265 197 
829 192 265 195 60 
830 231 228 250 60 
831 250 228 231 233 
832 248 231 228 58 
833 228 231 248 60 
834 228 239 248 58 
835 248 239 228 60 
836 140 256 258 142 
837 258 256 140 4 
838 258 253 140 142 
839 140 253 258 4 
840 195 188 5 41 
841 192 179 188 41 
842 188 179 192 60 
843 195 192 188 41 
844 188 192 195 60 
845 181 177 235 9 
846 181 235 177 39 
847 230 235 177 9 
848 230 177 235 39 
849 235 234 230 130 
850 194 199 198 109 
851 7 257 255 141 
852 7 255 257 244 
853 257 8 254 141 
854 257 254 8 244 
855 140 257 254 141 
856 140 254 257 244 
857 255 257 140 141 
858 255 140 257 244 
859 263 10 261 144 
860 261 10 263 232 
861 9 263 260 144 
862 260 263 9 232 
863 263 143 260 144 
864 260 143 263 232 
865 263 261 143 144 
866 143 261 263 232 
867 12 213 224 222 
868 250 62 236 61 
869 250 236 62 227 
870 126 250 236 61 
871 126 236 250 227 
872 226 250 126 61 
873 7 214 217 65 
874 7 217 214 221 
875 169 171 12 175 
876 12 258 169 67 
877 12 169 258 171 
878 13 169 258 67 
879 13 258 169 171 
880 171 253 216 220 
881 171 216 253 12 
882 65 216 253 220 
883 65 253 216 12 
884 161 157 162 11 
885 156 158 161 89 
886 156 161 158 11 
887 158 162 161 89 
888 158 161 162 11 
889 156 268 267 152 
890 156 267 268 64 
891 191 197 190 108 
892 105 190 197 108 
893 233 226 230 61 
894 233 230 226 127 
895 234 230 226 61 
896 234 226 230 127 
897 190 197 194 105 
898 194 197 190 66 
899 194 198 190 105 
900 190 198 194 66 
901 264 14 262 145 
902 262 14 264 159 
903 11 264 259 145 
904 259 264 11 159 
905 264 143 259 145 
906 259 143 264 159 
907 264 262 143 145 
908 143 262 264 159 
909 223 252 213 224 
910 223 213 252 65 
911 12 213 252 224 
912 12 252 213 65 
913 169 165 12 67 
914 14 160 153 68 
915 229 128 234 132 
916 234 128 229 61 
917 234 229 263 61 
918 232 229 235 132 
919 234 235 229 132 
920 232 229 234 235 
921 234 229 232 263 
922 241 135 246 139 
923 246 135 241 59 
924 246 241 257 59 
925 241 244 247 257 
926 247 244 241 139 
927 247 246 241 257 
928 241 246 247 139 
929 87 162 161 157 
930 87 161 162 89 
931 223 119 214 217 
932 214 119 223 122 
933 33 175 173 12 
934 173 175 33 90 
935 175 165 173 12 
936 173 165 175 90 
937 175 169 165 12 
938 165 169 175 90 
939 160 88 155 86 
940 27 155 154 14 
941 154 155 27 86 
942 155 153 154 14 
943 154 153 155 86 
944 155 160 153 14 
945 153 160 155 86 
946 230 61 263 9 
947 263 61 230 234 
948 263 232 235 9 
949 235 232 263 234 
950 230 263 235 9 
951 235 263 230 234 
952 199 66 194 198 
953 194 66 199 8 
954 129 250 126 226 
955 129 126 250 227 
956 13 258 196 256 
957 13 196 258 171 
958 4 196 258 256 
959 4 258 196 171 
960 159 160 155 14 
961 155 160 159 88 
962 155 26 159 14 
963 159 26 155 88 
964 248 195 231 5 
965 248 231 195 60 
966 188 231 195 5 
967 188 195 231 60 
968 265 70 200 66 
969 265 200 70 191 
970 190 265 200 66 
971 190 200 265 191 
972 197 265 190 66 
973 197 190 265 191 
974 264 11 157 68 
975 264 157 11 159 
976 160 264 157 68 
977 160 157 264 159 
978 14 264 160 68 
979 14 160 264 159 
980 257 246 242 247 
981 242 246 257 59 
982 242 7 257 247 
983 257 7 242 59 
3 1 7 117
984 85 30 31 84 152 
985 83 85 84 86 153 
986 28 27 86 84 154 
987 88 86 27 26 155 
988 30 85 89 29 156 
989 23 24 87 83 157 
990 25 2 29 89 158 
991 26 1 23 88 159 
992 86 88 23 83 160 
993 83 87 89 85 161 
994 24 25 89 87 162 
995 84 31 3 28 163 
996 30 92 93 91 164 
997 93 92 94 90 165 
998 91 93 35 36 166 
999 30 29 96 92 167 
1000 30 91 97 31 168 
1001 35 93 90 95 169 
1002 36 37 97 91 170 
1003 32 4 35 95 171 
1004 34 96 29 2 172 
1005 90 94 34 33 173 
1006 37 3 31 97 174 
1007 33 32 95 90 175 
1008 92 96 34 94 176 
1009 100 98 38 39 177 
1010 99 101 98 100 178 
1011 41 98 101 42 179 
1012 42 101 103 43 180 
1013 39 40 104 100 181 
1014 28 99 102 27 182 
1015 28 3 43 103 183 
1016 40 1 26 104 184 
1017 101 99 28 103 185 
1018 99 100 104 102 186 
1019 27 102 104 26 187 
1020 98 41 5 38 188 
1021 107 106 37 36 189 
1022 105 108 106 107 190 
1023 43 106 108 42 191 
1024 42 108 110 41 192 
1025 36 35 111 107 193 
1026 44 105 109 45 194 
1027 44 5 41 110 195 
1028 35 4 46 111 196 
1029 108 105 44 110 197 
1030 105 107 111 109 198 
1031 45 109 111 46 199 
1032 106 43 3 37 200 
1033 114 113 25 24 201 
1034 112 115 113 114 202 
1035 52 113 115 51 203 
1036 51 115 117 50 204 
1037 24 23 118 114 205 
1038 47 112 116 48 206 
1039 47 6 50 117 207 
1040 49 118 23 1 208 
1041 115 112 47 117 209 
1042 112 114 118 116 210 
1043 48 116 118 49 211 
1044 113 52 2 25 212 
1045 33 120 122 121 213 
1046 54 121 122 119 214 
1047 54 55 125 121 215 
1048 33 121 125 32 216 
1049 51 50 123 119 217 
1050 34 2 52 124 218 
1051 53 123 50 6 219 
1052 32 125 55 4 220 
1053 54 119 123 53 221 
1054 33 34 124 120 222 
1055 122 120 51 119 223 
1056 51 120 124 52 224 
1057 128 126 47 48 225 
1058 127 129 126 128 226 
1059 56 126 129 57 227 
1060 57 129 131 58 228 
1061 48 49 132 128 229 
1062 38 127 130 39 230 
1063 38 5 58 131 231 
1064 40 132 49 1 232 
1065 129 127 38 131 233 
1066 127 128 132 130 234 
1067 39 130 132 40 235 
1068 126 56 6 47 236 
1069 135 134 44 45 237 
1070 133 136 134 135 238 
1071 58 134 136 57 239 
1072 57 136 138 56 240 
1073 45 46 139 135 241 
1074 53 133 137 54 242 
1075 53 6 56 138 243 
1076 46 4 55 139 244 
1077 136 133 53 138 245 
1078 133 135 139 137 246 
1079 54 137 139 55 247 
1080 134 58 5 44 248 
1081 8 60 62 59 249 
1082 9 61 62 60 250 
1083 11 64 62 63 251 
1084 12 65 62 64 252 
1085 140 65 12 142 253 
1086 8 141 140 66 254 
1087 141 7 65 140 255 
1088 142 13 66 140 256 
1089 7 141 8 59 257 
1090 13 142 12 67 258 
1091 11 63 143 145 259 
1092 143 144 9 69 260 
1093 63 10 144 143 261 
1094 69 14 145 143 262 
1095 9 144 10 61 263 
1096 11 145 14 68 264 
1097 8 66 70 60 265 
1098 9 60 70 69 266 
1099 13 67 64 70 267 
1100 14 70 64 68 268 
$EndElements
