$MeshFormat
4.1 0 8
$EndMeshFormat
$PhysicalNames
2
1 2 "plate_clamp"
2 1 "plate"
$EndPhysicalNames
$Entities
22 36 20 2
1 0 0 0.03 0 
2 0 0.03 0 0 
3 0.03 0 0 0 
4 0 0 -0.03 0 
5 0 -0.03 0 0 
6 -0.03 0 0 0 
7 -0.005 0 -0.01 0 
8 0 -0.005 -0.01 0 
9 0 -0.005 0.01 0 
10 -0.005 0 0.01 0 
11 0 0.005 0.01 0 
12 0 0.005 -0.01 0 
13 0.005 0 -0.01 0 
14 0.005 0 0.01 0 
15 -0.005 0 -0.01 0 
16 -0.005 0 0.01 0 
17 0 0.005 0.01 0 
18 0 0.005 -0.01 0 
19 0 -0.005 0.01 0 
20 0.005 0 0.01 0 
21 0 -0.005 -0.01 0 
22 0.005 0 -0.01 0 
1 -1e-07 -9.999999999940612e-08 -9.99999999976714e-08 1.000000000012989e-07 0.03000010000000001 0.03000010000000001 0 2 1 -2 
2 -9.999999999940612e-08 -1e-07 -9.99999999976714e-08 0.03000010000000001 1.000000000012989e-07 0.03000010000000001 0 2 1 -3 
3 -9.999999999940612e-08 -9.99999999976714e-08 -1e-07 0.03000010000000001 0.03000010000000001 1.000000000012989e-07 0 2 2 -3 
4 -1e-07 -9.999999999940612e-08 -0.03000010000000001 1.000000000012989e-07 0.03000010000000001 9.99999999976714e-08 0 2 4 -2 
5 -9.999999999940612e-08 -1e-07 -0.03000010000000001 0.03000010000000001 1.000000000012989e-07 9.99999999976714e-08 0 2 4 -3 
6 -1e-07 -0.03000010000000001 -9.999999999940612e-08 1.000000000012989e-07 9.99999999976714e-08 0.03000010000000001 0 2 5 -1 
7 -9.999999999940612e-08 -0.03000010000000001 -1e-07 0.03000010000000001 9.99999999976714e-08 1.000000000012989e-07 0 2 5 -3 
8 -1e-07 -0.03000010000000001 -0.03000010000000001 1.000000000012989e-07 9.99999999976714e-08 9.999999999940612e-08 0 2 5 -4 
9 -0.03000010000000001 -1e-07 -9.999999999940612e-08 9.99999999976714e-08 1.000000000012989e-07 0.03000010000000001 0 2 6 -1 
10 -0.03000010000000001 -9.999999999940612e-08 -1e-07 9.99999999976714e-08 0.03000010000000001 1.000000000012989e-07 0 2 6 -2 
11 -0.03000010000000001 -1e-07 -0.03000010000000001 9.99999999976714e-08 1.000000000012989e-07 9.999999999940612e-08 0 2 6 -4 
12 -0.03000010000000001 -0.03000010000000001 -1e-07 9.99999999976714e-08 9.999999999940612e-08 1.000000000012989e-07 0 2 6 -5 
13 -0.0050001 -0.0050001 -0.0100001 9.99999999998398e-08 9.99999999998398e-08 -0.009999900000000001 1 2 2 7 -8 
14 -1e-07 -0.0050001 -0.0100001 1e-07 -0.0049999 0.0100001 0 2 8 -9 
15 -0.0050001 -0.0050001 0.009999900000000003 9.99999999998398e-08 9.99999999998398e-08 0.0100001 1 2 2 10 -9 
16 -0.0050001 -1e-07 -0.0100001 -0.0049999 1e-07 0.0100001 0 2 7 -10 
17 -0.0050001 -9.99999999998398e-08 0.009999900000000003 9.99999999998398e-08 0.0050001 0.0100001 1 2 2 11 -10 
18 -1e-07 0.0049999 -0.0100001 1e-07 0.0050001 0.0100001 0 2 12 -11 
19 -0.0050001 -9.99999999998398e-08 -0.0100001 9.99999999998398e-08 0.0050001 -0.009999900000000001 1 2 2 12 -7 
20 -9.99999999998398e-08 -0.0050001 -0.0100001 0.0050001 9.99999999998398e-08 -0.009999900000000001 1 2 2 8 -13 
21 -9.99999999998398e-08 -9.99999999998398e-08 -0.0100001 0.0050001 0.0050001 -0.009999900000000001 1 2 2 13 -12 
22 -9.99999999998398e-08 -9.99999999998398e-08 0.009999900000000003 0.0050001 0.0050001 0.0100001 1 2 2 14 -11 
23 -9.99999999998398e-08 -0.0050001 0.009999900000000003 0.0050001 9.99999999998398e-08 0.0100001 1 2 2 9 -14 
24 0.0049999 -1e-07 -0.0100001 0.0050001 1e-07 0.0100001 0 2 13 -14 
25 -0.0050001 -1e-07 -0.0100001 -0.0049999 1e-07 0.0100001 0 2 15 -16 
26 -0.0050001 -9.99999999998398e-08 0.009999900000000003 9.99999999998398e-08 0.0050001 0.0100001 1 2 2 17 -16 
27 -1e-07 0.0049999 -0.0100001 1e-07 0.0050001 0.0100001 0 2 18 -17 
28 -0.0050001 -9.99999999998398e-08 -0.0100001 9.99999999998398e-08 0.0050001 -0.009999900000000001 1 2 2 18 -15 
29 -0.0050001 -0.0050001 0.009999900000000003 9.99999999998398e-08 9.99999999998398e-08 0.0100001 1 2 2 16 -19 
30 -9.99999999998398e-08 -0.0050001 0.009999900000000003 0.0050001 9.99999999998398e-08 0.0100001 1 2 2 19 -20 
31 -9.99999999998398e-08 -9.99999999998398e-08 0.009999900000000003 0.0050001 0.0050001 0.0100001 1 2 2 20 -17 
32 -1e-07 -0.0050001 -0.0100001 1e-07 -0.0049999 0.0100001 0 2 21 -19 
33 -9.99999999998398e-08 -0.0050001 -0.0100001 0.0050001 9.99999999998398e-08 -0.009999900000000001 1 2 2 21 -22 
34 0.0049999 -1e-07 -0.0100001 0.0050001 1e-07 0.0100001 0 2 22 -20 
35 -9.99999999998398e-08 -9.99999999998398e-08 -0.0100001 0.0050001 0.0050001 -0.009999900000000001 1 2 2 22 -18 
36 -0.0050001 -0.0050001 -0.0100001 9.99999999998398e-08 9.99999999998398e-08 -0.009999900000000001 1 2 2 15 -21 
1 -0.01500021995059679 -0.01500021995059679 -9.999999999940612e-08 0.03000033990503047 0.03000033990503047 0.04242684614814066 0 3 -1 2 -3 
2 -0.01500021995059679 -0.01500021995059678 -0.04242684614814064 0.03000033990503047 0.03000033990503048 9.999999999593667e-08 0 3 4 3 -5 
3 -0.01500021995059679 -0.03000033990503048 -9.999999999940612e-08 0.03000033990503047 0.01500021995059678 0.04242684614814066 0 3 -6 7 -2 
4 -0.01500021995059679 -0.03000033990503048 -0.04242684614814064 0.03000033990503047 0.01500021995059678 9.999999999593667e-08 0 3 8 5 -7 
5 -0.03000033990503047 -0.01500021995059679 -9.999999999940612e-08 0.01500021995059679 0.03000033990503047 0.04242684614814066 0 3 9 1 -10 
6 -0.03000033990503048 -0.01500021995059679 -0.04242684614814064 0.01500021995059678 0.03000033990503047 9.999999999593667e-08 0 3 -11 10 -4 
7 -0.03000033990503048 -0.03000033990503047 -9.999999999940612e-08 0.01500021995059678 0.01500021995059679 0.04242684614814066 0 3 12 6 -9 
8 -0.03000033990503048 -0.03000033990503047 -0.04242684614814064 0.01500021995059678 0.01500021995059679 9.999999999593667e-08 0 3 -12 11 -8 
9 -0.0050001 -0.0050001 -0.0100001 9.99999999998398e-08 1.000000000015745e-07 0.0100001 1 1 4 13 14 -15 -16 
10 -0.0050001 -1.000000000002735e-07 -0.0100001 1.000000000002735e-07 0.0050001 0.0100001 1 1 4 -17 -18 19 16 
11 -0.0050001 -0.0050001 -0.0100001 0.0050001 0.0050001 -0.009999900000000001 0 4 13 20 21 19 
12 -0.0050001 -0.0050001 0.009999900000000001 0.0050001 0.0050001 0.0100001 0 4 23 22 17 15 
13 -1.000000000020082e-07 -0.0050001 -0.0100001 0.0050001 9.99999999998398e-08 0.0100001 1 1 4 20 24 -23 -14 
14 -1.000000000007072e-07 -1.000000000007072e-07 -0.0100001 0.0050001 0.0050001 0.0100001 1 1 4 -22 -24 21 18 
15 -0.0050001 -1.000000000002735e-07 -0.0100001 1.000000000002735e-07 0.0050001 0.0100001 1 1 4 25 -26 -27 28 
16 -0.0050001 -0.0050001 0.009999900000000001 0.0050001 0.0050001 0.0100001 0 4 29 30 31 26 
17 -1.000000000020082e-07 -0.0050001 -0.0100001 0.0050001 9.99999999998398e-08 0.0100001 1 1 4 -32 33 34 -30 
18 -1.000000000007072e-07 -1.000000000007072e-07 -0.0100001 0.0050001 0.0050001 0.0100001 1 1 4 27 -31 -34 35 
19 -0.0050001 -0.0050001 -0.0100001 0.0050001 0.0050001 -0.009999900000000001 0 4 33 35 28 36 
20 -0.0050001 -0.0050001 -0.0100001 9.99999999998398e-08 1.000000000015745e-07 0.0100001 1 1 4 -25 36 32 -29 
1 -0.03000033990503048 -0.03000033990503048 -0.04242684614814063 0.03000033990503047 0.03000033990503048 0.04242684614814066 0 14 1 2 3 4 5 6 7 8 -9 -10 11 -12 -13 -14 
2 -0.0050001 -0.0050001 -0.0100001 0.0050001 0.0050001 0.0100001 0 6 15 16 17 18 -19 20 
$EndEntities
$Nodes
48 332 1 332
0 7 0 1
1
-0.005 0 -0.01
0 8 0 1
2
0 -0.005 -0.01
0 9 0 1
3
0 -0.005 0.01
0 10 0 1
4
-0.005 0 0.01
0 11 0 1
5
0 0.005 0.01
0 12 0 1
6
0 0.005 -0.01
0 13 0 1
7
0.005 0 -0.01
0 14 0 1
8
0.005 0 0.01
0 15 0 1
9
-0.005 0 -0.01
0 16 0 1
10
-0.005 0 0.01
0 17 0 1
11
0 0.005 0.01
0 18 0 1
12
0 0.005 -0.01
0 19 0 1
13
0 -0.005 0.01
0 20 0 1
14
0.005 0 0.01
0 21 0 1
15
0 -0.005 -0.01
0 22 0 1
16
0.005 0 -0.01
1 13 0 3
17
18
19
-0.00461939768029467 -0.001913417119001558 -0.01
-0.00353553390593274 -0.003535533905932736 -0.01
-0.001913417119001567 -0.004619397680294667 -0.01
1 14 0 7
20
21
22
23
24
25
26
0 -0.005 -0.007500000000000005
0 -0.005 -0.005000000000000006
0 -0.005 -0.002500000000000013
0 -0.005 -2.42861286636753e-17
0 -0.005000000000000001 0.002499999999999968
0 -0.005 0.004999999999999978
0 -0.004999999999999999 0.007499999999999988
1 15 0 3
27
28
29
-0.00461939768029467 -0.001913417119001558 0.01
-0.00353553390593274 -0.003535533905932736 0.01
-0.001913417119001567 -0.004619397680294667 0.01
1 16 0 7
30
31
32
33
34
35
36
-0.005 0 -0.007500000000000005
-0.005 0 -0.005000000000000006
-0.005 0 -0.002500000000000013
-0.005 0 -2.42861286636753e-17
-0.005000000000000001 0 0.002499999999999968
-0.005 0 0.004999999999999978
-0.004999999999999999 0 0.007499999999999988
1 17 0 3
37
38
39
-0.001913417119001558 0.00461939768029467 0.01
-0.003535533905932736 0.00353553390593274 0.01
-0.004619397680294667 0.001913417119001567 0.01
1 18 0 7
40
41
42
43
44
45
46
0 0.005 -0.007500000000000005
0 0.005 -0.005000000000000006
0 0.005 -0.002500000000000013
0 0.005 -2.42861286636753e-17
0 0.005000000000000001 0.002499999999999968
0 0.005 0.004999999999999978
0 0.004999999999999999 0.007499999999999988
1 19 0 3
47
48
49
-0.001913417119001558 0.00461939768029467 -0.01
-0.003535533905932736 0.00353553390593274 -0.01
-0.004619397680294667 0.001913417119001567 -0.01
1 20 0 3
50
51
52
0.001913417119001558 -0.00461939768029467 -0.01
0.003535533905932736 -0.00353553390593274 -0.01
0.004619397680294667 -0.001913417119001567 -0.01
1 21 0 3
53
54
55
0.00461939768029467 0.001913417119001558 -0.01
0.00353553390593274 0.003535533905932736 -0.01
0.001913417119001567 0.004619397680294667 -0.01
1 22 0 3
56
57
58
0.00461939768029467 0.001913417119001558 0.01
0.00353553390593274 0.003535533905932736 0.01
0.001913417119001567 0.004619397680294667 0.01
1 23 0 3
59
60
61
0.001913417119001558 -0.00461939768029467 0.01
0.003535533905932736 -0.00353553390593274 0.01
0.004619397680294667 -0.001913417119001567 0.01
1 24 0 7
62
63
64
65
66
67
68
0.005 0 -0.007500000000000005
0.005 0 -0.005000000000000006
0.005 0 -0.002500000000000013
0.005 0 -2.42861286636753e-17
0.005000000000000001 0 0.002499999999999968
0.005 0 0.004999999999999978
0.004999999999999999 0 0.007499999999999988
1 25 0 7
69
70
71
72
73
74
75
-0.005 0 -0.007500000000000005
-0.005 0 -0.005000000000000006
-0.005 0 -0.002500000000000013
-0.005 0 -2.42861286636753e-17
-0.005000000000000001 0 0.002499999999999968
-0.005 0 0.004999999999999978
-0.004999999999999999 0 0.007499999999999988
1 26 0 3
76
77
78
-0.001913417119001558 0.00461939768029467 0.01
-0.003535533905932736 0.00353553390593274 0.01
-0.004619397680294667 0.001913417119001567 0.01
1 27 0 7
79
80
81
82
83
84
85
0 0.005 -0.007500000000000005
0 0.005 -0.005000000000000006
0 0.005 -0.002500000000000013
0 0.005 -2.42861286636753e-17
0 0.005000000000000001 0.002499999999999968
0 0.005 0.004999999999999978
0 0.004999999999999999 0.007499999999999988
1 28 0 3
86
87
88
-0.001913417119001558 0.00461939768029467 -0.01
-0.003535533905932736 0.00353553390593274 -0.01
-0.004619397680294667 0.001913417119001567 -0.01
1 29 0 3
89
90
91
-0.00461939768029467 -0.001913417119001558 0.01
-0.00353553390593274 -0.003535533905932736 0.01
-0.001913417119001567 -0.004619397680294667 0.01
1 30 0 3
92
93
94
0.001913417119001558 -0.00461939768029467 0.01
0.003535533905932736 -0.00353553390593274 0.01
0.004619397680294667 -0.001913417119001567 0.01
1 31 0 3
95
96
97
0.00461939768029467 0.001913417119001558 0.01
0.00353553390593274 0.003535533905932736 0.01
0.001913417119001567 0.004619397680294667 0.01
1 32 0 7
98
99
100
101
102
103
104
0 -0.005 -0.007500000000000005
0 -0.005 -0.005000000000000006
0 -0.005 -0.002500000000000013
0 -0.005 -2.42861286636753e-17
0 -0.005000000000000001 0.002499999999999968
0 -0.005 0.004999999999999978
0 -0.004999999999999999 0.007499999999999988
1 33 0 3
105
106
107
0.001913417119001558 -0.00461939768029467 -0.01
0.003535533905932736 -0.00353553390593274 -0.01
0.004619397680294667 -0.001913417119001567 -0.01
1 34 0 7
108
109
110
111
112
113
114
0.005 0 -0.007500000000000005
0.005 0 -0.005000000000000006
0.005 0 -0.002500000000000013
0.005 0 -2.42861286636753e-17
0.005000000000000001 0 0.002499999999999968
0.005 0 0.004999999999999978
0.004999999999999999 0 0.007499999999999988
1 35 0 3
115
116
117
0.00461939768029467 0.001913417119001558 -0.01
0.00353553390593274 0.003535533905932736 -0.01
0.001913417119001567 0.004619397680294667 -0.01
1 36 0 3
118
119
120
-0.00461939768029467 -0.001913417119001558 -0.01
-0.00353553390593274 -0.003535533905932736 -0.01
-0.001913417119001567 -0.004619397680294667 -0.01
2 9 0 26
121
122
123
124
125
126
127
128
129
130
131
132
133
134
135
136
137
138
139
140
141
142
143
144
145
146
-0.001787385280660037 -0.00466960960450441 0.0057867725095766
-0.001768655928039761 -0.004676735635912062 -0.005675149350976664
-0.002549737427459681 -0.004301027673825324 -0.001464417967283815
-0.004381533794733722 -0.002408767652889398 0.00319087604046022
-0.004087770548891279 -0.002879258921947986 -0.008094054343492148
-0.004079915515958873 -0.00289037876110347 0.008130220844071766
-0.004623507399624601 -0.001903465083897405 -0.003451510197550617
-0.002088355429617254 -0.004542991481346639 0.003692890894303591
-0.001956240404615448 -0.004601426244041078 -0.003429629451422329
-0.003750840058843077 -0.003306236357700104 7.896915404968426e-05
-0.004643184108332557 -0.001854950494252605 0.005704443937713758
-0.004679905864894069 -0.001760250293489564 -0.005661936296996056
-0.002877032691809927 -0.00408933770802277 -0.00807782943187418
-0.002874555735328888 -0.004091079237131418 0.00812059155151796
-0.003563999046161254 -0.003506837720648285 -0.003832806654589413
-0.003401538197371085 -0.003664633391190099 0.004502622139776279
-0.004412085505711677 -0.002352339578013541 -0.001507756107495768
-0.004560927522599564 -0.002048887535613851 0.001058813534528454
-0.003603331071153811 -0.003466410995778994 -0.00228071672511641
-0.002764345148799347 -0.004166340828390003 0.001730210552819808
-0.003541444950083469 -0.003529612962568033 -0.006384439795926329
-0.00349687139454187 -0.003573778175829439 0.006506206100440342
-0.004691892672677548 -0.001728046049176565 0.007862510515825783
-0.001708921051173872 -0.004698892299346174 0.007871837010670691
-0.004699080032182719 -0.0017084047679463 -0.007839887537841246
-0.001709435473669897 -0.004698705179233844 -0.007839254357166831
2 10 0 26
147
148
149
150
151
152
153
154
155
156
157
158
159
160
161
162
163
164
165
166
167
168
169
170
171
172
-0.004669726154171928 0.001787080760638044 0.005786576155060874
-0.004677608257800908 0.001766346791134952 -0.005677294855007838
-0.004301590111162694 0.002548788440719888 -0.001468952843369131
-0.002408875226993905 0.004381474653672559 0.003190023228716542
-0.002883564648512017 0.004084734375433947 -0.008093748413028118
-0.002890567187382333 0.00407978202055313 0.00813012237175172
-0.001906379302116804 0.004622306562362631 -0.003454307933080419
-0.004543070466983074 0.002088183596340652 0.003692409318319273
-0.004602218515140841 0.001954375792649616 -0.003433043689648165
-0.003306586600860833 0.003750531302496698 7.578303114782308e-05
-0.001855096701563279 0.004643125695891617 0.005704226757005074
-0.001764232033459189 0.00467840628121548 -0.005662705843604695
-0.004091047194081931 0.002874601338584943 -0.008078484820132575
-0.004091275001220114 0.00287427710292368 0.008120458920297589
-0.0035092137617129 0.003561659553439209 -0.003836842905017162
-0.003664809036031419 0.003401348957314207 0.004502059574649823
-0.002353450777372437 0.004411492880928752 -0.001511255631242432
-0.002049097544031939 0.004560833175532982 0.00105722769301676
-0.003467803797774351 0.003601990674632816 -0.002285197075620216
-0.004166468910460168 0.002764152097509986 0.001728794975139298
-0.003532514235018695 0.003538550999970223 -0.006385808366018898
-0.003573976977160498 0.003496668209414026 0.006505949854772318
-0.001728132020995112 0.004691861007959565 0.00786244194329731
-0.004698960026709136 0.001708734814823427 0.007871746436194807
-0.001711054632223132 0.004698115797375343 -0.007839761226546053
-0.004699157096858439 0.00170819278158086 -0.007839891755637915
2 13 0 27
173
174
175
176
177
178
179
180
181
182
183
184
185
186
187
188
189
190
191
192
193
194
195
196
197
198
199
0.001822791743091825 -0.004655902733231897 0.005923130137406716
0.004687102191521661 -0.001740997715746013 -0.005728029430085514
0.004606180417797821 -0.001945019783625832 -0.001037411850886329
0.004355260737221 -0.002455952750119833 0.004051242195130902
0.004075864135043116 -0.002896089009797388 0.008225667094449435
0.002884503284361142 -0.004084071596153743 -0.008162542733893824
0.002447941432210447 -0.004359768657218805 0.0009291233423851191
0.001855473849384323 -0.004642974993929099 -0.003372809813184455
0.002423865505308476 -0.004373199745286701 0.004039274685202896
0.00464863898359063 -0.00184123751869265 -0.003333604183581567
0.004351900746167254 -0.002461901682746264 0.0009468064588551673
0.001946596627832143 -0.004605514256683233 -0.001021069755414881
0.004639822965187779 -0.001863341850470833 0.005922068315952171
0.001759555999979267 -0.004680166950327407 -0.005700708582304473
0.004101939210558598 -0.002859037375215981 -0.008139850362360194
0.002864694270034311 -0.004097990573345988 0.008211172854193118
0.003518579396597325 -0.003552407497717681 0.004906615150022688
0.003541309630431943 -0.003529748730633663 -0.003664613612311623
0.003526059354070279 -0.003544983135583789 0.002491261507006946
0.003535479225388566 -0.003535588585631231 -0.001394988809776727
0.003531382260164203 -0.003539680682292903 0.0001332080457626898
0.003520100589072895 -0.003550900145429135 0.006717903636223928
0.003544698684501598 -0.003526345308686125 -0.006411194321470109
0.001706932337848349 -0.004699615089984239 0.007934812269430059
0.004692387772908718 -0.001726701186846395 0.007936761047017632
0.001707987865825121 -0.004699231580821926 -0.007872693585601663
0.004704053400592637 -0.001694662681589714 -0.007874125477703725
2 14 0 27
200
201
202
203
204
205
206
207
208
209
210
211
212
213
214
215
216
217
218
219
220
221
222
223
224
225
226
0.001748975517078497 0.004684131151095152 0.005759920198828687
0.001774914043065758 0.004674364142824986 -0.005746371165475119
0.004364181063766258 0.00244006631931675 -0.001537719515372042
0.004609858419910771 0.001936286484066279 0.003529885945288698
0.004105778473928352 0.002853521179705271 -0.008153258922714518
0.004082248845419683 0.002887082327206768 0.008169874141155683
0.002448378912433391 0.004359522990093238 0.001564387911932983
0.001921818407029826 0.004615908795719574 0.003511279504853542
0.001937517260979744 0.004609341261330684 -0.003494252765129864
0.003553530877505627 0.003517444854239235 -0.003924767964989058
0.002459517423558989 0.004353248676931947 -0.001519089414556852
0.004354941265814412 0.002456519198236958 0.001551629689300306
0.004674786863074164 0.001773800379081371 0.005739930185029378
0.002882998875591808 0.004085133716702105 -0.008136857214221424
0.002858235007963305 0.004102498341163953 0.008149160253388183
0.003526424420613066 0.003544619980435672 0.003935234199537898
0.004621470179181434 0.001908405979590484 -0.003480796784822636
0.004687542696886982 0.001739811330248628 -0.005706919954364792
0.003530097462396263 0.003540962002900263 0.002369171343360914
0.003546780582183259 0.003524251339199259 -0.002342761778640505
0.003537475230718447 0.003533591514600047 1.203408492478772e-05
0.003550944838906661 0.003520055503971796 -0.006452486119336301
0.003524500719024936 0.003546532769000265 0.006472048635558166
0.004698176607726928 0.001710887653414884 0.007883288307528493
0.001695213069786114 0.004703855083654931 0.007883866934997324
0.004705384053388359 0.001690964491087419 -0.007872956643874733
0.001710235071548122 0.004698414200562437 -0.007876985066912579
2 15 0 26
227
228
229
230
231
232
233
234
235
236
237
238
239
240
241
242
243
244
245
246
247
248
249
250
251
252
-0.004669726286444222 0.001787080415004275 0.005786576114183409
-0.004677723638865532 0.001766041210843788 -0.005677216684182092
-0.004301643739275149 0.002548697930386201 -0.001468940668674123
-0.0024088806981505 0.004381471645700557 0.003190023185920283
-0.002883756423802049 0.004084598987438107 -0.008093691009936156
-0.002890567295005174 0.004079781944301247 0.008130122358230447
-0.001906509302319129 0.004622252944200547 -0.003454284286541387
-0.004543071700871228 0.002088180911880721 0.003692409266565934
-0.004602291266080425 0.001954204467848702 -0.003433008602585632
-0.003306622234863798 0.003750499886135758 7.578649241296321e-05
-0.001855097673042848 0.004643125307750265 0.005704226723198286
-0.001764384067361681 0.004678348946245912 -0.00566267044301307
-0.004091244281778984 0.002874320828789082 -0.008078397233082448
-0.00409127507741161 0.002874276994471934 0.008120458906019772
-0.00350937968344815 0.003561496067301121 -0.003836800411100693
-0.003664811427592985 0.003401346380506379 0.004502059515548802
-0.00235352541967672 0.00441145305981323 -0.001511245169367139
-0.002049116816438177 0.004560824516750261 0.001057229219381027
-0.003467905738502368 0.003601892528777384 -0.00228517689923671
-0.004166479484117981 0.002764136159530487 0.001728796286172013
-0.003532716501184648 0.003538349067327542 -0.006385742822111547
-0.003573977762219849 0.003496667406997408 0.006505949821300814
-0.001728132239738455 0.004691860927390808 0.007862441933167805
-0.004698960074119062 0.001708734684447814 0.00787174642579659
-0.001711142587460435 0.004698083763129302 -0.007839738786470497
-0.004699225070384652 0.001708005778054732 -0.007839839422807002
2 17 0 27
253
254
255
256
257
258
259
260
261
262
263
264
265
266
267
268
269
270
271
272
273
274
275
276
277
278
279
0.001747582554567428 -0.004684651023819338 0.005757502805201855
0.004671413457128898 -0.001782665507759384 -0.00575177172408623
0.002432389929470028 -0.004368464173026121 -0.001549293385443711
0.00460823325030416 -0.001940151105143916 0.003527404657564335
0.004083003028671879 -0.002886015638879362 0.008170446410013665
0.002852763804965327 -0.0041063047467376 -0.008154291765177556
0.004345841550661112 -0.002472581892788874 -0.001558701544083161
0.001914400942769507 -0.004618990044406158 0.003507566589877899
0.004602423809333939 -0.001953892289578944 -0.00350636591268743
0.003507236663204081 -0.003563606458109129 -0.00393598981447451
0.004348580299815334 -0.002467762017711181 0.001544696017257902
0.002441792979277868 -0.004363215218889541 0.001541823416437898
0.004674687745175742 -0.001774061578723729 0.005739531084926299
0.004083808400492462 -0.002884875898209001 -0.00813824121882633
0.002859290179570595 -0.004101762995226704 0.00814933169745434
0.003523181266520591 -0.003547843537028986 0.003930326305717153
0.001903787632778983 -0.004623374595387852 -0.0034863774614147
0.001737498135720266 -0.004688400604509878 -0.005709469809918068
0.003523905839149355 -0.003547123854168201 0.002359541067863453
0.003523029568512194 -0.003547994174091718 -7.545447813856951e-06
0.00351457953025441 -0.003556364818957228 -0.002361108194518988
0.003516089061436511 -0.003554872390402572 -0.006456593258963071
0.003523929292403732 -0.003547100554275128 0.006470910964339873
0.001695533170328784 -0.004703739710944348 0.007883572247447337
0.004698271749542185 -0.001710626366993623 0.007883361552078536
0.004697723933752371 -0.001712130205986137 -0.007878267259594699
0.00169031687397826 -0.004705616735938484 -0.007873841373663306
2 18 0 26
280
281
282
283
284
285
286
287
288
289
290
291
292
293
294
295
296
297
298
299
300
301
302
303
304
305
0.001785604702603417 0.004670290766755379 0.005786056366385741
0.001768171319166138 0.004676918877431837 -0.00567428716470743
0.002549544079533024 0.004301142288569175 -0.001463641585243862
0.004380608215267125 0.002410450510658573 0.003190258627742655
0.004087477583329004 0.002879674809033629 -0.008093398376140258
0.004077207226230457 0.002894197856811819 0.008128505053670099
0.004623399538117494 0.00190372705788801 -0.003450702270004062
0.002086908998125133 0.004543656108635902 0.003692344327274972
0.001955981837266615 0.004601536162227034 -0.003428761201843884
0.003750575471180408 0.00330653650138326 7.930017355749295e-05
0.004641863193742023 0.001858253505467727 0.005703113181856337
0.004679778893228449 0.001760587830951214 -0.005661256462081626
0.002876575912426522 0.004089659034693175 -0.008077180237243303
0.002872518213228188 0.004092510123954775 0.008119680033827893
0.003399412646024935 0.003666605195824298 0.004501624145407637
0.003563736699033101 0.00350710432407772 -0.003831744893204796
0.004411985162692543 0.002352527773307011 -0.001507166117691452
0.004560695330348697 0.002049404329002836 0.001058828048807964
0.003603140138928359 0.003466609458713704 -0.002279856336515858
0.002763570325029673 0.004166854816119153 0.001730074867725904
0.003494421164711742 0.00357617403430183 0.006504977810931494
0.003541082874747249 0.003529976214391783 -0.006383619061999172
0.004691023626307612 0.001730403807619419 0.007861557255595713
0.001707920502782314 0.004699256064120767 0.007871432929310035
0.004699004779960029 0.001708611739955217 -0.007839554933182469
0.001709143970605745 0.00469881122069636 -0.007838873625847224
2 20 0 27
306
307
308
309
310
311
312
313
314
315
316
317
318
319
320
321
322
323
324
325
326
327
328
329
330
331
332
-0.004684367047481104 -0.001748343605951977 0.00575723338565854
-0.001784086457912808 -0.004670870958471462 -0.005752923943630282
-0.004368032662596403 -0.002433164741338112 -0.001550900689454023
-0.001937101203763335 -0.004609516127141615 0.003528570730924692
-0.004106687442474622 -0.002852212868953022 -0.008155081541643325
-0.002885823400694735 -0.004083138902854355 0.008170477501210223
-0.002472353304359264 -0.004345971598897515 -0.001559309369375843
-0.00461766211374016 -0.001917601784346464 0.003506312244329346
-0.001955386193824889 -0.004601789307758342 -0.00350762613609136
-0.003564711437700089 -0.003506113570027382 -0.00393773406638934
-0.004359779283731625 -0.002447922506360148 0.001541897287332048
-0.002461820622482013 -0.004351946601547665 0.00154413436204955
-0.001773193037125361 -0.004675017267678283 0.005739749965991859
-0.004101609997398151 -0.002859509648391404 0.008149315423857899
-0.00288534730862938 -0.004083475346881035 -0.008138986633760141
-0.003545068181436456 -0.003525973849728157 0.00393026122928368
-0.004623671936151644 -0.001903065376397694 -0.003487550664681
-0.004688678891840643 -0.001736747030862003 -0.005710342638802063
-0.003542978641695868 -0.003528073460755444 0.002359355690797982
-0.003545631006526911 -0.003525407886409026 -8.164649690669222e-06
-0.003556576012976717 -0.003514365812478637 -0.002362462296327217
-0.003555623990209713 -0.00351532900881911 -0.0064577059643664
-0.003546246543385217 -0.00352478871048016 0.006470903495578008
-0.004703662642608972 -0.001695746957692911 0.007883536341685281
-0.001710391986615787 -0.004698357080099436 0.007883400889451529
-0.004705740873866712 -0.001689971250648999 -0.007874244848284237
-0.001712499511661609 -0.004697589320338544 -0.007878684412983906
$EndNodes
$Elements
24 364 1 364
1 13 1 4
1 1 17 
2 17 18 
3 18 19 
4 19 2 
1 15 1 4
5 4 27 
6 27 28 
7 28 29 
8 29 3 
1 17 1 4
9 5 37 
10 37 38 
11 38 39 
12 39 4 
1 19 1 4
13 6 47 
14 47 48 
15 48 49 
16 49 1 
1 20 1 4
17 2 50 
18 50 51 
19 51 52 
20 52 7 
1 21 1 4
21 7 53 
22 53 54 
23 54 55 
24 55 6 
1 22 1 4
25 8 56 
26 56 57 
27 57 58 
28 58 5 
1 23 1 4
29 3 59 
30 59 60 
31 60 61 
32 61 8 
1 26 1 4
33 11 76 
34 76 77 
35 77 78 
36 78 10 
1 28 1 4
37 12 86 
38 86 87 
39 87 88 
40 88 9 
1 29 1 4
41 10 89 
42 89 90 
43 90 91 
44 91 13 
1 30 1 4
45 13 92 
46 92 93 
47 93 94 
48 94 14 
1 31 1 4
49 14 95 
50 95 96 
51 96 97 
52 97 11 
1 33 1 4
53 15 105 
54 105 106 
55 106 107 
56 107 16 
1 35 1 4
57 16 115 
58 115 116 
59 116 117 
60 117 12 
1 36 1 4
61 9 118 
62 118 119 
63 119 120 
64 120 15 
2 9 3 37
65 33 138 130 137 
66 146 122 21 20 
67 144 26 25 121 
68 23 123 130 140 
69 122 129 22 21 
70 23 140 128 24 
71 143 131 35 36 
72 145 30 31 132 
73 129 123 23 22 
74 121 25 24 128 
75 34 35 131 124 
76 32 127 132 31 
77 123 139 137 130 
78 143 126 142 131 
79 145 132 141 125 
80 33 34 124 138 
81 33 137 127 32 
82 135 139 123 129 
83 128 140 124 136 
84 18 133 146 19 
85 18 17 145 125 
86 28 126 143 27 
87 28 29 144 134 
88 146 133 141 122 
89 130 138 124 140 
90 135 127 137 139 
91 144 121 142 134 
92 26 144 29 3 
93 20 2 19 146 
94 30 145 17 1 
95 36 4 27 143 
96 28 134 142 126 
97 124 131 142 136 
98 127 135 141 132 
99 18 125 141 133 
100 129 122 141 135 
101 128 136 142 121 
2 10 3 37
102 43 164 156 163 
103 172 148 31 30 
104 170 36 35 147 
105 33 149 156 166 
106 33 166 154 34 
107 169 157 45 46 
108 148 155 32 31 
109 171 40 41 158 
110 155 149 33 32 
111 147 35 34 154 
112 44 45 157 150 
113 42 153 158 41 
114 149 165 163 156 
115 149 155 161 165 
116 169 152 168 157 
117 171 158 167 151 
118 43 44 150 164 
119 43 163 153 42 
120 154 166 150 162 
121 48 47 171 151 
122 48 159 172 49 
123 38 39 170 160 
124 38 152 169 37 
125 172 159 167 148 
126 156 164 150 166 
127 170 147 168 160 
128 161 153 163 165 
129 36 170 39 4 
130 40 171 47 6 
131 30 1 49 172 
132 46 5 37 169 
133 38 160 168 152 
134 150 157 168 162 
135 153 161 167 158 
136 48 151 167 159 
137 155 148 167 161 
138 154 162 168 147 
2 13 3 38
139 199 174 63 62 
140 196 173 25 26 
141 174 182 64 63 
142 197 68 67 185 
143 173 181 24 25 
144 198 20 21 186 
145 175 183 66 65 
146 182 175 65 64 
147 24 179 184 23 
148 180 22 23 184 
149 66 176 185 67 
150 22 180 186 21 
151 24 181 191 179 
152 197 185 194 177 
153 181 189 176 191 
154 183 193 179 191 
155 198 186 195 178 
156 66 183 191 176 
157 190 192 175 182 
158 183 175 192 193 
159 190 180 184 192 
160 192 184 179 193 
161 51 187 199 52 
162 60 61 197 177 
163 51 50 198 178 
164 60 188 196 59 
165 196 188 194 173 
166 199 187 195 174 
167 62 7 52 199 
168 20 198 50 2 
169 68 197 61 8 
170 26 3 59 196 
171 176 189 194 185 
172 180 190 195 186 
173 60 177 194 188 
174 51 178 195 187 
175 181 173 194 189 
176 182 174 195 190 
2 14 3 38
177 226 201 41 40 
178 224 46 45 200 
179 200 45 44 207 
180 201 208 42 41 
181 223 212 67 68 
182 207 44 43 206 
183 208 210 43 42 
184 203 211 65 66 
185 66 67 212 203 
186 217 63 64 216 
187 225 217 221 204 
188 65 202 216 64 
189 209 219 210 208 
190 43 210 220 206 
191 215 218 211 203 
192 223 205 222 212 
193 211 218 206 220 
194 215 207 206 218 
195 65 211 220 202 
196 225 62 63 217 
197 210 219 202 220 
198 208 201 221 209 
199 54 53 225 204 
200 57 205 223 56 
201 54 213 226 55 
202 57 58 224 214 
203 216 209 221 217 
204 226 213 221 201 
205 224 200 222 214 
206 209 216 202 219 
207 68 8 56 223 
208 62 225 53 7 
209 46 224 58 5 
210 40 6 55 226 
211 203 212 222 215 
212 57 214 222 205 
213 54 204 221 213 
214 207 215 222 200 
2 15 3 37
215 82 243 236 244 
216 252 69 70 228 
217 250 227 74 75 
218 72 246 236 229 
219 72 73 234 246 
220 249 85 84 237 
221 228 70 71 235 
222 251 238 80 79 
223 235 71 72 229 
224 227 234 73 74 
225 83 230 237 84 
226 81 80 238 233 
227 229 236 243 245 
228 229 245 241 235 
229 249 237 248 232 
230 251 231 247 238 
231 82 244 230 83 
232 82 81 233 243 
233 234 242 230 246 
234 87 88 252 239 
235 87 231 251 86 
236 77 240 250 78 
237 77 76 249 232 
238 252 228 247 239 
239 236 246 230 244 
240 250 240 248 227 
241 241 245 243 233 
242 75 10 78 250 
243 69 252 88 9 
244 79 12 86 251 
245 85 249 76 11 
246 77 232 248 240 
247 230 242 248 237 
248 233 238 247 241 
249 87 239 247 231 
250 235 241 247 228 
251 234 227 248 242 
2 17 3 38
252 278 108 109 254 
253 276 104 103 253 
254 254 109 110 261 
255 253 103 102 260 
256 277 265 113 114 
257 256 263 111 112 
258 260 102 101 264 
259 261 110 111 259 
260 112 113 265 256 
261 270 269 100 99 
262 279 258 274 270 
263 101 100 269 255 
264 277 257 275 265 
265 111 263 272 259 
266 268 260 264 271 
267 262 261 259 273 
268 279 270 99 98 
269 263 271 264 272 
270 101 255 272 264 
271 268 271 263 256 
272 259 272 255 273 
273 261 262 274 254 
274 93 257 277 94 
275 93 92 276 267 
276 106 107 278 266 
277 106 258 279 105 
278 269 270 274 262 
279 276 253 275 267 
280 278 254 274 266 
281 262 273 255 269 
282 114 14 94 277 
283 108 278 107 16 
284 104 276 92 13 
285 98 15 105 279 
286 106 266 274 258 
287 256 265 275 268 
288 93 267 275 257 
289 260 268 275 253 
2 18 3 37
290 111 296 289 297 
291 305 79 80 281 
292 303 280 84 85 
293 82 299 289 282 
294 281 80 81 288 
295 82 83 287 299 
296 302 114 113 290 
297 304 291 109 108 
298 288 81 82 282 
299 280 287 83 84 
300 112 283 290 113 
301 110 109 291 286 
302 282 289 296 298 
303 302 290 300 285 
304 111 297 283 112 
305 304 284 301 291 
306 111 110 286 296 
307 295 288 282 298 
308 287 294 283 299 
309 116 117 305 292 
310 96 95 302 285 
311 116 284 304 115 
312 96 293 303 97 
313 305 281 301 292 
314 289 299 283 297 
315 295 298 296 286 
316 303 293 300 280 
317 79 305 117 12 
318 114 302 95 14 
319 85 11 97 303 
320 108 16 115 304 
321 96 285 300 293 
322 286 291 301 295 
323 283 294 300 290 
324 116 292 301 284 
325 287 280 300 294 
326 288 295 301 281 
2 20 3 38
327 332 98 99 307 
328 329 75 74 306 
329 307 99 100 314 
330 306 74 73 313 
331 330 318 103 104 
332 309 317 101 102 
333 313 73 72 316 
334 314 100 101 312 
335 102 103 318 309 
336 323 322 71 70 
337 331 310 327 323 
338 72 71 322 308 
339 330 311 328 318 
340 315 314 312 326 
341 321 313 316 324 
342 101 317 325 312 
343 331 323 70 69 
344 317 324 316 325 
345 72 308 325 316 
346 321 324 317 309 
347 312 325 308 326 
348 314 315 327 307 
349 119 120 332 320 
350 90 311 330 91 
351 90 89 329 319 
352 119 310 331 118 
353 322 323 327 315 
354 329 306 328 319 
355 332 307 327 320 
356 315 326 308 322 
357 98 332 120 15 
358 104 13 91 330 
359 75 329 89 10 
360 69 9 118 331 
361 309 318 328 321 
362 119 320 327 310 
363 90 319 328 311 
364 313 321 328 306 
$EndElements
