$MeshFormat
4.1 0 8
$EndMeshFormat
$Entities
8 12 6 1
1 0 0 0.01 0 
2 0 0 0 0 
3 0 1.5 0.01 0 
4 0 1.5 0 0 
5 2 0 0.01 0 
6 2 0 0 0 
7 2 1.5 0.01 0 
8 2 1.5 0 0 
1 -1e-07 -1e-07 -1.000000000002735e-07 1e-07 1e-07 0.0100001 0 2 2 -1 
2 -1e-07 -9.999999994736442e-08 0.009999900000000001 1e-07 1.5000001 0.0100001 0 2 1 -3 
3 -1e-07 1.4999999 -1.000000000002735e-07 1e-07 1.5000001 0.0100001 0 2 4 -3 
4 -1e-07 -9.999999994736442e-08 -1e-07 1e-07 1.5000001 1e-07 0 2 2 -4 
5 1.9999999 -1e-07 -1.000000000002735e-07 2.0000001 1e-07 0.0100001 0 2 6 -5 
6 1.9999999 -9.999999994736442e-08 0.009999900000000001 2.0000001 1.5000001 0.0100001 0 2 5 -7 
7 1.9999999 1.4999999 -1.000000000002735e-07 2.0000001 1.5000001 0.0100001 0 2 8 -7 
8 1.9999999 -9.999999994736442e-08 -1e-07 2.0000001 1.5000001 1e-07 0 2 6 -8 
9 -9.999999994736442e-08 -1e-07 -1e-07 2.0000001 1e-07 1e-07 0 2 2 -6 
10 -9.999999994736442e-08 -1e-07 0.009999900000000001 2.0000001 1e-07 0.0100001 0 2 1 -5 
11 -9.999999994736442e-08 1.4999999 -1e-07 2.0000001 1.5000001 1e-07 0 2 4 -8 
12 -9.999999994736442e-08 1.4999999 0.009999900000000001 2.0000001 1.5000001 0.0100001 0 2 3 -7 
1 -1e-07 -9.999999994736442e-08 -1.000000000002735e-07 1e-07 1.5000001 0.0100001 1 1 4 -1 4 3 -2 
2 1.9999999 -9.999999994736442e-08 -1.000000000002735e-07 2.0000001 1.5000001 0.0100001 1 2 4 -5 8 7 -6 
3 -9.999999994736442e-08 -1e-07 -1.000000000002735e-07 2.0000001 1e-07 0.0100001 1 3 4 -9 1 10 -5 
4 -9.999999994736442e-08 1.4999999 -1.000000000002735e-07 2.0000001 1.5000001 0.0100001 1 4 4 -11 3 12 -7 
5 -9.999999994736442e-08 -9.999999994736442e-08 -1e-07 2.0000001 1.5000001 1e-07 1 5 4 -4 9 8 -11 
6 -9.999999994736442e-08 -9.999999994736442e-08 0.009999900000000001 2.0000001 1.5000001 0.0100001 1 6 4 -2 10 6 -12 
1 -9.999999994736442e-08 -9.999999994736442e-08 -1.000000000002735e-07 2.0000001 1.5000001 0.0100001 1 1 6 -1 2 -3 4 -5 6 
$EndEntities
$Nodes
23 260 1 260
0 1 0 1
1
0 0 0.01
0 2 0 1
2
0 0 0
0 3 0 1
3
0 1.5 0.01
0 4 0 1
4
0 1.5 0
0 5 0 1
5
2 0 0.01
0 6 0 1
6
2 0 0
0 7 0 1
7
2 1.5 0.01
0 8 0 1
8
2 1.5 0
1 2 0 8
9
10
11
12
13
14
15
16
0 0.1666666666666667 0.01
0 0.3333333333333333 0.01
0 0.5 0.01
0 0.6666666666666666 0.01
0 0.8333333333333334 0.01
0 1 0.01
0 1.166666666666667 0.01
0 1.333333333333333 0.01
1 4 0 8
17
18
19
20
21
22
23
24
0 0.1666666666666667 0
0 0.3333333333333333 0
0 0.5 0
0 0.6666666666666666 0
0 0.8333333333333334 0
0 1 0
0 1.166666666666667 0
0 1.333333333333333 0
1 6 0 8
25
26
27
28
29
30
31
32
2 0.1666666666666667 0.01
2 0.3333333333333333 0.01
2 0.5 0.01
2 0.6666666666666666 0.01
2 0.8333333333333334 0.01
2 1 0.01
2 1.166666666666667 0.01
2 1.333333333333333 0.01
1 8 0 8
33
34
35
36
37
38
39
40
2 0.1666666666666667 0
2 0.3333333333333333 0
2 0.5 0
2 0.6666666666666666 0
2 0.8333333333333334 0
2 1 0
2 1.166666666666667 0
2 1.333333333333333 0
1 9 0 11
41
42
43
44
45
46
47
48
49
50
51
0.1666666666666667 0 0
0.3333333333333333 0 0
0.5 0 0
0.6666666666666666 0 0
0.8333333333333333 0 0
1 0 0
1.166666666666667 0 0
1.333333333333333 0 0
1.5 0 0
1.666666666666667 0 0
1.833333333333333 0 0
1 10 0 11
52
53
54
55
56
57
58
59
60
61
62
0.1666666666666667 0 0.01
0.3333333333333333 0 0.01
0.5 0 0.01
0.6666666666666666 0 0.01
0.8333333333333333 0 0.01
1 0 0.01
1.166666666666667 0 0.01
1.333333333333333 0 0.01
1.5 0 0.01
1.666666666666667 0 0.01
1.833333333333333 0 0.01
1 11 0 11
63
64
65
66
67
68
69
70
71
72
73
0.1666666666666667 1.5 0
0.3333333333333333 1.5 0
0.5 1.5 0
0.6666666666666666 1.5 0
0.8333333333333333 1.5 0
1 1.5 0
1.166666666666667 1.5 0
1.333333333333333 1.5 0
1.5 1.5 0
1.666666666666667 1.5 0
1.833333333333333 1.5 0
1 12 0 11
74
75
76
77
78
79
80
81
82
83
84
0.1666666666666667 1.5 0.01
0.3333333333333333 1.5 0.01
0.5 1.5 0.01
0.6666666666666666 1.5 0.01
0.8333333333333333 1.5 0.01
1 1.5 0.01
1.166666666666667 1.5 0.01
1.333333333333333 1.5 0.01
1.5 1.5 0.01
1.666666666666667 1.5 0.01
1.833333333333333 1.5 0.01
2 1 0 0
2 2 0 0
2 3 0 0
2 4 0 0
2 5 0 88
85
86
87
88
89
90
91
92
93
94
95
96
97
98
99
100
101
102
103
104
105
106
107
108
109
110
111
112
113
114
115
116
117
118
119
120
121
122
123
124
125
126
127
128
129
130
131
132
133
134
135
136
137
138
139
140
141
142
143
144
145
146
147
148
149
150
151
152
153
154
155
156
157
158
159
160
161
162
163
164
165
166
167
168
169
170
171
172
0.1666666666666667 0.1666666666666667 0
0.3333333333333333 0.1666666666666667 0
0.5 0.1666666666666667 0
0.6666666666666667 0.1666666666666667 0
0.8333333333333335 0.1666666666666667 0
1 0.1666666666666667 0
1.166666666666666 0.1666666666666667 0
1.333333333333333 0.1666666666666666 0
1.5 0.1666666666666667 0
1.666666666666667 0.1666666666666667 0
1.833333333333333 0.1666666666666667 0
0.1666666666666667 0.3333333333333333 0
0.3333333333333333 0.3333333333333333 0
0.5 0.3333333333333333 0
0.6666666666666667 0.3333333333333333 0
0.8333333333333336 0.3333333333333333 0
0.9999999999999999 0.3333333333333333 0
1.166666666666666 0.3333333333333333 0
1.333333333333333 0.3333333333333333 0
1.5 0.3333333333333333 0
1.666666666666667 0.3333333333333333 0
1.833333333333333 0.3333333333333333 0
0.1666666666666667 0.5 0
0.3333333333333333 0.5 0
0.5 0.5 0
0.6666666666666669 0.5 0
0.8333333333333336 0.5 0
0.9999999999999999 0.5 0
1.166666666666666 0.5 0
1.333333333333333 0.5 0
1.5 0.5 0
1.666666666666667 0.5 0
1.833333333333333 0.5 0
0.1666666666666667 0.6666666666666666 0
0.3333333333333333 0.6666666666666667 0
0.5 0.6666666666666669 0
0.6666666666666669 0.6666666666666669 0
0.8333333333333336 0.6666666666666669 0
0.9999999999999999 0.6666666666666669 0
1.166666666666666 0.6666666666666669 0
1.333333333333333 0.6666666666666669 0
1.5 0.6666666666666669 0
1.666666666666667 0.6666666666666669 0
1.833333333333333 0.6666666666666669 0
0.1666666666666667 0.8333333333333335 0
0.3333333333333333 0.8333333333333335 0
0.5 0.8333333333333336 0
0.6666666666666669 0.8333333333333336 0
0.8333333333333336 0.8333333333333336 0
0.9999999999999999 0.8333333333333336 0
1.166666666666666 0.8333333333333336 0
1.333333333333333 0.8333333333333336 0
1.5 0.8333333333333336 0
1.666666666666667 0.8333333333333336 0
1.833333333333333 0.8333333333333336 0
0.1666666666666667 0.9999999999999999 0
0.3333333333333333 0.9999999999999999 0
0.5 0.9999999999999999 0
0.6666666666666669 0.9999999999999999 0
0.8333333333333336 0.9999999999999999 0
0.9999999999999999 0.9999999999999999 0
1.166666666666666 0.9999999999999999 0
1.333333333333333 0.9999999999999999 0
1.5 0.9999999999999999 0
1.666666666666667 0.9999999999999999 0
1.833333333333333 0.9999999999999998 0
0.1666666666666666 1.166666666666667 0
0.3333333333333333 1.166666666666667 0
0.5 1.166666666666667 0
0.6666666666666669 1.166666666666667 0
0.8333333333333336 1.166666666666667 0
0.9999999999999999 1.166666666666667 0
1.166666666666666 1.166666666666667 0
1.333333333333333 1.166666666666667 0
1.5 1.166666666666667 0
1.666666666666667 1.166666666666667 0
1.833333333333333 1.166666666666667 0
0.1666666666666667 1.333333333333333 0
0.3333333333333333 1.333333333333333 0
0.5 1.333333333333333 0
0.6666666666666669 1.333333333333333 0
0.8333333333333336 1.333333333333333 0
0.9999999999999999 1.333333333333333 0
1.166666666666666 1.333333333333333 0
1.333333333333333 1.333333333333333 0
1.5 1.333333333333333 0
1.666666666666667 1.333333333333333 0
1.833333333333333 1.333333333333333 0
2 6 0 88
173
174
175
176
177
178
179
180
181
182
183
184
185
186
187
188
189
190
191
192
193
194
195
196
197
198
199
200
201
202
203
204
205
206
207
208
209
210
211
212
213
214
215
216
217
218
219
220
221
222
223
224
225
226
227
228
229
230
231
232
233
234
235
236
237
238
239
240
241
242
243
244
245
246
247
248
249
250
251
252
253
254
255
256
257
258
259
260
0.1666666666666667 0.1666666666666667 0.01
0.3333333333333333 0.1666666666666667 0.01
0.5 0.1666666666666667 0.01
0.6666666666666667 0.1666666666666667 0.01
0.8333333333333334 0.1666666666666667 0.01
0.9999999999999999 0.1666666666666667 0.01
1.166666666666667 0.1666666666666667 0.01
1.333333333333333 0.1666666666666666 0.01
1.5 0.1666666666666667 0.01
1.666666666666667 0.1666666666666667 0.01
1.833333333333333 0.1666666666666667 0.01
0.1666666666666667 0.3333333333333334 0.01
0.3333333333333333 0.3333333333333334 0.01
0.5 0.3333333333333333 0.01
0.6666666666666667 0.3333333333333334 0.01
0.8333333333333334 0.3333333333333333 0.01
0.9999999999999999 0.3333333333333333 0.01
1.166666666666667 0.3333333333333333 0.01
1.333333333333333 0.3333333333333333 0.01
1.5 0.3333333333333333 0.01
1.666666666666667 0.3333333333333333 0.01
1.833333333333333 0.3333333333333333 0.01
0.1666666666666667 0.5000000000000001 0.01
0.3333333333333333 0.5000000000000001 0.01
0.5 0.5000000000000001 0.01
0.6666666666666667 0.5000000000000001 0.01
0.8333333333333334 0.5000000000000001 0.01
0.9999999999999999 0.5000000000000001 0.01
1.166666666666667 0.5 0.01
1.333333333333333 0.5 0.01
1.5 0.5 0.01
1.666666666666667 0.5 0.01
1.833333333333333 0.5 0.01
0.1666666666666667 0.6666666666666667 0.01
0.3333333333333333 0.6666666666666667 0.01
0.5 0.6666666666666669 0.01
0.6666666666666667 0.6666666666666669 0.01
0.8333333333333334 0.6666666666666669 0.01
0.9999999999999999 0.6666666666666669 0.01
1.166666666666667 0.6666666666666669 0.01
1.333333333333333 0.6666666666666667 0.01
1.5 0.6666666666666666 0.01
1.666666666666667 0.6666666666666666 0.01
1.833333333333333 0.6666666666666666 0.01
0.1666666666666667 0.8333333333333334 0.01
0.3333333333333333 0.8333333333333334 0.01
0.5 0.8333333333333335 0.01
0.6666666666666667 0.8333333333333336 0.01
0.8333333333333334 0.8333333333333336 0.01
0.9999999999999999 0.8333333333333336 0.01
1.166666666666667 0.8333333333333336 0.01
1.333333333333333 0.8333333333333335 0.01
1.5 0.8333333333333334 0.01
1.666666666666667 0.8333333333333333 0.01
1.833333333333333 0.8333333333333333 0.01
0.1666666666666667 0.9999999999999998 0.01
0.3333333333333333 0.9999999999999998 0.01
0.5 0.9999999999999999 0.01
0.6666666666666667 0.9999999999999999 0.01
0.8333333333333334 0.9999999999999999 0.01
0.9999999999999999 0.9999999999999999 0.01
1.166666666666667 0.9999999999999999 0.01
1.333333333333333 0.9999999999999998 0.01
1.5 0.9999999999999998 0.01
1.666666666666667 0.9999999999999998 0.01
1.833333333333333 0.9999999999999998 0.01
0.1666666666666666 1.166666666666666 0.01
0.3333333333333333 1.166666666666666 0.01
0.5 1.166666666666666 0.01
0.6666666666666667 1.166666666666666 0.01
0.8333333333333334 1.166666666666666 0.01
0.9999999999999999 1.166666666666666 0.01
1.166666666666667 1.166666666666666 0.01
1.333333333333333 1.166666666666666 0.01
1.5 1.166666666666666 0.01
1.666666666666667 1.166666666666666 0.01
1.833333333333333 1.166666666666666 0.01
0.1666666666666667 1.333333333333333 0.01
0.3333333333333333 1.333333333333333 0.01
0.5 1.333333333333333 0.01
0.6666666666666667 1.333333333333333 0.01
0.8333333333333334 1.333333333333333 0.01
0.9999999999999999 1.333333333333333 0.01
1.166666666666667 1.333333333333333 0.01
1.333333333333333 1.333333333333333 0.01
1.5 1.333333333333333 0.01
1.666666666666667 1.333333333333333 0.01
1.833333333333333 1.333333333333333 0.01
3 1 0 0
$EndNodes
$Elements
7 906 1 906
2 1 3 9
1 2 1 9 17 
2 17 9 10 18 
3 18 10 11 19 
4 19 11 12 20 
5 20 12 13 21 
6 21 13 14 22 
7 22 14 15 23 
8 23 15 16 24 
9 24 16 3 4 
2 2 3 9
10 6 33 25 5 
11 33 34 26 25 
12 34 35 27 26 
13 35 36 28 27 
14 36 37 29 28 
15 37 38 30 29 
16 38 39 31 30 
17 39 40 32 31 
18 40 8 7 32 
2 3 3 12
19 2 41 52 1 
20 41 42 53 52 
21 42 43 54 53 
22 43 44 55 54 
23 44 45 56 55 
24 45 46 57 56 
25 46 47 58 57 
26 47 48 59 58 
27 48 49 60 59 
28 49 50 61 60 
29 50 51 62 61 
30 51 6 5 62 
2 4 3 12
31 4 3 74 63 
32 63 74 75 64 
33 64 75 76 65 
34 65 76 77 66 
35 66 77 78 67 
36 67 78 79 68 
37 68 79 80 69 
38 69 80 81 70 
39 70 81 82 71 
40 71 82 83 72 
41 72 83 84 73 
42 73 84 7 8 
2 5 3 108
43 2 17 85 41 
44 41 85 86 42 
45 42 86 87 43 
46 43 87 88 44 
47 44 88 89 45 
48 45 89 90 46 
49 46 90 91 47 
50 47 91 92 48 
51 48 92 93 49 
52 49 93 94 50 
53 50 94 95 51 
54 51 95 33 6 
55 17 18 96 85 
56 85 96 97 86 
57 86 97 98 87 
58 87 98 99 88 
59 88 99 100 89 
60 89 100 101 90 
61 90 101 102 91 
62 91 102 103 92 
63 92 103 104 93 
64 93 104 105 94 
65 94 105 106 95 
66 95 106 34 33 
67 18 19 107 96 
68 96 107 108 97 
69 97 108 109 98 
70 98 109 110 99 
71 99 110 111 100 
72 100 111 112 101 
73 101 112 113 102 
74 102 113 114 103 
75 103 114 115 104 
76 104 115 116 105 
77 105 116 117 106 
78 106 117 35 34 
79 19 20 118 107 
80 107 118 119 108 
81 108 119 120 109 
82 109 120 121 110 
83 110 121 122 111 
84 111 122 123 112 
85 112 123 124 113 
86 113 124 125 114 
87 114 125 126 115 
88 115 126 127 116 
89 116 127 128 117 
90 117 128 36 35 
91 20 21 129 118 
92 118 129 130 119 
93 119 130 131 120 
94 120 131 132 121 
95 121 132 133 122 
96 122 133 134 123 
97 123 134 135 124 
98 124 135 136 125 
99 125 136 137 126 
100 126 137 138 127 
101 127 138 139 128 
102 128 139 37 36 
103 21 22 140 129 
104 129 140 141 130 
105 130 141 142 131 
106 131 142 143 132 
107 132 143 144 133 
108 133 144 145 134 
109 134 145 146 135 
110 135 146 147 136 
111 136 147 148 137 
112 137 148 149 138 
113 138 149 150 139 
114 139 150 38 37 
115 22 23 151 140 
116 140 151 152 141 
117 141 152 153 142 
118 142 153 154 143 
119 143 154 155 144 
120 144 155 156 145 
121 145 156 157 146 
122 146 157 158 147 
123 147 158 159 148 
124 148 159 160 149 
125 149 160 161 150 
126 150 161 39 38 
127 23 24 162 151 
128 151 162 163 152 
129 152 163 164 153 
130 153 164 165 154 
131 154 165 166 155 
132 155 166 167 156 
133 156 167 168 157 
134 157 168 169 158 
135 158 169 170 159 
136 159 170 171 160 
137 160 171 172 161 
138 161 172 40 39 
139 24 4 63 162 
140 162 63 64 163 
141 163 64 65 164 
142 164 65 66 165 
143 165 66 67 166 
144 166 67 68 167 
145 167 68 69 168 
146 168 69 70 169 
147 169 70 71 170 
148 170 71 72 171 
149 171 72 73 172 
150 172 73 8 40 
2 6 3 108
151 1 52 173 9 
152 52 53 174 173 
153 53 54 175 174 
154 54 55 176 175 
155 55 56 177 176 
156 56 57 178 177 
157 57 58 179 178 
158 58 59 180 179 
159 59 60 181 180 
160 60 61 182 181 
161 61 62 183 182 
162 62 5 25 183 
163 9 173 184 10 
164 173 174 185 184 
165 174 175 186 185 
166 175 176 187 186 
167 176 177 188 187 
168 177 178 189 188 
169 178 179 190 189 
170 179 180 191 190 
171 180 181 192 191 
172 181 182 193 192 
173 182 183 194 193 
174 183 25 26 194 
175 10 184 195 11 
176 184 185 196 195 
177 185 186 197 196 
178 186 187 198 197 
179 187 188 199 198 
180 188 189 200 199 
181 189 190 201 200 
182 190 191 202 201 
183 191 192 203 202 
184 192 193 204 203 
185 193 194 205 204 
186 194 26 27 205 
187 11 195 206 12 
188 195 196 207 206 
189 196 197 208 207 
190 197 198 209 208 
191 198 199 210 209 
192 199 200 211 210 
193 200 201 212 211 
194 201 202 213 212 
195 202 203 214 213 
196 203 204 215 214 
197 204 205 216 215 
198 205 27 28 216 
199 12 206 217 13 
200 206 207 218 217 
201 207 208 219 218 
202 208 209 220 219 
203 209 210 221 220 
204 210 211 222 221 
205 211 212 223 222 
206 212 213 224 223 
207 213 214 225 224 
208 214 215 226 225 
209 215 216 227 226 
210 216 28 29 227 
211 13 217 228 14 
212 217 218 229 228 
213 218 219 230 229 
214 219 220 231 230 
215 220 221 232 231 
216 221 222 233 232 
217 222 223 234 233 
218 223 224 235 234 
219 224 225 236 235 
220 225 226 237 236 
221 226 227 238 237 
222 227 29 30 238 
223 14 228 239 15 
224 228 229 240 239 
225 229 230 241 240 
226 230 231 242 241 
227 231 232 243 242 
228 232 233 244 243 
229 233 234 245 244 
230 234 235 246 245 
231 235 236 247 246 
232 236 237 248 247 
233 237 238 249 248 
234 238 30 31 249 
235 15 239 250 16 
236 239 240 251 250 
237 240 241 252 251 
238 241 242 253 252 
239 242 243 254 253 
240 243 244 255 254 
241 244 245 256 255 
242 245 246 257 256 
243 246 247 258 257 
244 247 248 259 258 
245 248 249 260 259 
246 249 31 32 260 
247 16 250 74 3 
248 250 251 75 74 
249 251 252 76 75 
250 252 253 77 76 
251 253 254 78 77 
252 254 255 79 78 
253 255 256 80 79 
254 256 257 81 80 
255 257 258 82 81 
256 258 259 83 82 
257 259 260 84 83 
258 260 32 7 84 
3 1 4 648
259 1 2 17 41 
260 17 1 41 52 
261 52 41 17 85 
262 17 1 52 9 
263 85 17 52 9 
264 85 52 173 9 
265 52 41 85 42 
266 85 52 42 53 
267 53 42 85 86 
268 85 52 53 173 
269 86 85 53 173 
270 86 53 174 173 
271 53 42 86 43 
272 86 53 43 54 
273 54 43 86 87 
274 86 53 54 174 
275 87 86 54 174 
276 87 54 175 174 
277 54 43 87 44 
278 87 54 44 55 
279 55 44 87 88 
280 87 54 55 175 
281 88 87 55 175 
282 88 55 176 175 
283 55 44 88 45 
284 88 55 45 56 
285 56 45 88 89 
286 88 55 56 176 
287 89 88 56 176 
288 89 56 177 176 
289 56 45 89 46 
290 89 56 46 57 
291 57 46 89 90 
292 89 56 57 177 
293 90 89 57 177 
294 90 57 178 177 
295 57 46 90 47 
296 90 57 47 58 
297 58 47 90 91 
298 90 57 58 178 
299 91 90 58 178 
300 91 58 179 178 
301 58 47 91 48 
302 91 58 48 59 
303 59 48 91 92 
304 91 58 59 179 
305 92 91 59 179 
306 92 59 180 179 
307 59 48 92 49 
308 92 59 49 60 
309 60 49 92 93 
310 92 59 60 180 
311 93 92 60 180 
312 93 60 181 180 
313 60 49 93 50 
314 93 60 50 61 
315 61 50 93 94 
316 93 60 61 181 
317 94 93 61 181 
318 94 61 182 181 
319 61 50 94 51 
320 94 61 51 62 
321 62 51 94 95 
322 94 61 62 182 
323 95 94 62 182 
324 95 62 183 182 
325 62 51 95 6 
326 95 62 6 5 
327 5 6 95 33 
328 95 62 5 183 
329 33 95 5 183 
330 33 5 25 183 
331 9 17 18 85 
332 18 9 85 173 
333 173 85 18 96 
334 18 9 173 10 
335 96 18 173 10 
336 96 173 184 10 
337 173 85 96 86 
338 96 173 86 174 
339 174 86 96 97 
340 96 173 174 184 
341 97 96 174 184 
342 97 174 185 184 
343 174 86 97 87 
344 97 174 87 175 
345 175 87 97 98 
346 97 174 175 185 
347 98 97 175 185 
348 98 175 186 185 
349 175 87 98 88 
350 98 175 88 176 
351 176 88 98 99 
352 98 175 176 186 
353 99 98 176 186 
354 99 176 187 186 
355 176 88 99 89 
356 99 176 89 177 
357 177 89 99 100 
358 99 176 177 187 
359 100 99 177 187 
360 100 177 188 187 
361 177 89 100 90 
362 100 177 90 178 
363 178 90 100 101 
364 100 177 178 188 
365 101 100 178 188 
366 101 178 189 188 
367 178 90 101 91 
368 101 178 91 179 
369 179 91 101 102 
370 101 178 179 189 
371 102 101 179 189 
372 102 179 190 189 
373 179 91 102 92 
374 102 179 92 180 
375 180 92 102 103 
376 102 179 180 190 
377 103 102 180 190 
378 103 180 191 190 
379 180 92 103 93 
380 103 180 93 181 
381 181 93 103 104 
382 103 180 181 191 
383 104 103 181 191 
384 104 181 192 191 
385 181 93 104 94 
386 104 181 94 182 
387 182 94 104 105 
388 104 181 182 192 
389 105 104 182 192 
390 105 182 193 192 
391 182 94 105 95 
392 105 182 95 183 
393 183 95 105 106 
394 105 182 183 193 
395 106 105 183 193 
396 106 183 194 193 
397 183 95 106 33 
398 106 183 33 25 
399 25 33 106 34 
400 106 183 25 194 
401 34 106 25 194 
402 34 25 26 194 
403 10 18 19 96 
404 19 10 96 184 
405 184 96 19 107 
406 19 10 184 11 
407 107 19 184 11 
408 107 184 195 11 
409 184 96 107 97 
410 107 184 97 185 
411 185 97 107 108 
412 107 184 185 195 
413 108 107 185 195 
414 108 185 196 195 
415 185 97 108 98 
416 108 185 98 186 
417 186 98 108 109 
418 108 185 186 196 
419 109 108 186 196 
420 109 186 197 196 
421 186 98 109 99 
422 109 186 99 187 
423 187 99 109 110 
424 109 186 187 197 
425 110 109 187 197 
426 110 187 198 197 
427 187 99 110 100 
428 110 187 100 188 
429 188 100 110 111 
430 110 187 188 198 
431 111 110 188 198 
432 111 188 199 198 
433 188 100 111 101 
434 111 188 101 189 
435 189 101 111 112 
436 111 188 189 199 
437 112 111 189 199 
438 112 189 200 199 
439 189 101 112 102 
440 112 189 102 190 
441 190 102 112 113 
442 112 189 190 200 
443 113 112 190 200 
444 113 190 201 200 
445 190 102 113 103 
446 113 190 103 191 
447 191 103 113 114 
448 113 190 191 201 
449 114 113 191 201 
450 114 191 202 201 
451 191 103 114 104 
452 114 191 104 192 
453 192 104 114 115 
454 114 191 192 202 
455 115 114 192 202 
456 115 192 203 202 
457 192 104 115 105 
458 115 192 105 193 
459 193 105 115 116 
460 115 192 193 203 
461 116 115 193 203 
462 116 193 204 203 
463 193 105 116 106 
464 116 193 106 194 
465 194 106 116 117 
466 116 193 194 204 
467 117 116 194 204 
468 117 194 205 204 
469 194 106 117 34 
470 117 194 34 26 
471 26 34 117 35 
472 117 194 26 205 
473 35 117 26 205 
474 35 26 27 205 
475 11 19 20 107 
476 20 11 107 195 
477 195 107 20 118 
478 20 11 195 12 
479 118 20 195 12 
480 118 195 206 12 
481 195 107 118 108 
482 118 195 108 196 
483 196 108 118 119 
484 118 195 196 206 
485 119 118 196 206 
486 119 196 207 206 
487 196 108 119 109 
488 119 196 109 197 
489 197 109 119 120 
490 119 196 197 207 
491 120 119 197 207 
492 120 197 208 207 
493 197 109 120 110 
494 120 197 110 198 
495 198 110 120 121 
496 120 197 198 208 
497 121 120 198 208 
498 121 198 209 208 
499 198 110 121 111 
500 121 198 111 199 
501 199 111 121 122 
502 121 198 199 209 
503 122 121 199 209 
504 122 199 210 209 
505 199 111 122 112 
506 122 199 112 200 
507 200 112 122 123 
508 122 199 200 210 
509 123 122 200 210 
510 123 200 211 210 
511 200 112 123 113 
512 123 200 113 201 
513 201 113 123 124 
514 123 200 201 211 
515 124 123 201 211 
516 124 201 212 211 
517 201 113 124 114 
518 124 201 114 202 
519 202 114 124 125 
520 124 201 202 212 
521 125 124 202 212 
522 125 202 213 212 
523 202 114 125 115 
524 125 202 115 203 
525 203 115 125 126 
526 125 202 203 213 
527 126 125 203 213 
528 126 203 214 213 
529 203 115 126 116 
530 126 203 116 204 
531 204 116 126 127 
532 126 203 204 214 
533 127 126 204 214 
534 127 204 215 214 
535 204 116 127 117 
536 127 204 117 205 
537 205 117 127 128 
538 127 204 205 215 
539 128 127 205 215 
540 128 205 216 215 
541 205 117 128 35 
542 128 205 35 27 
543 27 35 128 36 
544 128 205 27 216 
545 36 128 27 216 
546 36 27 28 216 
547 12 20 21 118 
548 21 12 118 206 
549 206 118 21 129 
550 21 12 206 13 
551 129 21 206 13 
552 129 206 217 13 
553 206 118 129 119 
554 129 206 119 207 
555 207 119 129 130 
556 129 206 207 217 
557 130 129 207 217 
558 130 207 218 217 
559 207 119 130 120 
560 130 207 120 208 
561 208 120 130 131 
562 130 207 208 218 
563 131 130 208 218 
564 131 208 219 218 
565 208 120 131 121 
566 131 208 121 209 
567 209 121 131 132 
568 131 208 209 219 
569 132 131 209 219 
570 132 209 220 219 
571 209 121 132 122 
572 132 209 122 210 
573 210 122 132 133 
574 132 209 210 220 
575 133 132 210 220 
576 133 210 221 220 
577 210 122 133 123 
578 133 210 123 211 
579 211 123 133 134 
580 133 210 211 221 
581 134 133 211 221 
582 134 211 222 221 
583 211 123 134 124 
584 134 211 124 212 
585 212 124 134 135 
586 134 211 212 222 
587 135 134 212 222 
588 135 212 223 222 
589 212 124 135 125 
590 135 212 125 213 
591 213 125 135 136 
592 135 212 213 223 
593 136 135 213 223 
594 136 213 224 223 
595 213 125 136 126 
596 136 213 126 214 
597 214 126 136 137 
598 136 213 214 224 
599 137 136 214 224 
600 137 214 225 224 
601 214 126 137 127 
602 137 214 127 215 
603 215 127 137 138 
604 137 214 215 225 
605 138 137 215 225 
606 138 215 226 225 
607 215 127 138 128 
608 138 215 128 216 
609 216 128 138 139 
610 138 215 216 226 
611 139 138 216 226 
612 139 216 227 226 
613 216 128 139 36 
614 139 216 36 28 
615 28 36 139 37 
616 139 216 28 227 
617 37 139 28 227 
618 37 28 29 227 
619 13 21 22 129 
620 22 13 129 217 
621 217 129 22 140 
622 22 13 217 14 
623 140 22 217 14 
624 140 217 228 14 
625 217 129 140 130 
626 140 217 130 218 
627 218 130 140 141 
628 140 217 218 228 
629 141 140 218 228 
630 141 218 229 228 
631 218 130 141 131 
632 141 218 131 219 
633 219 131 141 142 
634 141 218 219 229 
635 142 141 219 229 
636 142 219 230 229 
637 219 131 142 132 
638 142 219 132 220 
639 220 132 142 143 
640 142 219 220 230 
641 143 142 220 230 
642 143 220 231 230 
643 220 132 143 133 
644 143 220 133 221 
645 221 133 143 144 
646 143 220 221 231 
647 144 143 221 231 
648 144 221 232 231 
649 221 133 144 134 
650 144 221 134 222 
651 222 134 144 145 
652 144 221 222 232 
653 145 144 222 232 
654 145 222 233 232 
655 222 134 145 135 
656 145 222 135 223 
657 223 135 145 146 
658 145 222 223 233 
659 146 145 223 233 
660 146 223 234 233 
661 223 135 146 136 
662 146 223 136 224 
663 224 136 146 147 
664 146 223 224 234 
665 147 146 224 234 
666 147 224 235 234 
667 224 136 147 137 
668 147 224 137 225 
669 225 137 147 148 
670 147 224 225 235 
671 148 147 225 235 
672 148 225 236 235 
673 225 137 148 138 
674 148 225 138 226 
675 226 138 148 149 
676 148 225 226 236 
677 149 148 226 236 
678 149 226 237 236 
679 226 138 149 139 
680 149 226 139 227 
681 227 139 149 150 
682 149 226 227 237 
683 150 149 227 237 
684 150 227 238 237 
685 227 139 150 37 
686 150 227 37 29 
687 29 37 150 38 
688 150 227 29 238 
689 38 150 29 238 
690 38 29 30 238 
691 14 22 23 140 
692 23 14 140 228 
693 228 140 23 151 
694 23 14 228 15 
695 151 23 228 15 
696 151 228 239 15 
697 228 140 151 141 
698 151 228 141 229 
699 229 141 151 152 
700 151 228 229 239 
701 152 151 229 239 
702 152 229 240 239 
703 229 141 152 142 
704 152 229 142 230 
705 230 142 152 153 
706 152 229 230 240 
707 153 152 230 240 
708 153 230 241 240 
709 230 142 153 143 
710 153 230 143 231 
711 231 143 153 154 
712 153 230 231 241 
713 154 153 231 241 
714 154 231 242 241 
715 231 143 154 144 
716 154 231 144 232 
717 232 144 154 155 
718 154 231 232 242 
719 155 154 232 242 
720 155 232 243 242 
721 232 144 155 145 
722 155 232 145 233 
723 233 145 155 156 
724 155 232 233 243 
725 156 155 233 243 
726 156 233 244 243 
727 233 145 156 146 
728 156 233 146 234 
729 234 146 156 157 
730 156 233 234 244 
731 157 156 234 244 
732 157 234 245 244 
733 234 146 157 147 
734 157 234 147 235 
735 235 147 157 158 
736 157 234 235 245 
737 158 157 235 245 
738 158 235 246 245 
739 235 147 158 148 
740 158 235 148 236 
741 236 148 158 159 
742 158 235 236 246 
743 159 158 236 246 
744 159 236 247 246 
745 236 148 159 149 
746 159 236 149 237 
747 237 149 159 160 
748 159 236 237 247 
749 160 159 237 247 
750 160 237 248 247 
751 237 149 160 150 
752 160 237 150 238 
753 238 150 160 161 
754 160 237 238 248 
755 161 160 238 248 
756 161 238 249 248 
757 238 150 161 38 
758 161 238 38 30 
759 30 38 161 39 
760 161 238 30 249 
761 39 161 30 249 
762 39 30 31 249 
763 15 23 24 151 
764 24 15 151 239 
765 239 151 24 162 
766 24 15 239 16 
767 162 24 239 16 
768 162 239 250 16 
769 239 151 162 152 
770 162 239 152 240 
771 240 152 162 163 
772 162 239 240 250 
773 163 162 240 250 
774 163 240 251 250 
775 240 152 163 153 
776 163 240 153 241 
777 241 153 163 164 
778 163 240 241 251 
779 164 163 241 251 
780 164 241 252 251 
781 241 153 164 154 
782 164 241 154 242 
783 242 154 164 165 
784 164 241 242 252 
785 165 164 242 252 
786 165 242 253 252 
787 242 154 165 155 
788 165 242 155 243 
789 243 155 165 166 
790 165 242 243 253 
791 166 165 243 253 
792 166 243 254 253 
793 243 155 166 156 
794 166 243 156 244 
795 244 156 166 167 
796 166 243 244 254 
797 167 166 244 254 
798 167 244 255 254 
799 244 156 167 157 
800 167 244 157 245 
801 245 157 167 168 
802 167 244 245 255 
803 168 167 245 255 
804 168 245 256 255 
805 245 157 168 158 
806 168 245 158 246 
807 246 158 168 169 
808 168 245 246 256 
809 169 168 246 256 
810 169 246 257 256 
811 246 158 169 159 
812 169 246 159 247 
813 247 159 169 170 
814 169 246 247 257 
815 170 169 247 257 
816 170 247 258 257 
817 247 159 170 160 
818 170 247 160 248 
819 248 160 170 171 
820 170 247 248 258 
821 171 170 248 258 
822 171 248 259 258 
823 248 160 171 161 
824 171 248 161 249 
825 249 161 171 172 
826 171 248 249 259 
827 172 171 249 259 
828 172 249 260 259 
829 249 161 172 39 
830 172 249 39 31 
831 31 39 172 40 
832 172 249 31 260 
833 40 172 31 260 
834 40 31 32 260 
835 16 24 4 162 
836 4 16 162 250 
837 250 162 4 63 
838 4 16 250 3 
839 63 4 250 3 
840 63 250 74 3 
841 250 162 63 163 
842 63 250 163 251 
843 251 163 63 64 
844 63 250 251 74 
845 64 63 251 74 
846 64 251 75 74 
847 251 163 64 164 
848 64 251 164 252 
849 252 164 64 65 
850 64 251 252 75 
851 65 64 252 75 
852 65 252 76 75 
853 252 164 65 165 
854 65 252 165 253 
855 253 165 65 66 
856 65 252 253 76 
857 66 65 253 76 
858 66 253 77 76 
859 253 165 66 166 
860 66 253 166 254 
861 254 166 66 67 
862 66 253 254 77 
863 67 66 254 77 
864 67 254 78 77 
865 254 166 67 167 
866 67 254 167 255 
867 255 167 67 68 
868 67 254 255 78 
869 68 67 255 78 
870 68 255 79 78 
871 255 167 68 168 
872 68 255 168 256 
873 256 168 68 69 
874 68 255 256 79 
875 69 68 256 79 
876 69 256 80 79 
877 256 168 69 169 
878 69 256 169 257 
879 257 169 69 70 
880 69 256 257 80 
881 70 69 257 80 
882 70 257 81 80 
883 257 169 70 170 
884 70 257 170 258 
885 258 170 70 71 
886 70 257 258 81 
887 71 70 258 81 
888 71 258 82 81 
889 258 170 71 171 
890 71 258 171 259 
891 259 171 71 72 
892 71 258 259 82 
893 72 71 259 82 
894 72 259 83 82 
895 259 171 72 172 
896 72 259 172 260 
897 260 172 72 73 
898 72 259 260 83 
899 73 72 260 83 
900 73 260 84 83 
901 260 172 73 40 
902 73 260 40 32 
903 32 40 73 8 
904 73 260 32 84 
905 8 73 32 84 
906 8 32 7 84 
$EndElements
