$MeshFormat
4.1 0 8
$EndMeshFormat
$PhysicalNames
5
1 1 "bottom"
1 2 "right"
1 3 "top"
1 4 "left"
2 5 "domain"
$EndPhysicalNames
$Entities
4 4 1 0
1 0 0 0 0 
2 2 0 0 0 
3 2 1.5 0 0 
4 0 1.5 0 0 
1 0 0 0 2 0 0 1 1 2 1 -2 
2 2 0 0 2 1.5 0 1 2 2 2 -3 
3 0 1.5 0 2 1.5 0 1 3 2 3 -4 
4 0 0 0 0 1.5 0 1 4 2 4 -1 
1 0 0 0 2 1.5 0 1 5 4 1 2 3 4 
$EndEntities
$Nodes
9 367 1 367
0 1 0 1
1
0 0 0
0 2 0 1
2
2 0 0
0 3 0 1
3
2 1.5 0
0 4 0 1
4
0 1.5 0
1 1 0 23
5
6
7
8
9
10
11
12
13
14
15
16
17
18
19
20
21
22
23
24
25
26
27
0.1666666666663459 0 0
0.3333333333326417 0 0
0.4999999999988218 0 0
0.6666666666650021 0 0
0.8333333333311822 0 0
0.9999999999973841 0 0
1.166666666664469 0 0
1.333333333331575 0 0
1.499999999998681 0 0
1.666666666665787 0 0
1.833333333332894 0 0
0.08333333333316963 0 0
0.2499999999995516 0 0
0.4166666666657318 0 0
0.583333333331912 0 0
0.7499999999980922 0 0
0.9166666666642831 0 0
1.083333333330926 0 0
1.249999999998022 0 0
1.416666666665128 0 0
1.583333333332234 0 0
1.749999999999341 0 0
1.916666666666447 0 0
1 2 0 17
28
29
30
31
32
33
34
35
36
37
38
39
40
41
42
43
44
2 0.1666666666659872 0
2 0.3333333333319403 0
2 0.4999999999980126 0
2 0.666666666664085 0
2 0.8333333333307744 0
2 0.9999999999980809 0
2 1.166666666665387 0
2 1.333333333332694 0
2 0.0833333333329835 0
2 0.2499999999989645 0
2 0.4166666666649727 0
2 0.5833333333310593 0
2 0.7499999999972151 0
2 0.9166666666644275 0
2 1.0833333333317 0
2 1.249999999999116 0
2 1.416666666666335 0
1 3 0 23
45
46
47
48
49
50
51
52
53
54
55
56
57
58
59
60
61
62
63
64
65
66
67
1.833333333332639 1.5 0
1.666666666666204 1.5 0
1.500000000000694 1.5 0
1.333333333335184 1.5 0
1.166666666669673 1.5 0
1.000000000004119 1.5 0
0.833333333336802 1.5 0
0.6666666666694414 1.5 0
0.500000000002081 1.5 0
0.3333333333347208 1.5 0
0.1666666666673604 1.5 0
1.91666666666632 1.5 0
1.749999999999384 1.5 0
1.583333333333411 1.5 0
1.416666666667856 1.5 0
1.250000000002442 1.5 0
1.083333333336773 1.5 0
0.9166666666704604 1.5 0
0.7500000000031217 1.5 0
0.5833333333357613 1.5 0
0.4166666666684009 1.5 0
0.2500000000010405 1.5 0
0.08333333333368032 1.5 0
1 4 0 17
68
69
70
71
72
73
74
75
76
77
78
79
80
81
82
83
84
0 1.333333333334254 0
0 1.166666666668074 0
0 1.000000000000969 0
0 0.8333333333350532 0
0 0.6666666666685357 0
0 0.5000000000014018 0
0 0.3333333333342678 0
0 0.1666666666671341 0
0 1.416666666667127 0
0 1.250000000001196 0
0 1.083333333334532 0
0 0.916666666668032 0
0 0.7500000000019627 0
0 0.5833333333349576 0
0 0.41666666666783 0
0 0.2500000000006932 0
0 0.08333333333365367 0
2 1 0 283
85
86
87
88
89
90
91
92
93
94
95
96
97
98
99
100
101
102
103
104
105
106
107
108
109
110
111
112
113
114
115
116
117
118
119
120
121
122
123
124
125
126
127
128
129
130
131
132
133
134
135
136
137
138
139
140
141
142
143
144
145
146
147
148
149
150
151
152
153
154
155
156
157
158
159
160
161
162
163
164
165
166
167
168
169
170
171
172
173
174
175
176
177
178
179
180
181
182
183
184
185
186
187
188
189
190
191
192
193
194
195
196
197
198
199
200
201
202
203
204
205
206
207
208
209
210
211
212
213
214
215
216
217
218
219
220
221
222
223
224
225
226
227
228
229
230
231
232
233
234
235
236
237
238
239
240
241
242
243
244
245
246
247
248
249
250
251
252
253
254
255
256
257
258
259
260
261
262
263
264
265
266
267
268
269
270
271
272
273
274
275
276
277
278
279
280
281
282
283
284
285
286
287
288
289
290
291
292
293
294
295
296
297
298
299
300
301
302
303
304
305
306
307
308
309
310
311
312
313
314
315
316
317
318
319
320
321
322
323
324
325
326
327
328
329
330
331
332
333
334
335
336
337
338
339
340
341
342
343
344
345
346
347
348
349
350
351
352
353
354
355
356
357
358
359
360
361
362
363
364
365
366
367
0.1666666666664315 0.1666666666670381 0
0.166666666666539 0.3333333333340721 0
0.1666666666666541 0.5000000000010694 0
0.1666666666667712 0.6666666666679204 0
0.1666666666668888 0.8333333333345253 0
0.1666666666670065 1.000000000001036 0
0.1666666666671242 1.166666666667563 0
0.1666666666672421 1.333333333333897 0
0.3333333333328233 0.1666666666669419 0
0.3333333333330476 0.3333333333338759 0
0.3333333333332829 0.5000000000007634 0
0.3333333333335214 0.6666666666675363 0
0.3333333333337608 0.833333333334184 0
0.3333333333340004 1.000000000000779 0
0.3333333333342402 1.166666666667321 0
0.3333333333344802 1.333333333333722 0
0.4999999999991692 0.1666666666668458 0
0.4999999999995244 0.3333333333336849 0
0.4999999999998863 0.5000000000004885 0
0.5000000000002508 0.6666666666672159 0
0.5000000000006162 0.8333333333338748 0
0.5000000000009818 1.000000000000516 0
0.5000000000013477 1.166666666667118 0
0.5000000000017141 1.333333333333604 0
0.6666666666654962 0.1666666666667504 0
0.6666666666659875 0.3333333333334982 0
0.6666666666664753 0.5000000000002262 0
0.6666666666669622 0.6666666666669134 0
0.6666666666674487 0.8333333333335786 0
0.6666666666679355 1.000000000000261 0
0.6666666666684243 1.166666666666927 0
0.6666666666689238 1.3333333333335 0
0.833333333331855 0.1666666666666555 0
0.8333333333324763 0.3333333333333134 0
0.8333333333330604 0.499999999999968 0
0.8333333333336337 0.6666666666666168 0
0.8333333333342046 0.8333333333332875 0
0.8333333333347753 1.00000000000001 0
0.8333333333353569 1.16666666666674 0
0.8333333333360109 1.3333333333334 0
0.999999999998366 0.1666666666665609 0
0.9999999999990374 0.3333333333331294 0
0.999999999999639 0.4999999999997113 0
1.000000000000221 0.666666666666322 0
1.000000000000798 0.8333333333329981 0
1.000000000001376 0.9999999999997603 0
1.000000000001976 1.166666666666554 0
1.000000000002714 1.333333333333301 0
1.16666666666511 0.1666666666664665 0
1.166666666665685 0.3333333333329456 0
1.166666666666209 0.4999999999994549 0
1.166666666666715 0.6666666666660277 0
1.166666666667215 0.8333333333327095 0
1.166666666667718 0.9999999999995116 0
1.166666666668246 1.166666666666369 0
1.166666666668879 1.333333333333202 0
1.333333333331994 0.1666666666663719 0
1.333333333332399 0.3333333333327619 0
1.333333333332786 0.4999999999991988 0
1.333333333333162 0.6666666666657338 0
1.333333333333534 0.8333333333324213 0
1.333333333333909 0.9999999999992633 0
1.333333333334299 1.166666666666185 0
1.333333333334723 1.333333333333103 0
1.499999999998926 0.1666666666662775 0
1.499999999999169 0.3333333333325781 0
1.499999999999407 0.4999999999989427 0
1.499999999999641 0.6666666666654398 0
1.499999999999874 0.833333333332133 0
1.500000000000107 0.9999999999990147 0
1.500000000000342 1.166666666666 0
1.500000000000547 1.333333333333004 0
1.666666666665904 0.1666666666661826 0
1.666666666666024 0.3333333333323927 0
1.666666666666145 0.4999999999986816 0
1.666666666666264 0.6666666666651364 0
1.666666666666383 0.8333333333318338 0
1.666666666666501 0.9999999999987584 0
1.666666666666605 1.166666666665813 0
1.666666666666607 1.333333333332905 0
1.833333333332937 0.1666666666660843 0
1.833333333332984 0.3333333333321944 0
1.833333333333032 0.4999999999983827 0
1.83333333333308 0.6666666666647569 0
1.833333333333128 0.8333333333314529 0
1.833333333333174 0.9999999999984569 0
1.833333333333202 1.16666666666561 0
1.833333333333123 1.333333333332801 0
0.1666666666663887 0.08333333333351907 0
0.08333333333321574 0.1666666666670861 0
0.1666666666664852 0.2500000000005551 0
0.0833333333332695 0.33333333333417 0
0.1666666666665966 0.4166666666675707 0
0.08333333333332706 0.5000000000012356 0
0.1666666666667127 0.5833333333344949 0
0.08333333333338562 0.666666666668228 0
0.16666666666683 0.7500000000012228 0
0.08333333333344439 0.8333333333347892 0
0.1666666666669476 0.9166666666677805 0
0.08333333333350325 1.000000000001002 0
0.1666666666670654 1.083333333334299 0
0.08333333333356212 1.166666666667818 0
0.1666666666671832 1.25000000000073 0
0.08333333333362106 1.333333333334075 0
0.1666666666673013 1.416666666666949 0
0.3333333333327325 0.08333333333347093 0
0.2499999999996274 0.16666666666699 0
0.3333333333329355 0.2500000000004089 0
0.2499999999997933 0.333333333333974 0
0.3333333333331653 0.4166666666673197 0
0.2499999999999685 0.5000000000009164 0
0.3333333333334022 0.5833333333341498 0
0.2500000000001463 0.6666666666677283 0
0.3333333333336411 0.7500000000008602 0
0.2500000000003247 0.8333333333343547 0
0.3333333333338806 0.9166666666674816 0
0.2500000000005034 1.000000000000907 0
0.3333333333341203 1.08333333333405 0
0.2500000000006822 1.166666666667442 0
0.3333333333343602 1.250000000000522 0
0.2500000000008612 1.33333333333381 0
0.3333333333346005 1.416666666666861 0
0.4999999999989955 0.0833333333334229 0
0.4166666666659963 0.1666666666668938 0
0.4999999999993468 0.2500000000002653 0
0.416666666666286 0.3333333333337805 0
0.4999999999997053 0.4166666666670867 0
0.4166666666665846 0.5000000000006259 0
0.5000000000000685 0.5833333333338522 0
0.4166666666668861 0.6666666666673761 0
0.5000000000004334 0.7500000000005453 0
0.4166666666671884 0.8333333333340294 0
0.5000000000007989 0.9166666666671955 0
0.4166666666674911 1.000000000000648 0
0.5000000000011647 1.083333333333817 0
0.416666666667794 1.166666666667219 0
0.5000000000015309 1.250000000000361 0
0.4166666666680972 1.333333333333663 0
0.5000000000018976 1.416666666666802 0
0.6666666666652492 0.0833333333333752 0
0.5833333333323327 0.1666666666667981 0
0.6666666666657419 0.2500000000001243 0
0.5833333333327559 0.3333333333335916 0
0.6666666666662314 0.4166666666668621 0
0.5833333333331808 0.5000000000003573 0
0.6666666666667187 0.5833333333335697 0
0.5833333333336065 0.6666666666670646 0
0.6666666666672054 0.750000000000246 0
0.5833333333340325 0.8333333333337267 0
0.6666666666676921 0.9166666666669199 0
0.5833333333344586 1.000000000000389 0
0.66666666666818 1.083333333333594 0
0.583333333334886 1.166666666667022 0
0.666666666668674 1.250000000000214 0
0.583333333335319 1.333333333333552 0
0.6666666666691826 1.41666666666675 0
0.8333333333315186 0.08333333333332776 0
0.7499999999986756 0.166666666666703 0
0.8333333333321656 0.2499999999999845 0
0.7499999999992319 0.3333333333334058 0
0.8333333333327684 0.4166666666666407 0
0.7499999999997679 0.500000000000097 0
0.833333333333347 0.5833333333332924 0
0.750000000000298 0.6666666666667651 0
0.8333333333339191 0.7499999999999521 0
0.7500000000008267 0.8333333333334331 0
0.8333333333344899 0.9166666666666486 0
0.7500000000013554 1.000000000000135 0
0.8333333333350661 1.083333333333375 0
0.7500000000018906 1.166666666666833 0
0.8333333333356838 1.25000000000007 0
0.7500000000024674 1.33333333333345 0
0.8333333333364065 1.4166666666667 0
0.999999999997875 0.08333333333328047 0
0.9166666666651104 0.1666666666666082 0
0.9999999999987017 0.2499999999998452 0
0.9166666666657568 0.3333333333332213 0
0.9999999999993382 0.4166666666664203 0
0.9166666666663497 0.4999999999998397 0
0.9999999999999299 0.5833333333330166 0
0.9166666666669273 0.6666666666664693 0
1.000000000000509 0.74999999999966 0
0.9166666666675012 0.8333333333331427 0
1.000000000001087 0.9166666666663792 0
0.9166666666680754 0.999999999999885 0
1.000000000001676 1.083333333333157 0
0.9166666666686667 1.166666666666647 0
1.000000000002345 1.249999999999927 0
0.9166666666693626 1.33333333333335 0
1.000000000003417 1.41666666666665 0
1.166666666664789 0.08333333333323323 0
1.083333333331738 0.1666666666665137 0
1.166666666665398 0.249999999999706 0
1.083333333332361 0.3333333333330375 0
1.166666666665947 0.4166666666662002 0
1.083333333332924 0.4999999999995831 0
1.166666666666462 0.5833333333327413 0
1.083333333333468 0.6666666666661749 0
1.166666666666965 0.7499999999993686 0
1.083333333334006 0.8333333333328539 0
1.166666666667466 0.9166666666661105 0
1.083333333334547 0.999999999999636 0
1.166666666667982 1.08333333333294 0
1.083333333335111 1.166666666666462 0
1.166666666668563 1.249999999999786 0
1.083333333335797 1.333333333333251 0
1.166666666669276 1.416666666666601 0
1.333333333331784 0.08333333333318596 0
1.249999999998552 0.1666666666664192 0
1.333333333332197 0.2499999999995669 0
1.249999999999042 0.3333333333328538 0
1.333333333332592 0.4166666666659803 0
1.249999999999498 0.4999999999993269 0
1.333333333332974 0.5833333333324663 0
1.249999999999939 0.6666666666658807 0
1.333333333333348 0.7499999999990776 0
1.250000000000375 0.8333333333325654 0
1.333333333333722 0.9166666666658423 0
1.250000000000814 0.9999999999993874 0
1.333333333334104 1.083333333332724 0
1.250000000001273 1.166666666666277 0
1.333333333334511 1.249999999999644 0
1.250000000001801 1.333333333333152 0
1.333333333334954 1.416666666666551 0
1.499999999998803 0.08333333333313873 0
1.41666666666546 0.1666666666663247 0
1.499999999999047 0.2499999999994278 0
1.416666666665784 0.33333333333267 0
1.499999999999288 0.4166666666657604 0
1.416666666666096 0.4999999999990707 0
1.499999999999524 0.5833333333321913 0
1.416666666666402 0.6666666666655868 0
1.499999999999758 0.7499999999987864 0
1.416666666666704 0.8333333333322772 0
1.499999999999991 0.9166666666655738 0
1.416666666667008 0.9999999999991389 0
1.500000000000225 1.083333333332507 0
1.416666666667321 1.166666666666093 0
1.500000000000444 1.249999999999502 0
1.416666666667635 1.333333333333054 0
1.50000000000062 1.416666666666502 0
1.666666666665846 0.0833333333330913 0
1.583333333332415 0.16666666666623 0
1.666666666665964 0.2499999999992877 0
1.583333333332597 0.3333333333324854 0
1.666666666666085 0.4166666666655371 0
1.583333333332776 0.4999999999988121 0
1.666666666666204 0.583333333331909 0
1.583333333332952 0.6666666666652881 0
1.666666666666323 0.7499999999984851 0
1.583333333333128 0.8333333333319835 0
1.666666666666442 0.9166666666652961 0
1.583333333333304 0.9999999999988866 0
1.666666666666553 1.083333333332285 0
1.583333333333473 1.166666666665906 0
1.666666666666606 1.249999999999359 0
1.583333333333577 1.333333333332955 0
1.666666666666406 1.416666666666452 0
1.833333333332915 0.08333333333304217 0
1.74999999999942 0.1666666666661335 0
1.83333333333296 0.2499999999991394 0
1.749999999999504 0.3333333333322936 0
1.833333333333008 0.4166666666652886 0
1.749999999999588 0.4999999999985321 0
1.833333333333056 0.5833333333315698 0
1.749999999999672 0.6666666666649467 0
1.833333333333104 0.7499999999981048 0
1.749999999999755 0.8333333333316433 0
1.833333333333151 0.9166666666649549 0
1.749999999999838 0.9999999999986077 0
1.833333333333188 1.083333333332034 0
1.749999999999903 1.166666666665711 0
1.833333333333162 1.249999999999206 0
1.749999999999865 1.333333333332853 0
1.833333333332881 1.416666666666401 0
1.916666666666468 0.1666666666660358 0
1.916666666666492 0.3333333333320674 0
1.916666666666516 0.4999999999981977 0
1.91666666666654 0.666666666664421 0
1.916666666666564 0.8333333333311137 0
1.916666666666587 0.9999999999982689 0
1.916666666666601 1.166666666665499 0
1.916666666666561 1.333333333332748 0
$EndNodes
$Elements
5 150 1 150
1 1 8 12
1 1 5 16 
2 5 6 17 
3 6 7 18 
4 7 8 19 
5 8 9 20 
6 9 10 21 
7 10 11 22 
8 11 12 23 
9 12 13 24 
10 13 14 25 
11 14 15 26 
12 15 2 27 
1 2 8 9
13 2 28 36 
14 28 29 37 
15 29 30 38 
16 30 31 39 
17 31 32 40 
18 32 33 41 
19 33 34 42 
20 34 35 43 
21 35 3 44 
1 3 8 12
22 3 45 56 
23 45 46 57 
24 46 47 58 
25 47 48 59 
26 48 49 60 
27 49 50 61 
28 50 51 62 
29 51 52 63 
30 52 53 64 
31 53 54 65 
32 54 55 66 
33 55 4 67 
1 4 8 9
34 4 68 76 
35 68 69 77 
36 69 70 78 
37 70 71 79 
38 71 72 80 
39 72 73 81 
40 73 74 82 
41 74 75 83 
42 75 1 84 
2 1 16 108
43 1 5 85 75 16 173 174 84 
44 75 85 86 74 174 175 176 83 
45 74 86 87 73 176 177 178 82 
46 73 87 88 72 178 179 180 81 
47 72 88 89 71 180 181 182 80 
48 71 89 90 70 182 183 184 79 
49 70 90 91 69 184 185 186 78 
50 69 91 92 68 186 187 188 77 
51 68 92 55 4 188 189 67 76 
52 5 6 93 85 17 190 191 173 
53 85 93 94 86 191 192 193 175 
54 86 94 95 87 193 194 195 177 
55 87 95 96 88 195 196 197 179 
56 88 96 97 89 197 198 199 181 
57 89 97 98 90 199 200 201 183 
58 90 98 99 91 201 202 203 185 
59 91 99 100 92 203 204 205 187 
60 92 100 54 55 205 206 66 189 
61 6 7 101 93 18 207 208 190 
62 93 101 102 94 208 209 210 192 
63 94 102 103 95 210 211 212 194 
64 95 103 104 96 212 213 214 196 
65 96 104 105 97 214 215 216 198 
66 97 105 106 98 216 217 218 200 
67 98 106 107 99 218 219 220 202 
68 99 107 108 100 220 221 222 204 
69 100 108 53 54 222 223 65 206 
70 7 8 109 101 19 224 225 207 
71 101 109 110 102 225 226 227 209 
72 102 110 111 103 227 228 229 211 
73 103 111 112 104 229 230 231 213 
74 104 112 113 105 231 232 233 215 
75 105 113 114 106 233 234 235 217 
76 106 114 115 107 235 236 237 219 
77 107 115 116 108 237 238 239 221 
78 108 116 52 53 239 240 64 223 
79 8 9 117 109 20 241 242 224 
80 109 117 118 110 242 243 244 226 
81 110 118 119 111 244 245 246 228 
82 111 119 120 112 246 247 248 230 
83 112 120 121 113 248 249 250 232 
84 113 121 122 114 250 251 252 234 
85 114 122 123 115 252 253 254 236 
86 115 123 124 116 254 255 256 238 
87 116 124 51 52 256 257 63 240 
88 9 10 125 117 21 258 259 241 
89 117 125 126 118 259 260 261 243 
90 118 126 127 119 261 262 263 245 
91 119 127 128 120 263 264 265 247 
92 120 128 129 121 265 266 267 249 
93 121 129 130 122 267 268 269 251 
94 122 130 131 123 269 270 271 253 
95 123 131 132 124 271 272 273 255 
96 124 132 50 51 273 274 62 257 
97 10 11 133 125 22 275 276 258 
98 125 133 134 126 276 277 278 260 
99 126 134 135 127 278 279 280 262 
100 127 135 136 128 280 281 282 264 
101 128 136 137 129 282 283 284 266 
102 129 137 138 130 284 285 286 268 
103 130 138 139 131 286 287 288 270 
104 131 139 140 132 288 289 290 272 
105 132 140 49 50 290 291 61 274 
106 11 12 141 133 23 292 293 275 
107 133 141 142 134 293 294 295 277 
108 134 142 143 135 295 296 297 279 
109 135 143 144 136 297 298 299 281 
110 136 144 145 137 299 300 301 283 
111 137 145 146 138 301 302 303 285 
112 138 146 147 139 303 304 305 287 
113 139 147 148 140 305 306 307 289 
114 140 148 48 49 307 308 60 291 
115 12 13 149 141 24 309 310 292 
116 141 149 150 142 310 311 312 294 
117 142 150 151 143 312 313 314 296 
118 143 151 152 144 314 315 316 298 
119 144 152 153 145 316 317 318 300 
120 145 153 154 146 318 319 320 302 
121 146 154 155 147 320 321 322 304 
122 147 155 156 148 322 323 324 306 
123 148 156 47 48 324 325 59 308 
124 13 14 157 149 25 326 327 309 
125 149 157 158 150 327 328 329 311 
126 150 158 159 151 329 330 331 313 
127 151 159 160 152 331 332 333 315 
128 152 160 161 153 333 334 335 317 
129 153 161 162 154 335 336 337 319 
130 154 162 163 155 337 338 339 321 
131 155 163 164 156 339 340 341 323 
132 156 164 46 47 341 342 58 325 
133 14 15 165 157 26 343 344 326 
134 157 165 166 158 344 345 346 328 
135 158 166 167 159 346 347 348 330 
136 159 167 168 160 348 349 350 332 
137 160 168 169 161 350 351 352 334 
138 161 169 170 162 352 353 354 336 
139 162 170 171 163 354 355 356 338 
140 163 171 172 164 356 357 358 340 
141 164 172 45 46 358 359 57 342 
142 15 2 28 165 27 36 360 343 
143 165 28 29 166 360 37 361 345 
144 166 29 30 167 361 38 362 347 
145 167 30 31 168 362 39 363 349 
146 168 31 32 169 363 40 364 351 
147 169 32 33 170 364 41 365 353 
148 170 33 34 171 365 42 366 355 
149 171 34 35 172 366 43 367 357 
150 172 35 3 45 367 44 56 359 
$EndElements
