$MeshFormat
4.1 0 8
$EndMeshFormat
$PhysicalNames
4
1 4 "plate_clamp"
2 2 "plate"
2 3 "rigid_walls"
3 1 "fluid"
$EndPhysicalNames
$Entities
8 12 6 1
1 0 0 0 0 
2 0.8 0 0 0 
3 0.8 0.6 0 0 
4 0 0.6 0 0 
5 0 0 0.5 0 
6 0.8 0 0.5 0 
7 0.8 0.6 0.5 0 
8 0 0.6 0.5 0 
1 0 0 0 0.8 0 0 0 2 1 -2 
2 0.8 0 0 0.8 0.6 0 0 2 2 -3 
3 0 0.6 0 0.8 0.6 0 0 2 3 -4 
4 0 0 0 0 0.6 0 0 2 4 -1 
5 0 0 0.5 0.8 0 0.5 1 4 2 5 -6 
6 0.8 0 0.5 0.8 0.6 0.5 1 4 2 6 -7 
7 0 0.6 0.5 0.8 0.6 0.5 1 4 2 7 -8 
8 0 0 0.5 0 0.6 0.5 1 4 2 8 -5 
9 0 0 0 0 0 0.5 0 2 1 -5 
10 0.8 0 0 0.8 0 0.5 0 2 2 -6 
11 0.8 0.6 0 0.8 0.6 0.5 0 2 3 -7 
12 0 0.6 0 0 0.6 0.5 0 2 4 -8 
1 0 0 0 0.8 0.6 0 1 3 4 1 2 3 4 
2 0 0 0.5 0.8 0.6 0.5 1 2 4 5 6 7 8 
3 0 0 0 0.8 0 0.5 1 3 4 1 10 -5 -9 
4 0.8 0 0 0.8 0.6 0.5 1 3 4 2 11 -6 -10 
5 0 0.6 0 0.8 0.6 0.5 1 3 4 3 12 -7 -11 
6 0 0 0 0 0.6 0.5 1 3 4 4 9 -8 -12 
1 0 0 0 0.8 0.6 0.5 1 1 6 1 2 3 4 5 6 
$EndEntities
$Nodes
27 378 1 378
0 1 0 1
1
0 0 0
0 2 0 1
2
0.8 0 0
0 3 0 1
3
0.8 0.6 0
0 4 0 1
4
0 0.6 0
0 5 0 1
5
0 0 0.5
0 6 0 1
6
0.8 0 0.5
0 7 0 1
7
0.8 0.6 0.5
0 8 0 1
8
0 0.6 0.5
1 1 0 7
9
10
11
12
13
14
15
0.09999999999982848 0 0
0.1999999999995333 0 0
0.2999999999992355 0 0
0.3999999999989484 0 0
0.4999999999992031 0 0
0.5999999999994688 0 0
0.6999999999997453 0 0
1 2 0 5
16
17
18
19
20
0.8 0.09999999999979349 0
0.8 0.1999999999995076 0
0.8 0.299999999999238 0
0.8 0.3999999999994956 0
0.8 0.499999999999746 0
1 3 0 7
21
22
23
24
25
26
27
0.7000000000002767 0.6 0
0.6000000000005534 0.6 0
0.50000000000083 0.6 0
0.4000000000010959 0.6 0
0.30000000000083 0.6 0
0.2000000000005534 0.6 0
0.1000000000002659 0.6 0
1 4 0 5
28
29
30
31
32
0 0.500000000000224 0
0 0.4000000000005133 0
0 0.3000000000007699 0
0 0.2000000000005096 0
0 0.1000000000002566 0
1 5 0 7
33
34
35
36
37
38
39
0.09999999999982848 0 0.5
0.1999999999995333 0 0.5
0.2999999999992355 0 0.5
0.3999999999989484 0 0.5
0.4999999999992031 0 0.5
0.5999999999994688 0 0.5
0.6999999999997453 0 0.5
1 6 0 5
40
41
42
43
44
0.8 0.09999999999979349 0.5
0.8 0.1999999999995076 0.5
0.8 0.299999999999238 0.5
0.8 0.3999999999994956 0.5
0.8 0.499999999999746 0.5
1 7 0 7
45
46
47
48
49
50
51
0.7000000000002767 0.6 0.5
0.6000000000005534 0.6 0.5
0.50000000000083 0.6 0.5
0.4000000000010959 0.6 0.5
0.30000000000083 0.6 0.5
0.2000000000005534 0.6 0.5
0.1000000000002659 0.6 0.5
1 8 0 5
52
53
54
55
56
0 0.500000000000224 0.5
0 0.4000000000005133 0.5
0 0.3000000000007699 0.5
0 0.2000000000005096 0.5
0 0.1000000000002566 0.5
1 9 0 4
57
58
59
60
0 0 0.09999999999977845
0 0 0.1999999999994866
0 0 0.2999999999994725
0 0 0.3999999999997362
1 10 0 4
61
62
63
64
0.8 0 0.09999999999977845
0.8 0 0.1999999999994866
0.8 0 0.2999999999994725
0.8 0 0.3999999999997362
1 11 0 4
65
66
67
68
0.8 0.6 0.09999999999977845
0.8 0.6 0.1999999999994866
0.8 0.6 0.2999999999994725
0.8 0.6 0.3999999999997362
1 12 0 4
69
70
71
72
0 0.6 0.09999999999977845
0 0.6 0.1999999999994866
0 0.6 0.2999999999994725
0 0.6 0.3999999999997362
2 1 0 35
73
74
75
76
77
78
79
80
81
82
83
84
85
86
87
88
89
90
91
92
93
94
95
96
97
98
99
100
101
102
103
104
105
106
107
0.09999999999990136 0.1000000000001987 0
0.09999999999997428 0.2000000000003842 0
0.1000000000000472 0.3000000000005783 0
0.10000000000012 0.4000000000003859 0
0.100000000000193 0.5000000000001642 0
0.1999999999997033 0.1000000000001408 0
0.1999999999998734 0.200000000000259 0
0.2000000000000434 0.3000000000003869 0
0.2000000000002134 0.4000000000002586 0
0.2000000000003834 0.5000000000001042 0
0.2999999999995012 0.1000000000000828 0
0.299999999999767 0.2000000000001338 0
0.3000000000000328 0.3000000000001954 0
0.3000000000002986 0.4000000000001314 0
0.3000000000005644 0.5000000000000445 0
0.3999999999993062 0.100000000000025 0
0.3999999999996642 0.2000000000000085 0
0.4000000000000221 0.3000000000000039 0
0.4000000000003801 0.4000000000000043 0
0.400000000000738 0.4999999999999848 0
0.4999999999994742 0.09999999999996712 0
0.4999999999997454 0.1999999999998833 0
0.5000000000000167 0.2999999999998124 0
0.5000000000002878 0.3999999999998772 0
0.5000000000005589 0.4999999999999251 0
0.5999999999996497 0.09999999999990922 0
0.5999999999998304 0.1999999999997581 0
0.6000000000000112 0.2999999999996208 0
0.6000000000001919 0.3999999999997499 0
0.6000000000003727 0.4999999999998654 0
0.6999999999998339 0.09999999999985135 0
0.6999999999999222 0.1999999999996328 0
0.7000000000000111 0.2999999999994294 0
0.7000000000000994 0.3999999999996227 0
0.7000000000001882 0.4999999999998057 0
2 2 0 35
108
109
110
111
112
113
114
115
116
117
118
119
120
121
122
123
124
125
126
127
128
129
130
131
132
133
134
135
136
137
138
139
140
141
142
0.09999999999990136 0.1000000000001987 0.5
0.09999999999997428 0.2000000000003842 0.5
0.1000000000000472 0.3000000000005783 0.5
0.10000000000012 0.4000000000003859 0.5
0.100000000000193 0.5000000000001642 0.5
0.1999999999997033 0.1000000000001408 0.5
0.1999999999998734 0.200000000000259 0.5
0.2000000000000434 0.3000000000003869 0.5
0.2000000000002134 0.4000000000002586 0.5
0.2000000000003834 0.5000000000001042 0.5
0.2999999999995012 0.1000000000000828 0.5
0.299999999999767 0.2000000000001338 0.5
0.3000000000000328 0.3000000000001954 0.5
0.3000000000002986 0.4000000000001314 0.5
0.3000000000005644 0.5000000000000445 0.5
0.3999999999993062 0.100000000000025 0.5
0.3999999999996642 0.2000000000000085 0.5
0.4000000000000221 0.3000000000000039 0.5
0.4000000000003801 0.4000000000000043 0.5
0.400000000000738 0.4999999999999848 0.5
0.4999999999994742 0.09999999999996712 0.5
0.4999999999997454 0.1999999999998833 0.5
0.5000000000000167 0.2999999999998124 0.5
0.5000000000002878 0.3999999999998772 0.5
0.5000000000005589 0.4999999999999251 0.5
0.5999999999996497 0.09999999999990922 0.5
0.5999999999998304 0.1999999999997581 0.5
0.6000000000000112 0.2999999999996208 0.5
0.6000000000001919 0.3999999999997499 0.5
0.6000000000003727 0.4999999999998654 0.5
0.6999999999998339 0.09999999999985135 0.5
0.6999999999999222 0.1999999999996328 0.5
0.7000000000000111 0.2999999999994294 0.5
0.7000000000000994 0.3999999999996227 0.5
0.7000000000001882 0.4999999999998057 0.5
2 3 0 28
143
144
145
146
147
148
149
150
151
152
153
154
155
156
157
158
159
160
161
162
163
164
165
166
167
168
169
170
0.09999999999982848 0 0.09999999999977845
0.09999999999982848 0 0.1999999999994866
0.09999999999982848 0 0.2999999999994725
0.09999999999982848 0 0.3999999999997362
0.1999999999995333 0 0.09999999999977845
0.1999999999995333 0 0.1999999999994865
0.1999999999995333 0 0.2999999999994725
0.1999999999995333 0 0.3999999999997362
0.2999999999992355 0 0.09999999999977845
0.2999999999992355 0 0.1999999999994866
0.2999999999992355 0 0.2999999999994725
0.2999999999992355 0 0.3999999999997362
0.3999999999989484 0 0.09999999999977845
0.3999999999989484 0 0.1999999999994866
0.3999999999989484 0 0.2999999999994725
0.3999999999989484 0 0.3999999999997362
0.4999999999992031 0 0.09999999999977845
0.4999999999992031 0 0.1999999999994866
0.4999999999992031 0 0.2999999999994725
0.4999999999992031 0 0.3999999999997362
0.5999999999994688 0 0.09999999999977845
0.599999999999469 0 0.1999999999994865
0.5999999999994688 0 0.2999999999994725
0.5999999999994688 0 0.3999999999997362
0.6999999999997453 0 0.09999999999977845
0.6999999999997453 0 0.1999999999994866
0.6999999999997453 0 0.2999999999994725
0.6999999999997453 0 0.3999999999997362
2 4 0 20
171
172
173
174
175
176
177
178
179
180
181
182
183
184
185
186
187
188
189
190
0.8 0.09999999999979348 0.09999999999977846
0.8 0.0999999999997935 0.1999999999994866
0.8 0.0999999999997935 0.2999999999994725
0.8 0.09999999999979349 0.3999999999997362
0.8 0.1999999999995076 0.09999999999977843
0.8 0.1999999999995076 0.1999999999994866
0.8 0.1999999999995076 0.2999999999994725
0.8 0.1999999999995076 0.3999999999997362
0.8 0.2999999999992382 0.09999999999977843
0.8 0.2999999999992381 0.1999999999994865
0.8 0.299999999999238 0.2999999999994725
0.8 0.299999999999238 0.3999999999997362
0.8 0.3999999999994956 0.09999999999977845
0.8 0.3999999999994956 0.1999999999994866
0.8 0.3999999999994956 0.2999999999994725
0.8 0.3999999999994956 0.3999999999997362
0.8 0.499999999999746 0.09999999999977845
0.8 0.499999999999746 0.1999999999994866
0.8 0.499999999999746 0.2999999999994725
0.8 0.4999999999997459 0.3999999999997362
2 5 0 28
191
192
193
194
195
196
197
198
199
200
201
202
203
204
205
206
207
208
209
210
211
212
213
214
215
216
217
218
0.7000000000002771 0.6 0.09999999999977843
0.7000000000002768 0.6 0.1999999999994866
0.7000000000002768 0.6 0.2999999999994725
0.7000000000002766 0.6 0.3999999999997362
0.6000000000005536 0.6 0.09999999999977845
0.6000000000005535 0.6 0.1999999999994865
0.6000000000005535 0.6 0.2999999999994725
0.6000000000005535 0.6 0.3999999999997363
0.5000000000008298 0.6 0.09999999999977845
0.5000000000008298 0.6 0.1999999999994865
0.5000000000008301 0.6 0.2999999999994725
0.5000000000008301 0.6 0.3999999999997363
0.4000000000010959 0.6 0.09999999999977845
0.4000000000010959 0.6 0.1999999999994866
0.4000000000010959 0.6 0.2999999999994725
0.4000000000010959 0.6 0.3999999999997362
0.3000000000008299 0.6 0.09999999999977845
0.3000000000008301 0.6 0.1999999999994866
0.30000000000083 0.6 0.2999999999994725
0.3000000000008301 0.6 0.3999999999997362
0.2000000000005534 0.6 0.09999999999977845
0.2000000000005535 0.6 0.1999999999994865
0.2000000000005534 0.6 0.2999999999994725
0.2000000000005534 0.6 0.3999999999997362
0.1000000000002659 0.6 0.09999999999977845
0.1000000000002659 0.6 0.1999999999994866
0.1000000000002659 0.6 0.2999999999994725
0.1000000000002659 0.6 0.3999999999997362
2 6 0 20
219
220
221
222
223
224
225
226
227
228
229
230
231
232
233
234
235
236
237
238
0 0.500000000000224 0.09999999999977845
0 0.5000000000002242 0.1999999999994865
0 0.500000000000224 0.2999999999994725
0 0.500000000000224 0.3999999999997362
0 0.4000000000005132 0.09999999999977846
0 0.4000000000005133 0.1999999999994866
0 0.4000000000005133 0.2999999999994725
0 0.4000000000005133 0.3999999999997362
0 0.3000000000007699 0.09999999999977843
0 0.3000000000007699 0.1999999999994865
0 0.3000000000007699 0.2999999999994725
0 0.3000000000007699 0.3999999999997362
0 0.2000000000005096 0.09999999999977846
0 0.2000000000005096 0.1999999999994865
0 0.2000000000005096 0.2999999999994725
0 0.2000000000005096 0.3999999999997362
0 0.1000000000002565 0.09999999999977845
0 0.1000000000002566 0.1999999999994866
0 0.1000000000002566 0.2999999999994725
0 0.1000000000002565 0.3999999999997362
3 1 0 140
239
240
241
242
243
244
245
246
247
248
249
250
251
252
253
254
255
256
257
258
259
260
261
262
263
264
265
266
267
268
269
270
271
272
273
274
275
276
277
278
279
280
281
282
283
284
285
286
287
288
289
290
291
292
293
294
295
296
297
298
299
300
301
302
303
304
305
306
307
308
309
310
311
312
313
314
315
316
317
318
319
320
321
322
323
324
325
326
327
328
329
330
331
332
333
334
335
336
337
338
339
340
341
342
343
344
345
346
347
348
349
350
351
352
353
354
355
356
357
358
359
360
361
362
363
364
365
366
367
368
369
370
371
372
373
374
375
376
377
378
0.09999999999990136 0.1000000000001986 0.09999999999977845
0.09999999999990139 0.1000000000001987 0.1999999999994866
0.09999999999990136 0.1000000000001987 0.2999999999994726
0.09999999999990136 0.1000000000001986 0.3999999999997364
0.09999999999997432 0.2000000000003842 0.09999999999977849
0.09999999999997423 0.2000000000003842 0.1999999999994865
0.09999999999997426 0.2000000000003842 0.2999999999994726
0.09999999999997423 0.2000000000003842 0.3999999999997363
0.1000000000000472 0.3000000000005782 0.09999999999977843
0.1000000000000472 0.3000000000005783 0.1999999999994865
0.1000000000000472 0.3000000000005783 0.2999999999994726
0.1000000000000471 0.3000000000005782 0.3999999999997363
0.10000000000012 0.400000000000386 0.09999999999977846
0.1000000000001201 0.400000000000386 0.1999999999994865
0.10000000000012 0.4000000000003857 0.2999999999994726
0.10000000000012 0.4000000000003857 0.3999999999997363
0.100000000000193 0.5000000000001643 0.09999999999977846
0.100000000000193 0.5000000000001642 0.1999999999994865
0.100000000000193 0.5000000000001642 0.2999999999994726
0.100000000000193 0.5000000000001641 0.3999999999997364
0.1999999999997033 0.1000000000001408 0.09999999999977843
0.1999999999997034 0.1000000000001408 0.1999999999994865
0.1999999999997034 0.1000000000001408 0.2999999999994726
0.1999999999997032 0.1000000000001407 0.3999999999997363
0.1999999999998734 0.200000000000259 0.09999999999977847
0.1999999999998733 0.2000000000002591 0.1999999999994866
0.1999999999998733 0.200000000000259 0.2999999999994726
0.1999999999998733 0.200000000000259 0.3999999999997365
0.2000000000000435 0.300000000000387 0.09999999999977843
0.2000000000000434 0.300000000000387 0.1999999999994866
0.2000000000000434 0.300000000000387 0.2999999999994726
0.2000000000000433 0.3000000000003869 0.3999999999997364
0.2000000000002134 0.4000000000002586 0.09999999999977846
0.2000000000002133 0.4000000000002585 0.1999999999994865
0.2000000000002133 0.4000000000002585 0.2999999999994726
0.2000000000002135 0.4000000000002585 0.3999999999997365
0.2000000000003835 0.5000000000001041 0.09999999999977849
0.2000000000003835 0.5000000000001045 0.1999999999994865
0.2000000000003835 0.5000000000001044 0.2999999999994726
0.2000000000003833 0.5000000000001041 0.3999999999997363
0.2999999999995012 0.1000000000000829 0.09999999999977843
0.2999999999995014 0.1000000000000828 0.1999999999994866
0.2999999999995014 0.1000000000000829 0.2999999999994727
0.2999999999995012 0.1000000000000829 0.3999999999997362
0.2999999999997669 0.2000000000001337 0.09999999999977849
0.2999999999997672 0.2000000000001337 0.1999999999994865
0.2999999999997672 0.2000000000001338 0.2999999999994726
0.2999999999997671 0.2000000000001337 0.3999999999997363
0.3000000000000328 0.3000000000001957 0.09999999999977843
0.300000000000033 0.3000000000001955 0.1999999999994865
0.3000000000000328 0.3000000000001954 0.2999999999994726
0.3000000000000329 0.3000000000001953 0.3999999999997363
0.3000000000002986 0.4000000000001312 0.09999999999977847
0.3000000000002986 0.4000000000001312 0.1999999999994866
0.3000000000002988 0.4000000000001313 0.2999999999994726
0.3000000000002987 0.4000000000001313 0.3999999999997365
0.3000000000005643 0.5000000000000447 0.09999999999977846
0.3000000000005645 0.5000000000000445 0.1999999999994865
0.3000000000005645 0.5000000000000446 0.2999999999994726
0.3000000000005645 0.5000000000000446 0.3999999999997362
0.3999999999993062 0.100000000000025 0.09999999999977845
0.3999999999993061 0.100000000000025 0.1999999999994866
0.3999999999993059 0.100000000000025 0.2999999999994726
0.3999999999993059 0.100000000000025 0.3999999999997363
0.3999999999996643 0.2000000000000086 0.09999999999977846
0.399999999999664 0.2000000000000085 0.1999999999994865
0.3999999999996642 0.2000000000000084 0.2999999999994726
0.3999999999996642 0.2000000000000084 0.3999999999997363
0.4000000000000219 0.300000000000004 0.09999999999977843
0.4000000000000222 0.3000000000000039 0.1999999999994866
0.4000000000000222 0.300000000000004 0.2999999999994726
0.400000000000022 0.3000000000000038 0.3999999999997363
0.4000000000003799 0.4000000000000042 0.09999999999977846
0.4000000000003799 0.4000000000000043 0.1999999999994866
0.4000000000003799 0.4000000000000042 0.2999999999994725
0.4000000000003799 0.4000000000000045 0.3999999999997364
0.4000000000007379 0.4999999999999848 0.09999999999977847
0.4000000000007381 0.499999999999985 0.1999999999994865
0.4000000000007382 0.4999999999999848 0.2999999999994726
0.4000000000007379 0.4999999999999848 0.3999999999997363
0.4999999999994741 0.09999999999996707 0.09999999999977846
0.499999999999474 0.09999999999996709 0.1999999999994866
0.4999999999994743 0.09999999999996716 0.2999999999994725
0.4999999999994741 0.09999999999996709 0.3999999999997364
0.4999999999997453 0.1999999999998832 0.09999999999977849
0.4999999999997454 0.1999999999998832 0.1999999999994865
0.4999999999997454 0.1999999999998832 0.2999999999994726
0.4999999999997453 0.1999999999998832 0.3999999999997363
0.5000000000000164 0.2999999999998126 0.09999999999977843
0.5000000000000165 0.2999999999998123 0.1999999999994866
0.5000000000000164 0.2999999999998125 0.2999999999994726
0.5000000000000164 0.2999999999998125 0.3999999999997364
0.5000000000002877 0.3999999999998772 0.09999999999977847
0.5000000000002873 0.399999999999877 0.1999999999994866
0.5000000000002878 0.3999999999998772 0.2999999999994726
0.5000000000002879 0.3999999999998772 0.3999999999997363
0.5000000000005586 0.4999999999999251 0.09999999999977847
0.5000000000005584 0.4999999999999252 0.1999999999994865
0.5000000000005589 0.4999999999999251 0.2999999999994726
0.5000000000005589 0.4999999999999251 0.3999999999997363
0.5999999999996496 0.09999999999990922 0.09999999999977846
0.5999999999996499 0.09999999999990926 0.1999999999994865
0.5999999999996497 0.09999999999990923 0.2999999999994725
0.5999999999996494 0.09999999999990924 0.3999999999997363
0.5999999999998304 0.1999999999997582 0.09999999999977847
0.5999999999998309 0.1999999999997582 0.1999999999994865
0.5999999999998307 0.1999999999997582 0.2999999999994726
0.5999999999998307 0.1999999999997581 0.3999999999997363
0.6000000000000114 0.2999999999996211 0.09999999999977843
0.6000000000000115 0.2999999999996208 0.1999999999994866
0.6000000000000114 0.2999999999996208 0.2999999999994724
0.6000000000000113 0.2999999999996208 0.3999999999997364
0.6000000000001922 0.3999999999997498 0.09999999999977842
0.6000000000001922 0.3999999999997499 0.1999999999994867
0.6000000000001922 0.3999999999997499 0.2999999999994726
0.6000000000001922 0.3999999999997499 0.3999999999997363
0.6000000000003729 0.4999999999998654 0.09999999999977847
0.6000000000003729 0.4999999999998654 0.1999999999994866
0.6000000000003729 0.4999999999998654 0.2999999999994724
0.6000000000003729 0.4999999999998653 0.3999999999997363
0.6999999999998338 0.09999999999985136 0.09999999999977846
0.6999999999998339 0.09999999999985132 0.1999999999994866
0.6999999999998339 0.09999999999985132 0.2999999999994727
0.6999999999998334 0.09999999999985137 0.3999999999997363
0.6999999999999226 0.1999999999996329 0.09999999999977849
0.6999999999999221 0.1999999999996329 0.1999999999994865
0.699999999999922 0.1999999999996328 0.2999999999994726
0.699999999999922 0.1999999999996327 0.3999999999997363
0.7000000000000111 0.2999999999994296 0.09999999999977842
0.7000000000000106 0.2999999999994295 0.1999999999994865
0.7000000000000106 0.2999999999994294 0.2999999999994724
0.7000000000000106 0.2999999999994295 0.3999999999997363
0.7000000000000999 0.3999999999996229 0.09999999999977842
0.7000000000000991 0.3999999999996227 0.1999999999994866
0.7000000000000998 0.3999999999996227 0.2999999999994725
0.7000000000000994 0.3999999999996227 0.3999999999997364
0.7000000000001889 0.4999999999998057 0.09999999999977846
0.7000000000001884 0.4999999999998057 0.1999999999994865
0.7000000000001882 0.4999999999998056 0.2999999999994724
0.7000000000001878 0.4999999999998054 0.3999999999997363
$EndNodes
$Elements
11 504 1 504
1 5 1 8
1 5 33 
2 33 34 
3 34 35 
4 35 36 
5 36 37 
6 37 38 
7 38 39 
8 39 6 
1 6 1 6
9 6 40 
10 40 41 
11 41 42 
12 42 43 
13 43 44 
14 44 7 
1 7 1 8
15 7 45 
16 45 46 
17 46 47 
18 47 48 
19 48 49 
20 49 50 
21 50 51 
22 51 8 
1 8 1 6
23 8 52 
24 52 53 
25 53 54 
26 54 55 
27 55 56 
28 56 5 
2 1 3 48
29 1 9 73 32 
30 32 73 74 31 
31 31 74 75 30 
32 30 75 76 29 
33 29 76 77 28 
34 28 77 27 4 
35 9 10 78 73 
36 73 78 79 74 
37 74 79 80 75 
38 75 80 81 76 
39 76 81 82 77 
40 77 82 26 27 
41 10 11 83 78 
42 78 83 84 79 
43 79 84 85 80 
44 80 85 86 81 
45 81 86 87 82 
46 82 87 25 26 
47 11 12 88 83 
48 83 88 89 84 
49 84 89 90 85 
50 85 90 91 86 
51 86 91 92 87 
52 87 92 24 25 
53 12 13 93 88 
54 88 93 94 89 
55 89 94 95 90 
56 90 95 96 91 
57 91 96 97 92 
58 92 97 23 24 
59 13 14 98 93 
60 93 98 99 94 
61 94 99 100 95 
62 95 100 101 96 
63 96 101 102 97 
64 97 102 22 23 
65 14 15 103 98 
66 98 103 104 99 
67 99 104 105 100 
68 100 105 106 101 
69 101 106 107 102 
70 102 107 21 22 
71 15 2 16 103 
72 103 16 17 104 
73 104 17 18 105 
74 105 18 19 106 
75 106 19 20 107 
76 107 20 3 21 
2 2 3 48
77 5 33 108 56 
78 56 108 109 55 
79 55 109 110 54 
80 54 110 111 53 
81 53 111 112 52 
82 52 112 51 8 
83 33 34 113 108 
84 108 113 114 109 
85 109 114 115 110 
86 110 115 116 111 
87 111 116 117 112 
88 112 117 50 51 
89 34 35 118 113 
90 113 118 119 114 
91 114 119 120 115 
92 115 120 121 116 
93 116 121 122 117 
94 117 122 49 50 
95 35 36 123 118 
96 118 123 124 119 
97 119 124 125 120 
98 120 125 126 121 
99 121 126 127 122 
100 122 127 48 49 
101 36 37 128 123 
102 123 128 129 124 
103 124 129 130 125 
104 125 130 131 126 
105 126 131 132 127 
106 127 132 47 48 
107 37 38 133 128 
108 128 133 134 129 
109 129 134 135 130 
110 130 135 136 131 
111 131 136 137 132 
112 132 137 46 47 
113 38 39 138 133 
114 133 138 139 134 
115 134 139 140 135 
116 135 140 141 136 
117 136 141 142 137 
118 137 142 45 46 
119 39 6 40 138 
120 138 40 41 139 
121 139 41 42 140 
122 140 42 43 141 
123 141 43 44 142 
124 142 44 7 45 
2 3 3 40
125 1 9 143 57 
126 57 143 144 58 
127 58 144 145 59 
128 59 145 146 60 
129 60 146 33 5 
130 9 10 147 143 
131 143 147 148 144 
132 144 148 149 145 
133 145 149 150 146 
134 146 150 34 33 
135 10 11 151 147 
136 147 151 152 148 
137 148 152 153 149 
138 149 153 154 150 
139 150 154 35 34 
140 11 12 155 151 
141 151 155 156 152 
142 152 156 157 153 
143 153 157 158 154 
144 154 158 36 35 
145 12 13 159 155 
146 155 159 160 156 
147 156 160 161 157 
148 157 161 162 158 
149 158 162 37 36 
150 13 14 163 159 
151 159 163 164 160 
152 160 164 165 161 
153 161 165 166 162 
154 162 166 38 37 
155 14 15 167 163 
156 163 167 168 164 
157 164 168 169 165 
158 165 169 170 166 
159 166 170 39 38 
160 15 2 61 167 
161 167 61 62 168 
162 168 62 63 169 
163 169 63 64 170 
164 170 64 6 39 
2 4 3 30
165 2 16 171 61 
166 61 171 172 62 
167 62 172 173 63 
168 63 173 174 64 
169 64 174 40 6 
170 16 17 175 171 
171 171 175 176 172 
172 172 176 177 173 
173 173 177 178 174 
174 174 178 41 40 
175 17 18 179 175 
176 175 179 180 176 
177 176 180 181 177 
178 177 181 182 178 
179 178 182 42 41 
180 18 19 183 179 
181 179 183 184 180 
182 180 184 185 181 
183 181 185 186 182 
184 182 186 43 42 
185 19 20 187 183 
186 183 187 188 184 
187 184 188 189 185 
188 185 189 190 186 
189 186 190 44 43 
190 20 3 65 187 
191 187 65 66 188 
192 188 66 67 189 
193 189 67 68 190 
194 190 68 7 44 
2 5 3 40
195 3 21 191 65 
196 65 191 192 66 
197 66 192 193 67 
198 67 193 194 68 
199 68 194 45 7 
200 21 22 195 191 
201 191 195 196 192 
202 192 196 197 193 
203 193 197 198 194 
204 194 198 46 45 
205 22 23 199 195 
206 195 199 200 196 
207 196 200 201 197 
208 197 201 202 198 
209 198 202 47 46 
210 23 24 203 199 
211 199 203 204 200 
212 200 204 205 201 
213 201 205 206 202 
214 202 206 48 47 
215 24 25 207 203 
216 203 207 208 204 
217 204 208 209 205 
218 205 209 210 206 
219 206 210 49 48 
220 25 26 211 207 
221 207 211 212 208 
222 208 212 213 209 
223 209 213 214 210 
224 210 214 50 49 
225 26 27 215 211 
226 211 215 216 212 
227 212 216 217 213 
228 213 217 218 214 
229 214 218 51 50 
230 27 4 69 215 
231 215 69 70 216 
232 216 70 71 217 
233 217 71 72 218 
234 218 72 8 51 
2 6 3 30
235 4 28 219 69 
236 69 219 220 70 
237 70 220 221 71 
238 71 221 222 72 
239 72 222 52 8 
240 28 29 223 219 
241 219 223 224 220 
242 220 224 225 221 
243 221 225 226 222 
244 222 226 53 52 
245 29 30 227 223 
246 223 227 228 224 
247 224 228 229 225 
248 225 229 230 226 
249 226 230 54 53 
250 30 31 231 227 
251 227 231 232 228 
252 228 232 233 229 
253 229 233 234 230 
254 230 234 55 54 
255 31 32 235 231 
256 231 235 236 232 
257 232 236 237 233 
258 233 237 238 234 
259 234 238 56 55 
260 32 1 57 235 
261 235 57 58 236 
262 236 58 59 237 
263 237 59 60 238 
264 238 60 5 56 
3 1 5 240
265 1 9 73 32 57 143 239 235 
266 57 143 239 235 58 144 240 236 
267 58 144 240 236 59 145 241 237 
268 59 145 241 237 60 146 242 238 
269 60 146 242 238 5 33 108 56 
270 32 73 74 31 235 239 243 231 
271 235 239 243 231 236 240 244 232 
272 236 240 244 232 237 241 245 233 
273 237 241 245 233 238 242 246 234 
274 238 242 246 234 56 108 109 55 
275 31 74 75 30 231 243 247 227 
276 231 243 247 227 232 244 248 228 
277 232 244 248 228 233 245 249 229 
278 233 245 249 229 234 246 250 230 
279 234 246 250 230 55 109 110 54 
280 30 75 76 29 227 247 251 223 
281 227 247 251 223 228 248 252 224 
282 228 248 252 224 229 249 253 225 
283 229 249 253 225 230 250 254 226 
284 230 250 254 226 54 110 111 53 
285 29 76 77 28 223 251 255 219 
286 223 251 255 219 224 252 256 220 
287 224 252 256 220 225 253 257 221 
288 225 253 257 221 226 254 258 222 
289 226 254 258 222 53 111 112 52 
290 28 77 27 4 219 255 215 69 
291 219 255 215 69 220 256 216 70 
292 220 256 216 70 221 257 217 71 
293 221 257 217 71 222 258 218 72 
294 222 258 218 72 52 112 51 8 
295 9 10 78 73 143 147 259 239 
296 143 147 259 239 144 148 260 240 
297 144 148 260 240 145 149 261 241 
298 145 149 261 241 146 150 262 242 
299 146 150 262 242 33 34 113 108 
300 73 78 79 74 239 259 263 243 
301 239 259 263 243 240 260 264 244 
302 240 260 264 244 241 261 265 245 
303 241 261 265 245 242 262 266 246 
304 242 262 266 246 108 113 114 109 
305 74 79 80 75 243 263 267 247 
306 243 263 267 247 244 264 268 248 
307 244 264 268 248 245 265 269 249 
308 245 265 269 249 246 266 270 250 
309 246 266 270 250 109 114 115 110 
310 75 80 81 76 247 267 271 251 
311 247 267 271 251 248 268 272 252 
312 248 268 272 252 249 269 273 253 
313 249 269 273 253 250 270 274 254 
314 250 270 274 254 110 115 116 111 
315 76 81 82 77 251 271 275 255 
316 251 271 275 255 252 272 276 256 
317 252 272 276 256 253 273 277 257 
318 253 273 277 257 254 274 278 258 
319 254 274 278 258 111 116 117 112 
320 77 82 26 27 255 275 211 215 
321 255 275 211 215 256 276 212 216 
322 256 276 212 216 257 277 213 217 
323 257 277 213 217 258 278 214 218 
324 258 278 214 218 112 117 50 51 
325 10 11 83 78 147 151 279 259 
326 147 151 279 259 148 152 280 260 
327 148 152 280 260 149 153 281 261 
328 149 153 281 261 150 154 282 262 
329 150 154 282 262 34 35 118 113 
330 78 83 84 79 259 279 283 263 
331 259 279 283 263 260 280 284 264 
332 260 280 284 264 261 281 285 265 
333 261 281 285 265 262 282 286 266 
334 262 282 286 266 113 118 119 114 
335 79 84 85 80 263 283 287 267 
336 263 283 287 267 264 284 288 268 
337 264 284 288 268 265 285 289 269 
338 265 285 289 269 266 286 290 270 
339 266 286 290 270 114 119 120 115 
340 80 85 86 81 267 287 291 271 
341 267 287 291 271 268 288 292 272 
342 268 288 292 272 269 289 293 273 
343 269 289 293 273 270 290 294 274 
344 270 290 294 274 115 120 121 116 
345 81 86 87 82 271 291 295 275 
346 271 291 295 275 272 292 296 276 
347 272 292 296 276 273 293 297 277 
348 273 293 297 277 274 294 298 278 
349 274 294 298 278 116 121 122 117 
350 82 87 25 26 275 295 207 211 
351 275 295 207 211 276 296 208 212 
352 276 296 208 212 277 297 209 213 
353 277 297 209 213 278 298 210 214 
354 278 298 210 214 117 122 49 50 
355 11 12 88 83 151 155 299 279 
356 151 155 299 279 152 156 300 280 
357 152 156 300 280 153 157 301 281 
358 153 157 301 281 154 158 302 282 
359 154 158 302 282 35 36 123 118 
360 83 88 89 84 279 299 303 283 
361 279 299 303 283 280 300 304 284 
362 280 300 304 284 281 301 305 285 
363 281 301 305 285 282 302 306 286 
364 282 302 306 286 118 123 124 119 
365 84 89 90 85 283 303 307 287 
366 283 303 307 287 284 304 308 288 
367 284 304 308 288 285 305 309 289 
368 285 305 309 289 286 306 310 290 
369 286 306 310 290 119 124 125 120 
370 85 90 91 86 287 307 311 291 
371 287 307 311 291 288 308 312 292 
372 288 308 312 292 289 309 313 293 
373 289 309 313 293 290 310 314 294 
374 290 310 314 294 120 125 126 121 
375 86 91 92 87 291 311 315 295 
376 291 311 315 295 292 312 316 296 
377 292 312 316 296 293 313 317 297 
378 293 313 317 297 294 314 318 298 
379 294 314 318 298 121 126 127 122 
380 87 92 24 25 295 315 203 207 
381 295 315 203 207 296 316 204 208 
382 296 316 204 208 297 317 205 209 
383 297 317 205 209 298 318 206 210 
384 298 318 206 210 122 127 48 49 
385 12 13 93 88 155 159 319 299 
386 155 159 319 299 156 160 320 300 
387 156 160 320 300 157 161 321 301 
388 157 161 321 301 158 162 322 302 
389 158 162 322 302 36 37 128 123 
390 88 93 94 89 299 319 323 303 
391 299 319 323 303 300 320 324 304 
392 300 320 324 304 301 321 325 305 
393 301 321 325 305 302 322 326 306 
394 302 322 326 306 123 128 129 124 
395 89 94 95 90 303 323 327 307 
396 303 323 327 307 304 324 328 308 
397 304 324 328 308 305 325 329 309 
398 305 325 329 309 306 326 330 310 
399 306 326 330 310 124 129 130 125 
400 90 95 96 91 307 327 331 311 
401 307 327 331 311 308 328 332 312 
402 308 328 332 312 309 329 333 313 
403 309 329 333 313 310 330 334 314 
404 310 330 334 314 125 130 131 126 
405 91 96 97 92 311 331 335 315 
406 311 331 335 315 312 332 336 316 
407 312 332 336 316 313 333 337 317 
408 313 333 337 317 314 334 338 318 
409 314 334 338 318 126 131 132 127 
410 92 97 23 24 315 335 199 203 
411 315 335 199 203 316 336 200 204 
412 316 336 200 204 317 337 201 205 
413 317 337 201 205 318 338 202 206 
414 318 338 202 206 127 132 47 48 
415 13 14 98 93 159 163 339 319 
416 159 163 339 319 160 164 340 320 
417 160 164 340 320 161 165 341 321 
418 161 165 341 321 162 166 342 322 
419 162 166 342 322 37 38 133 128 
420 93 98 99 94 319 339 343 323 
421 319 339 343 323 320 340 344 324 
422 320 340 344 324 321 341 345 325 
423 321 341 345 325 322 342 346 326 
424 322 342 346 326 128 133 134 129 
425 94 99 100 95 323 343 347 327 
426 323 343 347 327 324 344 348 328 
427 324 344 348 328 325 345 349 329 
428 325 345 349 329 326 346 350 330 
429 326 346 350 330 129 134 135 130 
430 95 100 101 96 327 347 351 331 
431 327 347 351 331 328 348 352 332 
432 328 348 352 332 329 349 353 333 
433 329 349 353 333 330 350 354 334 
434 330 350 354 334 130 135 136 131 
435 96 101 102 97 331 351 355 335 
436 331 351 355 335 332 352 356 336 
437 332 352 356 336 333 353 357 337 
438 333 353 357 337 334 354 358 338 
439 334 354 358 338 131 136 137 132 
440 97 102 22 23 335 355 195 199 
441 335 355 195 199 336 356 196 200 
442 336 356 196 200 337 357 197 201 
443 337 357 197 201 338 358 198 202 
444 338 358 198 202 132 137 46 47 
445 14 15 103 98 163 167 359 339 
446 163 167 359 339 164 168 360 340 
447 164 168 360 340 165 169 361 341 
448 165 169 361 341 166 170 362 342 
449 166 170 362 342 38 39 138 133 
450 98 103 104 99 339 359 363 343 
451 339 359 363 343 340 360 364 344 
452 340 360 364 344 341 361 365 345 
453 341 361 365 345 342 362 366 346 
454 342 362 366 346 133 138 139 134 
455 99 104 105 100 343 363 367 347 
456 343 363 367 347 344 364 368 348 
457 344 364 368 348 345 365 369 349 
458 345 365 369 349 346 366 370 350 
459 346 366 370 350 134 139 140 135 
460 100 105 106 101 347 367 371 351 
461 347 367 371 351 348 368 372 352 
462 348 368 372 352 349 369 373 353 
463 349 369 373 353 350 370 374 354 
464 350 370 374 354 135 140 141 136 
465 101 106 107 102 351 371 375 355 
466 351 371 375 355 352 372 376 356 
467 352 372 376 356 353 373 377 357 
468 353 373 377 357 354 374 378 358 
469 354 374 378 358 136 141 142 137 
470 102 107 21 22 355 375 191 195 
471 355 375 191 195 356 376 192 196 
472 356 376 192 196 357 377 193 197 
473 357 377 193 197 358 378 194 198 
474 358 378 194 198 137 142 45 46 
475 15 2 16 103 167 61 171 359 
476 167 61 171 359 168 62 172 360 
477 168 62 172 360 169 63 173 361 
478 169 63 173 361 170 64 174 362 
479 170 64 174 362 39 6 40 138 
480 103 16 17 104 359 171 175 363 
481 359 171 175 363 360 172 176 364 
482 360 172 176 364 361 173 177 365 
483 361 173 177 365 362 174 178 366 
484 362 174 178 366 138 40 41 139 
485 104 17 18 105 363 175 179 367 
486 363 175 179 367 364 176 180 368 
487 364 176 180 368 365 177 181 369 
488 365 177 181 369 366 178 182 370 
489 366 178 182 370 139 41 42 140 
490 105 18 19 106 367 179 183 371 
491 367 179 183 371 368 180 184 372 
492 368 180 184 372 369 181 185 373 
493 369 181 185 373 370 182 186 374 
494 370 182 186 374 140 42 43 141 
495 106 19 20 107 371 183 187 375 
496 371 183 187 375 372 184 188 376 
497 372 184 188 376 373 185 189 377 
498 373 185 189 377 374 186 190 378 
499 374 186 190 378 141 43 44 142 
500 107 20 3 21 375 187 65 191 
501 375 187 65 191 376 188 66 192 
502 376 188 66 192 377 189 67 193 
503 377 189 67 193 378 190 68 194 
504 378 190 68 194 142 44 7 45 
$EndElements
